<svg width="81" height="80" viewBox="0 0 81 80" fill="none" xmlns="http://www.w3.org/2000/svg">
<g clip-path="url(#clip0_1502_34037)">
<path d="M37.9911 73.0911L72.7204 52.9686L45.2957 34.8496L7.88281 54.9789L37.9911 73.0911Z" fill="white" stroke="#21409A" stroke-width="2"/>
<path d="M37.9911 67.0531L72.7204 46.9306L45.2957 28.8184L7.88281 48.9408L37.9911 67.0531Z" fill="#85B6FF" stroke="#21409A" stroke-width="2"/>
<path d="M37.9911 61.016L72.7204 40.8935L45.2957 22.7812L7.88281 42.9037L37.9911 61.016Z" fill="white" stroke="#21409A" stroke-width="2"/>
<path d="M46.6097 16.2089C46.6097 19.8368 44.3095 22.7743 41.4684 22.7743C38.6274 22.7743 36.3271 19.8368 36.3271 16.2089C36.3271 12.581 38.6274 9.64355 41.4684 9.64355C44.3095 9.64355 46.6097 12.581 46.6097 16.2089Z" fill="white" stroke="#21409A" stroke-width="2"/>
<path d="M49.5325 22.9297H35.9639C39.8934 22.9297 43.0836 26.077 43.0836 29.9688V43.5733H56.6522V29.9688C56.6522 26.0838 53.4689 22.9297 49.5393 22.9297H49.5325Z" fill="white"/>
<path d="M35.9643 22.9297H33.4039C29.4744 22.9297 26.291 26.077 26.291 29.9688V43.5733H43.084V29.9688C43.084 26.0838 39.9007 22.9297 35.9643 22.9297Z" fill="#FFAC11"/>
<path d="M33.4108 43.5733H26.2979V29.9688C26.2979 26.077 29.4812 22.9297 33.4108 22.9297H49.5397C53.4693 22.9297 56.6526 26.0838 56.6526 29.9688V43.5733H49.5397M33.4108 43.5733V33.7253M33.4108 43.5733H49.5397M49.5397 43.5733V33.7253" stroke="#21409A" stroke-width="2"/>
<path d="M24.2583 19.1934H21.2324" stroke="#21409A" stroke-width="2"/>
<path d="M18.8364 19.1934H15.8105" stroke="#21409A" stroke-width="2"/>
<path d="M20.0342 15.0176V18.0092" stroke="#21409A" stroke-width="2"/>
<path d="M20.0342 20.3779V23.3696" stroke="#21409A" stroke-width="2"/>
<path d="M62.0062 9.21774C62.0062 10.5714 60.8972 11.6679 59.528 11.6679C58.1588 11.6679 57.0498 10.5714 57.0498 9.21774C57.0498 7.86406 58.1588 6.76758 59.528 6.76758C60.8972 6.76758 62.0062 7.86406 62.0062 9.21774Z" fill="#FCFCFC" stroke="#85B6FF" stroke-width="2"/>
</g>
<defs>
<clipPath id="clip0_1502_34037">
<rect width="70" height="70" fill="white" transform="translate(5.25 5)"/>
</clipPath>
</defs>
</svg>
