<svg width="81" height="80" viewBox="0 0 81 80" fill="none" xmlns="http://www.w3.org/2000/svg">
<g clip-path="url(#clip0_1502_34285)">
<path d="M11.4785 17.9463V58.8018C11.4785 62.4859 14.5321 65.4742 18.2967 65.4742H29.7303V17.9463H11.4785Z" fill="#85B6FF"/>
<path d="M70.0277 17.9463H29.7305V65.4742H70.0277V17.9463Z" fill="white"/>
<path d="M11.6592 17.9463V59.0218C11.6592 62.7257 14.6936 65.7301 18.4346 65.7301H69.841V17.9463H11.6592Z" stroke="#21409A" stroke-width="2"/>
<path d="M11.4785 17.3315V59.605C11.4785 55.8972 13.7338 52.7387 16.9098 51.467V9.1875C13.7338 10.4652 11.4785 13.6237 11.4785 17.3315Z" fill="#85B6FF"/>
<path d="M20.0104 8.58398C18.9148 8.58398 17.8717 8.8049 16.9043 9.18702V51.4605C17.8658 51.0724 18.9148 50.8575 20.0104 50.8575H24.0954V8.58398H20.0104Z" fill="white"/>
<path d="M20.01 8.58398C15.3014 8.58398 11.4785 12.5007 11.4785 17.331V59.6045C11.4785 54.7742 15.3014 50.8575 20.01 50.8575H24.0951V8.58398H20.01Z" stroke="#21409A" stroke-width="2"/>
<path d="M60.4006 72.4833L54.7013 67.9934L49.002 72.4833V63.4975V54.5176H54.7013H60.4006V63.4975V72.4833Z" fill="#FFAC11" stroke="#21409A" stroke-width="2"/>
<path d="M48.4713 9.88672H45.9014" stroke="#21409A" stroke-width="2"/>
<path d="M43.8619 9.88672H41.2861" stroke="#21409A" stroke-width="2"/>
<path d="M44.8818 6.20312V8.84216" stroke="#21409A" stroke-width="2"/>
<path d="M44.8818 10.9316V13.5647" stroke="#21409A" stroke-width="2"/>
<path d="M37.3064 58.1001C38.5133 58.1001 39.4917 57.0976 39.4917 55.8611C39.4917 54.6245 38.5133 53.6221 37.3064 53.6221C36.0995 53.6221 35.1211 54.6245 35.1211 55.8611C35.1211 57.0976 36.0995 58.1001 37.3064 58.1001Z" fill="white" stroke="#85B6FF" stroke-width="2"/>
<path d="M32.7842 28.043H60.0336" stroke="#85B6FF" stroke-width="2"/>
<path d="M32.7842 34.0137H60.0336" stroke="#85B6FF" stroke-width="2"/>
<path d="M32.7842 39.9844H60.0336" stroke="#85B6FF" stroke-width="2"/>
<path d="M32.7842 45.9551H60.0336" stroke="#85B6FF" stroke-width="2"/>
</g>
<defs>
<clipPath id="clip0_1502_34285">
<rect width="60" height="68" fill="white" transform="translate(10.75 6)"/>
</clipPath>
</defs>
</svg>
