<svg width="40" height="40" viewBox="0 0 40 40" fill="none" xmlns="http://www.w3.org/2000/svg">
<path d="M20.0025 3.4209C10.8431 3.4209 3.4209 10.8421 3.4209 20.0003C3.4209 29.1584 10.8431 36.5796 20.0025 36.5796C29.1618 36.5796 36.584 29.1584 36.584 20.0003C36.584 10.8421 29.157 3.4209 20.0025 3.4209ZM20.0025 26.632C16.3368 26.632 13.3698 23.6607 13.3698 20.0003C13.3698 16.3399 16.3416 13.3685 20.0025 13.3685C23.6633 13.3685 26.6351 16.3399 26.6351 20.0003C26.6351 23.6607 23.6633 26.632 20.0025 26.632Z" fill="white" stroke="black" stroke-width="2" stroke-linecap="round" stroke-linejoin="round"/>
<path d="M20.0023 3.4207V13.3635C23.668 13.3635 26.635 16.3349 26.635 19.9953C26.635 20.8278 26.4771 21.6221 26.1947 22.3542L35.4785 25.8902C36.1772 24.0576 36.5791 22.0719 36.5791 19.9905C36.5791 10.8324 29.1569 3.41113 19.9976 3.41113L20.0023 3.4207Z" fill="#FFAC11" stroke="black" stroke-width="2" stroke-linecap="round" stroke-linejoin="round"/>
<path d="M26.1948 22.3594C25.654 23.7709 24.6491 24.9527 23.3618 25.7087L28.4009 34.2688C31.6167 32.3692 34.1291 29.4265 35.4786 25.8954L26.1948 22.3594Z" fill="white" stroke="black" stroke-width="2" stroke-linecap="round" stroke-linejoin="round"/>
</svg>
