<svg width="20" height="20" viewBox="0 0 20 20" fill="none" xmlns="http://www.w3.org/2000/svg">
<g id="menu-arrow-default">
<path id="Union" fill-rule="evenodd" clip-rule="evenodd" d="M9.6959 14.1814C9.38348 14.4938 9.38348 15.0004 9.6959 15.3128C10.0083 15.6252 10.5148 15.6252 10.8273 15.3128L15.7007 10.4393C16.0131 10.1269 16.0131 9.62038 15.7007 9.30796L10.8273 4.43451C10.5148 4.12209 10.0083 4.12209 9.6959 4.43451C9.38348 4.74693 9.38348 5.25346 9.6959 5.56588L13.3302 9.20018H3.99995C3.55812 9.20018 3.19995 9.55836 3.19995 10.0002C3.19995 10.442 3.55812 10.8002 3.99995 10.8002H13.0771L9.6959 14.1814ZM14 9.87736L14.0037 9.87365L14 9.86993V9.87736Z" fill="#B9BDC6"/>
</g>
</svg>
