<svg width="153" height="112" viewBox="0 0 153 112" fill="none" xmlns="http://www.w3.org/2000/svg">
<g id="Layer_1">
<path id="Vector" d="M101.76 2.75H11.24C6.13689 2.75 2 6.88689 2 11.99V73.01C2 78.1131 6.13689 82.25 11.24 82.25H101.76C106.863 82.25 111 78.1131 111 73.01V11.99C111 6.88689 106.863 2.75 101.76 2.75Z" fill="white" stroke="black" stroke-width="3" stroke-miterlimit="10"/>
<path id="Vector_2" d="M57 83.25V101.25" stroke="black" stroke-width="3" stroke-miterlimit="10"/>
<path id="Vector_3" d="M32 100.25H81" stroke="black" stroke-width="3" stroke-miterlimit="10" stroke-linecap="round"/>
<path id="Vector_4" d="M4 68.25H110" stroke="black" stroke-width="3" stroke-miterlimit="10" stroke-linecap="round"/>
<g id="Group 678">
<g id="Group">
<path id="Vector_5" d="M51.0498 45C52.1544 45 53.0498 44.1046 53.0498 43C53.0498 41.8954 52.1544 41 51.0498 41C49.9452 41 49.0498 41.8954 49.0498 43C49.0498 44.1046 49.9452 45 51.0498 45Z" fill="black"/>
<path id="Vector_6" d="M51.0498 35C52.1544 35 53.0498 34.1046 53.0498 33C53.0498 31.8954 52.1544 31 51.0498 31C49.9452 31 49.0498 31.8954 49.0498 33C49.0498 34.1046 49.9452 35 51.0498 35Z" fill="black"/>
</g>
<g id="Group_2">
<path id="Vector_7" d="M62.8799 46C60.8799 44.7478 58.8799 42.1391 58.8799 38" stroke="black" stroke-width="2.6" stroke-miterlimit="10" stroke-linecap="round"/>
<path id="Vector_8" d="M62.8799 30C60.8799 31.2522 58.8799 33.8609 58.8799 38" stroke="black" stroke-width="2.6" stroke-miterlimit="10" stroke-linecap="round"/>
</g>
</g>
<g id="Group_3">
<path id="Vector_9" d="M105.195 42.8651L72.8876 98.8296C70.1822 103.51 73.559 109.355 78.96 109.355H143.584C148.985 109.355 152.361 103.51 149.656 98.8296L117.349 42.8651C114.644 38.1849 107.9 38.1849 105.195 42.8651Z" fill="#FFAC11" stroke="black" stroke-width="3" stroke-miterlimit="10"/>
<path id="Vector_10" d="M111.049 95.038C112.413 95.038 113.518 93.9328 113.518 92.5695C113.518 91.2062 112.413 90.1011 111.049 90.1011C109.686 90.1011 108.581 91.2062 108.581 92.5695C108.581 93.9328 109.686 95.038 111.049 95.038Z" fill="white"/>
<path id="Vector_11" d="M113.518 68.8727C113.518 67.5095 112.413 66.4043 111.049 66.4043C109.686 66.4043 108.581 67.5095 108.581 68.8727V84.0092C108.581 85.3725 109.686 86.4776 111.049 86.4776C112.413 86.4776 113.518 85.3725 113.518 84.0092V68.8727Z" fill="white"/>
</g>
</g>
</svg>
