<svg width="52" height="62" viewBox="0 0 52 62" fill="none" xmlns="http://www.w3.org/2000/svg">
<g id="Group 558">
<path id="Vector" d="M23.2327 26.4193L16.4252 14.3348L9.29889 1.69238L1.91748 14.3348L12.2004 32.5891" stroke="white" stroke-width="3" stroke-linecap="round" stroke-linejoin="round"/>
<path id="Vector_2" d="M39.1277 33.6413L50.0005 14.3348L42.6191 1.69238L35.4928 14.3348L28.5737 26.6106" stroke="white" stroke-width="3" stroke-linecap="round" stroke-linejoin="round"/>
<path id="Vector_3" d="M16.4253 14.335H35.4926" stroke="white" stroke-width="3" stroke-linecap="round" stroke-linejoin="round"/>
<path id="Vector_4" d="M42.6188 1.69238H9.29883" stroke="white" stroke-width="3" stroke-linecap="round" stroke-linejoin="round"/>
<path id="Vector_5" d="M39.1273 33.6415C36.704 30.0704 32.9416 27.5036 28.5733 26.6268C27.5052 26.4195 26.4052 26.292 25.2892 26.292C24.6036 26.292 23.9181 26.3398 23.2485 26.4355C18.7846 26.9775 14.8787 29.2732 12.2163 32.6052C9.93649 35.459 8.56543 39.0779 8.56543 43.0317C8.56543 52.2624 16.0584 59.7554 25.2892 59.7554C34.5199 59.7554 42.0129 52.2624 42.0129 43.0317C42.0129 39.5562 40.9448 36.3199 39.1273 33.6575V33.6415Z" stroke="#FFAC11" stroke-width="3" stroke-linecap="round" stroke-linejoin="round"/>
</g>
</svg>
