<svg width="20" height="20" viewBox="0 0 20 20" fill="none" xmlns="http://www.w3.org/2000/svg">
<g id="mi:download">
<path id="Vector" d="M10.0001 3.33398C10.1935 3.33398 10.3789 3.41203 10.5157 3.55094C10.6524 3.68986 10.7292 3.87827 10.7292 4.07473V10.4347L12.4012 8.73621C12.5387 8.60127 12.7229 8.52661 12.9141 8.5283C13.1053 8.52999 13.2882 8.60789 13.4234 8.74523C13.5586 8.88257 13.6353 9.06836 13.6369 9.26258C13.6386 9.4568 13.5651 9.64391 13.4323 9.78361L10.5156 12.7466C10.3789 12.8854 10.1934 12.9635 10.0001 12.9635C9.80673 12.9635 9.6213 12.8854 9.48456 12.7466L6.56789 9.78361C6.49825 9.71528 6.4427 9.63355 6.40449 9.54317C6.36627 9.4528 6.34616 9.3556 6.34532 9.25724C6.34447 9.15889 6.36292 9.06135 6.39959 8.97031C6.43625 8.87928 6.49039 8.79658 6.55886 8.72703C6.62732 8.65747 6.70873 8.60247 6.79834 8.56523C6.88796 8.52798 6.98397 8.50924 7.08079 8.51009C7.17761 8.51095 7.27329 8.53138 7.36225 8.57021C7.45121 8.60903 7.53167 8.66546 7.59894 8.73621L9.27091 10.4347V4.07473C9.27091 3.87827 9.34774 3.68986 9.48448 3.55094C9.62123 3.41203 9.80669 3.33398 10.0001 3.33398ZM4.89591 12.9636C5.0893 12.9636 5.27477 13.0417 5.41151 13.1806C5.54826 13.3195 5.62508 13.5079 5.62508 13.7044V15.1858H14.3751V13.7044C14.3751 13.5079 14.4519 13.3195 14.5886 13.1806C14.7254 13.0417 14.9109 12.9636 15.1042 12.9636C15.2976 12.9636 15.4831 13.0417 15.6198 13.1806C15.7566 13.3195 15.8334 13.5079 15.8334 13.7044V15.1858C15.8334 15.5787 15.6798 15.9556 15.4063 16.2334C15.1328 16.5112 14.7619 16.6673 14.3751 16.6673H5.62508C5.23831 16.6673 4.86737 16.5112 4.59388 16.2334C4.32039 15.9556 4.16675 15.5787 4.16675 15.1858V13.7044C4.16675 13.5079 4.24357 13.3195 4.38032 13.1806C4.51706 13.0417 4.70253 12.9636 4.89591 12.9636Z" fill="#252F3E"/>
</g>
</svg>
