<svg width="25" height="24" viewBox="0 0 25 24" fill="none" xmlns="http://www.w3.org/2000/svg">
<g id="Frame 3466271">
<path id="Vector" d="M4.54514 9.12458V2.90236C4.54514 1.85522 5.4104 1 6.47743 1C7.54446 1 8.40971 1.85185 8.40971 2.90236V3.25253L15.3865 7.82828H20.8789C21.775 7.82828 22.5 8.54209 22.5 9.42424V13.2761C22.5 14.0707 21.9083 14.7273 21.1354 14.8519V19.7071C21.1354 20.9731 20.0889 22 18.8064 22C17.5239 22 16.4774 20.9697 16.4774 19.7071V14.8754H15.3865L8.40971 19.4512V19.8013C8.40971 20.8519 7.54446 21.7037 6.47743 21.7037C5.4104 21.7037 4.54514 20.8519 4.54514 19.8013V13.5791C3.39603 13.468 2.5 12.5118 2.5 11.3535C2.5 10.1953 3.39603 9.23906 4.54514 9.12795V9.12458ZM17.6129 19.7037C17.6129 20.3502 18.1464 20.8788 18.8064 20.8788C19.4665 20.8788 20 20.3535 20 19.7037V14.8721H17.6129V19.7037ZM5.68057 19.798C5.68057 20.229 6.03625 20.5825 6.47743 20.5825C6.9186 20.5825 7.27428 20.2323 7.27428 19.798V2.90236C7.27428 2.47138 6.9186 2.11785 6.47743 2.11785C6.03625 2.11785 5.68057 2.46801 5.68057 2.90236V19.798Z" fill="#252F3E"/>
</g>
</svg>
