<svg width="22" height="22" viewBox="0 0 22 22" fill="none" xmlns="http://www.w3.org/2000/svg">
<g id="fluent:arrow-up-12-regular">
<path id="Vector" d="M1 11C1 11.2817 1.11705 11.552 1.3254 11.7512C1.53376 11.9504 1.81634 12.0623 2.111 12.0623L17.2051 12.0623L11.3234 17.6842C11.1148 17.8837 10.9976 18.1542 10.9976 18.4363C10.9976 18.7184 11.1148 18.989 11.3234 19.1885C11.532 19.3879 11.815 19.5 12.11 19.5C12.405 19.5 12.688 19.3879 12.8966 19.1885L20.6736 11.7521C20.7771 11.6534 20.8592 11.5362 20.9152 11.4072C20.9712 11.2781 21 11.1397 21 11C21 10.8603 20.9712 10.7219 20.9152 10.5928C20.8592 10.4638 20.7771 10.3465 20.6736 10.2479L12.8966 2.81154C12.7933 2.71277 12.6707 2.63442 12.5357 2.58097C12.4007 2.52751 12.2561 2.5 12.11 2.5C11.815 2.5 11.532 2.61206 11.3234 2.81154C11.1148 3.01102 10.9976 3.28157 10.9976 3.56367C10.9976 3.84578 11.1148 4.11633 11.3234 4.31581L17.2051 9.93767L2.111 9.93767C1.81634 9.93767 1.53376 10.0496 1.3254 10.2488C1.11705 10.448 1 10.7183 1 11Z" fill="#1D1D1D"/>
</g>
</svg>
