<svg width="209" height="16" viewBox="0 0 209 16" fill="none" xmlns="http://www.w3.org/2000/svg">
<g id="LOGO">
<path id="Vector" d="M33.5033 0.426025H25.9198C22.3737 0.426025 20.7645 2.71886 20.323 4.3566L17.3181 15.5716H18.4859C20.1094 15.5716 21.2914 15.0802 21.562 14.1617C22.1886 11.8261 23.4347 7.18348 24.0613 4.8408C24.3106 3.92936 25.2291 3.44516 25.8628 3.44516C27.9065 3.44516 31.424 3.44516 31.424 3.44516C32.3853 3.44516 33.5745 3.60181 33.0404 5.38197C32.7413 6.43582 31.7943 6.96986 30.1993 6.96986H27.7071C26.0693 6.96986 24.8731 7.47542 24.6167 8.41534L24.1895 9.99612H29.594C32.9265 9.99612 35.8602 9.29118 36.9425 5.26804C37.8539 1.86439 36.2447 0.426025 33.5104 0.426025H33.5033Z" fill="white"/>
<path id="Vector_2" d="M48.0842 0H47.3081C42.936 0 38.6067 2.89809 37.4817 7.12061L37.0117 8.8794C35.8795 13.1019 38.6494 16 43.0215 16H43.7976C48.9173 16 52.499 13.1019 53.6312 8.8794L54.1012 7.12061C55.2333 2.89809 52.4634 0 48.0842 0ZM50.0068 7.74722L49.8359 8.36671C49.017 11.4072 46.5889 13.0521 44.5951 13.0521H43.8404C41.8466 13.0521 40.2943 11.4072 41.1132 8.36671L41.2769 7.74722C42.0887 4.70672 44.5239 3.06186 46.5177 3.06186H47.2725C49.2663 3.06186 50.8186 4.70672 50.0068 7.74722Z" fill="white"/>
<path id="Vector_3" d="M13.4651 6.35086H8.20294C6.77882 6.35086 6.10948 6.07316 6.47263 4.84842C6.7717 3.79457 7.66889 3.4599 9.26391 3.4599H15.9074C17.5452 3.4599 18.7414 2.95434 18.9978 2.01442L19.425 0.433643H9.86916C6.54384 0.426522 3.58879 1.19555 2.57766 4.96235C1.87272 7.57561 3.15443 9.38424 6.12372 9.37H11.3787C12.8456 9.37 13.4579 9.68331 13.0877 10.9579C12.7886 12.0117 11.8416 12.5458 10.2394 12.5458H3.51758C1.87984 12.5458 0.683578 13.0514 0.427236 13.9913L0 15.5792H9.63418C13.2372 15.5792 15.943 14.7247 16.9826 10.8511C17.8015 7.79635 16.0641 6.35086 13.4651 6.35086Z" fill="white"/>
<path id="Vector_4" d="M65.3169 4.19639C65.2956 6.25424 65.4593 8.66813 65.6374 10.1706C65.7086 10.8684 66.1928 10.669 66.4277 10.1279C67.5172 7.55019 68.6707 3.71219 69.3258 1.53328C69.5466 0.792739 70.4936 0.272935 71.4193 0.393985C72.2168 0.493674 72.8576 1.03484 72.6084 1.91067C71.4549 5.82701 68.5283 12.8764 67.3463 14.3005C66.8906 14.8631 65.9863 15.6178 64.7473 15.6178C63.5083 15.6178 63.0241 14.8203 62.9244 14.2364C62.7678 13.3962 62.6325 11.6588 62.5399 9.84303C61.5359 11.6588 60.5604 13.2823 59.9551 14.2222C59.5706 14.799 58.6734 15.6178 57.4771 15.6178C56.3592 15.6178 55.6044 14.9556 55.4905 14.2578C55.1416 12.7411 55.519 5.40689 56.0388 1.9534C56.167 1.01348 57.1781 0.472312 57.9969 0.393985C58.8941 0.315658 59.6489 0.671689 59.535 1.61161C59.3427 3.20662 58.6805 7.64276 58.5167 10.4412C58.4883 10.9823 58.8657 10.961 59.1576 10.4412C60.4251 8.1056 62.2622 3.86884 62.8674 2.03172C63.1807 1.07044 64.0566 0.750015 64.8399 0.750015C65.851 0.792739 66.1856 1.52616 66.029 2.16702C65.8652 2.76515 65.6089 3.46297 65.3169 4.18215V4.19639Z" fill="white"/>
<path id="Vector_5" d="M81.9582 12.9482C81.9867 13.8881 81.2105 14.6286 80.4985 14.9277C79.1384 15.5045 77.1945 15.6255 75.8914 15.6255C74.5172 15.6255 72.9577 15.3692 72.1958 14.9846C71.6832 14.7212 71.0138 14.1871 71.0637 13.2259C71.1491 11.5668 73.2924 3.21429 73.8407 1.85426C74.1682 1.01402 75.1367 0.394531 75.6921 0.394531H83.3182C83.9804 0.394531 84.5287 0.992662 84.2724 2.05363C84.0659 2.91523 83.3609 3.73409 82.4638 3.73409H77.1091C76.6889 3.73409 76.575 4.11149 76.5536 4.21118C76.0125 6.00557 75.0726 9.52315 74.7237 11.3603C74.6382 11.7804 74.802 12.0225 75.1651 12.0794C75.6209 12.1791 76.1905 12.2219 76.81 12.2219C77.9493 12.2219 79.1527 12.1222 80.2635 11.8231C81.1393 11.581 81.9226 11.9798 81.9439 12.941L81.9582 12.9482ZM77.1233 9.4377C76.5252 9.4377 76.0837 8.71852 76.3116 7.7786C76.518 6.91701 77.344 6.08389 77.9635 6.08389H81.8371C82.3783 6.08389 82.9266 6.70339 82.6703 7.74299C82.4638 8.60459 81.7374 9.4377 80.9969 9.4377H77.1233Z" fill="white"/>
<path id="Vector_6" d="M87.1848 11.4095C87.0993 11.7727 87.2346 12.029 87.5551 12.086C88.0108 12.1857 88.6018 12.2284 89.2355 12.2284C90.3962 12.2284 91.3859 12.086 92.1906 11.8083C93.045 11.5092 94.0562 11.851 93.9992 12.9903C93.9992 13.8305 93.4723 14.5711 92.7745 14.9057C91.4643 15.5252 89.6414 15.6249 88.3454 15.6249C86.9498 15.6249 85.5613 15.4042 84.6285 14.9841C84.1087 14.742 83.4465 14.1866 83.5034 13.2253C83.5889 11.5662 85.839 2.93599 86.4015 1.45491C86.7148 0.678761 87.7758 0.258646 88.6303 0.415299C89.6485 0.571952 89.8621 1.33386 89.6984 1.8323C89.321 2.9716 87.6619 8.94579 87.1777 11.4024L87.1848 11.4095Z" fill="white"/>
<path id="Vector_7" d="M98.6904 11.0267C98.6049 11.3899 98.7402 11.6462 99.0607 11.7032C99.5164 11.8028 100.107 11.8456 100.741 11.8456C101.902 11.8456 102.892 11.7032 103.696 11.4255C104.551 11.1264 105.562 11.4682 105.505 12.6075C105.505 13.4477 104.978 14.1882 104.28 14.5229C102.97 15.1424 101.147 15.2421 99.8511 15.2421C98.4554 15.2421 97.0669 15.0214 96.1341 14.6012C95.6143 14.3591 94.9521 13.8037 95.0019 12.8425C95.0874 11.1834 97.3375 2.55318 97.9 1.07209C98.2133 0.295949 99.2743 -0.124167 100.129 0.0324864C101.147 0.18914 101.361 0.951045 101.197 1.44949C100.819 2.58878 99.1603 8.56297 98.6761 11.0196L98.6904 11.0267Z" fill="white"/>
<path id="Vector_8" d="M208.043 0.473389V11.8886H206.174V10.5702H203.22V9.26845H206.174V0.473389H208.043ZM208.393 13.7411V15.2431H197.329V10.7871H199.181V13.7411H208.393ZM195.326 7.24909C198.113 7.2324 201.851 7.19902 205.056 6.79849L205.156 8.1336C203.912 8.34221 202.627 8.48407 201.351 8.56751V11.4714H199.498V8.66765C198.088 8.72606 196.744 8.7344 195.56 8.7344L195.326 7.24909ZM200.249 1.02412C202.452 1.02412 203.987 2.1089 204.004 3.69435C203.987 5.31318 202.452 6.34789 200.249 6.34789C198.013 6.34789 196.477 5.31318 196.477 3.69435C196.477 2.1089 198.013 1.02412 200.249 1.02412ZM200.249 2.39261C199.048 2.39261 198.23 2.87659 198.23 3.69435C198.23 4.51211 199.048 4.99609 200.249 4.99609C201.401 4.99609 202.218 4.51211 202.235 3.69435C202.218 2.87659 201.401 2.39261 200.249 2.39261Z" fill="white"/>
<path id="Vector_9" d="M186.655 4.74608C186.655 7.21604 188.107 9.81951 190.544 10.8375L189.526 12.3062C187.74 11.5385 186.438 9.95303 185.754 8.0338C185.053 10.1032 183.735 11.8389 181.966 12.6733L180.898 11.2214C183.284 10.1199 184.77 7.31618 184.77 4.74608V3.47773H181.448V1.94235H189.96V3.47773H186.655V4.74608ZM193.515 0.457031V15.5438H191.645V0.457031H193.515Z" fill="white"/>
<path id="Vector_10" d="M172.23 4.74608C172.23 7.21604 173.682 9.81951 176.118 10.8375L175.1 12.3062C173.315 11.5385 172.013 9.95303 171.329 8.0338C170.628 10.1032 169.309 11.8389 167.54 12.6733L166.472 11.2214C168.859 10.1199 170.344 7.31618 170.344 4.74608V3.47773H167.023V1.94235H175.534V3.47773H172.23V4.74608ZM179.089 0.457031V15.5438H177.22V0.457031H179.089Z" fill="white"/>
<path id="Vector_11" d="M165.863 8.05052V9.53583H152.111V8.05052H158.035V6.59858H153.897V0.824219H155.732V2.32622H162.241V0.824219H164.077V6.59858H159.905V8.05052H165.863ZM164.177 10.7374V15.5438H162.324V12.2061H153.63V10.7374H164.177ZM155.732 5.11327H162.241V3.7114H155.732V5.11327Z" fill="white"/>
<path id="Vector_12" d="M150.248 0.473389V11.3713H148.379V0.473389H150.248ZM150.666 13.7411V15.2431H140.268V10.2698H142.138V13.7411H150.666ZM142.021 1.45803C144.307 1.45803 146.076 3.04348 146.076 5.22973C146.076 7.46605 144.307 9.01812 142.021 9.01812C139.718 9.01812 137.949 7.46605 137.949 5.22973C137.949 3.04348 139.718 1.45803 142.021 1.45803ZM142.021 3.07686C140.736 3.07686 139.751 3.92799 139.768 5.22973C139.751 6.56484 140.736 7.39929 142.021 7.39929C143.272 7.39929 144.257 6.56484 144.257 5.22973C144.257 3.92799 143.272 3.07686 142.021 3.07686Z" fill="white"/>
<path id="Vector_13" d="M136.661 7.53637V9.02169H133.223V10.5904H134.975V15.497H133.123V12.0424H124.428V10.5904H126.297V9.02169H122.909V7.53637H136.661ZM129.768 0.727295C133.073 0.727295 135.192 1.84545 135.209 3.66454C135.192 5.50033 133.073 6.61848 129.768 6.61848C126.464 6.61848 124.328 5.50033 124.328 3.66454C124.328 1.84545 126.464 0.727295 129.768 0.727295ZM129.768 2.17923C127.565 2.17923 126.247 2.71328 126.264 3.66454C126.247 4.64919 127.565 5.18324 129.768 5.18324C131.971 5.18324 133.29 4.64919 133.29 3.66454C133.29 2.71328 131.971 2.17923 129.768 2.17923ZM128.15 10.5904H131.387V9.02169H128.15V10.5904Z" fill="white"/>
<path id="Vector_14" d="M113.433 5.06317C113.433 7.39962 114.401 9.75276 116.504 10.8876L115.469 12.2561C114.067 11.5134 113.116 10.1867 112.582 8.60122C112.048 10.3118 111.096 11.7721 109.678 12.6066L108.593 11.2047C110.729 9.96971 111.68 7.44969 111.68 5.06317V4.59588H109.11V3.09388H111.68V0.991077H113.433V3.09388H115.953V4.59588H113.433V5.06317ZM121.811 0.457031V15.5438H120.042V0.457031H121.811ZM118.74 0.740743V14.8095H116.988V7.78347H115.018V6.24809H116.988V0.740743H118.74Z" fill="white"/>
</g>
</svg>
