<svg width="160" height="161" viewBox="0 0 160 161" fill="none" xmlns="http://www.w3.org/2000/svg">
<g id="icon_error">
<g id="Group">
<path id="Vector" d="M36.666 79.832H83.3327M36.666 99.832H63.3327" stroke="black" stroke-width="3" stroke-linecap="round"/>
<path id="Vector_2" d="M16.666 35.832C16.666 30.232 16.666 27.432 17.7527 25.292C18.7117 23.4087 20.2427 21.8777 22.126 20.9187C24.2593 19.832 27.0593 19.832 32.666 19.832H63.3727C65.8193 19.832 67.0393 19.832 68.1927 20.1054C69.2238 20.3543 70.186 20.7543 71.0793 21.3054C72.0927 21.9254 72.9527 22.792 74.6793 24.5187L98.646 48.4787C100.379 50.212 101.246 51.0787 101.859 52.0787C102.41 52.9854 102.81 53.9498 103.059 54.972C103.333 56.1254 103.333 57.3454 103.333 59.792V117.165C103.333 122.765 103.333 125.565 102.246 127.705C101.287 129.589 99.756 131.12 97.8727 132.079C95.7393 133.165 92.9393 133.165 87.3327 133.165H32.666C27.066 133.165 24.266 133.165 22.126 132.079C20.2427 131.12 18.7117 129.589 17.7527 127.705C16.666 125.572 16.666 122.772 16.666 117.165V35.832Z" stroke="black" stroke-width="3"/>
<path id="Vector_3" d="M63.333 19.832V43.832C63.333 49.432 63.333 52.232 64.4263 54.372C65.3836 56.2543 66.9122 57.7852 68.793 58.7454C70.9263 59.832 73.7263 59.832 79.333 59.832H103.333" stroke="black" stroke-width="3"/>
</g>
<g id="Group_2">
<path id="Vector_4" d="M97.26 77.5101L64.953 133.475C62.2476 138.155 65.6245 144 71.0254 144H135.649C141.05 144 144.427 138.155 141.722 133.475L109.415 77.5101C106.709 72.83 99.9654 72.83 97.26 77.5101Z" fill="#FFAC11" stroke="black" stroke-width="3" stroke-miterlimit="10"/>
<path id="Vector_5" d="M103.115 129.683C104.478 129.683 105.583 128.578 105.583 127.215C105.583 125.851 104.478 124.746 103.115 124.746C101.752 124.746 100.646 125.851 100.646 127.215C100.646 128.578 101.752 129.683 103.115 129.683Z" fill="white"/>
<path id="Vector_6" d="M105.583 103.519C105.583 102.156 104.478 101.051 103.115 101.051C101.752 101.051 100.646 102.156 100.646 103.519V118.656C100.646 120.019 101.752 121.124 103.115 121.124C104.478 121.124 105.583 120.019 105.583 118.656V103.519Z" fill="white"/>
</g>
</g>
</svg>
