<svg width="126" height="16" viewBox="0 0 126 16" fill="none" xmlns="http://www.w3.org/2000/svg">
<g clip-path="url(#clip0_838_14667)">
<path d="M32.9786 6.27441H28.4781C26.3721 6.27441 25.4197 7.64159 25.1581 8.62974L23.374 15.3438H24.0649C25.024 15.3438 25.7282 15.046 25.8892 14.4978C26.2581 13.0967 27.0026 10.315 27.3715 8.92078C27.519 8.37932 28.0623 8.08829 28.4379 8.08829C29.6519 8.08829 31.7378 8.08829 31.7378 8.08829C32.3079 8.08829 33.0122 8.18304 32.6969 9.24565C32.5158 9.87509 31.9524 10.1932 31.0067 10.1932H29.5312C28.5586 10.1932 27.8477 10.4978 27.6934 11.0595L27.4385 12.0071H30.6445C32.6231 12.0071 34.3603 11.5874 35.0042 9.17797C35.5475 7.14074 34.5883 6.28118 32.9652 6.28118L32.9786 6.27441Z" fill="#00458B"/>
<path d="M41.6247 6.01709H41.1686C38.573 6.01709 36.0109 7.74975 35.3401 10.281L35.0584 11.3369C34.3877 13.8614 36.031 15.6008 38.6266 15.6008H39.0827C42.121 15.6008 44.2405 13.8682 44.9179 11.3369L45.1996 10.281C45.8703 7.74975 44.2271 6.01709 41.6314 6.01709H41.6247ZM42.7649 10.6533L42.6643 11.0256C42.1814 12.8462 40.7394 13.8343 39.5522 13.8343H39.1028C37.9224 13.8343 36.9968 12.8462 37.4864 11.0256L37.587 10.6533C38.0699 8.83266 39.512 7.8445 40.6991 7.8445H41.1485C42.329 7.8445 43.2545 8.83266 42.7716 10.6533H42.7649Z" fill="#00458B"/>
<path d="M14.266 5.08301H12.0527C11.1539 5.08301 10.4162 5.39434 10.0003 5.74629L4.65474 9.63123C5.084 8.0204 5.49984 6.44341 5.86202 5.08301H4.31939C3.36027 5.08301 2.66273 5.37404 2.49505 5.92226L0 15.3436H1.53593C2.50846 15.3436 3.21942 15.039 3.37368 14.4773C3.68221 13.3131 4.02427 12.0407 4.36634 10.748L7.45832 14.6465C7.76014 15.0255 8.0955 15.3368 9.18876 15.3368H11.5497L7.51868 10.2945L14.2728 5.08301H14.266Z" fill="#00458B"/>
<path d="M21.0877 9.82095H17.9689C17.1238 9.82095 16.728 9.65174 16.9427 8.92078C17.1238 8.29133 17.6536 8.08829 18.5993 8.08829H22.5431C23.5156 8.08829 24.2266 7.78372 24.3742 7.22196L24.6223 6.27441H18.9548C16.9829 6.27441 15.2256 6.73465 14.6287 8.98846C14.2129 10.5519 14.9708 11.6348 16.728 11.6281H19.8468C20.7188 11.6281 21.081 11.8176 20.8596 12.5756C20.6852 13.205 20.1218 13.5231 19.1694 13.5231H15.1787C14.2062 13.5231 13.4952 13.8277 13.3476 14.3895L13.0928 15.337H18.8072C20.9468 15.337 22.5498 14.8226 23.1669 12.5079C23.6498 10.6805 22.6236 9.81418 21.081 9.81418L21.0877 9.82095Z" fill="#00458B"/>
<path d="M49.7338 3.33022C49.5594 3.22869 49.4789 3.22869 49.3314 3.38436C48.7546 4.0138 47.7284 5.19147 47.2119 5.78707C47.9095 6.8023 48.4326 8.4402 48.1308 10.5383C48.0905 10.6805 48.1777 10.7752 48.3052 10.6466C49.6131 9.3133 51.0752 7.83783 52.3898 6.83614C51.8667 5.23208 50.713 3.89874 49.7338 3.33022Z" fill="#F29600"/>
<path d="M41.611 2.9849C41.5372 3.02551 41.5372 3.12703 41.611 3.12703C43.4689 3.08642 44.7097 3.51282 45.7426 4.27086C46.9163 3.30301 48.9083 1.78016 49.8742 1.27932C50.2565 1.18456 50.9339 1.10334 51.3967 1.08981C50.9943 1.52297 50.4309 2.15918 50.1022 2.5179C50.0217 2.61265 50.1022 2.69387 50.1961 2.65326C52.832 1.60419 56.3398 0.805543 59.2038 0.595729C52.6777 -0.778213 46.3663 0.277624 41.6043 2.9849H41.611Z" fill="#00458B"/>
<path d="M60.1566 0.825616C57.6146 1.13018 54.2141 2.26047 52.4769 3.16741C52.2355 3.296 52.2824 3.38399 52.4635 3.46521C53.0269 3.7224 54.033 4.34507 54.6031 5.23171C58.3323 2.98467 61.5114 1.87469 62.5846 1.50243C61.7797 1.23848 60.9346 1.00159 60.1566 0.818848V0.825616Z" fill="#009CE1"/>
<path d="M81.4978 6.61279H80.3174V15.7228H81.4978V6.61279Z" fill="#00458B"/>
<path d="M78.6138 9.68555H77.2656V10.5654H78.6138V15.7228H79.7942V6.61279H78.6138V9.68555Z" fill="#00458B"/>
<path d="M76.3539 8.85966V8.43326H77.8429V7.5534H76.3539V6.49756H75.1131V7.5534H73.6241V8.43326H75.1131V8.85966C75.1131 10.6735 74.4625 11.7226 73.376 12.704L74.0869 13.2996C74.7107 12.8461 75.4887 12.0475 75.7369 11.2014C75.9783 12.0272 76.7631 12.8461 77.3868 13.2996L78.0978 12.704C77.0112 11.7294 76.3606 10.6803 76.3606 8.85966H76.3539Z" fill="#00458B"/>
<path d="M101.834 9.04271C101.834 10.1053 102.779 10.7821 104.181 10.7821C105.583 10.7821 106.529 10.1053 106.529 9.04271C106.529 8.66369 106.408 8.33882 106.193 8.07486H107.488V7.195H104.798V6.38281H103.537V7.195H100.848V8.07486H102.162C101.948 8.33882 101.827 8.67046 101.827 9.04271H101.834ZM104.181 8.18992C104.798 8.18992 105.241 8.52156 105.241 9.04271C105.241 9.56386 104.805 9.8955 104.181 9.8955C103.557 9.8955 103.128 9.56386 103.128 9.04271C103.128 8.52156 103.564 8.18992 104.181 8.18992Z" fill="#00458B"/>
<path d="M108.38 11.1069H99.9629V11.9868H108.38V11.1069Z" fill="#00458B"/>
<path d="M104.181 12.332C102.605 12.332 101.579 13.0427 101.579 14.1662C101.579 15.2897 102.605 16.0004 104.181 16.0004C105.758 16.0004 106.784 15.2897 106.784 14.1662C106.784 13.0427 105.764 12.332 104.181 12.332ZM104.181 15.1205C103.403 15.1205 102.9 14.7483 102.9 14.1662C102.9 13.5841 103.403 13.2119 104.181 13.2119C104.959 13.2119 105.463 13.5841 105.463 14.1662C105.463 14.7483 104.959 15.1205 104.181 15.1205Z" fill="#00458B"/>
<path d="M86.696 10.2811C88.2185 10.2811 89.2044 9.48918 89.2044 8.24384C89.2044 6.99849 88.2185 6.21338 86.696 6.21338C85.1734 6.21338 84.1875 7.00526 84.1875 8.24384C84.1875 9.48241 85.1734 10.2811 86.696 10.2811ZM86.696 7.12032C87.4337 7.12032 87.91 7.56025 87.91 8.24384C87.91 8.92742 87.4337 9.37412 86.696 9.37412C85.9582 9.37412 85.482 8.93419 85.482 8.24384C85.482 7.55348 85.9582 7.12032 86.696 7.12032Z" fill="#00458B"/>
<path d="M82.4902 11.6143H84.6298V12.5754H83.5433V13.4553H88.2919C88.3657 13.4553 88.4193 13.5094 88.4193 13.5839V15.8106H89.6803V13.1913C89.6803 12.8597 89.4053 12.5822 89.0766 12.5822H88.7815V11.6211H90.9211V10.7412H82.5037V11.6211L82.4902 11.6143ZM85.884 11.6143H87.5139V12.5754H85.884V11.6143Z" fill="#00458B"/>
<path d="M98.9366 6.61279H97.6689V12.8734H98.9366V6.61279Z" fill="#00458B"/>
<path d="M94.1942 10.0847C94.9253 11.4248 96.4277 11.9324 96.4277 11.9324L96.9039 11.127C94.9588 10.3825 94.8448 8.23021 94.8381 7.86473H96.5283V6.98486H91.8668V7.86473H93.557C93.557 8.23021 93.4363 10.3825 91.4912 11.127L91.9674 11.9324C91.9674 11.9324 93.4698 11.4248 94.2009 10.0847H94.1942Z" fill="#00458B"/>
<path d="M94.6778 14.5723V12.481H93.4102V14.9717C93.4102 15.3101 93.6784 15.5808 94.0138 15.5808H99.0978V14.7009H94.8052C94.7382 14.7009 94.6778 14.64 94.6778 14.5723Z" fill="#00458B"/>
<path d="M112.867 11.98C111.291 11.98 110.271 12.7651 110.271 13.9901C110.271 15.2152 111.291 16.0071 112.867 16.0071C114.443 16.0071 115.463 15.2219 115.463 13.9901C115.463 12.7583 114.443 11.98 112.867 11.98ZM112.867 15.1272C112.069 15.1272 111.546 14.6805 111.546 13.9901C111.546 13.2998 112.069 12.8531 112.867 12.8531C113.665 12.8531 114.195 13.2998 114.195 13.9901C114.195 14.6805 113.672 15.1272 112.867 15.1272Z" fill="#00458B"/>
<path d="M115.865 8.10178V7.51295C115.865 7.17454 115.597 6.90381 115.261 6.90381H109.916V7.78367H114.476C114.544 7.78367 114.604 7.83782 114.604 7.91227V8.29806C114.604 9.63139 114.222 10.6263 114.222 10.6263H112.739V8.93427H111.478V10.6263H108.675V11.5062H117.099V10.6263H115.456C115.456 10.6263 115.885 9.60432 115.885 8.10855L115.865 8.10178Z" fill="#00458B"/>
<path d="M124.558 8.79222V6.61963H123.29V9.85482C122.499 10.4369 121.023 10.6196 119.554 10.6196H119.239C119.172 10.6196 119.112 10.5587 119.112 10.491V7.98004C119.112 7.90559 119.165 7.85144 119.239 7.85144H121.861V6.97158H118.454C118.119 6.97158 117.851 7.2423 117.851 7.58071V10.8904C117.851 11.2288 118.126 11.4995 118.454 11.4995H119.125C120.01 11.4995 122.23 11.5333 123.297 10.8294V12.8734H124.564V9.67208H126.006V8.79222H124.564H124.558Z" fill="#00458B"/>
<path d="M120.366 14.572V12.3994H119.111V14.9646C119.111 15.303 119.38 15.5737 119.715 15.5737H124.779V14.6938H120.486C120.419 14.6938 120.359 14.6329 120.359 14.5652L120.366 14.572Z" fill="#00458B"/>
<path d="M72.2082 6.61279H70.9473V12.8666H72.2082V6.61279Z" fill="#00458B"/>
<path d="M62.7917 7.64811V7.24879C62.7917 6.91038 62.5234 6.63965 62.1881 6.63965H56.8224V7.51951H61.4034C61.4704 7.51951 61.5308 7.57366 61.5308 7.64811V7.95945C61.5308 9.0965 61.2021 9.98313 61.2021 9.98313H55.6084V10.863H59.1833V12.2911H56.8693V13.171H61.3899C61.457 13.171 61.5174 13.2251 61.5174 13.2995V15.7835H62.7783V12.9002C62.7783 12.5618 62.51 12.2911 62.1747 12.2911H60.4442V10.863H64.0258V9.98313H62.4228C62.4228 9.98313 62.7917 8.98144 62.7917 7.65488V7.64811Z" fill="#00458B"/>
<path d="M67.8087 14.5721V12.4062H66.541V14.9714C66.541 15.3098 66.8093 15.5805 67.1447 15.5805H72.3561V14.7007H67.9294C67.8623 14.7007 67.802 14.6465 67.802 14.5721H67.8087Z" fill="#00458B"/>
<path d="M69.4783 10.6871V7.35035C69.4783 7.01194 69.2034 6.74121 68.8747 6.74121H65.548C65.2126 6.74121 64.9443 7.01194 64.9443 7.35035V10.6871C64.9443 11.0255 65.2126 11.2962 65.548 11.2962H68.8747C69.2101 11.2962 69.4783 11.0187 69.4783 10.6871ZM68.2107 10.2945C68.2107 10.3622 68.157 10.4231 68.0833 10.4231H66.3193C66.2522 10.4231 66.1919 10.369 66.1919 10.2945V7.74967C66.1919 7.68199 66.2455 7.62108 66.3193 7.62108H68.0833C68.1503 7.62108 68.2107 7.67522 68.2107 7.74967V10.2945Z" fill="#00458B"/>
</g>
<defs>
<clipPath id="clip0_838_14667">
<rect width="126" height="16" fill="white"/>
</clipPath>
</defs>
</svg>
