<svg width="209" height="16" viewBox="0 0 209 16" fill="none" xmlns="http://www.w3.org/2000/svg">
<g id="LOGO">
<path id="Vector" d="M33.5035 0.42627H25.9201C22.374 0.42627 20.7647 2.7191 20.3233 4.35684L17.3184 15.5718H18.4861C20.1096 15.5718 21.2917 15.0805 21.5622 14.1619C22.1889 11.8264 23.435 7.18372 24.0616 4.84104C24.3108 3.92961 25.2294 3.44541 25.8631 3.44541C27.9067 3.44541 31.4243 3.44541 31.4243 3.44541C32.3856 3.44541 33.5747 3.60206 33.0407 5.38221C32.7416 6.43606 31.7945 6.9701 30.1995 6.9701H27.7073C26.0696 6.9701 24.8733 7.47567 24.617 8.41559L24.1897 9.99636H29.5943C32.9267 9.99636 35.8604 9.29142 36.9427 5.26828C37.8542 1.86463 36.2449 0.42627 33.5106 0.42627H33.5035Z" fill="#00458B"/>
<path id="Vector_2" d="M48.0842 0H47.3081C42.936 0 38.6067 2.89809 37.4817 7.12061L37.0117 8.8794C35.8795 13.1019 38.6494 16 43.0215 16H43.7976C48.9173 16 52.499 13.1019 53.6312 8.8794L54.1012 7.12061C55.2333 2.89809 52.4634 0 48.0842 0ZM50.0068 7.74722L49.8359 8.36671C49.017 11.4072 46.5889 13.0521 44.5951 13.0521H43.8404C41.8466 13.0521 40.2943 11.4072 41.1132 8.36671L41.2769 7.74722C42.0887 4.70672 44.5239 3.06186 46.5177 3.06186H47.2725C49.2663 3.06186 50.8186 4.70672 50.0068 7.74722Z" fill="#00458B"/>
<path id="Vector_3" d="M13.4651 6.35086H8.20294C6.77882 6.35086 6.10948 6.07316 6.47263 4.84842C6.7717 3.79457 7.66889 3.4599 9.26391 3.4599H15.9074C17.5452 3.4599 18.7414 2.95434 18.9978 2.01442L19.425 0.433643H9.86916C6.54384 0.426522 3.58879 1.19555 2.57766 4.96235C1.87272 7.57561 3.15443 9.38424 6.12372 9.37H11.3787C12.8456 9.37 13.4579 9.68331 13.0877 10.9579C12.7886 12.0117 11.8416 12.5458 10.2394 12.5458H3.51758C1.87984 12.5458 0.683578 13.0514 0.427236 13.9913L0 15.5792H9.63418C13.2372 15.5792 15.943 14.7247 16.9826 10.8511C17.8015 7.79635 16.0641 6.35086 13.4651 6.35086Z" fill="#00458B"/>
<path id="Vector_4" d="M65.3172 4.19639C65.2958 6.25424 65.4596 8.66813 65.6376 10.1706C65.7088 10.8684 66.193 10.669 66.428 10.1279C67.5174 7.55019 68.671 3.71219 69.3261 1.53328C69.5468 0.792739 70.4939 0.272935 71.4195 0.393985C72.217 0.493674 72.8579 1.03484 72.6087 1.91067C71.4551 5.82701 68.5286 12.8764 67.3465 14.3005C66.8908 14.8631 65.9865 15.6178 64.7475 15.6178C63.5085 15.6178 63.0243 14.8203 62.9246 14.2364C62.768 13.3962 62.6327 11.6588 62.5401 9.84303C61.5361 11.6588 60.5606 13.2823 59.9554 14.2222C59.5708 14.799 58.6736 15.6178 57.4774 15.6178C56.3595 15.6178 55.6047 14.9556 55.4907 14.2578C55.1418 12.7411 55.5192 5.40689 56.039 1.9534C56.1672 1.01348 57.1783 0.472312 57.9972 0.393985C58.8944 0.315658 59.6492 0.671689 59.5352 1.61161C59.343 3.20662 58.6808 7.64276 58.517 10.4412C58.4885 10.9823 58.8659 10.961 59.1578 10.4412C60.4253 8.1056 62.2624 3.86884 62.8677 2.03172C63.181 1.07044 64.0568 0.750015 64.8401 0.750015C65.8512 0.792739 66.1859 1.52616 66.0292 2.16702C65.8655 2.76515 65.6091 3.46297 65.3172 4.18215V4.19639Z" fill="#F29600"/>
<path id="Vector_5" d="M81.9587 12.9482C81.9872 13.8881 81.211 14.6286 80.499 14.9277C79.1389 15.5045 77.195 15.6255 75.8919 15.6255C74.5176 15.6255 72.9582 15.3692 72.1963 14.9846C71.6836 14.7212 71.0143 14.1871 71.0642 13.2259C71.1496 11.5668 73.2929 3.21429 73.8412 1.85426C74.1687 1.01402 75.1371 0.394531 75.6925 0.394531H83.3187C83.9809 0.394531 84.5292 0.992662 84.2729 2.05363C84.0664 2.91523 83.3614 3.73409 82.4642 3.73409H77.1095C76.6894 3.73409 76.5755 4.11149 76.5541 4.21118C76.013 6.00557 75.0731 9.52315 74.7241 11.3603C74.6387 11.7804 74.8025 12.0225 75.1656 12.0794C75.6213 12.1791 76.191 12.2219 76.8105 12.2219C77.9498 12.2219 79.1532 12.1222 80.264 11.8231C81.1398 11.581 81.9231 11.9798 81.9444 12.941L81.9587 12.9482ZM77.1238 9.4377C76.5257 9.4377 76.0842 8.71852 76.312 7.7786C76.5185 6.91701 77.3445 6.08389 77.964 6.08389H81.8376C82.3788 6.08389 82.9271 6.70339 82.6707 7.74299C82.4642 8.60459 81.7379 9.4377 80.9974 9.4377H77.1238Z" fill="#F29600"/>
<path id="Vector_6" d="M87.1848 11.4095C87.0993 11.7727 87.2346 12.029 87.5551 12.086C88.0108 12.1857 88.6018 12.2284 89.2355 12.2284C90.3962 12.2284 91.3859 12.086 92.1906 11.8083C93.045 11.5092 94.0562 11.851 93.9992 12.9903C93.9992 13.8305 93.4723 14.5711 92.7745 14.9057C91.4643 15.5252 89.6414 15.6249 88.3454 15.6249C86.9498 15.6249 85.5613 15.4042 84.6285 14.9841C84.1087 14.742 83.4465 14.1866 83.5034 13.2253C83.5889 11.5662 85.839 2.93599 86.4015 1.45491C86.7148 0.678761 87.7758 0.258646 88.6303 0.415299C89.6485 0.571952 89.8621 1.33386 89.6984 1.8323C89.321 2.9716 87.6619 8.94579 87.1777 11.4024L87.1848 11.4095Z" fill="#F29600"/>
<path id="Vector_7" d="M98.6901 11.0267C98.6047 11.3899 98.74 11.6462 99.0604 11.7032C99.5161 11.8028 100.107 11.8456 100.741 11.8456C101.902 11.8456 102.891 11.7032 103.696 11.4255C104.55 11.1264 105.562 11.4682 105.505 12.6075C105.505 13.4477 104.978 14.1882 104.28 14.5229C102.97 15.1424 101.147 15.2421 99.8508 15.2421C98.4552 15.2421 97.0667 15.0214 96.1339 14.6012C95.614 14.3591 94.9518 13.8037 95.0017 12.8425C95.0871 11.1834 97.3372 2.55318 97.8998 1.07209C98.2131 0.295949 99.274 -0.124167 100.129 0.0324864C101.147 0.18914 101.36 0.951045 101.197 1.44949C100.819 2.58878 99.1601 8.56297 98.6759 11.0196L98.6901 11.0267Z" fill="#F29600"/>
<path id="Vector_8" d="M208.043 0.473145V11.8884H206.174V10.5699H203.22V9.26821H206.174V0.473145H208.043ZM208.394 13.7408V15.2428H197.329V10.7869H199.181V13.7408H208.394ZM195.326 7.24885C198.113 7.23216 201.852 7.19878 205.056 6.79824L205.156 8.13336C203.913 8.34197 202.628 8.48383 201.351 8.56727V11.4711H199.498V8.6674C198.088 8.72581 196.745 8.73416 195.56 8.73416L195.326 7.24885ZM200.249 1.02388C202.452 1.02388 203.988 2.10866 204.004 3.69411C203.988 5.31293 202.452 6.34764 200.249 6.34764C198.013 6.34764 196.478 5.31293 196.478 3.69411C196.478 2.10866 198.013 1.02388 200.249 1.02388ZM200.249 2.39237C199.048 2.39237 198.23 2.87635 198.23 3.69411C198.23 4.51186 199.048 4.99584 200.249 4.99584C201.401 4.99584 202.219 4.51186 202.235 3.69411C202.219 2.87635 201.401 2.39237 200.249 2.39237Z" fill="#252F3E"/>
<path id="Vector_9" d="M186.655 4.74608C186.655 7.21604 188.107 9.81951 190.544 10.8375L189.526 12.3062C187.74 11.5385 186.438 9.95303 185.754 8.0338C185.053 10.1032 183.735 11.8389 181.966 12.6733L180.897 11.2214C183.284 10.1199 184.769 7.31618 184.769 4.74608V3.47773H181.448V1.94235H189.96V3.47773H186.655V4.74608ZM193.514 0.457031V15.5438H191.645V0.457031H193.514Z" fill="#252F3E"/>
<path id="Vector_10" d="M172.23 4.74608C172.23 7.21604 173.682 9.81951 176.119 10.8375L175.101 12.3062C173.315 11.5385 172.013 9.95303 171.329 8.0338C170.628 10.1032 169.31 11.8389 167.541 12.6733L166.473 11.2214C168.859 10.1199 170.344 7.31618 170.344 4.74608V3.47773H167.023V1.94235H175.535V3.47773H172.23V4.74608ZM179.089 0.457031V15.5438H177.22V0.457031H179.089Z" fill="#252F3E"/>
<path id="Vector_11" d="M165.862 8.05052V9.53583H152.11V8.05052H158.035V6.59858H153.896V0.824219H155.732V2.32622H162.241V0.824219H164.076V6.59858H159.904V8.05052H165.862ZM164.176 10.7374V15.5438H162.324V12.2061H153.629V10.7374H164.176ZM155.732 5.11327H162.241V3.7114H155.732V5.11327Z" fill="#252F3E"/>
<path id="Vector_12" d="M150.249 0.473145V11.371H148.38V0.473145H150.249ZM150.666 13.7408V15.2428H140.269V10.2695H142.138V13.7408H150.666ZM142.021 1.45779C144.308 1.45779 146.077 3.04324 146.077 5.22949C146.077 7.4658 144.308 9.01787 142.021 9.01787C139.718 9.01787 137.949 7.4658 137.949 5.22949C137.949 3.04324 139.718 1.45779 142.021 1.45779ZM142.021 3.07662C140.736 3.07662 139.752 3.92775 139.768 5.22949C139.752 6.5646 140.736 7.39905 142.021 7.39905C143.273 7.39905 144.258 6.5646 144.258 5.22949C144.258 3.92775 143.273 3.07662 142.021 3.07662Z" fill="#252F3E"/>
<path id="Vector_13" d="M136.661 7.53613V9.02144H133.223V10.5902H134.975V15.4967H133.123V12.0421H124.428V10.5902H126.297V9.02144H122.909V7.53613H136.661ZM129.768 0.727051C133.073 0.727051 135.192 1.84521 135.209 3.6643C135.192 5.50008 133.073 6.61824 129.768 6.61824C126.464 6.61824 124.328 5.50008 124.328 3.6643C124.328 1.84521 126.464 0.727051 129.768 0.727051ZM129.768 2.17899C127.565 2.17899 126.247 2.71303 126.264 3.6643C126.247 4.64895 127.565 5.18299 129.768 5.18299C131.971 5.18299 133.29 4.64895 133.29 3.6643C133.29 2.71303 131.971 2.17899 129.768 2.17899ZM128.15 10.5902H131.387V9.02144H128.15V10.5902Z" fill="#252F3E"/>
<path id="Vector_14" d="M113.433 5.06317C113.433 7.39962 114.401 9.75276 116.503 10.8876L115.469 12.2561C114.067 11.5134 113.115 10.1867 112.581 8.60122C112.047 10.3118 111.096 11.7721 109.678 12.6066L108.593 11.2047C110.729 9.96971 111.68 7.44969 111.68 5.06317V4.59588H109.11V3.09388H111.68V0.991077H113.433V3.09388H115.953V4.59588H113.433V5.06317ZM121.81 0.457031V15.5438H120.041V0.457031H121.81ZM118.74 0.740743V14.8095H116.987V7.78347H115.018V6.24809H116.987V0.740743H118.74Z" fill="#252F3E"/>
</g>
</svg>
