<svg width="30" height="30" viewBox="0 0 30 30" fill="none" xmlns="http://www.w3.org/2000/svg">
<g id="Frame 3465212">
<path id="Vector" d="M16.6441 4C15.2231 4 13.8603 4.52689 12.8556 5.46477C11.8508 6.40265 11.2863 7.67468 11.2863 9.00104V18.002C11.2863 18.396 11.3694 18.7862 11.531 19.1503C11.6925 19.5143 11.9293 19.8451 12.2278 20.1238C12.5264 20.4024 12.8807 20.6234 13.2708 20.7742C13.6608 20.925 14.0788 21.0026 14.501 21.0026C14.9231 21.0026 15.3412 20.925 15.7312 20.7742C16.1212 20.6234 16.4756 20.4024 16.7741 20.1238C17.0726 19.8451 17.3094 19.5143 17.471 19.1503C17.6325 18.7862 17.7157 18.396 17.7157 18.002V12.8084C17.7041 12.5506 17.5863 12.3068 17.3868 12.1281C17.1873 11.9494 16.9216 11.8495 16.6451 11.8492C16.3685 11.849 16.1026 11.9484 15.9028 12.1268C15.7029 12.3052 15.5846 12.5487 15.5726 12.8066V18.0304C15.5726 18.2957 15.4597 18.5501 15.2587 18.7377C15.0577 18.9252 14.7852 19.0306 14.501 19.0306C14.2168 19.0306 13.9442 18.9252 13.7433 18.7377C13.5423 18.5501 13.4294 18.2957 13.4294 18.0304V18.0011V18.0029V9.00196C13.4294 8.60791 13.5126 8.21772 13.6741 7.85367C13.8357 7.48962 14.0725 7.15883 14.371 6.8802C14.6695 6.60156 15.0239 6.38054 15.4139 6.22974C15.8039 6.07895 16.222 6.00133 16.6441 6.00133C17.0663 6.00133 17.4843 6.07895 17.8743 6.22974C18.2644 6.38054 18.6187 6.60156 18.9173 6.8802C19.2158 7.15883 19.4526 7.48962 19.6141 7.85367C19.7757 8.21772 19.8588 8.60791 19.8588 9.00196V19.0004C19.8588 20.3267 19.2943 21.5988 18.2895 22.5366C17.2848 23.4745 15.922 24.0014 14.501 24.0014C13.08 24.0014 11.7172 23.4745 10.7124 22.5366C9.70762 21.5988 9.14314 20.3267 9.14314 19.0004V8.97354C9.14314 8.70827 9.03024 8.45386 8.82928 8.26628C8.62832 8.07871 8.35577 7.97333 8.07157 7.97333C7.78737 7.97333 7.51481 8.07871 7.31386 8.26628C7.1129 8.45386 7 8.70827 7 8.97354V9.00287V9.00104V18.9995C7 20.8561 7.79018 22.6367 9.1967 23.9496C10.6032 25.2624 12.5109 26 14.5 26C16.4891 26 18.3968 25.2624 19.8033 23.9496C21.2098 22.6367 22 20.8561 22 18.9995V9.00104C21.9987 7.67506 21.4338 6.40373 20.4293 5.46611C19.4248 4.5285 18.0627 4.00121 16.6422 4H16.6441Z" fill="#1D1D1D"/>
</g>
</svg>
