<svg width="40" height="40" viewBox="0 0 40 40" fill="none" xmlns="http://www.w3.org/2000/svg">
<path d="M37.0006 3.69336H13.7061V36.3057H37.0006V3.69336Z" fill="white" stroke="#252F3E" stroke-width="2" stroke-linejoin="bevel"/>
<g style="mix-blend-mode:darken">
<path d="M25.027 14.4094C26.7316 14.4094 28.1135 13.0275 28.1135 11.3229C28.1135 9.61821 26.7316 8.23633 25.027 8.23633C23.3223 8.23633 21.9404 9.61821 21.9404 11.3229C21.9404 13.0275 23.3223 14.4094 25.027 14.4094Z" fill="#4B94FF"/>
</g>
<path d="M23.4307 16.0039H26.6337C29.5223 16.0039 31.875 18.3567 31.875 21.2452V26.335H18.1895V21.2452C18.1895 18.3567 20.5422 16.0039 23.4307 16.0039Z" fill="#4B94FF"/>
<path d="M31.8528 30.9004H18.2021" stroke="#252F3E" stroke-width="2" stroke-linejoin="bevel"/>
<path d="M31.6471 3.69336H8.35254V36.3057H31.6471V3.69336Z" fill="white" stroke="#252F3E" stroke-width="2" stroke-linejoin="bevel"/>
<g style="mix-blend-mode:darken">
<path d="M19.6734 14.4094C21.3781 14.4094 22.76 13.0275 22.76 11.3229C22.76 9.61821 21.3781 8.23633 19.6734 8.23633C17.9688 8.23633 16.5869 9.61821 16.5869 11.3229C16.5869 13.0275 17.9688 14.4094 19.6734 14.4094Z" fill="#4B94FF"/>
</g>
<path d="M18.0772 16.0039H21.2802C24.1687 16.0039 26.5215 18.3567 26.5215 21.2452V26.335H12.8359V21.2452C12.8359 18.3567 15.1887 16.0039 18.0772 16.0039Z" fill="#4B94FF"/>
<path d="M26.4992 30.9004H12.8486" stroke="#252F3E" stroke-width="2" stroke-linejoin="bevel"/>
<path d="M26.2945 3.69336H3V36.3057H26.2945V3.69336Z" fill="white" stroke="#252F3E" stroke-width="2" stroke-linejoin="bevel"/>
<g style="mix-blend-mode:darken">
<path d="M14.3219 14.4094C16.0265 14.4094 17.4084 13.0275 17.4084 11.3229C17.4084 9.61821 16.0265 8.23633 14.3219 8.23633C12.6172 8.23633 11.2354 9.61821 11.2354 11.3229C11.2354 13.0275 12.6172 14.4094 14.3219 14.4094Z" fill="#85B6FF"/>
</g>
<path d="M12.7256 16.0039H15.9286C18.8172 16.0039 21.1699 18.3567 21.1699 21.2452V26.335H7.48438V21.2452C7.48438 18.3567 9.83713 16.0039 12.7256 16.0039Z" fill="#85B6FF"/>
<path d="M21.1477 30.9004H7.49707" stroke="#252F3E" stroke-width="2" stroke-linejoin="bevel"/>
</svg>
