<svg width="41" height="40" viewBox="0 0 41 40" fill="none" xmlns="http://www.w3.org/2000/svg">
<g clip-path="url(#clip0_1533_5460)">
<path d="M26.6097 7.62369L8.28524 25.9482C6.50915 27.7243 6.50915 30.6039 8.28524 32.38C10.0613 34.1561 12.941 34.1561 14.7171 32.38L33.0415 14.0555C34.8176 12.2794 34.8176 9.39979 33.0415 7.62369C31.2654 5.8476 28.3858 5.8476 26.6097 7.62369Z" fill="#85B6FF" stroke="#85B6FF" stroke-width="2" stroke-linejoin="bevel"/>
<path d="M35.3714 34.7044C32.3174 37.7584 27.33 37.7584 24.2761 34.7044L5.96332 16.3916C2.90936 13.3377 2.90936 8.35029 5.96332 5.29633C9.01728 2.24237 14.0047 2.24237 17.0586 5.29633L35.3824 23.6201C38.4363 26.674 38.4363 31.6614 35.3824 34.7154L35.3714 34.7044Z" fill="white"/>
<path d="M8.29069 14.0573L26.6151 32.3817C28.3912 34.1578 31.2709 34.1578 33.047 32.3817C34.8231 30.6057 34.8231 27.726 33.047 25.9499L14.7225 7.62547C12.9464 5.84938 10.0668 5.84937 8.29069 7.62547C6.51459 9.40157 6.51459 12.2812 8.29069 14.0573Z" fill="white" stroke="#252F3E" stroke-width="2" stroke-linejoin="bevel"/>
<path d="M24.4587 21.3288L19.1299 16L16.6675 18.4624L21.9962 23.7912L24.4587 21.3288Z" fill="#85B6FF"/>
</g>
<defs>
<clipPath id="clip0_1533_5460">
<rect width="34" height="34" fill="white" transform="translate(3.66699 3)"/>
</clipPath>
</defs>
</svg>
