<svg width="120" height="120" viewBox="0 0 120 120" fill="none" xmlns="http://www.w3.org/2000/svg">
<g clip-path="url(#clip0_1508_5490)">
<path d="M98.6392 24.3535H83.7178V31.236H98.6392V24.3535Z" fill="white"/>
<path d="M104.859 24.3535H98.6387V31.236H104.859V24.3535Z" fill="#FFAC11"/>
<path d="M104.859 24.3535H83.7178V31.236H104.859V24.3535Z" stroke="#21409A" stroke-width="3.4"/>
<path d="M98.6392 36.2832H83.7178V43.1657H98.6392V36.2832Z" fill="white"/>
<path d="M104.859 36.2832H98.6387V43.1657H104.859V36.2832Z" fill="#FFAC11"/>
<path d="M104.859 36.2832H83.7178V43.1657H104.859V36.2832Z" stroke="#21409A" stroke-width="3.4"/>
<path d="M19.7 103.906V102.777C19.7 100.373 21.6427 98.4184 24.0323 98.4184H93.3127V93.8301H24.0323C19.1254 93.8301 15.1396 97.8311 15.1396 102.777V103.906C15.1396 108.843 19.1254 112.853 24.0323 112.853H93.3127V108.265H24.0323C21.6427 108.265 19.7 106.31 19.7 103.906Z" fill="#85B6FF" stroke="#21409A" stroke-width="3.4"/>
<path d="M24.0325 98.418C21.6429 98.418 19.7002 100.373 19.7002 102.777V103.906C19.7002 106.31 21.6429 108.265 24.0325 108.265H93.313V98.4271H24.0325V98.418Z" fill="#FCFCFC" stroke="#21409A" stroke-width="3.4"/>
<path d="M24.0323 19.7656C19.1254 19.7656 15.1396 23.7666 15.1396 28.7129V102.778C15.1396 97.8406 19.1254 93.8304 24.0323 93.8304H25.8017V19.7656H24.0323Z" fill="#FFAC11"/>
<path d="M93.3128 19.7656H25.8018V93.8304H93.3128V19.7656Z" fill="white"/>
<path d="M24.0323 19.7656C19.1254 19.7656 15.1396 23.7666 15.1396 28.7129V102.778C15.1396 97.8406 19.1254 93.8304 24.0323 93.8304H93.3127V19.7656H24.0323Z" stroke="#21409A" stroke-width="3.4"/>
<path d="M27.626 103.273H86.9102" stroke="#85B6FF" stroke-width="3.4"/>
<path d="M78.7022 33.5293H40.3955V46.3766H78.7022V33.5293Z" fill="#85B6FF"/>
<path d="M46.0134 60.3711H41.9912" stroke="#21409A" stroke-width="3.4"/>
<path d="M38.7989 60.3711H34.7676" stroke="#21409A" stroke-width="3.4"/>
<path d="M40.3945 54.709V58.7651" stroke="#21409A" stroke-width="3.4"/>
<path d="M40.3945 61.9766V66.0326" stroke="#21409A" stroke-width="3.4"/>
<path d="M85.3148 14.029C87.2037 14.029 88.735 12.4883 88.735 10.5877C88.735 8.68718 87.2037 7.14648 85.3148 7.14648C83.4258 7.14648 81.8945 8.68718 81.8945 10.5877C81.8945 12.4883 83.4258 14.029 85.3148 14.029Z" fill="#FCFCFC" stroke="#85B6FF" stroke-width="3.4"/>
</g>
<defs>
<clipPath id="clip0_1508_5490">
<rect width="94" height="110" fill="white" transform="translate(13 5)"/>
</clipPath>
</defs>
</svg>
