<svg width="41" height="40" viewBox="0 0 41 40" fill="none" xmlns="http://www.w3.org/2000/svg">
<path d="M33.0897 7.98633H7.57812V37.2352H33.0897V7.98633Z" fill="white" stroke="#252F3E" stroke-width="2" stroke-linejoin="bevel"/>
<path d="M15.5057 5.52327H15.8115L15.9508 5.25109C16.5117 4.15535 18.1652 3.26562 20.3404 3.26562C22.5156 3.26562 24.169 4.15535 24.7299 5.25109L24.8692 5.52327H25.175H26.5764L27.4327 6.35271V10.5562L26.5764 11.3856H14.1043L13.248 10.5562V6.35271L14.1043 5.52327H15.5057Z" fill="#85B6FF" stroke="#21409A"/>
<path d="M20.3284 3.88373C22.5091 3.88373 24.2861 4.90079 24.2861 6.14138H26.7668V10.7684H13.9014V6.14138H16.3822C16.3822 4.88961 18.1476 3.88373 20.3399 3.88373M20.3284 1.64844C17.9053 1.64844 15.8861 2.53138 14.8476 3.90608H13.9014L11.5938 6.14138V10.7684L13.9014 13.0037H26.7668L29.0745 10.7684V6.14138L26.7668 3.90608H25.8207C24.7707 2.53138 22.7514 1.64844 20.3399 1.64844L20.3284 1.64844Z" fill="white"/>
<path d="M17.3633 17.1484H28.2094" stroke="#252F3E" stroke-width="2" stroke-linejoin="bevel"/>
<g style="mix-blend-mode:darken">
<path d="M12.334 17H15.184" stroke="#85B6FF" stroke-width="2" stroke-linejoin="bevel"/>
</g>
<path d="M17.3633 22.4258H28.2094" stroke="#252F3E" stroke-width="2" stroke-linejoin="bevel"/>
<g style="mix-blend-mode:darken">
<path d="M12.4004 22.4258H15.2504" stroke="#85B6FF" stroke-width="2" stroke-linejoin="bevel"/>
</g>
<path d="M17.3633 27.6914H28.2094" stroke="#252F3E" stroke-width="2" stroke-linejoin="bevel"/>
<g style="mix-blend-mode:darken">
<path d="M12.4004 27.6914H15.2504" stroke="#85B6FF" stroke-width="2" stroke-linejoin="bevel"/>
</g>
</svg>
