<svg width="40" height="40" viewBox="0 0 40 40" fill="none" xmlns="http://www.w3.org/2000/svg">
<g clip-path="url(#clip0_1533_16897)">
<path d="M3.00955 7.24751L2.05753 8.20123L3.24619 8.83607L21.6903 18.6867L22.342 19.0347L22.8662 18.514L28.3778 13.0388L29.5878 11.8368L27.9479 11.3679L5.91345 5.06783L5.34702 4.90587L4.93081 5.32282L3.00955 7.24751Z" fill="#85B6FF" stroke="#252F3E" stroke-width="2"/>
<path d="M31.1879 36.6522L31.8219 37.828L32.7715 36.8885L34.7047 34.9757L35.1268 34.5581L34.9622 33.9877L28.6341 12.051L28.1662 10.4289L26.9685 11.6187L21.4569 17.0939L20.9269 17.6204L21.2814 18.2779L31.1879 36.6522Z" fill="#85B6FF" stroke="#252F3E" stroke-width="2"/>
<path d="M14.9709 33.7771L15.0646 29.8088L35.2477 11.5892L35.2477 11.5892L35.2524 11.5849C37.1854 9.8174 37.6085 6.67707 35.7314 4.62821L35.7299 4.62657C33.8019 2.53154 30.5134 2.54437 28.6123 4.6301L28.6098 4.63289L10.2372 24.9432L6.22359 25.0378C4.32995 24.7174 3.17362 27.2054 4.79993 28.4126C4.80059 28.4131 4.80126 28.4136 4.80192 28.4141L8.68662 31.3183L11.5936 35.1991C11.5942 35.1999 11.5947 35.2006 11.5953 35.2014C12.7982 36.8183 15.2942 35.6777 14.9709 33.7771Z" fill="white" stroke="#252F3E" stroke-width="2"/>
</g>
<defs>
<clipPath id="clip0_1533_16897">
<rect width="36" height="36" fill="white" transform="translate(2 2)"/>
</clipPath>
</defs>
</svg>
