<svg width="40" height="40" viewBox="0 0 40 40" fill="none" xmlns="http://www.w3.org/2000/svg">
<path d="M23.5 8C23.5 9.933 21.933 11.5 20 11.5C18.067 11.5 16.5 9.933 16.5 8C16.5 6.067 18.067 4.5 20 4.5C21.933 4.5 23.5 6.067 23.5 8Z" fill="#85B6FF" stroke="#85B6FF"/>
<path d="M28.4858 22.5H11.5V18.3722C11.5 16.8591 12.979 15.5 14.9969 15.5H24.989C27.0069 15.5 28.4858 16.8591 28.4858 18.3722V22.5Z" fill="#85B6FF" stroke="#85B6FF"/>
<path d="M36.8469 26H3V35.4171H36.8469V26Z" fill="white" stroke="#252F3E" stroke-width="2" stroke-linejoin="bevel"/>
<path d="M8.90039 31H11.9004" stroke="#4B94FF" stroke-width="2" stroke-miterlimit="10"/>
<path d="M15.3174 31H18.3174" stroke="#4B94FF" stroke-width="2" stroke-miterlimit="10"/>
<path d="M21.7227 31H24.7227" stroke="#4B94FF" stroke-width="2" stroke-miterlimit="10"/>
<path d="M28.1387 31H31.1387" stroke="#4B94FF" stroke-width="2" stroke-miterlimit="10"/>
</svg>
