<svg width="120" height="120" viewBox="0 0 120 120" fill="none" xmlns="http://www.w3.org/2000/svg">
<g clip-path="url(#clip0_1029_28521)">
<path d="M108.62 9.48047H11.3799V86.8105H108.62V9.48047Z" fill="white"/>
<path d="M108.62 9.48047H11.3799V24.2005H108.62V9.48047Z" fill="#FFAC11"/>
<path d="M108.62 9.48047H11.3799V86.8105H108.62V9.48047Z" stroke="#21409A" stroke-width="3.4"/>
<path d="M114 9.01953H6V16.2995H114V9.01953Z" fill="#FFAC11" stroke="#21409A" stroke-width="3.4"/>
<path d="M24.1201 33.6094H93.2801" stroke="#85B6FF" stroke-width="3.4"/>
<path d="M24.1201 39.3496H93.2801" stroke="#85B6FF" stroke-width="3.4"/>
<path d="M57.6201 57.6094H93.2801" stroke="#85B6FF" stroke-width="3.4"/>
<path d="M57.6201 64.2695H93.2801" stroke="#85B6FF" stroke-width="3.4"/>
<path d="M77.6201 70.9395H93.2801" stroke="#85B6FF" stroke-width="3.4"/>
<path d="M41.4003 77.7305C45.8848 77.7305 49.5203 73.0295 49.5203 67.2305C49.5203 61.4315 45.8848 56.7305 41.4003 56.7305C36.9157 56.7305 33.2803 61.4315 33.2803 67.2305C33.2803 73.0295 36.9157 77.7305 41.4003 77.7305Z" fill="white" stroke="#21409A" stroke-width="3.4"/>
<path d="M54.1504 77.9805H36.1504C42.3604 77.9805 47.4004 83.0205 47.4004 89.2305V110.98H65.4004V89.2305C65.4004 83.0205 60.3604 77.9805 54.1504 77.9805Z" fill="white"/>
<path d="M36.1504 77.9805H28.6504C22.4404 77.9805 17.4004 83.0205 17.4004 89.2305V110.98H47.4004V89.2305C47.4004 83.0205 42.3604 77.9805 36.1504 77.9805Z" fill="#85B6FF"/>
<path d="M28.6504 110.98H17.4004V89.2305C17.4004 83.0205 22.4404 77.9805 28.6504 77.9805H54.1504C60.3604 77.9805 65.4004 83.0205 65.4004 89.2305V110.98H54.1504M28.6504 110.98V95.2305M28.6504 110.98H54.1504M54.1504 110.98V95.2305" stroke="#21409A" stroke-width="3.4"/>
<path d="M40.9502 82.8086V85.4786" stroke="#21409A" stroke-width="3.4"/>
<path d="M40.9502 89.4805V92.1505" stroke="#21409A" stroke-width="3.4"/>
<path d="M40.9502 96.1504V98.8104" stroke="#21409A" stroke-width="3.4"/>
</g>
<defs>
<clipPath id="clip0_1029_28521">
<rect width="110.5" height="104.46" fill="white" transform="translate(4.75 7.76953)"/>
</clipPath>
</defs>
</svg>
