<svg width="203" height="175" viewBox="0 0 203 175" fill="none" xmlns="http://www.w3.org/2000/svg">
<g id="&#237;&#152;&#184;&#235;&#158;&#145;&#236;&#157;&#180;" clip-path="url(#clip0_344_7444)">
<g id="Group">
<g id="Group_2">
<g id="Group_3">
<g id="3 18 Layer0 0 FILL">
<path id="Vector" d="M27.2739 92.2855C27.7509 90.5228 28.5747 89.2263 29.731 88.4105C30.9451 87.5802 32.1737 87.5365 33.4022 88.2794C34.4573 88.8913 35.2523 89.707 35.7726 90.7413C35.9605 91.1638 36.3218 92.0087 36.8711 93.2761C37.4348 94.5143 38.0129 95.942 38.591 97.5444C39.1981 99.1177 42.4068 101.084 48.2027 103.43C53.9985 105.746 62.9019 107.363 74.9272 108.281L66.8911 127.787L62.0925 129.433C59.91 130.205 57.6408 130.846 55.3138 131.385C47.8702 133.046 41.077 133.118 34.9054 131.647C28.0978 130.059 23.1691 127.015 20.105 122.528C17.4744 118.667 16.7806 114.88 17.9947 111.136C19.0065 108.018 20.3218 105.615 21.9261 103.94C23.4293 102.395 25.0625 101.55 26.8403 101.405C28.3001 101.536 29.7166 102.002 31.1041 102.818C33.9515 104.435 35.2956 106.94 35.1655 110.364C35.0644 113.831 34.1104 116.876 32.3038 119.498C31.4076 120.838 30.526 121.814 29.6443 122.426C30.5115 121.814 31.4076 120.838 32.3038 119.498C34.096 116.876 35.0499 113.831 35.1655 110.364C35.2956 106.955 33.937 104.435 31.1041 102.818C29.7166 102.017 28.3001 101.55 26.8403 101.405C26.2188 98.8409 26.3633 95.8108 27.2595 92.2855H27.2739Z" fill="white"/>
</g>
<g id="3 18 Layer0 0 1 STROKES">
<path id="Vector_2" d="M44.0834 133.686C47.7257 133.686 51.5559 133.249 55.5307 132.361C57.8866 131.822 60.1991 131.152 62.425 130.38L67.2236 128.748C67.4837 128.661 67.7005 128.457 67.8017 128.194L75.8379 108.689C75.9535 108.397 75.9246 108.077 75.7656 107.814C75.6066 107.552 75.332 107.377 75.014 107.348C63.1477 106.46 54.2587 104.843 48.5785 102.57C41.0916 99.5256 39.7474 97.8211 39.5161 97.2239C38.938 95.636 38.3454 94.1793 37.7672 92.8973C37.2325 91.6445 36.8711 90.7996 36.6688 90.3771C36.0328 89.1389 35.1078 88.1774 33.8937 87.4782C32.3616 86.5459 30.7284 86.6041 29.2108 87.653C27.8521 88.5999 26.8982 90.0858 26.3634 92.067C25.5396 95.2718 25.3227 98.1416 25.7274 100.633C24.1231 100.997 22.6344 101.885 21.2613 103.284C19.5558 105.061 18.1538 107.596 17.0987 110.845C15.7834 114.865 16.535 118.988 19.3245 123.081C22.5188 127.757 27.6931 130.962 34.7031 132.608C37.6661 133.322 40.8025 133.686 44.0834 133.686ZM66.1974 127.044L61.8035 128.544C59.6355 129.302 57.3952 129.943 55.1115 130.467C47.8558 132.084 41.1349 132.171 35.1367 130.729C28.6037 129.214 23.8196 126.272 20.9 122.003C18.4284 118.376 17.778 114.923 18.9054 111.471C19.8738 108.499 21.1312 106.212 22.6199 104.653C23.9352 103.299 25.3228 102.57 26.8404 102.424C28.1267 102.556 29.3986 102.978 30.6272 103.706C33.1566 105.149 34.3273 107.319 34.2117 110.364C34.1105 113.627 33.2144 116.526 31.5233 118.988C30.685 120.226 29.8756 121.129 29.1096 121.668C28.676 121.974 28.5603 122.586 28.8783 123.023C29.1818 123.46 29.7889 123.577 30.2225 123.256C31.2053 122.571 32.1448 121.523 33.1277 120.08C35.0211 117.313 36.0328 114.064 36.1484 110.422C36.293 106.635 34.7609 103.808 31.5956 102.002C30.3237 101.259 29.0084 100.778 27.6642 100.56C27.2451 98.3019 27.433 95.6069 28.2279 92.5623C28.6471 91.0327 29.3408 89.9255 30.3092 89.2409C31.2053 88.629 32.0147 88.5853 32.9253 89.1389C33.8359 89.6633 34.5007 90.348 34.9344 91.2075C35.1078 91.5862 35.4691 92.4166 36.0039 93.684C36.5676 94.9222 37.1457 96.3352 37.7094 97.894C38.1719 99.1031 39.7185 101.055 47.8558 104.347C53.5072 106.605 62.1359 108.222 73.5398 109.155L66.1829 127.015L66.1974 127.044Z" fill="black"/>
</g>
</g>
<g id="3 18 Layer0 1 MEMBER 0 MEMBER 0 FILL">
<path id="Vector_3" d="M143.177 147.831C148.496 148.298 153.54 149.696 158.295 152.027C162.978 154.285 168.37 154.314 174.454 152.114C178.689 150.614 181.754 148.924 183.618 147.001C185.107 145.428 187.217 144.495 189.934 144.175C193.822 143.68 197.161 145.268 199.951 148.953C201.642 151.342 201.627 153.571 199.878 155.61C198.679 156.994 197.118 158 195.195 158.597L177.88 163.987C171.463 165.983 165.074 165.983 158.715 163.987C153.714 162.443 149.175 161.583 145.085 161.394C139.911 161.146 134.939 161.889 130.169 163.637L127.712 164.001C125.919 163.579 124.532 161.802 123.578 158.655C122.595 155.465 123.853 152.886 127.336 150.92C128.406 150.279 130.834 149.361 134.606 148.196C136.485 147.613 139.347 147.496 143.191 147.846L143.177 147.831Z" fill="white"/>
</g>
<g id="3 18 Layer0 1 MEMBER 0 MEMBER 1 FILL">
<path id="Vector_4" d="M184.297 148.443L184.861 147.933C186.364 146.389 188.475 145.442 191.192 145.107C195.08 144.612 198.404 146.2 201.194 149.885C202.885 152.289 202.856 154.518 201.121 156.557C199.907 157.956 198.361 158.947 196.453 159.544L192.666 160.724C190.223 154.227 187.434 150.133 184.297 148.443Z" fill="black"/>
</g>
<g id="3 18 Layer0 1 MEMBER 0 MEMBER 2 FILL">
<path id="Vector_5" d="M171.723 154.227C173.963 153.79 176.146 153.032 178.27 151.983C180.727 154.853 182.65 158.67 184.008 163.419L176.333 165.72C175.076 160.767 173.529 156.936 171.723 154.227Z" fill="black"/>
</g>
<g id="3 18 Layer0 1 MEMBER 0 MEMBER 3 FILL">
<path id="Vector_6" d="M159.538 152.988C161.764 154.081 164.265 154.649 167.04 154.664C167.979 158.262 167.936 162.166 166.924 166.332C164.424 166.085 162.111 165.619 159.972 164.905L157.356 164.103C158.873 160.505 159.611 156.791 159.538 152.974V152.988Z" fill="black"/>
</g>
<g id="3 18 Layer0 1 MEMBER 0 MEMBER 4 FILL">
<path id="Vector_7" d="M150.678 149.609C152.138 154.256 151.965 158.524 150.158 162.428C147.166 162.006 144.217 161.904 141.327 162.093C142.526 157.228 142.7 152.668 141.876 148.4C144.781 148.487 147.715 148.895 150.693 149.609H150.678Z" fill="black"/>
</g>
<g id="3 18 Layer0 1 MEMBER 0 MEMBER 5 FILL">
<path id="Vector_8" d="M134.245 149.55C132.424 154.547 132.51 159.223 134.52 163.579C133.537 163.856 132.496 164.176 131.426 164.54L128.969 164.919C127.177 164.511 125.804 162.734 124.85 159.588C123.477 155.115 126.613 151.779 134.259 149.536L134.245 149.55Z" fill="black"/>
</g>
<g id="3 18 Layer0 1 MEMBER 1 1 STROKES">
<path id="Vector_9" d="M169.078 167.206C172.402 167.206 175.741 166.696 179.051 165.662L196.366 160.301C198.433 159.646 200.138 158.539 201.439 156.994C203.463 154.62 203.521 151.896 201.613 149.128C198.563 145.136 194.892 143.403 190.671 143.956C187.752 144.292 185.425 145.355 183.763 147.089L182.765 147.904C182.361 148.239 182.288 148.851 182.635 149.274C182.968 149.682 183.575 149.74 183.994 149.405L185.078 148.516C186.509 147.045 188.445 146.185 190.917 145.894C194.487 145.442 197.464 146.87 200.081 150.279C201.468 152.289 201.454 154.023 199.994 155.727C198.939 156.98 197.522 157.898 195.817 158.437L178.501 163.798C172.286 165.735 166.014 165.75 159.856 163.841C154.827 162.253 150.144 161.35 145.967 161.161C140.749 160.928 135.647 161.671 130.761 163.404L128.622 163.768C127.278 163.346 126.18 161.787 125.356 159.136C124.532 156.368 125.558 154.256 128.622 152.508C129.663 151.896 132.062 151.007 135.748 149.871C137.497 149.317 140.257 149.215 143.957 149.58C149.161 150.031 154.147 151.415 158.772 153.688C162.371 155.421 166.491 155.887 171.014 155.072C174.295 154.46 177.591 153.236 180.857 151.43C181.32 151.167 181.493 150.585 181.233 150.119C180.973 149.652 180.395 149.478 179.932 149.74C176.854 151.444 173.732 152.595 170.668 153.163C166.548 153.906 162.819 153.498 159.596 151.94C154.754 149.58 149.551 148.137 144.116 147.657C140.113 147.263 137.179 147.394 135.17 148.021C131.296 149.215 128.839 150.133 127.654 150.832C122.855 153.586 122.754 157.184 123.506 159.719C124.59 163.186 126.209 165.211 128.348 165.72C128.478 165.75 128.608 165.75 128.738 165.72L131.166 165.298C131.166 165.298 131.267 165.269 131.325 165.254C135.994 163.579 140.893 162.851 145.88 163.098C149.898 163.273 154.422 164.147 159.293 165.691C162.545 166.696 165.811 167.206 169.092 167.206H169.078Z" fill="black"/>
</g>
<g id="Group_4">
<g id="3 18 Layer0 2 FILL">
<path id="Vector_10" d="M129.302 118.653L129.605 119.425L134.837 150.06V150.177C135.329 154.212 135.647 157.839 135.806 161.088L136.312 170.368C136.384 172.101 135.546 173.121 133.768 173.441H109.153L106.653 173.252C105.236 172.815 105.135 171.795 106.349 170.178C106.19 169.756 105.627 169.129 104.658 168.27C103.661 167.454 101.609 166.769 98.5011 166.216L89.0196 166.143C89.0196 166.143 88.7016 166.361 88.138 166.726C87.343 167.25 86.418 167.949 85.3629 168.823C84.0043 169.96 83.007 171.169 82.3999 172.436C81.8796 173.47 81.5616 174.009 81.4315 174.024L62.5552 173.951C60.0692 173.951 58.4359 173.893 57.6554 173.762C55.9933 173.47 55.1261 172.815 55.0683 171.781C55.0105 170.79 55.6175 169.814 56.875 168.823L58.7684 167.658C58.9418 167.716 59.0719 167.658 59.1586 167.469C59.2887 167.163 59.0285 166.507 58.3926 165.531C57.7566 164.541 57.1207 163.026 56.4992 160.942L55.8054 158.145C55.5597 156.033 55.5597 153.819 55.8054 151.503L56.5714 147.497C56.7593 146.739 56.9761 146.011 57.2218 145.282C57.9012 143.403 58.5949 141.684 59.3032 140.125C61.1966 133.322 62.4974 128.806 63.1911 126.607C63.6248 125.237 64.174 123.751 64.81 122.134L65.6193 120.11C67.3249 102.993 78.3818 98.6515 98.7902 107.101L105.453 106.635C110.541 106.838 114.819 107.975 118.288 110.014C119.95 111.005 122.06 111.966 124.604 112.928C126.527 113.962 128.102 115.87 129.302 118.638V118.653Z" fill="white"/>
</g>
<g id="3 18 Layer0 2 1 STROKES">
<path id="Vector_11" d="M81.417 175C81.417 175 81.5471 175 81.6049 174.986C82.1541 174.869 82.4432 174.505 83.2526 172.873C83.8018 171.722 84.7268 170.63 85.9698 169.581C86.9816 168.736 87.8922 168.051 88.6437 167.556C88.9328 167.367 89.1352 167.25 89.2653 167.148L98.3854 167.206C101.97 167.847 103.415 168.561 103.993 169.057C104.615 169.581 104.962 169.931 105.164 170.164C104.572 171.125 104.398 171.941 104.629 172.669C104.788 173.165 105.222 173.835 106.364 174.184C106.436 174.213 106.508 174.213 106.581 174.228L109.081 174.417H133.768C133.768 174.417 133.883 174.417 133.941 174.417C136.196 174.024 137.396 172.567 137.294 170.338L136.788 161.044C136.644 157.796 136.312 154.11 135.82 150.06C135.82 150.002 135.82 149.958 135.82 149.9L130.588 119.265C130.588 119.265 130.559 119.134 130.53 119.061L130.227 118.289C128.926 115.302 127.191 113.219 125.081 112.083C122.479 111.092 120.413 110.145 118.794 109.184C115.195 107.072 110.729 105.877 105.511 105.673L98.7323 106.139C98.1975 106.183 97.7929 106.649 97.8218 107.188C97.8507 107.727 98.3276 108.135 98.8624 108.106L105.525 107.64C110.31 107.844 114.472 108.936 117.797 110.888C119.502 111.893 121.685 112.899 124.272 113.875C125.876 114.749 127.307 116.511 128.42 119.061L128.68 119.716L133.883 150.177C133.883 150.177 133.883 150.294 133.883 150.323C134.375 154.314 134.693 157.956 134.837 161.161L135.343 170.455C135.401 171.65 134.91 172.247 133.695 172.48H109.168L106.855 172.305C106.595 172.203 106.508 172.116 106.494 172.101C106.494 172.101 106.407 171.752 107.13 170.805C107.332 170.528 107.39 170.178 107.26 169.858C107.029 169.246 106.422 168.547 105.265 167.571C104.138 166.609 101.984 165.866 98.6601 165.284C98.6022 165.284 98.5444 165.284 98.5011 165.284L89.0051 165.225H83.9319V165.211C83.3971 165.211 82.9491 165.648 82.9491 166.187C82.9491 166.726 83.3827 167.177 83.9174 167.177H85.8687C85.5073 167.469 85.1171 167.775 84.7268 168.11C83.267 169.333 82.183 170.659 81.5037 172.043C81.2435 172.567 81.0701 172.888 80.9545 173.077L62.5407 173.004C59.5054 173.004 58.2913 172.902 57.7999 172.83C56.6581 172.64 56.0655 172.276 56.0366 171.766C56.0077 171.125 56.4846 170.411 57.4675 169.639L59.014 168.692C59.462 168.634 59.8378 168.357 60.0402 167.891C60.3148 167.206 60.0691 166.376 59.1874 165.021C58.5948 164.118 58.0022 162.661 57.4241 160.695L56.7448 157.941C56.528 156.033 56.528 153.877 56.7737 151.648L57.5108 147.744C57.6843 147.074 57.9011 146.36 58.1468 145.676C58.8116 143.826 59.5054 142.107 60.1992 140.592C60.2136 140.548 60.2425 140.49 60.257 140.446C62.1504 133.657 63.4512 129.112 64.145 126.942C64.5786 125.602 65.1134 124.116 65.7349 122.542L66.5443 120.517C66.7466 120.008 66.5009 119.439 66.0095 119.235C65.5036 119.032 64.9399 119.279 64.7376 119.789L63.9282 121.814C63.2778 123.431 62.7286 124.961 62.2805 126.344C61.5867 128.559 60.3148 132.973 58.3925 139.834C57.6843 141.378 56.9905 143.126 56.3112 145.005C56.051 145.748 55.8053 146.521 55.603 147.307L54.8369 151.342C54.5623 153.804 54.5623 156.106 54.8369 158.277L55.5596 161.19C56.2245 163.419 56.8749 164.992 57.5831 166.07C57.8433 166.463 57.9878 166.74 58.089 166.944L56.3834 167.993C54.7791 169.246 54.042 170.513 54.0998 171.839C54.1576 172.902 54.7791 174.272 57.4964 174.738C58.3202 174.884 59.9824 174.942 62.5551 174.942L81.4314 175.015L81.417 175Z" fill="black"/>
</g>
</g>
<g id="3 18 Layer0 2 MEMBER 0 FILL">
<path id="Vector_12" d="M59.072 148.502C60.0259 148.167 60.9654 148.633 61.8904 149.9C62.4541 150.701 62.483 151.867 61.9627 153.396C61.4279 154.926 59.4478 156.499 56.0367 158.131C55.5019 154.46 55.2562 152.391 55.2996 151.925C55.5308 150.396 56.7883 149.259 59.072 148.502ZM61.4134 130.846C62.2662 130.482 62.8732 130.249 63.2635 130.147C64.0873 130.045 64.7088 130.321 65.1135 130.962C65.6483 131.836 65.2581 133.424 63.9139 135.697C62.5986 137.969 61.0232 139.907 59.1731 141.48C59.5056 137.489 60.2572 133.949 61.4134 130.846Z" fill="black"/>
</g>
<g id="3 18 Layer0 2 MEMBER 1 FILL">
<path id="Vector_13" d="M128.218 148.123C130.227 148.662 132.395 149.536 134.722 150.731C134.693 154.358 134.968 157.84 135.531 161.175L125.862 154.737C123.622 152.974 122.697 151.226 123.087 149.492C123.39 147.7 125.096 147.249 128.203 148.138M132.337 131.152C132.872 133.016 133.305 134.925 133.609 136.862C133.248 138.1 132.496 138.989 131.34 139.499C130.155 140.023 128.854 139.951 127.408 139.31C123.781 137.751 120.904 136.134 118.78 134.459C116.207 132.419 115.282 130.671 116.005 129.214C116.727 127.656 118.678 126.854 121.858 126.811C124.865 126.738 127.408 127.335 129.49 128.602C130.646 129.331 131.6 130.176 132.337 131.166V131.152Z" fill="black"/>
</g>
<g id="Group_5">
<g id="3 18 Layer0 3 FILL">
<path id="Vector_14" d="M144.955 104.493C149.132 105.775 152.89 108.281 156.2 112.025C160.088 116.351 161.533 120.721 160.507 125.106C159.481 129.724 156.561 133.002 151.762 134.925C147.195 136.746 142.859 136.76 138.74 134.925C137.67 134.473 135.415 133.162 131.976 130.977C129.518 129.404 126.165 127.641 121.901 125.689L116.236 123.242C115.166 120.867 114.227 118.405 113.432 115.87C111.827 110.845 111.639 108.004 112.882 107.392C115.571 106.052 119.184 104.974 123.694 104.158L129.62 103.328C131.007 103.153 132.669 103.065 134.635 103.095C138.566 103.124 142.006 103.59 144.94 104.493H144.955Z" fill="white"/>
</g>
<g id="3 18 Layer0 3 1 STROKES">
<path id="Vector_15" d="M145.07 137.255C147.369 137.255 149.724 136.775 152.124 135.813C157.211 133.759 160.348 130.219 161.446 125.296C162.53 120.605 161.013 115.914 156.908 111.354C153.497 107.494 149.565 104.872 145.229 103.546C142.209 102.614 138.653 102.133 134.649 102.119C132.669 102.089 130.935 102.177 129.518 102.366L123.578 103.197C118.967 104.027 115.238 105.134 112.463 106.518C111.986 106.751 111.798 107.334 112.03 107.814C112.261 108.295 112.839 108.499 113.316 108.251C115.918 106.955 119.473 105.892 123.867 105.105L129.764 104.275C131.094 104.1 132.727 104.027 134.635 104.041C138.451 104.071 141.833 104.522 144.666 105.396C148.655 106.605 152.297 109.053 155.477 112.636C159.177 116.759 160.521 120.75 159.567 124.844C158.599 129.17 155.939 132.171 151.401 133.992C147.108 135.711 142.975 135.726 139.13 134.021C138.089 133.584 135.864 132.288 132.496 130.146C130.024 128.559 126.584 126.752 122.306 124.786L116.626 122.338C116.134 122.12 115.571 122.353 115.368 122.848C115.152 123.343 115.383 123.912 115.874 124.13L121.54 126.577C125.717 128.486 129.07 130.248 131.47 131.793C134.982 134.036 137.251 135.347 138.378 135.813C140.532 136.76 142.772 137.241 145.07 137.241V137.255Z" fill="black"/>
</g>
</g>
<g id="Group_6">
<g id="3 18 Layer0 4 MEMBER 0 FILL">
<path id="Vector_16" d="M66.472 10.0226C68.6834 7.63353 71.1116 6.0311 73.7566 5.22988C76.4305 4.42867 79.2778 4.79286 82.2986 6.30788C84.6545 7.47329 86.1143 9.17769 86.678 11.4211L86.3311 11.4648L86.8081 15.704C86.6636 16.5343 86.4034 17.2918 86.0276 17.9765L63.1187 29.2518C63.0465 29.0478 62.9742 28.8585 62.9019 28.6982L62.3094 23.4976L61.7312 23.5704C61.5867 21.8223 61.7023 20.0888 62.107 18.3698C62.8297 15.165 64.275 12.3826 66.472 10.008V10.0226Z" fill="white"/>
</g>
<g id="3 18 Layer0 4 MEMBER 0 1 STROKES">
<path id="Vector_17" d="M63.1188 30.2423C63.2634 30.2423 63.4079 30.2131 63.538 30.1403L86.4468 18.865C86.6203 18.7776 86.7648 18.6319 86.866 18.4717C87.2996 17.685 87.6031 16.811 87.7621 15.8786C87.8488 15.3542 87.502 14.8443 86.9816 14.7569C86.4468 14.6695 85.9554 15.0192 85.8687 15.5582C85.7675 16.17 85.5796 16.7381 85.3195 17.2626L63.538 27.9843C63.2778 27.7512 62.8876 27.6638 62.5262 27.8095C62.0348 28.0134 61.8035 28.5815 62.0059 29.0768C62.0782 29.2371 62.136 29.4265 62.2082 29.6158C62.3094 29.8781 62.4973 30.082 62.7575 30.184C62.8731 30.2277 62.9887 30.2568 63.1188 30.2568V30.2423ZM61.7313 24.5463C61.7313 24.5463 61.7891 24.5463 61.818 24.5463C62.3528 24.5026 62.743 24.0365 62.6997 23.4975C62.5551 21.8513 62.6852 20.2052 63.061 18.6028C63.7403 15.5727 65.1279 12.9069 67.1947 10.678C69.276 8.42006 71.5886 6.90503 74.0602 6.16209C76.5173 5.41914 79.0755 5.7542 81.894 7.18182C84.0042 8.23068 85.2761 9.68744 85.7675 11.6686C85.8976 12.1931 86.4179 12.5135 86.9383 12.3679C87.4586 12.2368 87.7621 11.7123 87.632 11.1879C86.9961 8.65314 85.3484 6.71566 82.7467 5.43371C79.5236 3.80214 76.4161 3.42339 73.5109 4.29744C70.7069 5.14236 68.1198 6.84676 65.7927 9.35238C63.4946 11.8289 61.9481 14.8006 61.1965 18.1512C60.7773 19.943 60.6473 21.8076 60.8063 23.6432C60.8496 24.153 61.2688 24.5318 61.7602 24.5318L61.7313 24.5463Z" fill="black"/>
</g>
</g>
<g id="Group_7">
<g id="3 18 Layer0 4 MEMBER 1 FILL">
<path id="Vector_18" d="M63.0467 26.7752C65.735 24.0948 68.7992 21.7785 72.268 19.8411C80.044 15.4999 87.69 13.0089 95.1913 12.3533C97.316 12.1785 99.4262 12.1348 101.522 12.2368C104.543 12.3679 107.361 12.8341 109.963 13.6207L113.027 14.6987L133.117 27.693L135.011 29.4848C136.557 31.1309 138.003 33.0538 139.332 35.239C143.452 42.0566 145.808 50.2727 146.4 59.9164L146.126 59.9455L146.227 60.805H146.183L146.964 61.8685L147.065 62.7279L147.73 62.6114L148.828 64.1556C150.592 66.9817 151.921 69.9534 152.847 73.0418C155.781 82.8457 153.916 92.1544 147.282 100.982C140.489 109.956 127.235 115.229 107.535 116.803C107.072 116.846 106.595 116.905 106.104 116.948C98.5879 117.487 90.8842 117.429 82.9926 116.759C81.4316 116.642 79.9718 116.497 78.6131 116.337C78.4541 116.307 78.3241 116.278 78.194 116.278L68.3078 114.574L67.3249 114.239C58.9419 111.719 52.2499 108.266 47.2634 103.852C40.398 97.8503 37.4061 90.552 38.2878 81.9425C38.9382 75.9116 40.9761 70.6964 44.416 66.297C45.4567 64.9276 46.5841 63.7477 47.7982 62.7279L49.3303 61.5771L49.3881 58.7073C49.706 53.9583 50.6455 49.2821 52.2065 44.6787C54.6202 37.6135 58.2192 31.6553 63.0178 26.7898L63.0467 26.7752Z" fill="white"/>
</g>
<g id="3 18 Layer0 4 MEMBER 1 1 STROKES">
<path id="Vector_19" d="M107.549 117.764C107.549 117.764 107.607 117.764 107.621 117.764C127.509 116.162 141.125 110.713 148.062 101.565C154.87 92.5186 156.792 82.8312 153.786 72.765C152.847 69.6039 151.459 66.5447 149.667 63.6457L148.525 62.0433C148.221 61.6063 147.614 61.5043 147.181 61.8248C146.747 62.1307 146.646 62.7425 146.964 63.1796L148.062 64.7237C149.739 67.4187 151.04 70.3322 151.936 73.3186C154.754 82.7584 152.933 91.8631 146.53 100.385C139.94 109.082 126.801 114.283 107.477 115.827C106.942 115.87 106.552 116.337 106.595 116.876C106.639 117.385 107.058 117.764 107.549 117.764ZM78.6421 117.283C79.0757 117.283 79.4804 116.978 79.5815 116.526C79.6972 116.002 79.3792 115.477 78.8589 115.361C78.6421 115.317 78.4542 115.288 78.2807 115.273L68.5679 113.598L67.6574 113.292C59.4044 110.815 52.7847 107.392 47.9283 103.095C41.3375 97.3405 38.4323 90.2461 39.2851 82.0154C39.9066 76.203 41.9012 71.1043 45.211 66.8652C46.2083 65.5541 47.2923 64.4178 48.4486 63.4418C48.8533 63.1067 48.9111 62.4949 48.5787 62.0724C48.2463 61.65 47.6392 61.6063 47.2201 61.9413C45.9482 63.0048 44.763 64.243 43.6934 65.6706C40.1667 70.1866 38.0421 75.6203 37.3772 81.7969C36.4666 90.6977 39.5886 98.3602 46.6708 104.551C51.7296 109.024 58.595 112.578 67.0792 115.127L68.0332 115.448C68.0332 115.448 68.1343 115.477 68.1777 115.492L78.0639 117.196C78.2518 117.211 78.3385 117.225 78.4253 117.254C78.4975 117.269 78.5698 117.283 78.6421 117.283ZM146.415 60.8779C146.415 60.8779 146.458 60.8779 146.473 60.8779C147.007 60.8488 147.412 60.3826 147.369 59.8436C146.762 50.0979 144.348 41.6487 140.171 34.7291C138.812 32.5003 137.309 30.5045 135.734 28.8147C135.372 28.4214 134.765 28.4068 134.375 28.771C133.985 29.1352 133.97 29.747 134.332 30.1404C135.82 31.7428 137.237 33.622 138.538 35.7343C142.541 42.3771 144.883 50.5349 145.461 59.9601C145.49 60.47 145.923 60.8633 146.415 60.8633V60.8779ZM49.417 59.6688C49.9229 59.6688 50.342 59.2755 50.3709 58.7656C50.6745 54.1185 51.6139 49.4861 53.146 44.9993C55.5019 38.1088 59.0575 32.2235 63.726 27.4745C66.3276 24.8669 69.3629 22.5798 72.7306 20.7006C80.3476 16.4469 87.9357 13.9704 95.2636 13.3294C97.316 13.1546 99.4118 13.1109 101.464 13.2129C104.398 13.344 107.173 13.7956 109.688 14.5531C110.194 14.6987 110.729 14.4074 110.888 13.8975C111.047 13.3877 110.743 12.8487 110.238 12.6884C107.578 11.8872 104.644 11.4065 101.565 11.2754C99.4263 11.1734 97.2582 11.2171 95.1046 11.3919C87.5021 12.0474 79.6683 14.6113 71.8055 18.9962C68.2789 20.9628 65.1135 23.3519 62.3674 26.0906C57.4821 31.0435 53.7675 37.1765 51.3249 44.3437C49.735 49.0053 48.7666 53.7981 48.4486 58.6199C48.4197 59.1589 48.81 59.6251 49.3447 59.6542C49.3736 59.6542 49.3881 59.6542 49.4026 59.6542L49.417 59.6688Z" fill="black"/>
</g>
</g>
<g id="Group_8">
<g id="3 18 Layer0 4 MEMBER 2 FILL">
<path id="Vector_20" d="M78.4682 84.8269C78.208 86.8372 77.4275 87.8424 76.1412 87.8278C74.8404 87.7987 73.6263 86.6479 72.4989 84.3753C71.3571 82.0882 70.4754 79.7137 69.825 77.2664L68.6976 73.4934C69.4347 72.6776 70.3887 72.124 71.5739 71.8327C73.9587 71.25 76.2857 72.2406 78.5405 74.819L78.7573 78.0821C78.8295 80.5441 78.7428 82.802 78.4826 84.8415L78.4682 84.8269Z" fill="#FF5252"/>
</g>
<g id="3 18 Layer0 4 MEMBER 2 1 STROKES">
<path id="Vector_21" d="M76.1413 88.7892C77.2109 88.7892 79.0031 88.2793 79.4368 84.9433C79.6969 82.8602 79.7981 80.5439 79.7258 78.0383L79.509 74.7461C79.509 74.5275 79.4078 74.3236 79.2633 74.1634C76.7628 71.3081 74.0889 70.201 71.3428 70.8711C69.9697 71.2061 68.8423 71.8617 67.9895 72.8231C67.7583 73.0708 67.686 73.435 67.7727 73.7555L68.9001 77.5285C69.5505 80.0049 70.4611 82.4523 71.6318 84.7977C72.9616 87.4344 74.4214 88.7309 76.1124 88.7746H76.1269L76.1413 88.7892ZM77.6011 75.2122L77.789 78.1403C77.8613 80.5002 77.7746 82.7291 77.5144 84.7103C77.2254 86.8808 76.4304 86.8663 76.1413 86.8663C75.0284 86.8371 74.0022 85.2638 73.3518 83.9528C72.2533 81.7385 71.3717 79.4077 70.7502 77.0332L69.7818 73.7846C70.331 73.3184 70.9959 72.9834 71.7908 72.7794C73.7421 72.2987 75.6499 73.0999 77.5867 75.2268L77.6011 75.2122Z" fill="black"/>
</g>
</g>
<g id="3 18 Layer0 4 MEMBER 2 MEMBER 0 1 STROKES">
<path id="Vector_22" d="M57.5544 63.602C57.6989 63.602 57.8434 63.5729 57.988 63.5001C60.2716 62.3347 62.3963 61.6063 64.3042 61.3004C64.68 61.2421 64.9835 60.9653 65.0847 60.6011C65.1858 60.2369 65.0557 59.8436 64.7667 59.596C62.9889 58.1246 61.1244 57.0029 59.2599 56.26C58.7685 56.0706 58.2048 56.3037 58.0169 56.8136C57.829 57.3089 58.0747 57.877 58.5661 58.0664C59.679 58.5034 60.8064 59.1007 61.9049 59.8582C60.4017 60.2806 58.7974 60.9216 57.1352 61.7665C56.6582 62.0142 56.4703 62.5969 56.7016 63.063C56.875 63.3981 57.2075 63.602 57.5688 63.602H57.5544Z" fill="black"/>
</g>
<g id="3 18 Layer0 4 MEMBER 2 MEMBER 1 1 STROKES">
<path id="Vector_23" d="M94.8442 65.7433C95.22 65.7433 95.5669 65.5248 95.7259 65.1606C95.9427 64.6653 95.7259 64.0972 95.22 63.8787L91.2597 62.1451C89.8144 61.5333 88.6436 61.038 87.7186 60.6593C88.7014 60.2659 89.9011 59.9017 91.332 59.5813L94.8586 58.9403C95.379 58.8383 95.7259 58.343 95.6391 57.8186C95.5524 57.2942 95.0321 56.9445 94.5262 57.0319L90.9562 57.6729C88.1811 58.2993 86.201 59.0568 84.8568 59.9746C84.5533 60.1785 84.3943 60.5427 84.4521 60.8923C84.4955 61.2565 84.7412 61.5624 85.0736 61.679C85.9119 61.9849 87.7475 62.7424 90.5226 63.9224L94.4684 65.6414C94.5985 65.6996 94.7286 65.7288 94.8586 65.7288L94.8442 65.7433Z" fill="black"/>
</g>
<g id="Group_9">
<g id="3 18 Layer0 4 MEMBER 2 MEMBER 2 FILL">
<path id="Vector_24" d="M72.1956 62.6111C75.5344 62.4655 78.0204 62.5674 79.6392 62.9171C83.1514 63.558 85.2905 65.175 86.0421 67.7972C86.8515 70.5359 86.4902 72.7356 84.9725 74.3672C83.7151 75.7656 81.9084 76.5232 79.5669 76.6251C77.847 76.698 76.1703 76.0716 74.5515 74.7459C73.6988 74.1195 73.0628 73.4494 72.6148 72.7356L71.5018 74.8916C70.4756 76.2901 69.1026 77.033 67.3826 77.1204C65.0411 77.2078 63.1622 76.6106 61.7457 75.3141C60.098 73.8136 59.5921 71.6576 60.1992 68.8461C60.7484 66.1511 62.5117 64.3593 65.4747 63.4706C66.8189 63.0045 69.0592 62.6985 72.1956 62.582V62.6111Z" fill="white"/>
</g>
<g id="3 18 Layer0 4 MEMBER 2 MEMBER 2 1 STROKES">
<path id="Vector_25" d="M66.9343 78.0965C67.0933 78.0965 67.2523 78.0965 67.4113 78.0965C69.4348 77.98 71.068 77.106 72.2677 75.4744C72.2966 75.4307 72.3255 75.387 72.3544 75.3433L72.788 74.4984C73.1349 74.848 73.5251 75.1976 73.9732 75.5181C75.751 76.9603 77.6444 77.6887 79.6101 77.5867C82.2117 77.4556 84.2497 76.5961 85.6806 75.0082C87.4294 73.129 87.863 70.5943 86.9669 67.5059C86.0997 64.5196 83.686 62.6404 79.8124 61.9411C78.1358 61.5624 75.6209 61.4604 72.1665 61.6206C68.9 61.7517 66.6163 62.0722 65.171 62.5675C61.89 63.5436 59.881 65.5976 59.2595 68.6713C58.5802 71.8179 59.2017 74.2944 61.1095 76.0425C62.6127 77.4119 64.5784 78.1111 66.9488 78.1111L66.9343 78.0965ZM70.6778 74.3673C69.825 75.489 68.7265 76.0717 67.3246 76.1445C65.2432 76.2173 63.6245 75.7075 62.3959 74.5858C61.0084 73.3184 60.6037 71.512 61.1384 69.0501C61.6154 66.7047 63.1186 65.1897 65.7491 64.403C67.0355 63.9514 69.2035 63.6747 72.2388 63.5436C75.4908 63.3979 77.9046 63.4999 79.4366 63.8349C82.6164 64.4176 84.4665 65.787 85.1313 68.0449C85.8395 70.4631 85.5505 72.2987 84.2786 73.6826C83.1801 74.9063 81.6336 75.5327 79.5378 75.6346C78.0635 75.6929 76.6182 75.1539 75.1728 73.9739C74.3923 73.3912 73.8287 72.8085 73.4529 72.2113C73.265 71.9199 72.9325 71.7597 72.6001 71.7597C72.2532 71.7742 71.9497 71.9782 71.7907 72.2841L70.7211 74.3673H70.6778Z" fill="black"/>
</g>
</g>
<g id="3 18 Layer0 4 MEMBER 2 MEMBER 3 FILL">
<path id="Vector_26" d="M68.4375 64.7674C67.8305 64.2575 67.5269 63.7477 67.4836 63.2378C67.4836 62.6988 67.5992 62.2764 67.8883 61.985C68.3797 61.5625 69.3192 61.3295 70.7067 61.2712C72.1521 61.2129 73.2795 61.3586 74.0889 61.7374C74.7682 62.0433 75.1295 62.4366 75.1584 62.9028C75.1873 63.3398 74.7104 63.8934 73.7564 64.5489C72.7736 65.2044 71.8052 65.5541 70.8513 65.5832C69.9551 65.6415 69.1458 65.3647 68.4375 64.7674Z" fill="black"/>
</g>
<g id="3 18 Layer0 4 MEMBER 2 MEMBER 4 FILL">
<path id="Vector_27" d="M115.166 78.2715C117.869 78.6357 120.21 79.2912 122.176 80.2381C126.31 82.0736 129.099 84.0111 130.545 86.0214C131.976 87.9589 131.947 89.707 130.444 91.222C129.186 92.4894 127.047 92.1107 123.997 90.0858C122.378 88.9932 120.384 87.449 117.999 85.4241C112.882 81.9862 110.469 79.7574 110.772 78.7668C111.004 78.0675 112.463 77.8927 115.166 78.2569M121.251 72.1822C119.82 71.1188 117.84 70.0845 115.311 69.0357C113.938 68.5112 111.972 67.7537 109.428 66.7485C107.968 66.1367 107.318 65.554 107.491 65.015C107.607 64.4614 108.532 64.1555 110.252 64.1118C114.284 64.141 117.132 64.3595 118.78 64.7674C123.911 65.8454 127.611 67.3604 129.88 69.3124C131.195 70.3904 132.062 71.5704 132.496 72.8815C132.93 74.2071 132.857 75.2123 132.25 75.8824C130.617 77.6014 126.946 76.3777 121.251 72.1968V72.1822Z" fill="black"/>
</g>
<g id="3 18 Layer0 4 MEMBER 2 MEMBER 5 FILL">
<path id="Vector_28" d="M37.8684 87.9443C39.1837 86.7789 40.6001 86.0651 42.1177 85.8174C44.0979 85.4824 44.7338 86.6332 44.0256 89.2699C42.7248 92.5768 41.8431 94.8056 41.3806 95.9856C39.5161 93.4654 38.3454 90.785 37.8684 87.9589M38.8801 78.0675C39.2993 75.3434 40.022 72.9106 41.0771 70.7837C41.5107 70.4778 42.0021 70.2593 42.5513 70.1428C44.6327 69.5455 46.0491 69.5309 46.8151 70.1136C47.5234 70.6818 47.2632 71.3373 46.0347 72.0802C43.8955 73.4496 41.5107 75.4453 38.8801 78.0675Z" fill="black"/>
</g>
<g id="3 18 Layer0 4 MEMBER 2 MEMBER 6 FILL">
<path id="Vector_29" d="M73.4818 22.9293C73.7853 22.1718 74.3201 21.6037 75.0717 21.254C75.8088 20.9336 76.5604 20.9336 77.3265 21.254C77.8902 21.4725 78.3527 21.8513 78.6995 22.3903C78.9886 22.9002 79.1332 23.4537 79.1187 24.0656L86.0275 23.8179C86.8224 23.7742 87.5307 24.0364 88.1377 24.59C88.7158 25.129 89.0194 25.7991 89.0627 26.6295C89.1061 27.4015 88.8459 28.1008 88.2967 28.7126C87.7475 29.3536 87.0826 29.6887 86.2877 29.7324L77.6011 30.0674C77.3987 31.058 77.1964 32.6459 76.9796 34.831L81.995 34.5979C82.7899 34.5542 83.4981 34.831 84.1052 35.4137C84.7122 35.9964 85.0302 36.6665 85.0736 37.4532C85.088 38.2835 84.8278 38.9973 84.2642 39.58C83.7005 40.1627 83.0356 40.4832 82.2407 40.5123L76.6905 40.76L76.6327 42.0128C76.6327 42.7994 76.3725 43.4841 75.8233 44.096C75.2885 44.6495 74.6236 44.9554 73.8287 44.9846H73.7853C72.9615 44.9554 72.2533 44.6787 71.6751 44.1397C71.0681 43.557 70.7501 42.8577 70.7356 42.0274L70.7646 40.9639L68.2641 41.095C67.4402 41.1096 66.732 40.862 66.125 40.323C65.5468 39.7694 65.2433 39.0702 65.2288 38.2398C65.1855 37.4677 65.4312 36.7685 65.966 36.1566C66.5152 35.5157 67.1945 35.1952 68.0184 35.1806L71.097 35.0204L71.6028 30.3151L66.5875 30.5044C65.7925 30.5481 65.0988 30.2714 64.5206 29.6886C63.9136 29.1351 63.5956 28.465 63.5522 27.6929C63.5089 26.8625 63.7835 26.1633 64.3616 25.566C64.882 24.9542 65.5468 24.6337 66.3418 24.59L72.9326 24.3424C73.1205 23.7014 73.2939 23.2207 73.4674 22.9147L73.4818 22.9293Z" fill="black"/>
</g>
<g id="Group_10">
<g id="3 18 Layer0 4 MEMBER 3 FILL">
<path id="Vector_30" d="M111.928 17.35C111.899 15.9952 112.116 14.4511 112.564 12.7029C113.46 9.20673 115.065 6.49717 117.377 4.57425C120.369 2.0395 123.838 0.84496 127.784 0.990635C132.149 1.16545 135.589 3.05923 138.118 6.67198C140.431 9.97881 140.835 13.6935 139.347 17.8162C137.858 21.9533 135.025 24.9106 130.862 26.6878L127.466 28.8001L126.396 27.8678L111.943 17.35H111.928Z" fill="white"/>
</g>
<g id="3 18 Layer0 4 MEMBER 3 1 STROKES">
<path id="Vector_31" d="M130.862 27.6637C130.993 27.6637 131.123 27.6346 131.238 27.5909C135.632 25.7117 138.667 22.5359 140.257 18.1511C141.862 13.7226 141.399 9.6728 138.913 6.10374C136.21 2.24334 132.481 0.189318 127.813 -6.03124e-05C123.621 -0.131168 119.921 1.13621 116.741 3.81664C114.284 5.87066 112.564 8.78417 111.61 12.4552C111.148 14.2761 110.917 15.9223 110.946 17.3645C110.946 17.8889 111.379 18.3114 111.914 18.3114H111.928C112.463 18.3114 112.882 17.8598 112.868 17.3208C112.839 16.068 113.041 14.5821 113.475 12.9359C114.313 9.65823 115.831 7.09434 117.97 5.30253C120.759 2.94259 124.04 1.80632 127.726 1.93742C131.802 2.09767 134.938 3.81664 137.309 7.21088C139.448 10.2701 139.809 13.6206 138.422 17.4664C137.005 21.3705 134.404 24.0947 130.458 25.7845C129.966 25.9885 129.735 26.5712 129.952 27.0519C130.111 27.4161 130.458 27.6492 130.834 27.6492L130.862 27.6637Z" fill="black"/>
</g>
</g>
</g>
</g>
<g id="Group_11">
<g id="Group_12">
<g id="Group_13">
<g id="2 5 Layer0 0 FILL">
<path id="Vector_32" d="M33.9513 40.9285L34.2259 46.5224C34.8764 50.4702 36.3651 53.0632 38.7065 54.3015L37.8249 54.622C36.9866 55.0299 35.9748 55.6271 34.7752 56.4429C33.4165 57.3461 32.3759 58.5261 31.6388 59.9828C31.0462 61.0754 30.4825 62.707 29.9332 64.8775C29.9043 62.8235 29.6586 60.7549 29.1961 58.6863C28.2711 54.52 26.739 52.3494 24.6143 52.16C26.0308 52.0289 27.7363 51.1549 29.7453 49.5088C30.6126 48.7949 31.3641 47.6878 32.0145 46.2019C32.7806 44.1188 33.431 42.3707 33.9513 40.943V40.9285Z" fill="#FFCC66"/>
</g>
<g id="2 5 Layer0 0 1 STROKES">
<path id="Vector_33" d="M29.9623 65.7953C30.3959 65.7953 30.7862 65.5039 30.9018 65.0669C31.4366 62.9837 31.9858 61.4104 32.5206 60.3907C33.1855 59.0651 34.1394 58.0016 35.3535 57.2004C36.5242 56.4138 37.5071 55.8311 38.2876 55.4523L39.0825 55.161C39.4438 55.0299 39.6895 54.6948 39.7185 54.316C39.7474 53.9373 39.545 53.5731 39.2126 53.3983C37.1602 52.3057 35.816 49.9312 35.2234 46.3185L34.9632 40.8411C34.9343 40.3749 34.6019 39.9961 34.1538 39.9379C33.6913 39.865 33.2577 40.1272 33.0987 40.5643C32.5784 41.9919 31.928 43.74 31.162 45.8232C30.5983 47.1197 29.9334 48.1103 29.1818 48.7221C27.3462 50.2371 25.7997 51.0529 24.5856 51.1549C24.0942 51.1986 23.7039 51.621 23.7039 52.1163C23.7039 52.6116 24.0797 53.0341 24.5856 53.0778C26.2333 53.2235 27.4908 55.161 28.3002 58.8466C28.7482 60.8569 28.9939 62.8672 29.0228 64.8484C29.0228 65.3291 29.3986 65.737 29.8756 65.7953C29.919 65.7953 29.9479 65.7953 29.9912 65.7953H29.9623ZM36.7844 54.0538C36.0328 54.4617 35.2089 54.9716 34.2839 55.5834C32.7952 56.574 31.6245 57.8851 30.8151 59.4875C30.7139 59.6915 30.5983 59.8954 30.4971 60.1285C30.3959 59.5604 30.2947 58.9777 30.1647 58.4095C29.5143 55.5106 28.5459 53.4566 27.274 52.2912C28.2279 51.8104 29.2685 51.1258 30.3815 50.208C31.3643 49.3922 32.2171 48.154 32.9253 46.537C33.0409 46.2311 33.1421 45.9397 33.2577 45.6483L33.3011 46.5224C33.8648 49.9603 35.0211 52.466 36.7844 54.0538Z" fill="black"/>
</g>
</g>
<g id="Group_14">
<g id="2 5 Layer0 1 FILL">
<path id="Vector_34" d="M12.5602 67.0046C13.2973 72.1469 15.104 75.4829 17.9658 76.9979L13.9044 79.6783C10.9703 82.4316 8.97573 86.3066 7.94952 91.2887C7.71827 88.6665 7.2413 85.9861 6.54753 83.262C5.11663 77.9157 3.23766 75.1187 0.939548 74.8856C2.47162 74.7108 4.32169 73.5454 6.50417 71.3457C8.6722 69.1897 10.609 65.3002 12.3145 59.6917L12.5602 67.0046Z" fill="#FFCC66"/>
</g>
<g id="2 5 Layer0 1 1 STROKES">
<path id="Vector_35" d="M7.96391 92.25C8.41197 92.25 8.81668 91.9296 8.9034 91.478C9.88624 86.7581 11.7796 83.0434 14.5114 80.4358L18.5005 77.8136C18.7896 77.6242 18.9486 77.3037 18.9342 76.9541C18.9197 76.6045 18.7173 76.2986 18.4138 76.1383C15.8411 74.7836 14.1934 71.6661 13.5141 66.8734L13.2684 59.6624C13.2539 59.1817 12.8926 58.8029 12.43 58.7301C11.9675 58.6718 11.5195 58.9486 11.3894 59.4148C9.74169 64.8485 7.87719 68.6361 5.82479 70.6609C3.32433 73.1811 1.73444 73.8221 0.838324 73.9241C0.346903 73.9823 -0.0289059 74.3902 -0.014452 74.8855C-0.014452 75.3808 0.361349 75.8033 0.852768 75.847C2.68837 76.0364 4.33607 78.6877 5.63689 83.5095C6.3162 86.1608 6.77871 88.8121 7.00997 91.3614C7.05333 91.8422 7.42914 92.2209 7.9061 92.25C7.92056 92.25 7.94946 92.25 7.96391 92.25ZM16.2313 76.9978L13.4129 78.8625C13.4129 78.8625 13.3262 78.9207 13.2828 78.9644C11.1582 80.9602 9.49599 83.5387 8.3108 86.6415C8.094 85.4324 7.81938 84.2233 7.50141 83.0142C6.43184 79.0227 5.11657 76.3714 3.49777 75.0021C4.6396 74.3611 5.86815 73.3851 7.19787 72.0303C8.78776 70.457 10.2187 68.0825 11.5339 64.863L11.6062 67.0482C12.2711 71.7826 13.8176 75.104 16.2169 77.0124L16.2313 76.9978Z" fill="black"/>
</g>
</g>
<g id="2 5 Layer0 2 MEMBER 0 1 STROKES">
<path id="Vector_36" d="M10.7102 47.0614C11.1293 47.0614 11.5196 46.7701 11.6352 46.333L12.9938 41.1907C13.1239 40.6663 12.8204 40.1418 12.3145 39.9962C11.8087 39.865 11.2739 40.171 11.1438 40.6808L9.78516 45.8232C9.65508 46.3476 9.95858 46.872 10.4645 47.0177C10.5512 47.0323 10.6235 47.0469 10.7102 47.0469V47.0614Z" fill="black"/>
</g>
<g id="2 5 Layer0 2 MEMBER 1 1 STROKES">
<path id="Vector_37" d="M5.99823 49.9312C6.43183 49.9312 6.83655 49.6253 6.93772 49.1883C7.05335 48.6639 6.73537 48.1394 6.21504 48.0229L1.9657 47.0177C1.44537 46.8866 0.92504 47.2217 0.809411 47.7461C0.693783 48.2705 1.01176 48.795 1.53209 48.9115L5.78143 49.9167C5.8537 49.9312 5.92596 49.9458 5.99823 49.9458V49.9312Z" fill="black"/>
</g>
<g id="2 5 Layer0 2 MEMBER 2 1 STROKES">
<path id="Vector_38" d="M7.35713 58.5115C7.77628 58.5115 8.16653 58.2347 8.28216 57.7977L9.53961 53.2526C9.68414 52.7282 9.38063 52.2038 8.87476 52.0581C8.36888 51.9124 7.83409 52.2183 7.68956 52.7282L6.43211 57.2733C6.28757 57.7977 6.5911 58.3221 7.09698 58.4678C7.1837 58.4969 7.27041 58.5115 7.35713 58.5115Z" fill="black"/>
</g>
<g id="2 5 Layer0 2 MEMBER 3 1 STROKES">
<path id="Vector_39" d="M16.5637 52.4077C16.9973 52.4077 17.402 52.1018 17.5032 51.6648C17.6188 51.1403 17.3008 50.6159 16.7805 50.4994L13.5718 49.7419C13.0659 49.6107 12.5311 49.9458 12.4155 50.4702C12.2999 50.9947 12.6178 51.5191 13.1382 51.6356L16.3469 52.3932C16.4191 52.4077 16.4914 52.4223 16.5637 52.4223V52.4077Z" fill="black"/>
</g>
</g>
</g>
</g>
<defs>
<clipPath id="clip0_344_7444">
<rect width="203" height="175" fill="white" transform="matrix(-1 0 0 1 203 0)"/>
</clipPath>
</defs>
</svg>
