<svg width="198" height="168" viewBox="0 0 198 168" fill="none" xmlns="http://www.w3.org/2000/svg">
<g id="&#237;&#152;&#184;&#235;&#158;&#145;&#236;&#157;&#180;">
<g id="Group">
<g id="Group_2">
<g id="Group_3">
<g id="3 18 Layer0 0 FILL">
<path id="Vector" d="M167.955 88.5568C167.501 86.8783 166.717 85.6437 165.616 84.8669C164.461 84.0762 163.291 84.0346 162.122 84.7421C161.117 85.3247 160.361 86.1015 159.865 87.0864C159.687 87.4887 159.343 88.2932 158.82 89.5C158.283 90.6791 157.733 92.0385 157.182 93.5644C156.605 95.0626 153.55 96.9352 148.033 99.1686C142.516 101.374 134.041 102.914 122.594 103.788L130.243 122.362L134.811 123.929C136.889 124.665 139.049 125.275 141.264 125.788C148.35 127.37 154.816 127.439 160.691 126.038C167.171 124.526 171.863 121.627 174.78 117.354C177.284 113.678 177.944 110.072 176.788 106.507C175.825 103.538 174.573 101.249 173.046 99.6541C171.615 98.1837 170.06 97.3791 168.368 97.2404C166.978 97.3653 165.63 97.8091 164.309 98.586C161.599 100.126 160.319 102.512 160.443 105.771C160.54 109.073 161.448 111.972 163.167 114.469C164.02 115.745 164.86 116.675 165.699 117.257C164.873 116.675 164.02 115.745 163.167 114.469C161.461 111.972 160.553 109.073 160.443 105.771C160.319 102.525 161.613 100.126 164.309 98.586C165.63 97.823 166.978 97.3791 168.368 97.2404C168.96 94.799 168.822 91.9137 167.969 88.5568H167.955Z" fill="white"/>
</g>
<g id="3 18 Layer0 0 1 STROKES">
<path id="Vector_2" d="M151.954 127.98C148.487 127.98 144.841 127.564 141.058 126.718C138.815 126.204 136.614 125.566 134.495 124.831L129.927 123.277C129.679 123.194 129.473 123 129.377 122.75L121.727 104.176C121.617 103.899 121.645 103.594 121.796 103.344C121.947 103.094 122.209 102.928 122.511 102.9C133.807 102.054 142.268 100.514 147.675 98.3501C154.802 95.4509 156.082 93.8279 156.302 93.2592C156.852 91.7472 157.416 90.36 157.967 89.1393C158.476 87.9464 158.82 87.1418 159.012 86.7395C159.618 85.5605 160.498 84.6449 161.654 83.9791C163.112 83.0913 164.667 83.1468 166.112 84.1455C167.405 85.0472 168.313 86.4621 168.822 88.3486C169.606 91.4004 169.813 94.1331 169.428 96.5052C170.955 96.8519 172.372 97.6981 173.679 99.0298C175.302 100.722 176.637 103.136 177.641 106.229C178.893 110.058 178.178 113.983 175.523 117.881C172.482 122.334 167.556 125.386 160.884 126.953C158.063 127.633 155.077 127.98 151.954 127.98ZM130.904 121.654L135.087 123.083C137.15 123.804 139.283 124.415 141.457 124.914C148.363 126.454 154.761 126.537 160.471 125.164C166.69 123.721 171.244 120.919 174.023 116.855C176.376 113.401 176.995 110.113 175.922 106.826C175 103.996 173.803 101.818 172.386 100.334C171.134 99.0437 169.813 98.3501 168.368 98.2114C167.144 98.3362 165.933 98.7385 164.763 99.4321C162.356 100.805 161.241 102.872 161.351 105.771C161.448 108.879 162.301 111.639 163.91 113.983C164.708 115.162 165.479 116.023 166.208 116.536C166.621 116.827 166.731 117.41 166.428 117.826C166.139 118.242 165.561 118.353 165.149 118.048C164.213 117.396 163.319 116.397 162.383 115.024C160.581 112.388 159.618 109.295 159.508 105.827C159.37 102.22 160.829 99.5292 163.842 97.8091C165.052 97.1016 166.304 96.6439 167.584 96.4358C167.983 94.2857 167.804 91.7194 167.047 88.8203C166.648 87.3638 165.988 86.3095 165.066 85.6576C164.213 85.0749 163.443 85.0333 162.576 85.5605C161.709 86.0598 161.076 86.7118 160.663 87.5302C160.498 87.8909 160.154 88.6816 159.645 89.8884C159.109 91.0675 158.558 92.413 158.022 93.8973C157.582 95.0486 156.109 96.9074 148.363 100.042C142.984 102.193 134.77 103.732 123.915 104.62L130.918 121.627L130.904 121.654Z" fill="black"/>
</g>
</g>
<g id="3 18 Layer0 1 MEMBER 0 MEMBER 0 FILL">
<path id="Vector_3" d="M57.6265 141.449C52.5634 141.893 47.7617 143.225 43.2352 145.444C38.7775 147.594 33.6456 147.622 27.8533 145.527C23.8221 144.099 20.9053 142.49 19.1304 140.658C17.7133 139.16 15.7046 138.273 13.118 137.967C9.41699 137.496 6.23879 139.008 3.58342 142.517C1.97368 144.792 1.98744 146.915 3.65221 148.857C4.79416 150.174 6.28007 151.132 8.10994 151.7L24.5925 156.833C30.7013 158.733 36.7825 158.733 42.8362 156.833C47.5966 155.362 51.9168 154.544 55.8104 154.364C60.7359 154.128 65.4688 154.835 70.0091 156.5L72.348 156.847C74.0541 156.444 75.3749 154.752 76.283 151.756C77.2185 148.718 76.0215 146.263 72.7058 144.39C71.6876 143.78 69.3762 142.906 65.7853 141.796C63.9967 141.241 61.2725 141.13 57.6128 141.463L57.6265 141.449Z" fill="white"/>
</g>
<g id="3 18 Layer0 1 MEMBER 0 MEMBER 1 FILL">
<path id="Vector_4" d="M18.4838 142.032L17.9472 141.546C16.5163 140.076 14.5076 139.174 11.921 138.855C8.22001 138.383 5.05558 139.895 2.4002 143.405C0.790463 145.694 0.817979 147.816 2.46899 149.758C3.6247 151.09 5.09685 152.033 6.91296 152.602L10.5177 153.725C12.8428 147.539 15.4982 143.641 18.4838 142.032Z" fill="black"/>
</g>
<g id="3 18 Layer0 1 MEMBER 0 MEMBER 2 FILL">
<path id="Vector_5" d="M30.4536 147.539C28.3211 147.123 26.2436 146.401 24.2211 145.403C21.8821 148.135 20.0523 151.77 18.759 156.292L26.0647 158.484C27.2617 153.767 28.7338 150.119 30.4536 147.539Z" fill="black"/>
</g>
<g id="3 18 Layer0 1 MEMBER 0 MEMBER 3 FILL">
<path id="Vector_6" d="M42.052 146.36C39.9332 147.4 37.553 147.941 34.9114 147.955C34.0171 151.381 34.0584 155.099 35.0214 159.066C37.4017 158.83 39.603 158.386 41.6393 157.707L44.1295 156.944C42.6849 153.517 41.9832 149.98 42.052 146.346V146.36Z" fill="black"/>
</g>
<g id="3 18 Layer0 1 MEMBER 0 MEMBER 4 FILL">
<path id="Vector_7" d="M50.4859 143.141C49.0963 147.566 49.2614 151.631 50.9812 155.348C53.8292 154.946 56.6359 154.849 59.3876 155.029C58.2457 150.396 58.0806 146.054 58.8648 141.99C56.0993 142.073 53.3064 142.462 50.4721 143.141H50.4859Z" fill="black"/>
</g>
<g id="3 18 Layer0 1 MEMBER 0 MEMBER 5 FILL">
<path id="Vector_8" d="M66.1292 143.086C67.8628 147.844 67.7802 152.297 65.8678 156.444C66.8034 156.708 67.794 157.013 68.8121 157.36L71.151 157.721C72.8571 157.332 74.1641 155.64 75.0722 152.644C76.3792 148.385 73.3937 145.208 66.1154 143.072L66.1292 143.086Z" fill="black"/>
</g>
<g id="3 18 Layer0 1 MEMBER 1 1 STROKES">
<path id="Vector_9" d="M32.9714 159.898C29.807 159.898 26.6288 159.413 23.4781 158.428L6.9955 153.323C5.02805 152.699 3.40455 151.645 2.16629 150.174C0.240113 147.913 0.185079 145.319 2.00119 142.684C4.90422 138.883 8.39886 137.232 12.4163 137.759C15.1955 138.078 17.4106 139.091 18.9929 140.742L19.9422 141.519C20.3274 141.838 20.3962 142.42 20.066 142.822C19.7496 143.211 19.1717 143.266 18.7727 142.947L17.7408 142.101C16.3788 140.7 14.5351 139.882 12.1824 139.604C8.7841 139.174 5.94986 140.534 3.45959 143.78C2.13878 145.694 2.15253 147.345 3.54214 148.968C4.5465 150.161 5.89483 151.034 7.51832 151.548L24.0009 156.652C29.917 158.497 35.8882 158.511 41.7493 156.694C46.5372 155.182 50.995 154.322 54.9711 154.142C59.9379 153.92 64.7947 154.627 69.445 156.278L71.4813 156.625C72.7608 156.222 73.8064 154.738 74.5907 152.214C75.3749 149.578 74.398 147.567 71.4813 145.902C70.4907 145.319 68.2068 144.473 64.6984 143.391C63.0336 142.864 60.4057 142.767 56.8836 143.114C51.9305 143.544 47.1839 144.862 42.7812 147.026C39.3553 148.676 35.4342 149.12 31.1278 148.343C28.0046 147.761 24.8677 146.596 21.7583 144.875C21.318 144.626 21.1529 144.071 21.4006 143.627C21.6482 143.183 22.1986 143.017 22.6388 143.266C25.5694 144.889 28.5412 145.985 31.458 146.526C35.3791 147.234 38.9288 146.845 41.997 145.361C46.606 143.114 51.5591 141.74 56.7322 141.283C60.5433 140.908 63.3363 141.033 65.2487 141.629C68.936 142.767 71.2749 143.641 72.4031 144.307C76.9709 146.928 77.0672 150.355 76.3517 152.768C75.3199 156.07 73.7789 157.998 71.7427 158.484C71.6189 158.511 71.495 158.511 71.3712 158.484L69.0598 158.081C69.0598 158.081 68.9635 158.053 68.9084 158.04C64.4645 156.444 59.8004 155.751 55.0537 155.987C51.2289 156.153 46.9225 156.985 42.2859 158.456C39.1902 159.413 36.0808 159.898 32.9577 159.898H32.9714Z" fill="black"/>
</g>
<g id="Group_4">
<g id="3 18 Layer0 2 FILL">
<path id="Vector_10" d="M70.8346 113.664L70.5457 114.399L65.5651 143.571V143.682C65.0974 147.525 64.7947 150.979 64.6433 154.072L64.1618 162.909C64.093 164.559 64.891 165.53 66.5833 165.835H90.0139L92.3941 165.655C93.7424 165.239 93.8387 164.268 92.683 162.728C92.8343 162.326 93.3709 161.729 94.2927 160.911C95.2421 160.134 97.1958 159.482 100.154 158.955L109.179 158.886C109.179 158.886 109.482 159.094 110.019 159.441C110.775 159.94 111.656 160.606 112.66 161.438C113.954 162.52 114.903 163.671 115.481 164.878C115.976 165.863 116.279 166.376 116.403 166.39L134.371 166.321C136.737 166.321 138.292 166.265 139.035 166.141C140.617 165.863 141.443 165.239 141.498 164.254C141.553 163.311 140.975 162.381 139.778 161.438L137.976 160.328C137.811 160.384 137.687 160.328 137.604 160.148C137.48 159.857 137.728 159.233 138.333 158.303C138.939 157.36 139.544 155.917 140.136 153.934L140.796 151.27C141.03 149.259 141.03 147.15 140.796 144.945L140.067 141.13C139.888 140.409 139.682 139.715 139.448 139.022C138.801 137.232 138.141 135.595 137.467 134.111C135.664 127.633 134.426 123.333 133.766 121.238C133.353 119.934 132.83 118.519 132.225 116.98L131.454 115.051C129.831 98.7523 119.306 94.6186 99.8787 102.664L93.536 102.22C88.693 102.414 84.6206 103.496 81.3185 105.438C79.7363 106.382 77.7276 107.297 75.3061 108.213C73.4762 109.198 71.9766 111.015 70.8346 113.65V113.664Z" fill="white"/>
</g>
<g id="3 18 Layer0 2 1 STROKES">
<path id="Vector_11" d="M116.416 167.32C116.416 167.32 116.292 167.32 116.237 167.306C115.715 167.195 115.439 166.848 114.669 165.294C114.146 164.199 113.266 163.158 112.082 162.159C111.119 161.355 110.253 160.703 109.537 160.231C109.262 160.051 109.069 159.94 108.945 159.843L100.264 159.898C96.8518 160.509 95.4759 161.188 94.9256 161.66C94.334 162.159 94.0038 162.492 93.8112 162.714C94.3753 163.63 94.5404 164.407 94.3202 165.1C94.1689 165.572 93.7561 166.21 92.6692 166.543C92.6004 166.571 92.5316 166.571 92.4628 166.585L90.0826 166.765H66.5832C66.5832 166.765 66.4732 166.765 66.4181 166.765C64.2718 166.39 63.1299 165.003 63.2262 162.881L63.7077 154.031C63.8453 150.937 64.1618 147.428 64.6295 143.571C64.6295 143.516 64.6295 143.474 64.6295 143.419L69.6101 114.247C69.6101 114.247 69.6376 114.122 69.6651 114.053L69.9541 113.318C71.1923 110.474 72.8433 108.49 74.8521 107.408C77.3286 106.465 79.296 105.563 80.837 104.648C84.2628 102.636 88.5142 101.499 93.481 101.305L99.9337 101.749C100.443 101.79 100.828 102.234 100.8 102.747C100.773 103.261 100.319 103.649 99.8099 103.621L93.4672 103.177C88.9132 103.372 84.9507 104.412 81.7863 106.271C80.1628 107.228 78.0853 108.185 75.6225 109.114C74.0953 109.947 72.7333 111.625 71.6739 114.053L71.4262 114.677L66.4732 143.682C66.4732 143.682 66.4732 143.793 66.4732 143.821C66.0054 147.622 65.7027 151.09 65.5651 154.142L65.0836 162.992C65.0285 164.129 65.4963 164.698 66.652 164.92H90.0001L92.2014 164.753C92.4491 164.656 92.5316 164.573 92.5454 164.559C92.5454 164.559 92.628 164.226 91.94 163.325C91.7474 163.061 91.6924 162.728 91.8162 162.423C92.0363 161.84 92.6142 161.175 93.7149 160.245C94.788 159.33 96.838 158.622 100.002 158.067C100.058 158.067 100.113 158.067 100.154 158.067L109.193 158.012H114.022V157.998C114.531 157.998 114.958 158.414 114.958 158.927C114.958 159.441 114.545 159.871 114.036 159.871H112.179C112.523 160.148 112.894 160.439 113.266 160.758C114.655 161.924 115.687 163.186 116.334 164.504C116.581 165.003 116.746 165.308 116.857 165.489L134.385 165.419C137.274 165.419 138.43 165.322 138.898 165.253C139.984 165.072 140.549 164.726 140.576 164.24C140.604 163.63 140.15 162.95 139.214 162.215L137.742 161.313C137.315 161.258 136.958 160.994 136.765 160.55C136.504 159.898 136.737 159.108 137.577 157.818C138.141 156.958 138.705 155.57 139.255 153.698L139.902 151.076C140.108 149.259 140.108 147.206 139.874 145.083L139.173 141.366C139.008 140.728 138.801 140.048 138.567 139.396C137.934 137.634 137.274 135.998 136.614 134.555C136.6 134.513 136.572 134.458 136.559 134.416C134.756 127.952 133.518 123.624 132.858 121.557C132.445 120.281 131.936 118.866 131.344 117.368L130.574 115.44C130.381 114.954 130.615 114.413 131.083 114.219C131.564 114.025 132.101 114.261 132.294 114.746L133.064 116.674C133.683 118.214 134.206 119.671 134.632 120.989C135.293 123.097 136.504 127.3 138.333 133.834C139.008 135.304 139.668 136.969 140.315 138.758C140.562 139.465 140.796 140.201 140.989 140.95L141.718 144.792C141.979 147.137 141.979 149.328 141.718 151.395L141.03 154.169C140.397 156.292 139.778 157.79 139.104 158.816C138.856 159.191 138.719 159.454 138.622 159.649L140.246 160.647C141.773 161.84 142.475 163.047 142.42 164.31C142.365 165.322 141.773 166.626 139.186 167.07C138.402 167.209 136.82 167.264 134.371 167.264L116.403 167.334L116.416 167.32Z" fill="black"/>
</g>
</g>
<g id="3 18 Layer0 2 MEMBER 0 FILL">
<path id="Vector_12" d="M137.687 142.087C136.779 141.768 135.884 142.212 135.004 143.419C134.467 144.182 134.44 145.292 134.935 146.748C135.444 148.205 137.329 149.703 140.576 151.256C141.085 147.761 141.319 145.791 141.278 145.347C141.058 143.891 139.861 142.809 137.687 142.087ZM135.458 125.275C134.646 124.928 134.068 124.706 133.697 124.609C132.913 124.512 132.321 124.775 131.936 125.386C131.427 126.218 131.798 127.73 133.078 129.894C134.33 132.058 135.829 133.903 137.591 135.401C137.274 131.6 136.559 128.229 135.458 125.275Z" fill="black"/>
</g>
<g id="3 18 Layer0 2 MEMBER 1 FILL">
<path id="Vector_13" d="M71.8665 141.727C69.9541 142.24 67.8903 143.072 65.6752 144.21C65.7027 147.664 65.4413 150.979 64.9047 154.156L74.1091 148.024C76.2417 146.346 77.1222 144.681 76.7507 143.031C76.4618 141.324 74.8383 140.894 71.8802 141.74M67.9453 125.566C67.4363 127.342 67.0235 129.159 66.7346 131.004C67.0786 132.183 67.794 133.029 68.8947 133.515C70.0229 134.014 71.2611 133.945 72.637 133.334C76.0903 131.85 78.8283 130.31 80.8507 128.715C83.2997 126.773 84.1803 125.108 83.4924 123.721C82.8044 122.237 80.9471 121.474 77.9202 121.432C75.0584 121.363 72.637 121.932 70.6557 123.139C69.5551 123.832 68.647 124.637 67.9453 125.58V125.566Z" fill="black"/>
</g>
<g id="Group_5">
<g id="3 18 Layer0 3 FILL">
<path id="Vector_14" d="M55.9343 100.181C51.9581 101.402 48.3809 103.788 45.2302 107.353C41.5292 111.473 40.1533 115.634 41.1302 119.809C42.107 124.207 44.8862 127.328 49.454 129.159C53.8017 130.893 57.9292 130.907 61.8504 129.159C62.8685 128.729 65.0148 127.48 68.2893 125.4C70.6283 123.902 73.8202 122.223 77.8789 120.364L83.2722 118.034C84.2904 115.773 85.1847 113.428 85.9414 111.015C87.4686 106.229 87.6474 103.524 86.4642 102.942C83.9051 101.665 80.4655 100.639 76.1729 99.862L70.5319 99.0713C69.2111 98.9049 67.6289 98.8216 65.7578 98.8494C62.0155 98.8771 58.741 99.321 55.948 100.181H55.9343Z" fill="white"/>
</g>
<g id="3 18 Layer0 3 1 STROKES">
<path id="Vector_15" d="M55.8242 131.378C53.6366 131.378 51.394 130.921 49.1101 130.005C44.2671 128.049 41.2815 124.678 40.2359 119.99C39.204 115.523 40.6486 111.056 44.556 106.715C47.803 103.039 51.5453 100.542 55.6728 99.2794C58.5484 98.3917 61.9329 97.9339 65.744 97.92C67.6289 97.8923 69.2799 97.9755 70.6282 98.1558L76.283 98.9465C80.6719 99.7372 84.2216 100.791 86.8632 102.109C87.3172 102.331 87.4961 102.886 87.2759 103.344C87.0558 103.802 86.5055 103.996 86.0514 103.76C83.5749 102.525 80.1903 101.513 76.0078 100.764L70.3944 99.973C69.1286 99.8066 67.5739 99.7372 65.7578 99.7511C62.1255 99.7788 58.9061 100.209 56.2094 101.041C52.4121 102.192 48.945 104.523 45.9181 107.935C42.396 111.861 41.1164 115.662 42.0245 119.56C42.9463 123.68 45.4778 126.537 49.798 128.271C53.8842 129.908 57.8192 129.922 61.4789 128.299C62.4695 127.883 64.5883 126.648 67.794 124.609C70.1467 123.097 73.4212 121.377 77.4937 119.504L82.9008 117.174C83.3685 116.966 83.9051 117.188 84.0977 117.659C84.3041 118.131 84.084 118.672 83.6162 118.88L78.2229 121.21C74.2467 123.028 71.0548 124.706 68.7709 126.176C65.4276 128.313 63.2675 129.561 62.1943 130.005C60.1443 130.907 58.0118 131.364 55.8242 131.364V131.378Z" fill="black"/>
</g>
</g>
<g id="Group_6">
<g id="3 18 Layer0 4 MEMBER 0 FILL">
<path id="Vector_16" d="M130.642 10.2237C128.537 7.94876 126.226 6.42289 123.708 5.65995C121.163 4.89701 118.453 5.2438 115.577 6.68645C113.334 7.79617 111.945 9.41915 111.408 11.5554L111.738 11.597L111.284 15.6336C111.422 16.4243 111.67 17.1456 112.027 17.7976L133.834 28.5342C133.903 28.34 133.972 28.1597 134.041 28.0071L134.605 23.0549L135.155 23.1243C135.293 21.4597 135.183 19.809 134.798 18.1721C134.11 15.1204 132.734 12.4709 130.642 10.2098V10.2237Z" fill="white"/>
</g>
<g id="3 18 Layer0 4 MEMBER 0 1 STROKES">
<path id="Vector_17" d="M133.834 29.4775C133.697 29.4775 133.559 29.4498 133.435 29.3804L111.628 18.6438C111.463 18.5606 111.326 18.4218 111.229 18.2693C110.817 17.5202 110.528 16.6879 110.376 15.8001C110.294 15.3007 110.624 14.8152 111.119 14.732C111.628 14.6488 112.096 14.9817 112.179 15.4949C112.275 16.0775 112.454 16.6185 112.702 17.1179L133.435 27.3274C133.683 27.1055 134.055 27.0222 134.399 27.161C134.866 27.3552 135.086 27.8962 134.894 28.3678C134.825 28.5204 134.77 28.7007 134.701 28.881C134.605 29.1307 134.426 29.3249 134.178 29.422C134.068 29.4636 133.958 29.4914 133.834 29.4914V29.4775ZM135.155 24.0537C135.155 24.0537 135.1 24.0537 135.073 24.0537C134.564 24.0121 134.192 23.5682 134.233 23.055C134.371 21.4875 134.247 19.92 133.889 18.3941C133.243 15.5088 131.922 12.9703 129.955 10.8479C127.973 8.69784 125.772 7.25519 123.419 6.54774C121.08 5.84029 118.645 6.15934 115.962 7.51875C113.954 8.51751 112.743 9.90467 112.275 11.7912C112.151 12.2906 111.656 12.5958 111.161 12.457C110.665 12.3322 110.376 11.8328 110.5 11.3334C111.106 8.91979 112.674 7.07486 115.151 5.85416C118.219 4.30054 121.177 3.93988 123.942 4.77217C126.611 5.57673 129.074 7.19971 131.289 9.58562C133.477 11.9438 134.949 14.7736 135.664 17.9641C136.063 19.6703 136.187 21.4459 136.036 23.1937C135.995 23.6792 135.596 24.0398 135.128 24.0398L135.155 24.0537Z" fill="black"/>
</g>
</g>
<g id="Group_7">
<g id="3 18 Layer0 4 MEMBER 1 FILL">
<path id="Vector_18" d="M133.903 26.1761C131.344 23.6237 128.427 21.4181 125.125 19.5732C117.723 15.4395 110.445 13.0674 103.304 12.4432C101.282 12.2767 99.2733 12.2351 97.2783 12.3322C94.4028 12.4571 91.7199 12.901 89.2434 13.65L86.3266 14.6765L67.2024 27.05L65.4 28.7562C63.9279 30.3237 62.552 32.1548 61.2863 34.2355C57.3651 40.7274 55.1225 48.551 54.5584 57.734L54.8198 57.7618L54.7235 58.5802H54.7648L54.0218 59.5928L53.9255 60.4112L53.2926 60.3003L52.247 61.7707C50.5684 64.4617 49.3027 67.2916 48.4221 70.2323C45.6292 79.5679 47.404 88.4319 53.7191 96.8381C60.1856 105.383 72.8021 110.405 91.5548 111.903C91.9951 111.944 92.4491 112 92.9169 112.041C100.071 112.555 107.405 112.499 114.917 111.861C116.403 111.75 117.792 111.611 119.085 111.459C119.237 111.431 119.361 111.403 119.484 111.403L128.895 109.78L129.831 109.461C137.811 107.061 144.181 103.774 148.927 99.5708C155.463 93.8557 158.311 86.906 157.471 78.7079C156.852 72.965 154.912 67.999 151.638 63.8098C150.647 62.5058 149.574 61.3823 148.418 60.4112L146.96 59.3154L146.905 56.5827C146.602 52.0605 145.708 47.6077 144.222 43.2243C141.924 36.4966 138.499 30.8231 133.931 26.19L133.903 26.1761Z" fill="white"/>
</g>
<g id="3 18 Layer0 4 MEMBER 1 1 STROKES">
<path id="Vector_19" d="M91.541 112.818C91.541 112.818 91.486 112.818 91.4722 112.818C72.5406 111.292 59.5802 106.104 52.9762 97.393C46.4959 88.7787 44.6661 79.5541 47.5278 69.9688C48.4221 66.9586 49.7429 64.0456 51.449 61.2852L52.5359 59.7593C52.8248 59.3431 53.4027 59.246 53.8154 59.5512C54.2282 59.8425 54.3245 60.4251 54.0218 60.8413L52.9762 62.3117C51.3802 64.8779 50.1419 67.6522 49.2889 70.4959C46.606 79.4847 48.3396 88.1545 54.4346 96.2694C60.7084 104.551 73.2148 109.503 91.6098 110.973C92.1189 111.015 92.4904 111.459 92.4491 111.972C92.4078 112.458 92.0088 112.818 91.541 112.818ZM119.058 112.36C118.645 112.36 118.26 112.069 118.164 111.639C118.054 111.14 118.356 110.64 118.852 110.529C119.058 110.488 119.237 110.46 119.402 110.446L128.648 108.851L129.514 108.56C137.37 106.201 143.672 102.942 148.295 98.8495C154.568 93.3702 157.334 86.6147 156.522 78.7773C155.93 73.2425 154.032 68.3874 150.881 64.3508C149.932 63.1023 148.9 62.0204 147.799 61.091C147.414 60.7719 147.359 60.1893 147.675 59.787C147.992 59.3847 148.57 59.3431 148.969 59.6622C150.179 60.6748 151.308 61.8539 152.326 63.2133C155.683 67.5135 157.705 72.6876 158.338 78.5692C159.205 87.0447 156.233 94.3412 149.492 100.237C144.676 104.495 138.141 107.88 130.065 110.307L129.157 110.613C129.157 110.613 129.06 110.64 129.019 110.654L119.608 112.277C119.429 112.291 119.347 112.305 119.264 112.333C119.195 112.347 119.127 112.36 119.058 112.36ZM54.5446 58.6496C54.5446 58.6496 54.5034 58.6496 54.4896 58.6496C53.9805 58.6218 53.5953 58.1779 53.6366 57.6647C54.2144 48.3846 56.5121 40.339 60.4883 33.75C61.7816 31.6276 63.2124 29.7272 64.7121 28.1181C65.0561 27.7436 65.6339 27.7297 66.0054 28.0765C66.3769 28.4233 66.3906 29.0059 66.0467 29.3804C64.6296 30.9063 63.2812 32.6958 62.043 34.7071C58.2319 41.0326 56.003 48.8007 55.4527 57.7756C55.4252 58.2611 55.0124 58.6357 54.5446 58.6357V58.6496ZM146.877 57.4982C146.396 57.4982 145.997 57.1237 145.969 56.6382C145.68 52.2131 144.786 47.8019 143.328 43.5295C141.085 36.9682 137.701 31.3641 133.257 26.8419C130.78 24.3589 127.891 22.1811 124.685 20.3916C117.434 16.3411 110.211 13.9829 103.236 13.3726C101.282 13.2061 99.287 13.1645 97.3333 13.2616C94.5404 13.3865 91.8988 13.8165 89.5048 14.5378C89.0232 14.6765 88.5142 14.3991 88.3628 13.9136C88.2115 13.4281 88.5004 12.9148 88.982 12.7622C91.5135 11.9993 94.3065 11.5415 97.237 11.4167C99.2733 11.3196 101.337 11.3612 103.387 11.5277C110.624 12.1519 118.081 14.5933 125.566 18.7687C128.923 20.6413 131.936 22.9163 134.55 25.5241C139.2 30.2405 142.736 36.0804 145.061 42.9053C146.575 47.3442 147.497 51.908 147.799 56.4995C147.827 57.0127 147.455 57.4566 146.946 57.4843C146.919 57.4843 146.905 57.4843 146.891 57.4843L146.877 57.4982Z" fill="black"/>
</g>
</g>
<g id="Group_8">
<g id="3 18 Layer0 4 MEMBER 2 FILL">
<path id="Vector_20" d="M119.223 81.4544C119.471 83.3687 120.214 84.3258 121.438 84.312C122.676 84.2842 123.832 83.1883 124.905 81.0244C125.992 78.8465 126.831 76.5855 127.451 74.255L128.524 70.6623C127.822 69.8855 126.914 69.3584 125.786 69.0809C123.516 68.5261 121.301 69.4693 119.154 71.9246L118.948 75.0318C118.879 77.3761 118.962 79.5262 119.209 81.4683L119.223 81.4544Z" fill="#FF5252"/>
</g>
<g id="3 18 Layer0 4 MEMBER 2 1 STROKES">
<path id="Vector_21" d="M121.438 85.2275C120.42 85.2275 118.714 84.742 118.301 81.5654C118.054 79.5817 117.957 77.3761 118.026 74.9902L118.232 71.8552C118.232 71.6471 118.329 71.4529 118.466 71.3004C120.846 68.5815 123.392 67.5273 126.006 68.1654C127.313 68.4844 128.386 69.1086 129.198 70.0242C129.418 70.26 129.487 70.6068 129.404 70.912L128.331 74.5047C127.712 76.8629 126.845 79.1933 125.731 81.4266C124.465 83.9374 123.075 85.172 121.466 85.2136H121.452L121.438 85.2275ZM120.049 72.2991L119.87 75.0873C119.801 77.3345 119.883 79.4569 120.131 81.3434C120.406 83.4103 121.163 83.3964 121.438 83.3964C122.498 83.3687 123.474 81.8705 124.093 80.6221C125.139 78.5136 125.978 76.2941 126.57 74.0331L127.492 70.9397C126.969 70.4958 126.336 70.1768 125.579 69.9826C123.722 69.5248 121.906 70.2877 120.062 72.313L120.049 72.2991Z" fill="black"/>
</g>
</g>
<g id="3 18 Layer0 4 MEMBER 2 MEMBER 0 1 STROKES">
<path id="Vector_22" d="M139.131 61.2435C138.994 61.2435 138.856 61.2158 138.719 61.1464C136.545 60.0367 134.522 59.3431 132.706 59.0518C132.349 58.9963 132.06 58.7328 131.963 58.386C131.867 58.0392 131.991 57.6646 132.266 57.4288C133.958 56.0278 135.733 54.9597 137.508 54.2522C137.976 54.0719 138.512 54.2938 138.691 54.7794C138.87 55.251 138.636 55.792 138.168 55.9723C137.109 56.3885 136.036 56.9572 134.99 57.6785C136.421 58.0808 137.948 58.6911 139.53 59.4957C139.984 59.7315 140.163 60.2864 139.943 60.7303C139.778 61.0493 139.462 61.2435 139.118 61.2435H139.131Z" fill="black"/>
</g>
<g id="3 18 Layer0 4 MEMBER 2 MEMBER 1 1 STROKES">
<path id="Vector_23" d="M103.635 63.2826C103.277 63.2826 102.947 63.0745 102.795 62.7277C102.589 62.2561 102.795 61.7151 103.277 61.507L107.047 59.8563C108.423 59.2737 109.537 58.802 110.418 58.4414C109.482 58.0669 108.34 57.7201 106.978 57.4149L103.621 56.8045C103.126 56.7074 102.795 56.2358 102.878 55.7364C102.961 55.237 103.456 54.9041 103.937 54.9874L107.336 55.5977C109.977 56.1942 111.862 56.9155 113.142 57.7894C113.431 57.9836 113.582 58.3304 113.527 58.6633C113.486 59.0101 113.252 59.3014 112.935 59.4124C112.137 59.7037 110.39 60.425 107.748 61.5486L103.992 63.1855C103.869 63.241 103.745 63.2687 103.621 63.2687L103.635 63.2826Z" fill="black"/>
</g>
<g id="Group_9">
<g id="3 18 Layer0 4 MEMBER 2 MEMBER 2 FILL">
<path id="Vector_24" d="M125.194 60.3002C122.016 60.1615 119.65 60.2586 118.109 60.5915C114.765 61.2019 112.729 62.7416 112.014 65.2385C111.243 67.8464 111.587 69.941 113.032 71.4946C114.229 72.8263 115.949 73.5476 118.177 73.6447C119.815 73.7141 121.411 73.1176 122.952 71.8553C123.763 71.2588 124.369 70.6207 124.795 69.941L125.855 71.994C126.831 73.3257 128.138 74.0331 129.776 74.1163C132.005 74.1996 133.793 73.6308 135.142 72.3963C136.71 70.9675 137.192 68.9145 136.614 66.2373C136.091 63.671 134.412 61.9648 131.592 61.1186C130.312 60.6747 128.18 60.3834 125.194 60.2725V60.3002Z" fill="white"/>
</g>
<g id="3 18 Layer0 4 MEMBER 2 MEMBER 2 1 STROKES">
<path id="Vector_25" d="M130.202 75.0457C130.051 75.0457 129.9 75.0457 129.748 75.0457C127.822 74.9347 126.267 74.1024 125.125 72.5488C125.098 72.5072 125.07 72.4656 125.043 72.424L124.63 71.6194C124.3 71.9523 123.928 72.2852 123.502 72.5904C121.81 73.9637 120.007 74.6573 118.136 74.5602C115.66 74.4353 113.72 73.6169 112.358 72.1049C110.693 70.3155 110.28 67.9018 111.133 64.961C111.959 62.1174 114.256 60.3279 117.943 59.6621C119.539 59.3014 121.933 59.2043 125.222 59.3569C128.331 59.4817 130.505 59.7869 131.881 60.2586C135.004 61.188 136.916 63.1438 137.508 66.0708C138.155 69.067 137.563 71.4252 135.747 73.0898C134.316 74.3937 132.445 75.0596 130.188 75.0596L130.202 75.0457ZM126.639 71.4946C127.451 72.5627 128.496 73.1175 129.831 73.1869C131.812 73.2563 133.353 72.7708 134.522 71.7026C135.843 70.4958 136.228 68.7757 135.719 66.4314C135.265 64.1981 133.834 62.7554 131.33 62.0064C130.106 61.5764 128.042 61.3128 125.153 61.188C122.057 61.0492 119.76 61.1463 118.301 61.4654C115.274 62.0202 113.513 63.3242 112.88 65.4743C112.206 67.777 112.481 69.5248 113.692 70.8426C114.738 72.0078 116.21 72.6043 118.205 72.7014C119.608 72.7569 120.984 72.2436 122.36 71.12C123.103 70.5652 123.639 70.0103 123.997 69.4416C124.176 69.1641 124.492 69.0115 124.809 69.0115C125.139 69.0254 125.428 69.2196 125.579 69.5109L126.598 71.4946H126.639Z" fill="black"/>
</g>
</g>
<g id="3 18 Layer0 4 MEMBER 2 MEMBER 3 FILL">
<path id="Vector_26" d="M128.771 62.3532C129.349 61.8677 129.638 61.3822 129.679 60.8967C129.679 60.3834 129.569 59.9812 129.294 59.7037C128.826 59.3014 127.932 59.0795 126.611 59.024C125.235 58.9685 124.162 59.1072 123.392 59.4679C122.745 59.7592 122.401 60.1337 122.374 60.5776C122.346 60.9938 122.8 61.5209 123.708 62.1451C124.644 62.7694 125.566 63.1023 126.474 63.13C127.327 63.1855 128.097 62.9219 128.771 62.3532Z" fill="black"/>
</g>
<g id="3 18 Layer0 4 MEMBER 2 MEMBER 4 FILL">
<path id="Vector_27" d="M84.2904 75.2122C81.7175 75.559 79.4887 76.1832 77.6175 77.0849C73.6826 78.8327 71.0272 80.6776 69.6514 82.5919C68.2893 84.4368 68.3168 86.1014 69.7477 87.5441C70.9447 88.7509 72.9809 88.3902 75.884 86.4621C77.4249 85.4217 79.3236 83.9513 81.5937 82.0232C86.4642 78.7495 88.7619 76.6271 88.4729 75.6838C88.2528 75.018 86.8632 74.8516 84.2904 75.1983M78.4981 69.4139C79.8602 68.4013 81.7451 67.4164 84.1528 66.4176C85.4598 65.9182 87.331 65.1969 89.7525 64.2398C91.1421 63.6572 91.7612 63.1023 91.5961 62.589C91.486 62.0619 90.6055 61.7706 88.9682 61.729C85.1296 61.7567 82.4192 61.9648 80.8508 62.3532C75.9665 63.3797 72.4444 64.8224 70.2843 66.6812C69.0323 67.7077 68.2068 68.8313 67.794 70.0797C67.3813 71.342 67.45 72.2992 68.0279 72.9373C69.5826 74.5741 73.0772 73.4089 78.4981 69.4278V69.4139Z" fill="black"/>
</g>
<g id="3 18 Layer0 4 MEMBER 2 MEMBER 5 FILL">
<path id="Vector_28" d="M157.87 84.423C156.618 83.3132 155.27 82.6335 153.825 82.3977C151.941 82.0787 151.335 83.1745 152.009 85.6853C153.248 88.8341 154.087 90.9565 154.527 92.0801C156.302 89.6803 157.416 87.1279 157.87 84.4368M156.907 75.018C156.508 72.424 155.82 70.1075 154.816 68.0822C154.403 67.7909 153.936 67.5828 153.413 67.4719C151.432 66.9031 150.083 66.8893 149.354 67.4441C148.68 67.9851 148.927 68.6093 150.097 69.3168C152.133 70.6207 154.403 72.5211 156.907 75.018Z" fill="black"/>
</g>
<g id="3 18 Layer0 4 MEMBER 2 MEMBER 6 FILL">
<path id="Vector_29" d="M123.97 22.5139C123.681 21.7926 123.172 21.2516 122.456 20.9187C121.755 20.6135 121.039 20.6135 120.31 20.9187C119.773 21.1268 119.333 21.4874 119.003 22.0007C118.728 22.4862 118.59 23.0133 118.604 23.5959L112.027 23.3601C111.271 23.3185 110.596 23.5682 110.019 24.0953C109.468 24.6085 109.179 25.2466 109.138 26.0373C109.097 26.7725 109.344 27.4384 109.867 28.021C110.39 28.6313 111.023 28.9504 111.78 28.992L120.048 29.311C120.241 30.2543 120.434 31.7663 120.64 33.847L115.866 33.6251C115.109 33.5835 114.435 33.847 113.857 34.4019C113.279 34.9568 112.977 35.5949 112.935 36.3439C112.922 37.1346 113.169 37.8143 113.706 38.3692C114.242 38.9241 114.875 39.2292 115.632 39.257L120.915 39.4928L120.97 40.6858C120.97 41.4348 121.218 42.0868 121.741 42.6694C122.25 43.1965 122.883 43.4878 123.639 43.5156H123.681C124.465 43.4878 125.139 43.2243 125.689 42.711C126.267 42.1561 126.57 41.4903 126.584 40.6996L126.556 39.687L128.936 39.8118C129.721 39.8257 130.395 39.5899 130.973 39.0766C131.523 38.5495 131.812 37.8837 131.826 37.093C131.867 36.3578 131.633 35.692 131.124 35.1094C130.601 34.499 129.955 34.1938 129.17 34.18L126.24 34.0274L125.758 29.5468L130.532 29.7272C131.289 29.7688 131.95 29.5052 132.5 28.9504C133.078 28.4232 133.38 27.7851 133.422 27.05C133.463 26.2593 133.202 25.5934 132.651 25.0247C132.156 24.4421 131.523 24.1369 130.766 24.0953L124.492 23.8595C124.314 23.2491 124.148 22.7914 123.983 22.5001L123.97 22.5139Z" fill="black"/>
</g>
<g id="Group_10">
<g id="3 18 Layer0 4 MEMBER 3 FILL">
<path id="Vector_30" d="M87.3722 17.2012C87.3998 15.9111 87.1934 14.4407 86.7669 12.7761C85.9139 9.44696 84.3867 6.86684 82.1853 5.03579C79.3373 2.62213 76.0353 1.48465 72.2793 1.62337C68.1242 1.78983 64.8497 3.59314 62.442 7.0333C60.2406 10.1822 59.8554 13.7194 61.2725 17.6451C62.6896 21.5846 65.3863 24.4006 69.3487 26.0929L72.5819 28.1043L73.6001 27.2165L87.3585 17.2012H87.3722Z" fill="white"/>
</g>
<g id="3 18 Layer0 4 MEMBER 3 1 STROKES">
<path id="Vector_31" d="M69.3487 27.0222C69.2249 27.0222 69.1011 26.9945 68.991 26.9529C64.8085 25.1634 61.9192 22.1394 60.4058 17.9641C58.8786 13.7471 59.3188 9.89079 61.6853 6.49225C64.2581 2.81627 67.8078 0.860372 72.2518 0.680041C76.2417 0.555197 79.7639 1.76203 82.7907 4.3144C85.1296 6.2703 86.7669 9.04462 87.675 12.5403C88.1152 14.2742 88.3354 15.8417 88.3078 17.215C88.3078 17.7144 87.8951 18.1167 87.386 18.1167H87.3723C86.8632 18.1167 86.4642 17.6866 86.478 17.1734C86.5055 15.9804 86.3129 14.5655 85.9001 12.998C85.1021 9.87692 83.6575 7.43552 81.6213 5.72931C78.9659 3.48211 75.8427 2.40012 72.3343 2.52497C68.4544 2.67755 65.4689 4.3144 63.2125 7.54649C61.1762 10.4595 60.8323 13.65 62.1531 17.3121C63.5014 21.0297 65.9779 23.6237 69.734 25.2328C70.2018 25.427 70.4219 25.9819 70.2155 26.4396C70.0642 26.7864 69.734 27.0084 69.3763 27.0084L69.3487 27.0222Z" fill="black"/>
</g>
</g>
</g>
</g>
<g id="Group_11">
<g id="Group_12">
<g id="Group_13">
<g id="2 5 Layer0 0 FILL">
<path id="Vector_32" d="M162.19 24.1123L161.9 30.0119C161.214 34.1755 159.645 36.9102 157.176 38.2161L158.106 38.5541C158.99 38.9843 160.056 39.6142 161.321 40.4745C162.754 41.4271 163.851 42.6715 164.628 44.2079C165.253 45.3602 165.847 47.0809 166.426 49.3701C166.456 47.2038 166.715 45.0222 167.203 42.8405C168.178 38.4465 169.794 36.1574 172.034 35.9576C170.54 35.8194 168.742 34.8975 166.624 33.1615C165.71 32.4086 164.917 31.241 164.232 29.6739C163.424 27.4769 162.738 25.6333 162.19 24.1277V24.1123Z" fill="#FFCC66"/>
</g>
<g id="2 5 Layer0 0 1 STROKES">
<path id="Vector_33" d="M166.395 50.3379C165.938 50.3379 165.527 50.0307 165.405 49.5698C164.841 47.3728 164.262 45.7135 163.698 44.638C162.997 43.24 161.992 42.1184 160.712 41.2734C159.477 40.4438 158.441 39.8292 157.618 39.4298L156.78 39.1225C156.399 38.9842 156.14 38.6309 156.11 38.2314C156.079 37.832 156.293 37.4479 156.643 37.2635C158.807 36.1112 160.224 33.607 160.849 29.7968L161.123 24.0201C161.154 23.5285 161.504 23.129 161.976 23.0676C162.464 22.9907 162.921 23.2673 163.089 23.7282C163.637 25.2338 164.323 27.0775 165.131 29.2744C165.725 30.6418 166.426 31.6865 167.218 32.3318C169.154 33.9296 170.784 34.79 172.064 34.8975C172.582 34.9436 172.994 35.3892 172.994 35.9115C172.994 36.4339 172.597 36.8794 172.064 36.9255C170.327 37.0792 169.001 39.1225 168.148 43.0095C167.675 45.1297 167.416 47.2499 167.386 49.3393C167.386 49.8463 166.99 50.2765 166.487 50.3379C166.441 50.3379 166.411 50.3379 166.365 50.3379H166.395ZM159.203 37.9549C159.995 38.3851 160.864 38.9228 161.839 39.5681C163.409 40.6128 164.643 41.9955 165.496 43.6855C165.603 43.9006 165.725 44.1157 165.832 44.3615C165.938 43.7623 166.045 43.1478 166.182 42.5486C166.868 39.4912 167.889 37.325 169.23 36.0959C168.224 35.5889 167.127 34.8668 165.954 33.8989C164.917 33.0385 164.018 31.7326 163.272 30.0273C163.15 29.7046 163.043 29.3974 162.921 29.0901L162.875 30.0119C162.281 33.6377 161.062 36.2802 159.203 37.9549Z" fill="black"/>
</g>
</g>
<g id="Group_14">
<g id="2 5 Layer0 1 FILL">
<path id="Vector_34" d="M184.742 51.6132C183.965 57.0365 182.06 60.5548 179.043 62.1526L183.325 64.9795C186.418 67.8832 188.521 71.9699 189.603 77.2243C189.847 74.4588 190.35 71.6319 191.081 68.7589C192.59 63.1205 194.571 60.1707 196.994 59.9249C195.379 59.7405 193.428 58.5114 191.127 56.1915C188.841 53.9177 186.799 49.8156 185.001 43.9006L184.742 51.6132Z" fill="#FFCC66"/>
</g>
<g id="2 5 Layer0 1 1 STROKES">
<path id="Vector_35" d="M189.588 78.2383C189.116 78.2383 188.689 77.9003 188.598 77.424C187.561 72.4462 185.565 68.5285 182.685 65.7784L178.479 63.013C178.175 62.8132 178.007 62.4752 178.022 62.1065C178.037 61.7378 178.251 61.4152 178.571 61.2462C181.283 59.8173 183.02 56.5295 183.737 51.4749L183.996 43.8699C184.011 43.3629 184.392 42.9635 184.879 42.8867C185.367 42.8252 185.839 43.1171 185.977 43.6088C187.714 49.3394 189.679 53.3339 191.843 55.4694C194.48 58.1273 196.156 58.8033 197.1 58.9109C197.619 58.9723 198.015 59.4025 198 59.9249C198 60.4472 197.603 60.8928 197.085 60.9389C195.15 61.1386 193.413 63.9348 192.041 69.0201C191.325 71.8163 190.838 74.6125 190.594 77.3011C190.548 77.8081 190.152 78.2076 189.649 78.2383C189.634 78.2383 189.603 78.2383 189.588 78.2383ZM180.872 62.1526L183.843 64.1191C183.843 64.1191 183.935 64.1806 183.98 64.2267C186.22 66.3315 187.973 69.0509 189.222 72.3233C189.451 71.0481 189.74 69.7729 190.076 68.4978C191.203 64.2881 192.59 61.492 194.297 60.0478C193.093 59.3718 191.798 58.3424 190.396 56.9136C188.719 55.2544 187.211 52.7501 185.824 49.3547L185.748 51.6593C185.047 56.6524 183.417 60.1553 180.887 62.168L180.872 62.1526Z" fill="black"/>
</g>
</g>
<g id="2 5 Layer0 2 MEMBER 0 1 STROKES">
<path id="Vector_36" d="M186.693 30.5804C186.251 30.5804 185.839 30.2731 185.718 29.8122L184.285 24.3889C184.148 23.8358 184.468 23.2827 185.001 23.129C185.535 22.9908 186.099 23.3134 186.236 23.8511L187.668 29.2745C187.805 29.8276 187.485 30.3807 186.952 30.5343C186.86 30.5497 186.784 30.565 186.693 30.565V30.5804Z" fill="black"/>
</g>
<g id="2 5 Layer0 2 MEMBER 1 1 STROKES">
<path id="Vector_37" d="M191.66 33.607C191.203 33.607 190.777 33.2844 190.67 32.8235C190.548 32.2704 190.883 31.7173 191.432 31.5944L195.912 30.5343C196.46 30.396 197.009 30.7494 197.131 31.3025C197.253 31.8556 196.918 32.4087 196.369 32.5316L191.889 33.5917C191.813 33.607 191.737 33.6224 191.66 33.6224V33.607Z" fill="black"/>
</g>
<g id="2 5 Layer0 2 MEMBER 2 1 STROKES">
<path id="Vector_38" d="M190.228 42.6562C189.786 42.6562 189.375 42.3643 189.253 41.9034L187.927 37.1099C187.775 36.5568 188.095 36.0037 188.628 35.8501C189.161 35.6965 189.725 36.0191 189.878 36.5568L191.203 41.3503C191.356 41.9034 191.036 42.4565 190.502 42.6101C190.411 42.6408 190.319 42.6562 190.228 42.6562Z" fill="black"/>
</g>
<g id="2 5 Layer0 2 MEMBER 3 1 STROKES">
<path id="Vector_39" d="M180.521 36.2188C180.064 36.2188 179.637 35.8961 179.531 35.4352C179.409 34.8821 179.744 34.329 180.293 34.2061L183.676 33.4072C184.209 33.269 184.773 33.6223 184.895 34.1754C185.017 34.7285 184.681 35.2816 184.133 35.4045L180.75 36.2034C180.674 36.2188 180.597 36.2341 180.521 36.2341V36.2188Z" fill="black"/>
</g>
</g>
</g>
</g>
</svg>
