<svg width="24" height="24" viewBox="0 0 24 24" fill="none" xmlns="http://www.w3.org/2000/svg">
<path id="Vector" d="M21.3942 14.8648C23.0539 13.2371 24 11.0245 24 8.71573C24 3.90957 19.9947 0 15.071 0C11.0342 0 7.56899 2.58201 6.48489 6.32997C2.7477 7.36893 0 10.7321 0 14.7109C0 17.0197 0.942181 19.2323 2.60184 20.86L1.86465 23.0188C1.7661 23.3151 1.86465 23.6383 2.10907 23.8345C2.24704 23.9423 2.41656 24 2.58607 24C2.7201 24 2.85414 23.9654 2.97635 23.8961L5.17608 22.6224C6.34691 23.1496 7.63206 23.4266 8.9251 23.4266C13.0013 23.4266 16.4468 20.7446 17.5112 17.0967C17.9606 16.9735 18.3982 16.8158 18.816 16.6234L21.0158 17.8971C21.138 17.9663 21.272 18.001 21.406 18.001C21.5756 18.001 21.7451 17.9471 21.883 17.8355C22.1314 17.6392 22.23 17.316 22.1275 17.0197L21.3903 14.861L21.3942 14.8648ZM4.96321 16.1693C4.28515 16.1693 3.73719 15.6344 3.73719 14.9726C3.73719 14.3107 4.28515 13.7759 4.96321 13.7759C5.64126 13.7759 6.18922 14.3107 6.18922 14.9726C6.18922 15.6344 5.64126 16.1693 4.96321 16.1693ZM9.07884 16.1693C8.40079 16.1693 7.85282 15.6344 7.85282 14.9726C7.85282 14.3107 8.40079 13.7759 9.07884 13.7759C9.7569 13.7759 10.3049 14.3107 10.3049 14.9726C10.3049 15.6344 9.7569 16.1693 9.07884 16.1693ZM13.1984 16.1693C12.5204 16.1693 11.9724 15.6344 11.9724 14.9726C11.9724 14.3107 12.5204 13.7759 13.1984 13.7759C13.8765 13.7759 14.4244 14.3107 14.4244 14.9726C14.4244 15.6344 13.8765 16.1693 13.1984 16.1693ZM20.0105 14.0952C19.7858 14.2915 19.6991 14.6032 19.7976 14.8841L20.042 15.596L19.2457 15.1342C19.0171 15.0034 18.7372 14.9957 18.5046 15.115C18.2878 15.2266 18.0591 15.3228 17.8305 15.4151C17.8502 15.1804 17.862 14.9456 17.862 14.7071C17.862 9.90092 13.8568 5.99134 8.93298 5.99134C8.68857 5.99134 8.44415 6.00289 8.20762 6.02213C9.31143 3.30159 11.9921 1.48148 15.0788 1.48148C19.159 1.48148 22.4823 4.7215 22.4823 8.70803C22.4823 10.759 21.5834 12.7177 20.0184 14.0875L20.0105 14.0952Z" fill="white"/>
</svg>
