<svg width="35" height="38" viewBox="0 0 35 38" fill="none" xmlns="http://www.w3.org/2000/svg">
<g id="Group 647">
<path id="Vector" d="M25.2177 16.8468C25.2177 12.5165 21.6492 9.00391 17.2499 9.00391C12.8507 9.00391 9.28218 12.5165 9.28218 16.8468C9.28218 21.4747 13.4596 24.7175 13.4596 26.9441C13.4596 27.2696 13.4515 28.4127 13.4515 28.4127L21.0483 28.3214C21.0483 28.3214 21.0363 27.2259 21.0363 26.9441C21.0363 24.7215 25.2137 21.312 25.2137 16.8468H25.2177Z" fill="#FFAC11" stroke="black" stroke-width="2" stroke-linecap="round" stroke-linejoin="round"/>
<path id="Vector_2" d="M13.3789 32.5286H21.1209" stroke="black" stroke-width="2" stroke-linecap="round" stroke-linejoin="round"/>
<path id="Vector_3" d="M16.3344 36.7994H18.1651" stroke="black" stroke-width="2" stroke-linecap="round" stroke-linejoin="round"/>
<g id="Group">
<path id="Vector_4" d="M17.4392 1.20068V3.81234" stroke="black" stroke-width="2" stroke-linecap="round" stroke-linejoin="round"/>
<path id="Vector_5" d="M6.06816 5.68167L7.94317 7.52729" stroke="black" stroke-width="2" stroke-linecap="round" stroke-linejoin="round"/>
<path id="Vector_6" d="M1.24977 16.7673H3.90301" stroke="black" stroke-width="2" stroke-linecap="round" stroke-linejoin="round"/>
<path id="Vector_7" d="M33.2499 17.1365H30.5967" stroke="black" stroke-width="2" stroke-linecap="round" stroke-linejoin="round"/>
<path id="Vector_8" d="M28.6974 5.94366L26.8224 7.78929" stroke="black" stroke-width="2" stroke-linecap="round" stroke-linejoin="round"/>
</g>
</g>
</svg>
