<svg width="40" height="40" viewBox="0 0 40 40" fill="none" xmlns="http://www.w3.org/2000/svg">
<path fill-rule="evenodd" clip-rule="evenodd" d="M8.11143 23.722C8.24428 23.2918 8.62958 22.9999 9.06471 22.9999H16.9353C17.3704 22.9999 17.7557 23.2918 17.8886 23.722L20.9522 33.6431C21.0498 33.9593 20.9961 34.3048 20.8077 34.5731C20.6192 34.8413 20.3187 34.9999 19.9989 34.9999H6.00109C5.68132 34.9999 5.3808 34.8413 5.19234 34.5731C5.00389 34.3048 4.95018 33.9593 5.04781 33.6431L8.11143 23.722ZM9.79501 25.0788L7.37334 32.921H18.6267L16.205 25.0788H9.79501Z" fill="white"/>
<path fill-rule="evenodd" clip-rule="evenodd" d="M22.1114 23.722C22.2443 23.2918 22.6296 22.9999 23.0647 22.9999H30.9353C31.3704 22.9999 31.7557 23.2918 31.8886 23.722L34.9522 33.6431C35.0498 33.9593 34.9961 34.3048 34.8077 34.5731C34.6192 34.8413 34.3187 34.9999 33.9989 34.9999H20.0011C19.6813 34.9999 19.3808 34.8413 19.1923 34.5731C19.0039 34.3048 18.9502 33.9593 19.0478 33.6431L22.1114 23.722ZM23.795 25.0788L21.3733 32.921H32.6267L30.205 25.0788H23.795Z" fill="white"/>
<path fill-rule="evenodd" clip-rule="evenodd" d="M15.1119 13.722C15.2448 13.2918 15.6301 12.9999 16.0652 12.9999H23.9358C24.3709 12.9999 24.7562 13.2918 24.8891 13.722L27.9527 23.6431C28.0503 23.9593 27.9966 24.3048 27.8081 24.5731C27.6197 24.8413 27.3192 24.9999 26.9994 24.9999H13.0016C12.6818 24.9999 12.3813 24.8413 12.1928 24.5731C12.0044 24.3048 11.9507 23.9593 12.0483 23.6431L15.1119 13.722ZM16.7955 15.0788L14.3738 22.921H25.6271L23.2055 15.0788H16.7955Z" fill="white"/>
<path fill-rule="evenodd" clip-rule="evenodd" d="M21.6532 16.0492C22.1461 15.8751 22.673 16.1771 22.8299 16.7238L23.9561 20.6457C24.113 21.1924 23.8407 21.7766 23.3478 21.9507C22.8548 22.1247 22.328 21.8227 22.171 21.2761L21.0449 17.3541C20.8879 16.8075 21.1603 16.2232 21.6532 16.0492Z" fill="white"/>
<path fill-rule="evenodd" clip-rule="evenodd" d="M20.0168 5C20.5691 5 21.0168 5.44772 21.0168 6V9.01547C21.0168 9.56775 20.5691 10.0155 20.0168 10.0155C19.4646 10.0155 19.0168 9.56775 19.0168 9.01547V6C19.0168 5.44772 19.4646 5 20.0168 5Z" fill="white"/>
<path fill-rule="evenodd" clip-rule="evenodd" d="M27.4212 5.99141C27.9158 6.23719 28.1175 6.83736 27.8717 7.33195L26.5747 9.94198C26.3289 10.4366 25.7288 10.6383 25.2342 10.3925C24.7396 10.1467 24.5379 9.54654 24.7836 9.05196L26.0806 6.44193C26.3264 5.94735 26.9266 5.74564 27.4212 5.99141Z" fill="white"/>
<path fill-rule="evenodd" clip-rule="evenodd" d="M12.6042 5.99241C13.0983 5.74553 13.6989 5.94589 13.9458 6.43993L15.25 9.04996C15.4969 9.54399 15.2966 10.1446 14.8025 10.3915C14.3085 10.6384 13.7079 10.438 13.461 9.94398L12.1567 7.33395C11.9098 6.83991 12.1102 6.23929 12.6042 5.99241Z" fill="white"/>
</svg>
