<svg width="51" height="62" viewBox="0 0 51 62" fill="none" xmlns="http://www.w3.org/2000/svg">
<g id="icons" clip-path="url(#clip0_1826_35475)">
<g id="Group">
<path id="Vector" d="M10.5168 9.93994V27.7088L15.4479 24.521L20.384 27.7088V9.93994" fill="#FFAC11"/>
</g>
<g id="Group_2">
<g id="Group_3">
<g id="Group_4">
<path id="Vector_2" d="M49.706 62H4.90615C2.19828 62 0 59.6609 0 56.7914V5.2511C0 4.7366 0.389694 4.32288 0.874314 4.32288C1.35893 4.32288 1.74863 4.7366 1.74863 5.2511C1.74863 7.10224 3.16752 8.60331 4.90615 8.60331H49.706C50.1906 8.60331 50.5803 9.01703 50.5803 9.53153V61.0665C50.5803 61.581 50.1906 61.9947 49.706 61.9947V62ZM1.74863 9.2345V56.786C1.74863 58.6372 3.16752 60.1383 4.90615 60.1383H48.8317V10.4598H4.90615C3.7021 10.4598 2.60296 9.9983 1.74863 9.2345Z" fill="white"/>
<path id="Vector_3" d="M49.706 10.4597H4.90615C2.20327 10.4597 0 8.12593 0 5.25109C0 2.37625 2.20327 0 4.90615 0H49.706C50.1906 0 50.5803 0.413722 50.5803 0.928223C50.5803 1.44272 50.2056 1.84584 49.736 1.86175C48.0223 1.9201 46.6834 3.38934 46.6834 5.20866C46.6834 7.02797 48.0223 8.53435 49.736 8.598C50.2056 8.61391 50.5803 9.02763 50.5803 9.52622C50.5803 10.0248 50.1906 10.4597 49.706 10.4597ZM4.90615 1.85645C3.16252 1.85645 1.74863 3.36282 1.74863 5.20866C1.74863 7.05449 3.16752 8.6033 4.90615 8.6033H46.0739C45.3594 7.69629 44.9298 6.52939 44.9298 5.25109C44.9298 3.97279 45.3594 2.76876 46.0789 1.85645H4.90615Z" fill="white"/>
</g>
</g>
<path id="Vector_4" d="M5.20592 57.8097C4.7213 57.8097 4.3316 57.396 4.3316 56.8815V9.93994C4.3316 9.42544 4.7213 9.01172 5.20592 9.01172C5.69054 9.01172 6.08023 9.42544 6.08023 9.93994V56.8815C6.08023 57.396 5.69054 57.8097 5.20592 57.8097Z" fill="white"/>
</g>
<path id="Vector_5" d="M26.4393 48.2623H11.451C10.9664 48.2623 10.5767 47.8485 10.5767 47.334C10.5767 46.8195 10.9664 46.4058 11.451 46.4058H26.4393C26.9239 46.4058 27.3136 46.8195 27.3136 47.334C27.3136 47.8485 26.9239 48.2623 26.4393 48.2623Z" fill="white"/>
<path id="Vector_6" d="M35.682 53.8317H11.451C10.9664 53.8317 10.5767 53.4179 10.5767 52.9034C10.5767 52.3889 10.9664 51.9752 11.451 51.9752H35.682C36.1666 51.9752 36.5563 52.3889 36.5563 52.9034C36.5563 53.4179 36.1666 53.8317 35.682 53.8317Z" fill="white"/>
</g>
<defs>
<clipPath id="clip0_1826_35475">
<rect width="51" height="62" fill="white"/>
</clipPath>
</defs>
</svg>
