<svg width="24" height="24" viewBox="0 0 24 24" fill="none" xmlns="http://www.w3.org/2000/svg">
<g id="icons" clip-path="url(#clip0_1858_5353)">
<g id="Group">
<path id="Vector" d="M24 1.73422C24 0.777734 23.2071 0 22.2247 0H1.77528C0.796148 0 0 0.774598 0 1.73422C0 2.26735 0.247191 2.74402 0.638844 3.0639V17.3046L2.20546 12.9047V3.46844H21.7945V17.129H5.08828L4.54254 18.6593H5.58587L4.90851 22.7738C4.8122 23.3508 5.21348 23.8934 5.80738 23.9875C6.39807 24.0815 6.95345 23.6864 7.04976 23.1094L7.31621 21.5037H16.687L16.9535 23.1094C17.0498 23.6864 17.6051 24.0784 18.1958 23.9875C18.7865 23.8934 19.1878 23.3508 19.0947 22.7738L18.4173 18.6593H22.5843C23.0177 18.6593 23.3676 18.3175 23.3676 17.8942V3.0639C23.756 2.74716 24.0032 2.26735 24.0032 1.73422H24ZM16.4334 19.9733H7.56982L7.78491 18.6593H16.2183L16.4334 19.9733Z" fill="white"/>
<path id="Vector_2" d="M4.54895 12.4814C4.01604 12.2995 3.43819 12.5755 3.252 13.0929L0.0577744 22.0619C-0.128421 22.5825 0.154083 23.147 0.683778 23.3289C1.21668 23.5108 1.79453 23.2348 1.98073 22.7174L5.17816 13.7515C5.36436 13.2309 5.08185 12.6633 4.55216 12.4845L4.54895 12.4814Z" fill="white"/>
</g>
<path id="Vector_3" d="M6.89243 14.0494C6.68697 14.0494 6.48152 13.9741 6.32421 13.8204C6.00961 13.5131 6.00961 13.0176 6.32421 12.7103L9.61474 9.49587C9.8202 9.29516 10.122 9.21676 10.4013 9.29516L14.2536 10.3614L17.3001 7.95295C17.6436 7.68011 18.1509 7.73342 18.4302 8.06898C18.7094 8.40453 18.6549 8.90003 18.3114 9.17286L14.9406 11.8385C14.7383 11.9984 14.4687 12.0549 14.2183 11.9827L10.4173 10.9322L7.46065 13.8204C7.30334 13.9741 7.09789 14.0494 6.89243 14.0494Z" fill="white"/>
</g>
<defs>
<clipPath id="clip0_1858_5353">
<rect width="24" height="24" fill="white"/>
</clipPath>
</defs>
</svg>
