<svg width="8" height="12" viewBox="0 0 8 12" fill="none" xmlns="http://www.w3.org/2000/svg">
<g id="Vector 3 (Stroke)">
<path fill-rule="evenodd" clip-rule="evenodd" d="M1.97367 10.8521C1.5774 11.2077 1 10.8819 1 10.3025L1 1.6975C1 1.11815 1.57739 0.792254 1.97367 1.14795L1.97367 4.11106M1.97367 1.14795L6.7671 5.45044C7.07763 5.72918 7.07764 6.27082 6.76709 6.54956L1.97367 10.8521" fill="white"/>
<path d="M1.97367 10.8521C1.5774 11.2077 1 10.8819 1 10.3025L1 1.6975C1 1.11815 1.57739 0.792254 1.97367 1.14795M1.97367 10.8521L1.97367 4.11106L1.97367 1.14795M1.97367 10.8521L6.7671 6.54956C7.07764 6.27082 7.07763 5.72918 6.7671 5.45044L1.97367 1.14795M1.97367 10.8521L1.97367 1.14795" stroke="white" stroke-width="1.6" stroke-linecap="round"/>
</g>
</svg>
