<svg width="53" height="61" viewBox="0 0 53 61" fill="none" xmlns="http://www.w3.org/2000/svg">
<g id="icons" clip-path="url(#clip0_1826_18731)">
<g id="Group">
<g id="Group_2">
<g id="Group_3">
<g id="Group_4">
<path id="Vector" d="M26.5026 20.5525C26.3846 20.5525 26.2616 20.5268 26.1539 20.4805L4.14792 11.1039C3.81465 10.9651 3.5993 10.6361 3.5993 10.2762C3.5993 9.91638 3.81465 9.58737 4.14792 9.44857L26.1488 0.0719505C26.3744 -0.0257227 26.6256 -0.020582 26.8512 0.0719505L48.8572 9.44857C49.1905 9.58737 49.4058 9.91638 49.4058 10.2762C49.4058 10.6361 49.1905 10.9651 48.8572 11.1039L26.8512 20.4805C26.7384 20.5268 26.6205 20.5525 26.5026 20.5525ZM6.78843 10.2762L26.4974 18.6761L46.2064 10.2762L26.5026 1.87633L6.78843 10.2762Z" fill="white"/>
<path id="Vector_2" d="M26.5026 32.3195C21.4984 32.3195 16.725 31.3993 12.6898 29.6566C12.3617 29.5127 12.1464 29.1888 12.1464 28.829V14.6869C12.1464 14.1883 12.5463 13.7873 13.0436 13.7873C13.541 13.7873 13.9409 14.1883 13.9409 14.6869V28.2326C17.6325 29.7337 21.9598 30.5202 26.4974 30.5202C31.035 30.5202 35.3624 29.7286 39.054 28.2326V14.6869C39.054 14.1883 39.4539 13.7873 39.9512 13.7873C40.4486 13.7873 40.8485 14.1883 40.8485 14.6869V28.829C40.8485 29.1888 40.6332 29.5127 40.305 29.6566C36.275 31.3993 31.5016 32.3195 26.4974 32.3195H26.5026Z" fill="white"/>
</g>
<path id="Vector_3" d="M44.1299 30.438C43.6326 30.438 43.2327 30.0371 43.2327 29.5384V13.0008C43.2327 12.5022 43.6326 12.1012 44.1299 12.1012C44.6273 12.1012 45.0272 12.5022 45.0272 13.0008V29.5384C45.0272 30.0371 44.6273 30.438 44.1299 30.438Z" fill="white"/>
</g>
<path id="Vector_4" d="M32.8654 60.0895C32.727 60.0895 32.5937 60.0587 32.4655 59.997L26.5026 57.0308L20.5396 59.997C20.2627 60.1358 19.9295 60.1204 19.668 59.9559C19.4065 59.7914 19.2424 59.5035 19.2424 59.1899V48.6361C19.2424 48.1374 19.6424 47.7365 20.1397 47.7365C20.637 47.7365 21.037 48.1374 21.037 48.6361V57.7402L26.1026 55.2162C26.3539 55.0928 26.6513 55.0928 26.9025 55.2162L31.9682 57.7402V48.6361C31.9682 48.1374 32.3681 47.7365 32.8654 47.7365C33.3628 47.7365 33.7627 48.1374 33.7627 48.6361V59.1899C33.7627 59.5035 33.6038 59.7914 33.3371 59.9559C33.1936 60.0433 33.0295 60.0895 32.8654 60.0895Z" fill="white"/>
<g id="Group_5">
<path id="Vector_5" d="M28.2875 53.7923C33.291 52.8027 36.5469 47.9336 35.5598 42.9171C34.5727 37.9005 29.7165 34.636 24.713 35.6257C19.7096 36.6154 16.4537 41.4844 17.4408 46.501C18.4279 51.5176 23.2841 54.782 28.2875 53.7923Z" fill="#FFAC11"/>
<g id="Group_6">
<path id="Vector_6" d="M27.6281 49.02C30.0026 48.3945 31.4218 45.9575 30.798 43.5768C30.1741 41.196 27.7435 39.7731 25.369 40.3986C22.9945 41.024 21.5753 43.461 22.1992 45.8418C22.823 48.2225 25.2536 49.6454 27.6281 49.02Z" fill="#FFAC11"/>
<path id="Vector_7" d="M26.5026 50.0651C23.5544 50.0651 21.16 47.6644 21.16 44.7085C21.16 41.7526 23.5544 39.3519 26.5026 39.3519C29.4507 39.3519 31.8451 41.7526 31.8451 44.7085C31.8451 47.6644 29.4507 50.0651 26.5026 50.0651ZM26.5026 41.1512C24.544 41.1512 22.9545 42.7448 22.9545 44.7085C22.9545 46.6723 24.544 48.2659 26.5026 48.2659C28.4612 48.2659 30.0506 46.6723 30.0506 44.7085C30.0506 42.7448 28.4612 41.1512 26.5026 41.1512Z" fill="white"/>
</g>
</g>
</g>
<g id="Group_7">
<path id="Vector_8" d="M16.6122 52.4556H13.5307C13.0334 52.4556 12.6334 52.0546 12.6334 51.556C12.6334 44.9605 6.21417 44.8474 5.9373 44.8474C5.44509 44.8474 5.04004 44.4412 5.04004 43.9477V16.2137C5.04004 15.7151 5.43996 15.3141 5.9373 15.3141C6.43464 15.3141 6.83456 15.7151 6.83456 16.2137V43.0995C9.72118 43.4131 13.9665 45.2586 14.3869 50.6563H16.607C17.1044 50.6563 17.5043 51.0573 17.5043 51.556C17.5043 52.0546 17.1044 52.4556 16.607 52.4556H16.6122Z" fill="white"/>
<path id="Vector_9" d="M39.4744 52.4556H36.3929C35.8956 52.4556 35.4957 52.0546 35.4957 51.556C35.4957 51.0573 35.8956 50.6563 36.3929 50.6563H38.613C39.0386 45.2586 43.2839 43.4131 46.1654 43.0995V16.2137C46.1654 15.7151 46.5653 15.3141 47.0627 15.3141C47.56 15.3141 47.9599 15.7151 47.9599 16.2137V43.9477C47.9599 44.4464 47.56 44.8474 47.0627 44.8474C46.7909 44.8474 40.3716 44.9553 40.3716 51.556C40.3716 52.0546 39.9717 52.4556 39.4744 52.4556Z" fill="white"/>
</g>
</g>
<g id="Group_8">
<path id="Vector_10" d="M16.6122 57.1234H0.897262C0.399923 57.1234 0 56.7224 0 56.2238V13.0265C0 12.5279 0.399923 12.1269 0.897262 12.1269C1.3946 12.1269 1.79452 12.5279 1.79452 13.0265V55.3241H16.6122C17.1095 55.3241 17.5094 55.7251 17.5094 56.2238C17.5094 56.7224 17.1095 57.1234 16.6122 57.1234Z" fill="white"/>
<path id="Vector_11" d="M52.1027 57.1234H36.3878C35.8905 57.1234 35.4906 56.7224 35.4906 56.2238C35.4906 55.7251 35.8905 55.3241 36.3878 55.3241H51.2055V13.0265C51.2055 12.5279 51.6054 12.1269 52.1027 12.1269C52.6001 12.1269 53 12.5279 53 13.0265V56.2238C53 56.7224 52.6001 57.1234 52.1027 57.1234Z" fill="white"/>
</g>
</g>
<defs>
<clipPath id="clip0_1826_18731">
<rect width="53" height="61" fill="white"/>
</clipPath>
</defs>
</svg>
