<svg width="39" height="32" viewBox="0 0 39 32" fill="none" xmlns="http://www.w3.org/2000/svg">
<g id="icon" clip-path="url(#clip0_1826_24190)">
<path id="Vector" d="M32.8046 1.37143H6.19538C3.81773 1.37143 1.89026 3.27281 1.89026 5.61829V26.3817C1.89026 28.7272 3.81773 30.6286 6.19538 30.6286H32.8046C35.1823 30.6286 37.1098 28.7272 37.1098 26.3817V5.61829C37.1098 3.27281 35.1823 1.37143 32.8046 1.37143Z" fill="white" stroke="black" stroke-width="2" stroke-linecap="round" stroke-linejoin="round"/>
<g id="Group">
<g id="Group_2">
<path id="Vector_2" d="M19.1756 22.752H8.10928C7.72928 22.752 7.41879 22.3726 7.41879 21.9017V19.7349C7.41879 19.4789 7.51148 19.2366 7.67367 19.0766C7.76635 18.9806 10.0278 16.7634 13.6425 16.7634C17.2571 16.7634 19.5185 18.9851 19.6112 19.0766C19.7734 19.2366 19.8661 19.4789 19.8661 19.7349V21.9017C19.8661 22.3726 19.5556 22.752 19.1756 22.752Z" fill="#FFAC11" stroke="black" stroke-width="2" stroke-linecap="round" stroke-linejoin="round"/>
<path id="Vector_3" d="M16.7147 15.1941C17.9189 13.5202 17.5194 11.2002 15.8225 10.0123C14.1256 8.82445 11.7738 9.21851 10.5696 10.8925C9.36545 12.5664 9.76492 14.8864 11.4618 16.0743C13.1588 17.2622 15.5106 16.8681 16.7147 15.1941Z" fill="#FFAC11" stroke="black" stroke-width="2" stroke-linecap="round" stroke-linejoin="round"/>
</g>
<g id="Group_3">
<path id="Vector_4" d="M24.6856 10.8114H31.0251" stroke="black" stroke-width="2" stroke-linecap="round" stroke-linejoin="round"/>
<path id="Vector_5" d="M24.6856 16.0366H31.0251" stroke="black" stroke-width="2" stroke-linecap="round" stroke-linejoin="round"/>
<path id="Vector_6" d="M24.6856 21.2617H31.0251" stroke="black" stroke-width="2" stroke-linecap="round" stroke-linejoin="round"/>
</g>
</g>
</g>
<defs>
<clipPath id="clip0_1826_24190">
<rect width="38" height="32" fill="white" transform="translate(0.5)"/>
</clipPath>
</defs>
</svg>
