<svg width="39" height="38" viewBox="0 0 39 38" fill="none" xmlns="http://www.w3.org/2000/svg">
<g id="icon">
<path id="Vector" d="M19.2524 2.42062C10.093 2.42062 2.67081 9.84187 2.67081 19C2.67081 28.1581 10.093 35.5794 19.2524 35.5794C28.4117 35.5794 35.834 28.1581 35.834 19C35.834 9.84187 28.4069 2.42062 19.2524 2.42062ZM19.2524 25.6317C15.5867 25.6317 12.6198 22.6604 12.6198 19C12.6198 15.3396 15.5915 12.3682 19.2524 12.3682C22.9132 12.3682 25.885 15.3396 25.885 19C25.885 22.6604 22.9132 25.6317 19.2524 25.6317Z" fill="white" stroke="black" stroke-width="2" stroke-linecap="round" stroke-linejoin="round"/>
<path id="Vector_2" d="M19.2524 2.42064V12.3635C22.9181 12.3635 25.885 15.3348 25.885 18.9952C25.885 19.8278 25.7271 20.6221 25.4448 21.3541L34.7285 24.8901C35.4272 23.0575 35.8292 21.0718 35.8292 18.9904C35.8292 9.83231 28.407 2.41107 19.2476 2.41107L19.2524 2.42064Z" fill="#FFAC11" stroke="black" stroke-width="2" stroke-linecap="round" stroke-linejoin="round"/>
<path id="Vector_3" d="M25.4448 21.3589C24.904 22.7704 23.8991 23.9523 22.6118 24.7083L27.6509 33.2683C30.8667 31.3687 33.379 28.4261 34.7285 24.8949L25.4448 21.3589Z" fill="white" stroke="black" stroke-width="2" stroke-linecap="round" stroke-linejoin="round"/>
</g>
</svg>
