<svg width="62" height="62" viewBox="0 0 62 62" fill="none" xmlns="http://www.w3.org/2000/svg">
<g id="Group">
<path id="Vector" d="M20.3865 31.8153C20.1538 31.8153 19.9211 31.7277 19.7453 31.5527C19.3936 31.2026 19.3936 30.6312 19.7453 30.2811L30.7337 19.3413C31.0853 18.9912 31.6593 18.9912 32.0109 19.3413L36.8665 24.1754L47.7309 13.3592C48.0825 13.0091 48.6565 13.0091 49.0081 13.3592C49.3597 13.7092 49.3597 14.2807 49.0081 14.6308L37.5026 26.0854C37.1509 26.4354 36.577 26.4354 36.2253 26.0854L31.3697 21.2513L21.0225 31.5527C20.8467 31.7277 20.614 31.8153 20.3813 31.8153H20.3865Z" fill="#FFAC11"/>
<g id="Group_2">
<g id="Group_3">
<path id="Vector_2" d="M57.8714 7.1557H9.3154V9.97173H57.8714V7.1557Z" fill="white"/>
<g id="Group_4">
<path id="Vector_3" d="M57.8869 7.46971H9.2947C7.45381 7.46971 5.95938 5.9819 5.95938 4.14916C5.95938 2.31643 7.45898 0.828613 9.2947 0.828613H57.8869C59.7278 0.828613 61.2222 2.31643 61.2222 4.14916C61.2222 5.9819 59.7278 7.46971 57.8869 7.46971ZM9.2947 2.63046C8.45182 2.63046 7.76924 3.31002 7.76924 4.14916C7.76924 4.98831 8.45182 5.66786 9.2947 5.66786H57.8869C58.7297 5.66786 59.4123 4.98831 59.4123 4.14916C59.4123 3.31002 58.7297 2.63046 57.8869 2.63046H9.2947Z" fill="white"/>
<path id="Vector_4" d="M9.54812 40.2067C9.04653 40.2067 8.64319 39.8052 8.64319 39.3058V6.68718C8.64319 6.18781 9.04653 5.78625 9.54812 5.78625C10.0497 5.78625 10.453 6.18781 10.453 6.68718V39.3058C10.453 39.8052 10.0497 40.2067 9.54812 40.2067Z" fill="white"/>
<path id="Vector_5" d="M57.6335 40.2067H40.6815C40.1799 40.2067 39.7765 39.8052 39.7765 39.3058C39.7765 38.8064 40.1799 38.4049 40.6815 38.4049H56.7286V6.68718C56.7286 6.18781 57.132 5.78625 57.6335 5.78625C58.1351 5.78625 58.5385 6.18781 58.5385 6.68718V39.3058C58.5385 39.8052 58.1351 40.2067 57.6335 40.2067Z" fill="white"/>
</g>
</g>
<g id="Group_5">
<g id="Group_6">
<path id="Vector_6" d="M19.7662 49.6626C9.29466 49.6626 0.777924 42.204 0.777924 33.0412C0.777924 32.5309 1.19002 32.1207 1.70251 32.1207H37.8247C38.3371 32.1207 38.7492 32.5309 38.7492 33.0412C38.7492 42.2092 30.2325 49.6626 19.7609 49.6626H19.7662ZM2.65879 33.9616C3.21354 41.6885 10.6736 47.8216 19.7609 47.8216C28.8483 47.8216 36.3136 41.6833 36.8631 33.9616H2.65879Z" fill="white"/>
<g id="Group_7">
<path id="Vector_7" d="M7.72556 28.4861C7.72556 42.1882 13.1146 53.2973 19.7663 53.2973C26.418 53.2973 31.807 42.1882 31.807 28.4861H7.72556Z" fill="#252F3E"/>
<path id="Vector_8" d="M19.7663 54.2177C12.4965 54.2177 6.80103 42.9141 6.80103 28.486C6.80103 27.9758 7.21313 27.5656 7.72561 27.5656H31.8071C32.3195 27.5656 32.7316 27.9758 32.7316 28.486C32.7316 42.9141 27.0362 54.2177 19.7663 54.2177ZM8.65548 29.4065C8.88794 41.9515 13.8807 52.3767 19.761 52.3767C25.6414 52.3767 30.6342 41.9463 30.8666 29.4065H8.65548Z" fill="white"/>
</g>
</g>
<g id="Group_8">
<path id="Vector_9" d="M17.7163 60.4507C17.2038 60.4507 16.7917 60.0404 16.7917 59.5302V53.7758C16.7917 53.2656 17.2038 52.8553 17.7163 52.8553C18.2288 52.8553 18.6409 53.2656 18.6409 53.7758V59.5302C18.6409 60.0404 18.2288 60.4507 17.7163 60.4507Z" fill="white"/>
<path id="Vector_10" d="M21.8111 60.4507C21.2986 60.4507 20.8865 60.0404 20.8865 59.5302V53.7758C20.8865 53.2656 21.2986 52.8553 21.8111 52.8553C22.3235 52.8553 22.7356 53.2656 22.7356 53.7758V59.5302C22.7356 60.0404 22.3235 60.4507 21.8111 60.4507Z" fill="white"/>
</g>
<path id="Vector_11" d="M29.1548 61.1714H10.3726C9.86007 61.1714 9.44797 60.7612 9.44797 60.2509C9.44797 59.7407 9.86007 59.3304 10.3726 59.3304H29.1548C29.6673 59.3304 30.0794 59.7407 30.0794 60.2509C30.0794 60.7612 29.6673 61.1714 29.1548 61.1714Z" fill="white"/>
</g>
</g>
<path id="Vector_12" d="M48.3721 19.0119C47.8705 19.0119 47.4672 18.6103 47.4672 18.1109V14.8933H44.2353C43.7337 14.8933 43.3304 14.4918 43.3304 13.9924C43.3304 13.493 43.7337 13.0915 44.2353 13.0915H48.3721C48.8737 13.0915 49.2771 13.493 49.2771 13.9924V18.1109C49.2771 18.6103 48.8737 19.0119 48.3721 19.0119Z" fill="#FFAC11"/>
<path id="Vector_13" d="M25.7747 33.9945H8.19317C7.69158 33.9945 7.28824 33.593 7.28824 33.0936C7.28824 32.5942 7.69158 32.1927 8.19317 32.1927H25.7747C26.2763 32.1927 26.6796 32.5942 26.6796 33.0936C26.6796 33.593 26.2763 33.9945 25.7747 33.9945Z" fill="white"/>
</g>
</svg>
