<svg width="24" height="24" viewBox="0 0 24 24" fill="none" xmlns="http://www.w3.org/2000/svg">
<g id="Group 685">
<path id="Vector" d="M23.9848 20.0803C23.8287 20.7619 23.4418 21.3725 22.8863 21.8139C22.2794 22.4136 21.5562 22.8897 20.7588 23.2148C19.9614 23.5398 19.1056 23.7072 18.2412 23.7073H17.8373C16.023 23.6114 14.2465 23.164 12.6118 22.3914H12.5994C12.2204 22.2195 11.8289 22.0476 11.4499 21.8381C9.54165 20.7958 7.79136 19.5001 6.24927 17.9883C4.248 16.1571 2.60573 13.9862 1.40281 11.5818C0.763512 10.264 0.336806 8.85811 0.137761 7.41359C-0.154938 5.90153 0.0211327 4.33881 0.643533 2.92461C1.03646 2.28659 1.51637 1.70341 2.07013 1.191C2.31931 0.916494 2.62395 0.695031 2.965 0.540466C3.30605 0.385902 3.67617 0.301563 4.05221 0.292725C4.46118 0.336754 4.8571 0.459488 5.21698 0.653801C5.57686 0.848114 5.89353 1.11014 6.14862 1.42465C6.71652 2.02633 7.40994 2.65343 7.97909 3.23211L8.76198 3.98269C9.22177 4.37978 9.50634 4.93424 9.55729 5.53229C9.55729 6.0807 9.34976 6.60974 8.97572 7.02014C8.73347 7.30716 8.47632 7.58193 8.20525 7.84336L7.95299 8.10122C7.80635 8.23439 7.69451 8.39903 7.62492 8.58184C7.56279 8.76181 7.53793 8.94623 7.55036 9.13509C7.75043 9.65687 8.06483 10.1314 8.46995 10.5249C9.10247 11.3602 9.73375 12.0866 10.3775 12.8735C11.5418 14.1903 12.9236 15.3085 14.4659 16.1821C14.6237 16.2947 14.8051 16.3697 14.9978 16.4024C15.1643 16.4145 15.3333 16.3903 15.4899 16.3298C15.931 16.0768 16.3225 15.7523 16.6505 15.3698C17.0917 14.8434 17.7251 14.5041 18.4176 14.4231C19.0841 14.432 19.7198 14.6975 20.186 15.1616C20.4382 15.3698 20.7153 15.6531 20.9813 15.9242L21.359 16.3044L21.7505 16.6736L22.4203 17.337C22.8196 17.6825 23.1941 18.0517 23.5437 18.4448C23.8941 18.9169 24.0519 19.5016 23.9848 20.0803ZM19.454 11.6556C19.2037 11.6531 18.9643 11.5551 18.7873 11.3826C18.6103 11.2102 18.5097 10.977 18.5071 10.7331C18.5084 10.0367 18.3686 9.34695 18.0956 8.70334C17.8227 8.05973 17.422 7.47494 16.9165 6.98253C16.4111 6.49012 15.8108 6.09976 15.1502 5.83386C14.4895 5.56796 13.7814 5.43174 13.0666 5.43301C12.8155 5.43301 12.5746 5.33582 12.397 5.16282C12.2195 4.98982 12.1197 4.75518 12.1197 4.51052C12.1197 4.26586 12.2195 4.03122 12.397 3.85822C12.5746 3.68522 12.8155 3.58803 13.0666 3.58803C14.0302 3.5866 14.9846 3.77043 15.8751 4.12899C16.7656 4.48756 17.5747 5.01381 18.2561 5.67758C18.9374 6.34134 19.4776 7.12958 19.8456 7.99711C20.2137 8.86464 20.4024 9.7944 20.4009 10.7331C20.4013 10.8543 20.377 10.9744 20.3295 11.0865C20.2821 11.1986 20.2123 11.3004 20.1243 11.3861C20.0363 11.4718 19.9318 11.5398 19.8168 11.586C19.7017 11.6323 19.5785 11.6559 19.454 11.6556Z" fill="#21409A"/>
<path id="Vector_2" d="M23.064 11.9988C22.8168 11.9963 22.5804 11.8993 22.4054 11.7286C22.2305 11.5578 22.1309 11.3269 22.128 11.0853C22.13 9.90873 21.8945 8.74336 21.4351 7.65584C20.9757 6.56832 20.3014 5.58001 19.4508 4.74745C18.6002 3.91489 17.5899 3.25442 16.4779 2.80385C15.3658 2.35328 14.1737 2.12144 12.9699 2.1216C12.8442 2.12605 12.7189 2.1057 12.6014 2.06176C12.484 2.01783 12.3768 1.95121 12.2862 1.86589C12.1957 1.78056 12.1237 1.67828 12.0745 1.56515C12.0253 1.45203 12 1.33037 12 1.20746C12 1.08455 12.0253 0.962893 12.0745 0.849766C12.1237 0.736639 12.1957 0.63436 12.2862 0.549035C12.3768 0.46371 12.484 0.397091 12.6014 0.353157C12.7189 0.309222 12.8442 0.288873 12.9699 0.293325C14.4194 0.293324 15.8547 0.572553 17.1937 1.11505C18.5328 1.65754 19.7493 2.45266 20.7737 3.45494C21.7981 4.45723 22.6103 5.64702 23.1639 6.95629C23.7175 8.26556 24.0016 9.66863 24 11.0853C24.0003 11.2055 23.9763 11.3246 23.9294 11.4357C23.8825 11.5468 23.8135 11.6478 23.7266 11.7328C23.6396 11.8178 23.5363 11.8852 23.4226 11.931C23.3089 11.9769 23.187 11.9991 23.064 11.9988Z" fill="#21409A"/>
</g>
</svg>
