<svg width="41" height="26" viewBox="0 0 41 26" fill="none" xmlns="http://www.w3.org/2000/svg">
<g id="icon">
<g id="Group">
<path id="Vector" d="M7.92949 23.7418C10.7023 23.7418 12.9501 21.4301 12.9501 18.5784C12.9501 15.7267 10.7023 13.415 7.92949 13.415C5.15668 13.415 2.90887 15.7267 2.90887 18.5784C2.90887 21.4301 5.15668 23.7418 7.92949 23.7418Z" fill="#FFAC11" stroke="black" stroke-width="2" stroke-linecap="round" stroke-linejoin="round"/>
<path id="Vector_2" d="M4.04736 15.2731L11.8859 4.45905C11.8859 4.45905 12.3208 3.85181 12.4728 3.64818C12.9643 2.99366 14.5871 1.70645 16.3655 2.52459C17.9071 3.23729 18.1263 5.1063 18.1263 5.1063" stroke="black" stroke-width="2" stroke-linecap="round" stroke-linejoin="round"/>
</g>
<g id="Group_2">
<path id="Vector_3" d="M25.0066 23.7419C27.7794 23.7419 30.0272 21.4301 30.0272 18.5784C30.0272 15.7268 27.7794 13.415 25.0066 13.415C22.2338 13.415 19.986 15.7268 19.986 18.5784C19.986 21.4301 22.2338 23.7419 25.0066 23.7419Z" fill="#FFAC11" stroke="black" stroke-width="2" stroke-linecap="round" stroke-linejoin="round"/>
<path id="Vector_4" d="M29.9392 19.7825L32.9785 6.3193C32.9785 6.3193 33.162 5.58706 33.2265 5.34025C33.4437 4.54289 34.4798 2.71785 36.4235 2.78807C38.1109 2.84891 38.9941 4.49455 38.9941 4.49455" stroke="black" stroke-width="2" stroke-linecap="round" stroke-linejoin="round"/>
</g>
<path id="Vector_5" d="M13.1824 19.2174H19.6689" stroke="black" stroke-width="2" stroke-linecap="round" stroke-linejoin="round"/>
</g>
</svg>
