<svg width="24" height="24" viewBox="0 0 24 24" fill="none" xmlns="http://www.w3.org/2000/svg">
<g id="icons">
<path id="Vector" d="M16.5512 17.6752V0.762389C16.5512 0.34155 16.2166 0 15.8043 0H6.73488C6.68708 0 6.63928 0.00609911 6.59149 0.0152478C6.52875 0.027446 6.46901 0.0518424 6.40926 0.082338C6.39432 0.0884371 6.38237 0.0975858 6.36744 0.106734C6.31068 0.14028 6.25691 0.176874 6.20911 0.225667L2.21807 4.29682C2.17028 4.34562 2.13144 4.40051 2.10157 4.45845C2.09261 4.47065 2.08663 4.4859 2.08066 4.49809C2.02987 4.60178 2 4.71461 2 4.83355V17.6752C2 18.0961 2.33458 18.4376 2.74683 18.4376H15.8043C16.2166 18.4376 16.5512 18.0961 16.5512 17.6752ZM5.98805 2.60432V4.07421H4.54817L5.98805 2.60432ZM15.0575 16.9128H3.49365V5.59593H6.73488C7.14712 5.59593 7.4817 5.25438 7.4817 4.83355V1.52478H15.0575V16.9128Z" fill="white"/>
<path id="Vector_2" d="M19.2755 20.4564V3.54358C19.2755 3.12274 18.9409 2.78119 18.5287 2.78119C18.1165 2.78119 17.7819 3.12274 17.7819 3.54358V19.694H5.47119C5.05894 19.694 4.72437 20.0356 4.72437 20.4564C4.72437 20.8773 5.05894 21.2188 5.47119 21.2188H18.5287C18.9409 21.2188 19.2755 20.8773 19.2755 20.4564Z" fill="white"/>
<path id="Vector_3" d="M21.2532 5.56238C20.8409 5.56238 20.5064 5.90393 20.5064 6.32477V22.4752H8.19568C7.78343 22.4752 7.44885 22.8168 7.44885 23.2376C7.44885 23.6584 7.78343 24 8.19568 24H21.2532C21.6654 24 22 23.6584 22 23.2376V6.32477C22 5.90393 21.6654 5.56238 21.2532 5.56238Z" fill="white"/>
</g>
</svg>
