<svg width="40" height="40" viewBox="0 0 40 40" fill="none" xmlns="http://www.w3.org/2000/svg">
<path fill-rule="evenodd" clip-rule="evenodd" d="M20.0238 8.95239C13.3832 8.95239 8 14.3356 8 20.9762C8 27.6168 13.3832 33 20.0238 33C26.6644 33 32.0476 27.6168 32.0476 20.9762C32.0476 14.3356 26.6644 8.95239 20.0238 8.95239ZM6 20.9762C6 13.2311 12.2787 6.95239 20.0238 6.95239C27.7689 6.95239 34.0476 13.2311 34.0476 20.9762C34.0476 28.7213 27.7689 35 20.0238 35C12.2787 35 6 28.7213 6 20.9762Z" fill="white"/>
<path fill-rule="evenodd" clip-rule="evenodd" d="M12.2035 30.449C12.6766 30.7341 12.829 31.3486 12.544 31.8217L10.9649 34.4427C10.6798 34.9158 10.0653 35.0682 9.59224 34.7832C9.11918 34.4982 8.96674 33.8836 9.25175 33.4106L10.8309 30.7895C11.1159 30.3165 11.7304 30.164 12.2035 30.449Z" fill="white"/>
<path fill-rule="evenodd" clip-rule="evenodd" d="M27.842 30.449C28.3151 30.164 28.9296 30.3164 29.2146 30.7895L30.7937 33.4105C31.0788 33.8836 30.9263 34.4981 30.4533 34.7831C29.9802 35.0681 29.3657 34.9157 29.0806 34.4426L27.5015 31.8216C27.2165 31.3485 27.3689 30.734 27.842 30.449Z" fill="white"/>
<path fill-rule="evenodd" clip-rule="evenodd" d="M19.6816 13.4639C20.2339 13.4639 20.6816 13.9116 20.6816 14.4639V20.4649L24.2073 23.0144C24.6549 23.3381 24.7553 23.9632 24.4317 24.4107C24.108 24.8583 23.4829 24.9587 23.0354 24.6351L19.0957 21.7861C18.8356 21.5981 18.6816 21.2967 18.6816 20.9758V14.4639C18.6816 13.9116 19.1294 13.4639 19.6816 13.4639Z" fill="white"/>
<path fill-rule="evenodd" clip-rule="evenodd" d="M25.5193 7.92781C27.4216 8.82818 29.1334 10.0398 30.5775 11.5047C30.8481 11.0626 31 10.5541 31 10.0172C31 8.38893 29.6131 7 27.8115 7C26.9045 7 26.0952 7.36056 25.5193 7.92781ZM23.0971 7.93033C23.9218 6.19763 25.7277 5 27.8115 5C30.6382 5 33 7.20648 33 10.0172C33 11.5186 32.3086 12.8533 31.2462 13.7605C30.8276 14.1179 30.1988 14.0698 29.8394 13.6529C28.1997 11.7507 26.0739 10.2476 23.6349 9.29108C23.3766 9.18978 23.172 8.98572 23.07 8.72769C22.968 8.46966 22.9778 8.18085 23.0971 7.93033Z" fill="white"/>
<path fill-rule="evenodd" clip-rule="evenodd" d="M14.4807 7.92781C12.5784 8.82818 10.8666 10.0398 9.42247 11.5047C9.15187 11.0626 9 10.5541 9 10.0172C9 8.38893 10.3869 7 12.1885 7C13.0955 7 13.9048 7.36056 14.4807 7.92781ZM16.9029 7.93033C16.0782 6.19763 14.2723 5 12.1885 5C9.36182 5 7 7.20648 7 10.0172C7 11.5186 7.69136 12.8533 8.7538 13.7605C9.17242 14.1179 9.80119 14.0698 10.1606 13.6529C11.8003 11.7507 13.9261 10.2476 16.3651 9.29108C16.6234 9.18978 16.828 8.98572 16.93 8.72769C17.032 8.46966 17.0222 8.18085 16.9029 7.93033Z" fill="white"/>
</svg>
