<svg width="118" height="90" viewBox="0 0 118 90" fill="none" xmlns="http://www.w3.org/2000/svg">
<g id="Group 592">
<g id="Group">
<path id="Vector" d="M57.4409 83.937H105.13C107.998 83.937 110.319 81.5854 110.319 78.6791V34.7861L48.7852 82.2183L57.4409 83.937Z" fill="#85B6FF"/>
<path id="Vector_2" d="M110.502 7.22757C110.502 4.32134 108.182 1.96973 105.313 1.96973H13.2088C10.3405 1.96973 8.01953 4.32134 8.01953 7.22757V78.7853C8.01953 81.6915 10.3405 84.0431 13.2088 84.0431H51.0446L110.502 34.8923V7.22757Z" fill="white"/>
</g>
<g id="Group 593">
<path id="Vector_3" d="M31.4136 46.0036C34.0173 46.0036 36.128 43.865 36.128 41.2269C36.128 38.5888 34.0173 36.4502 31.4136 36.4502C28.8099 36.4502 26.6992 38.5888 26.6992 41.2269C26.6992 43.865 28.8099 46.0036 31.4136 46.0036Z" fill="#FFAC11" stroke="#21409A" stroke-width="3.4"/>
<path id="Vector_4" d="M48.8531 46.0036C51.4568 46.0036 53.5675 43.865 53.5675 41.2269C53.5675 38.5888 51.4568 36.4502 48.8531 36.4502C46.2494 36.4502 44.1387 38.5888 44.1387 41.2269C44.1387 43.865 46.2494 46.0036 48.8531 46.0036Z" fill="#FFAC11" stroke="#21409A" stroke-width="3.4"/>
<path id="Vector_5" d="M66.2945 46.0036C68.8982 46.0036 71.0089 43.865 71.0089 41.2269C71.0089 38.5888 68.8982 36.4502 66.2945 36.4502C63.6908 36.4502 61.5801 38.5888 61.5801 41.2269C61.5801 43.865 63.6908 46.0036 66.2945 46.0036Z" fill="#FCFCFC" stroke="#85B6FF" stroke-width="3.4"/>
<path id="Vector_6" d="M88.4483 41.2269C88.4483 43.8669 86.3395 46.0036 83.7339 46.0036C81.1283 46.0036 79.0195 43.8669 79.0195 41.2269C79.0195 38.5868 81.1283 36.4502 83.7339 36.4502C86.3395 36.4502 88.4483 38.5868 88.4483 41.2269Z" fill="#FCFCFC" stroke="#85B6FF" stroke-width="3.4"/>
</g>
<path id="Vector_7" d="M12.9491 1.87256H105.042C107.911 1.87256 110.232 4.23526 110.232 7.1304V78.6881C110.232 81.5943 107.9 83.946 105.042 83.946H12.9491C10.0807 83.946 7.75977 81.5833 7.75977 78.6881V7.1304C7.75977 4.22417 10.0917 1.87256 12.9491 1.87256Z" stroke="#21409A" stroke-width="3.4" stroke-linecap="round"/>
<g id="Group_2">
<path id="Vector_8" d="M67.0631 78.1118V79.6869C67.0631 81.1401 65.9027 82.327 64.4576 82.327H53.5316C52.0974 82.327 50.926 81.1512 50.926 79.6869V78.1118H2V80.2194C2 84.5898 5.49237 88.1283 9.80583 88.1283H108.194C112.508 88.1283 116 84.5898 116 80.2194V78.1118H67.0631Z" fill="white"/>
<path id="Vector_9" d="M67.0632 78.1118V78.552C67.0632 80.0051 65.9027 81.192 64.4576 81.192H53.5316C52.0974 81.192 50.926 80.0162 50.926 78.552V78.1118H2V80.2194C2 84.5898 5.49237 88.1283 9.80583 88.1283H108.194C112.508 88.1283 116 84.5898 116 80.2194V78.1118H67.0632Z" stroke="#21409A" stroke-width="3.4" stroke-linejoin="round"/>
<path id="Vector_10" d="M53.5322 83.0119H64.4581C65.8923 83.0119 67.0637 81.8361 67.0637 80.3719L67.0637 78.1069H50.9375L50.9375 80.3719C50.9375 81.825 52.098 83.0119 53.5431 83.0119H53.5322Z" fill="white" stroke="#21409A" stroke-width="3.4" stroke-linecap="round" stroke-linejoin="round"/>
</g>
<g id="Group_3">
<g id="Group_4">
<path id="Vector_11" d="M29.1104 16.8081H24.2715" stroke="#21409A" stroke-width="3.4"/>
<path id="Vector_12" d="M20.1073 16.9482H15.2793" stroke="#21409A" stroke-width="3.4"/>
</g>
<g id="Group_5">
<path id="Vector_13" d="M22.0234 10.1035V15.0064" stroke="#21409A" stroke-width="3.4"/>
<path id="Vector_14" d="M22.0234 18.8774V23.7803" stroke="#21409A" stroke-width="3.4"/>
</g>
</g>
</g>
</svg>
