<svg width="20" height="20" viewBox="0 0 20 20" fill="none" xmlns="http://www.w3.org/2000/svg">
<g id="mi:download">
<path id="Vector" d="M10.0003 3.33398C10.1937 3.33398 10.3792 3.41203 10.5159 3.55094C10.6527 3.68986 10.7295 3.87827 10.7295 4.07473V10.4347L12.4015 8.73621C12.539 8.60127 12.7232 8.52661 12.9144 8.5283C13.1056 8.52999 13.2884 8.60789 13.4236 8.74523C13.5588 8.88257 13.6355 9.06836 13.6372 9.26258C13.6388 9.4568 13.5653 9.64391 13.4325 9.78361L10.5158 12.7466C10.3791 12.8854 10.1937 12.9635 10.0003 12.9635C9.80698 12.9635 9.62154 12.8854 9.4848 12.7466L6.56814 9.78361C6.4985 9.71528 6.44295 9.63355 6.40473 9.54317C6.36652 9.4528 6.3464 9.3556 6.34556 9.25724C6.34472 9.15889 6.36317 9.06135 6.39983 8.97031C6.43649 8.87928 6.49064 8.79658 6.5591 8.72703C6.62756 8.65747 6.70898 8.60247 6.79859 8.56523C6.8882 8.52798 6.98422 8.50924 7.08103 8.51009C7.17785 8.51095 7.27353 8.53138 7.3625 8.57021C7.45146 8.60903 7.53192 8.66546 7.59918 8.73621L9.27116 10.4347V4.07473C9.27116 3.87827 9.34798 3.68986 9.48473 3.55094C9.62147 3.41203 9.80694 3.33398 10.0003 3.33398ZM4.89616 12.9636C5.08955 12.9636 5.27501 13.0417 5.41176 13.1806C5.5485 13.3195 5.62533 13.5079 5.62533 13.7044V15.1858H14.3753V13.7044C14.3753 13.5079 14.4521 13.3195 14.5889 13.1806C14.7256 13.0417 14.9111 12.9636 15.1045 12.9636C15.2979 12.9636 15.4833 13.0417 15.6201 13.1806C15.7568 13.3195 15.8337 13.5079 15.8337 13.7044V15.1858C15.8337 15.5787 15.68 15.9556 15.4065 16.2334C15.133 16.5112 14.7621 16.6673 14.3753 16.6673H5.62533C5.23855 16.6673 4.86762 16.5112 4.59413 16.2334C4.32064 15.9556 4.16699 15.5787 4.16699 15.1858V13.7044C4.16699 13.5079 4.24382 13.3195 4.38056 13.1806C4.51731 13.0417 4.70277 12.9636 4.89616 12.9636Z" fill="#252F3E"/>
</g>
</svg>
