<svg width="28" height="28" viewBox="0 0 28 28" fill="none" xmlns="http://www.w3.org/2000/svg">
<g id="Group">
<path id="Vector" d="M0.0160822 19.6357C-0.108465 23.4033 0.51427 26.3924 1.05916 26.9373C1.60406 27.4822 4.60875 28.1205 8.36073 27.9804L0.0160822 19.6357Z" fill="black"/>
<path id="Vector_2" d="M15.6777 0.424438C12.0502 1.07831 8.22041 2.5106 5.3714 5.37518C2.52238 8.23976 1.07453 12.054 0.420654 15.6814L12.2993 27.5601C15.9423 26.9218 19.7566 25.4739 22.6056 22.6094C25.4546 19.7448 26.9024 15.9305 27.5563 12.3031L15.6777 0.424438ZM10.7269 19.449L8.54734 17.2694L17.2656 8.55113L19.4452 10.7307L10.7269 19.449Z" fill="black"/>
<path id="Vector_3" d="M27.9772 8.36425C28.1018 4.59671 27.479 1.60758 26.9341 1.06269C26.3892 0.517793 23.3845 -0.120511 19.6326 0.0196047L27.9772 8.36425Z" fill="black"/>
</g>
</svg>
