<svg width="60" height="60" viewBox="0 0 60 60" fill="none" xmlns="http://www.w3.org/2000/svg">
<g id="CACAO" clip-path="url(#clip0_534_9853)">
<path id="Vector" d="M30 60C46.5685 60 60 46.5685 60 30C60 13.4315 46.5685 0 30 0C13.4315 0 0 13.4315 0 30C0 46.5685 13.4315 60 30 60Z" fill="#FAE100"/>
<path id="Vector_2" d="M29.9998 20.9907C23.2686 20.9907 18.5811 25.1626 18.5811 30.3095C18.5811 33.7032 20.6248 36.6657 23.9436 38.2876L22.7811 42.197L26.6248 39.2439C27.6748 39.4876 28.8092 39.6282 30.0092 39.6282C36.7404 39.6282 41.4279 35.4564 41.4279 30.3095C41.4279 25.1626 36.7404 20.9907 30.0092 20.9907H29.9998Z" fill="#3B1E1E"/>
</g>
<defs>
<clipPath id="clip0_534_9853">
<rect width="60" height="60" fill="white"/>
</clipPath>
</defs>
</svg>
