<svg width="116" height="116" viewBox="0 0 116 116" fill="none" xmlns="http://www.w3.org/2000/svg">
<g id="Group 590">
<g id="text">
<g id="Group">
<g id="Group_2">
<path id="Vector" d="M42.6924 85.4331H37.875" stroke="#21409A" stroke-width="3.4"/>
<path id="Vector_2" d="M34.0664 85.4331H29.249" stroke="#21409A" stroke-width="3.4"/>
</g>
<g id="Group_3">
<path id="Vector_3" d="M35.9707 78.7788V83.5478" stroke="#21409A" stroke-width="3.4"/>
<path id="Vector_4" d="M35.9707 87.3179V92.0766" stroke="#21409A" stroke-width="3.4"/>
</g>
</g>
<g id="Group_4">
<g id="Group_5">
<path id="Vector_5" d="M59.8105 59.8213L85.0687 84.8258" stroke="#21409A" stroke-width="3.4"/>
<path id="Vector_6" d="M80.4868 89.3501L55.2287 64.3455C52.7063 61.8485 52.7063 57.7823 55.2287 55.2853C57.751 52.7882 61.8469 52.7768 64.3808 55.2853L89.639 80.2898C92.1613 82.7868 92.1613 86.8416 89.639 89.3501C88.3778 90.5986 86.7232 91.2286 85.0687 91.2286C83.4141 91.2286 81.748 90.61 80.4868 89.3501Z" fill="white" stroke="#21409A" stroke-width="3.4"/>
</g>
<g id="Group_6">
<path id="Vector_7" d="M110.826 95.1575L80.7893 65.4224L73.2686 72.8561L100.413 99.7277C104.161 103.439 104.578 109.177 101.697 113.347C104.937 113.782 108.327 112.774 110.814 110.311C115.049 106.119 115.049 99.3268 110.814 95.1346L110.826 95.1575Z" fill="#85B6FF"/>
<path id="Vector_8" d="M100.423 99.7397L73.2789 72.8682L65.4805 80.5883L95.5172 110.335C97.2527 112.064 99.4511 113.061 101.719 113.37C104.6 109.189 104.172 103.451 100.435 99.7512L100.423 99.7397Z" fill="white"/>
</g>
<path id="Vector_9" d="M65.4678 80.5877L95.5045 110.334C99.7277 114.515 106.589 114.515 110.824 110.334C115.058 106.142 115.058 99.3497 110.824 95.1575L80.7869 65.4224L65.4678 80.5877Z" stroke="#21409A" stroke-width="3.4"/>
<path id="Vector_10" d="M62.5863 12.9507C76.4245 26.6614 76.4245 48.8825 62.5863 62.5703C48.7481 76.281 26.29 76.281 12.4519 62.5703C-1.3863 48.8711 -1.3863 26.6499 12.4519 12.9507C26.3016 -0.748539 48.7481 -0.748539 62.5863 12.9507Z" fill="white"/>
<path id="Vector_11" d="M62.5131 13.0757C76.3512 26.7864 76.3512 49.0075 62.5131 62.6953C48.6749 76.406 26.2168 76.406 12.3786 62.6953C-1.45954 48.9961 -1.45954 26.7749 12.3786 13.0757C26.2284 -0.623539 48.6749 -0.623539 62.5131 13.0757Z" fill="#FFAC11" stroke="#21409A" stroke-width="3.4"/>
<g id="Group_7">
<path id="Vector_12" d="M57.2564 19.1485C55.3704 17.2814 53.253 15.7236 50.9737 14.498C53.1373 18.4268 54.2828 22.8367 54.2828 27.4298C54.2828 34.6689 51.4365 41.4613 46.2645 46.5698C41.0926 51.6899 34.2313 54.5076 26.9189 54.5076C22.2907 54.5076 17.8477 53.3736 13.8906 51.2546C15.1171 53.4767 16.6559 55.5728 18.5535 57.4513C23.7139 62.5599 30.5867 65.3776 37.8992 65.3776C45.2116 65.3776 52.0729 62.5599 57.2448 57.4399C62.4168 52.3313 65.2631 45.5275 65.2631 38.2999C65.2631 31.0723 62.4168 24.2685 57.2448 19.1485H57.2564Z" fill="#85B6FF"/>
<path id="Vector_13" d="M47.2567 47.5354C52.4286 42.4154 55.2749 35.623 55.2749 28.3954C55.2749 23.8023 54.1179 19.381 51.9658 15.4636C48.0087 13.3217 43.5426 12.1877 38.9029 12.1763C31.602 12.1763 24.7292 14.994 19.5572 20.114C10.7868 28.7963 9.24799 41.9458 14.8943 52.2202C18.8514 54.3392 23.2944 55.4732 27.9226 55.4732C35.2235 55.4732 42.0963 52.6554 47.2682 47.5354H47.2567Z" fill="white"/>
</g>
<path id="Vector_14" d="M37.678 64.4117C30.386 64.4117 23.5325 61.634 18.3866 56.5982C7.74872 46.1877 7.74872 29.2509 18.3866 18.8404C23.5325 13.8045 30.386 11.0269 37.678 11.0156C44.9699 11.0156 51.8118 13.7933 56.9693 18.8404C62.1267 23.8876 64.965 30.5945 64.965 37.7193C64.965 44.844 62.1267 51.551 56.9693 56.5869C51.8118 61.634 44.9699 64.4117 37.678 64.4117Z" stroke="#21409A" stroke-width="3.4" stroke-linecap="round"/>
<g id="Vector_15">
<path d="M24.995 50.1658C18.0759 43.3162 18.0759 32.2056 24.995 25.356V50.1658Z" fill="#FCFCFC"/>
<path d="M24.995 50.1658C18.0759 43.3162 18.0759 32.2056 24.995 25.356" stroke="#85B6FF" stroke-width="3.4" stroke-linecap="round" stroke-linejoin="round"/>
</g>
</g>
</g>
<g id="Layer 2">
<path id="Vector_16" d="M102.314 10.255C104.469 10.255 106.216 8.52562 106.216 6.39237C106.216 4.25912 104.469 2.52979 102.314 2.52979C100.159 2.52979 98.4121 4.25912 98.4121 6.39237C98.4121 8.52562 100.159 10.255 102.314 10.255Z" fill="white" stroke="#85B6FF" stroke-width="3.4"/>
</g>
</g>
</svg>
