<svg width="28" height="28" viewBox="0 0 28 28" fill="none" xmlns="http://www.w3.org/2000/svg">
<g id="Group">
<path id="Vector" d="M28 14C28 12.1615 27.6379 10.341 26.9343 8.64243C26.2307 6.94387 25.1995 5.40053 23.8995 4.1005C22.5995 2.80048 21.0561 1.76925 19.3576 1.06569C17.659 0.362121 15.8385 0 14 0V2.8C16.2151 2.79995 18.3804 3.45671 20.2222 4.68724C22.064 5.91778 23.4996 7.66681 24.3474 9.7132C24.9104 11.0723 25.2001 12.5289 25.2 14H28ZM0 11.2V4.2C0 3.8287 0.1475 3.4726 0.41005 3.21005C0.672601 2.9475 1.0287 2.8 1.4 2.8H8.4C8.7713 2.8 9.1274 2.9475 9.38995 3.21005C9.6525 3.4726 9.8 3.8287 9.8 4.2V9.8C9.8 10.1713 9.6525 10.5274 9.38995 10.7899C9.1274 11.0525 8.7713 11.2 8.4 11.2H5.6C5.6 14.1704 6.78 17.0192 8.8804 19.1196C10.9808 21.22 13.8296 22.4 16.8 22.4V19.6C16.8 19.2287 16.9475 18.8726 17.2101 18.6101C17.4726 18.3475 17.8287 18.2 18.2 18.2H23.8C24.1713 18.2 24.5274 18.3475 24.7899 18.6101C25.0525 18.8726 25.2 19.2287 25.2 19.6V26.6C25.2 26.9713 25.0525 27.3274 24.7899 27.59C24.5274 27.8525 24.1713 28 23.8 28H16.8C7.5222 28 0 20.4778 0 11.2Z" fill="white"/>
<path id="Vector_2" d="M19.9668 11.3213C20.3187 12.1706 20.4999 13.0808 20.5 14H18.4C18.4 12.7004 17.8838 11.4541 16.9648 10.5352C16.0459 9.61625 14.7996 9.1 13.5 9.1V7C14.8844 7.00007 16.2377 7.41066 17.3888 8.17985C18.5399 8.94904 19.4371 10.0423 19.9668 11.3213Z" fill="white"/>
</g>
</svg>
