<svg width="28" height="28" viewBox="0 0 28 28" fill="none" xmlns="http://www.w3.org/2000/svg">
<path id="Vector" d="M0 12.5578C0.117253 11.3618 0.363484 10.2301 0.738694 9.16261C1.1139 8.09608 1.62982 7.0938 2.28643 6.15578C3.1072 7 3.79337 7.97883 4.34492 9.09226C4.89554 10.2066 5.25293 11.3618 5.41709 12.5578H0ZM22.5829 12.5578C22.7471 11.3618 23.0988 10.2127 23.6382 9.11055C24.1776 8.00837 24.8693 7.03517 25.7136 6.19095C26.3702 7.10553 26.8861 8.10218 27.2613 9.1809C27.6365 10.2596 27.8827 11.3853 28 12.5578H22.5829ZM2.28643 21.809C1.62982 20.8945 1.1139 19.9039 0.738694 18.8374C0.363484 17.7699 0.117253 16.6382 0 15.4422H5.41709C5.25293 16.6382 4.89554 17.7873 4.34492 18.8894C3.79337 19.9916 3.1072 20.9648 2.28643 21.809ZM25.7136 21.809C24.8693 20.9648 24.1776 19.9916 23.6382 18.8894C23.0988 17.7873 22.7471 16.6382 22.5829 15.4422H28C27.8827 16.6147 27.6365 17.7404 27.2613 18.8191C26.8861 19.8978 26.3702 20.8945 25.7136 21.809ZM8.26633 12.5578C8.07873 10.8693 7.62144 9.30988 6.89447 7.8794C6.1675 6.44891 5.21776 5.15913 4.04523 4.01005C5.17085 2.88442 6.45501 1.98157 7.89769 1.30151C9.33943 0.62144 10.8928 0.187605 12.5578 0V12.5578H8.26633ZM15.4422 12.5578V0C17.1072 0.187605 18.6606 0.62144 20.1023 1.30151C21.545 1.98157 22.8291 2.88442 23.9548 4.01005C22.7588 5.13568 21.8034 6.41936 21.0886 7.8611C20.3729 9.30379 19.9213 10.8693 19.7337 12.5578H15.4422ZM12.5578 28C10.8693 27.8124 9.30988 27.3725 7.8794 26.6802C6.44891 25.9889 5.17085 25.0804 4.04523 23.9548C5.24121 22.8291 6.19705 21.5511 6.91276 20.1206C7.62754 18.6901 8.07873 17.1307 8.26633 15.4422H12.5578V28ZM15.4422 28V15.4422H19.7337C19.9213 17.1307 20.3729 18.6957 21.0886 20.1375C21.8034 21.5802 22.7588 22.8643 23.9548 23.99C22.8291 25.1156 21.545 26.0184 20.1023 26.6985C18.6606 27.3786 17.1072 27.8124 15.4422 28Z" fill="white"/>
</svg>
