<svg width="40" height="40" viewBox="0 0 40 40" fill="none" xmlns="http://www.w3.org/2000/svg">
<path fill-rule="evenodd" clip-rule="evenodd" d="M33.4824 6.19999C33.7343 6.38885 33.8824 6.68524 33.8824 6.99999V33.8823C33.8824 34.1971 33.7343 34.4935 33.4824 34.6823C33.2306 34.8712 32.9046 34.9304 32.6024 34.8423L12.4407 28.9618C12.014 28.8374 11.7207 28.4463 11.7207 28.0018V12.8805C11.7207 12.4361 12.014 12.0449 12.4407 11.9205L32.6024 6.03999C32.9046 5.95186 33.2306 6.01114 33.4824 6.19999ZM13.7207 13.6305V27.2518L31.8824 32.549V8.33333L13.7207 13.6305Z" fill="white"/>
<path fill-rule="evenodd" clip-rule="evenodd" d="M5 12.8805C5 12.3282 5.44772 11.8805 6 11.8805H12.7206C13.2729 11.8805 13.7206 12.3282 13.7206 12.8805V28.0018C13.7206 28.5541 13.2729 29.0018 12.7206 29.0018H6C5.44772 29.0018 5 28.5541 5 28.0018V12.8805ZM7 13.8805V27.0018H11.7206V13.8805H7Z" fill="white"/>
</svg>
