<svg width="18" height="18" viewBox="0 0 18 18" fill="none" xmlns="http://www.w3.org/2000/svg">
<path fill-rule="evenodd" clip-rule="evenodd" d="M5.66667 2.6H12.3333V1H14V2.6H14.8333C15.2754 2.6 15.6993 2.76857 16.0118 3.06863C16.3244 3.36869 16.5 3.77565 16.5 4.2V15.4C16.5 15.8243 16.3244 16.2313 16.0118 16.5314C15.6993 16.8314 15.2754 17 14.8333 17H3.16667C2.72464 17 2.30072 16.8314 1.98816 16.5314C1.67559 16.2313 1.5 15.8243 1.5 15.4V4.2C1.5 3.77565 1.67559 3.36869 1.98816 3.06863C2.30072 2.76857 2.72464 2.6 3.16667 2.6H4V1H5.66667V2.6ZM3.16667 5.8V15.4H14.8333V5.8H3.16667ZM4.83333 8.2H6.5V9.8H4.83333V8.2ZM8.16667 8.2H9.83333V9.8H8.16667V8.2ZM11.5 8.2H13.1667V9.8H11.5V8.2ZM11.5 11.4H13.1667V13H11.5V11.4ZM8.16667 11.4H9.83333V13H8.16667V11.4ZM4.83333 11.4H6.5V13H4.83333V11.4Z" fill="#21409A"/>
</svg>
