<svg width="18" height="19" viewBox="0 0 18 19" fill="none" xmlns="http://www.w3.org/2000/svg">
<path d="M14.2838 12.7839V9.01001C14.2838 6.70023 12.8026 4.73752 10.7373 4.01892C10.7495 3.93338 10.7593 3.84783 10.7593 3.75984C10.7593 2.78948 9.96977 2 8.99941 2C8.02906 2 7.23958 2.78948 7.23958 3.75984C7.23958 3.84783 7.24691 3.93338 7.26158 4.01892C5.19866 4.73752 3.71502 6.70023 3.71502 9.01001V12.7839C3.12107 13.0772 2.71289 13.6858 2.71289 14.3922H15.2859C15.2859 13.6858 14.8778 13.0772 14.2838 12.7839ZM7.94351 3.75984C7.94351 3.17811 8.41769 2.70393 8.99941 2.70393C9.58114 2.70393 10.0553 3.17811 10.0553 3.75984C10.0553 3.78428 10.0553 3.80628 10.0529 3.83072C9.71313 3.76228 9.36116 3.72562 8.99941 3.72562C8.63767 3.72562 8.28815 3.76228 7.94596 3.83072C7.94596 3.80628 7.94351 3.78428 7.94351 3.75984Z" fill="white"/>
<path d="M8.999 17C9.92536 17 10.6757 16.2496 10.6757 15.3232H7.32227C7.32227 16.2496 8.07264 17 8.999 17Z" fill="white"/>
</svg>
