<svg width="18" height="19" viewBox="0 0 18 19" fill="none" xmlns="http://www.w3.org/2000/svg">
<path d="M14.6985 6.08623C13.9808 6.08623 13.3982 6.6444 13.3982 7.33204C13.3982 6.6444 12.8156 6.08623 12.0979 6.08623C11.3802 6.08623 10.7976 6.6444 10.7976 7.33204C10.7976 6.6444 10.215 6.08623 9.49727 6.08623C9.15493 6.08623 8.84562 6.2157 8.61139 6.42286V2.74582C8.61139 2.05817 8.02881 1.5 7.31109 1.5C6.59337 1.5 6.01079 2.05817 6.01079 2.74582V10.7703L4.03481 9.27414C4.03481 9.27414 3.15193 8.42537 2.26604 9.27414C1.38016 10.1229 2.94773 11.8722 3.46124 12.6145C4.08586 13.5122 6.94773 17.5 11.0048 17.5C15.4793 17.5 15.9988 15.158 15.9988 14.0618V7.33204C15.9988 6.6444 15.4162 6.08623 14.6985 6.08623Z" fill="white"/>
</svg>
