<svg width="24" height="24" viewBox="0 0 24 24" fill="none" xmlns="http://www.w3.org/2000/svg">
<rect width="24" height="24" rx="12" fill="#FFAC11"/>
<path d="M17.2838 15.2839V11.51C17.2838 9.20023 15.8026 7.23752 13.7373 6.51892C13.7495 6.43338 13.7593 6.34783 13.7593 6.25984C13.7593 5.28948 12.9698 4.5 11.9994 4.5C11.0291 4.5 10.2396 5.28948 10.2396 6.25984C10.2396 6.34783 10.2469 6.43338 10.2616 6.51892C8.19866 7.23752 6.71502 9.20023 6.71502 11.51V15.2839C6.12107 15.5772 5.71289 16.1858 5.71289 16.8922H18.2859C18.2859 16.1858 17.8778 15.5772 17.2838 15.2839ZM10.9435 6.25984C10.9435 5.67811 11.4177 5.20393 11.9994 5.20393C12.5811 5.20393 13.0553 5.67811 13.0553 6.25984C13.0553 6.28428 13.0553 6.30628 13.0529 6.33072C12.7131 6.26228 12.3612 6.22562 11.9994 6.22562C11.6377 6.22562 11.2881 6.26228 10.946 6.33072C10.946 6.30628 10.9435 6.28428 10.9435 6.25984Z" fill="white"/>
<path d="M11.999 19.501C12.9254 19.501 13.6757 18.7506 13.6757 17.8242H10.3223C10.3223 18.7506 11.0726 19.501 11.999 19.501Z" fill="white"/>
</svg>
