<svg width="33" height="32" viewBox="0 0 33 32" fill="none" xmlns="http://www.w3.org/2000/svg">
<g clip-path="url(#clip0_1594_31958)">
<path d="M16.6016 14.8429C20.2793 14.8429 23.2735 11.7385 23.2735 7.92145C23.2735 4.10442 20.2793 1 16.6016 1C12.9239 1 9.92969 4.10442 9.92969 7.92145C9.92969 11.7385 12.9239 14.8429 16.6016 14.8429ZM17.8202 4.65475C17.8202 4.65475 18.6086 6.88782 21.6136 7.92145C21.6136 10.846 19.3644 13.2237 16.6016 13.2237C13.8388 13.2237 11.5895 10.846 11.5895 7.92498C12.1066 7.93556 15.5167 7.87559 17.8202 4.65475Z" fill="#252F3E"/>
<path d="M21.4964 14.3486C20.1512 15.4705 18.4515 16.1443 16.6001 16.1443C14.7486 16.1443 13.0453 15.4705 11.7037 14.3486C8.18154 16.0949 5.76953 18.8465 5.76953 22.9634H27.4342C27.4342 18.8465 25.0186 16.0913 21.5 14.3486H21.4964Z" fill="#252F3E"/>
<path d="M7.82929 26.1985H6.44067L6.01396 24.9109C5.89463 24.551 5.55109 24.3076 5.16416 24.3076C4.77722 24.3076 4.43368 24.551 4.31435 24.9109L3.88764 26.1985H2.49902C2.11208 26.1985 1.76854 26.4419 1.64921 26.8017C1.52987 27.1616 1.66006 27.5531 1.97467 27.7754L3.09569 28.5691L2.66536 29.8568C2.54603 30.2166 2.67621 30.6082 2.99082 30.8304C3.30543 31.0527 3.72852 31.0527 4.04313 30.8304L5.16416 30.0367L6.28518 30.8304C6.44067 30.9398 6.6251 30.9962 6.80953 30.9962C6.99395 30.9962 7.17838 30.9398 7.33388 30.8304C7.64849 30.6082 7.77867 30.2131 7.65933 29.8568L7.22901 28.5691L8.35003 27.7754C8.66464 27.5531 8.79482 27.158 8.67549 26.8017C8.55615 26.4419 8.21261 26.1985 7.82568 26.1985H7.82929Z" fill="#252F3E"/>
<path d="M19.2704 26.1985H17.8818L17.4515 24.9109C17.3321 24.551 16.9886 24.3076 16.6017 24.3076C16.2147 24.3076 15.8712 24.551 15.7518 24.9109L15.3251 26.1985H13.9365C13.5496 26.1985 13.206 26.4419 13.0867 26.8017C12.9674 27.1616 13.0976 27.5531 13.4122 27.7754L14.5332 28.5691L14.1029 29.8568C13.9835 30.2166 14.1137 30.6082 14.4283 30.8304C14.7429 31.0527 15.166 31.0527 15.4806 30.8304L16.6017 30.0367L17.7227 30.8304C17.8782 30.9398 18.0626 30.9962 18.247 30.9962C18.4315 30.9962 18.6159 30.9398 18.7714 30.8304C19.086 30.6082 19.2162 30.2131 19.0968 29.8568L18.6665 28.5691L19.7875 27.7754C20.1021 27.5531 20.2323 27.158 20.113 26.8017C19.9937 26.4419 19.6501 26.1985 19.2632 26.1985H19.2704Z" fill="#252F3E"/>
<path d="M31.558 26.7988C31.4387 26.439 31.0951 26.1956 30.7082 26.1956H29.3196L28.8929 24.9079C28.7735 24.5481 28.43 24.3047 28.0431 24.3047C27.6561 24.3047 27.3126 24.5481 27.1933 24.9079L26.7665 26.1956H25.3779C24.991 26.1956 24.6474 26.439 24.5281 26.7988C24.4088 27.1586 24.539 27.5502 24.8536 27.7725L25.9746 28.5662L25.5443 29.8538C25.4249 30.2137 25.5551 30.6053 25.8697 30.8275C26.1843 31.0498 26.6074 31.0498 26.922 30.8275L28.0431 30.0338L29.1641 30.8275C29.3196 30.9369 29.504 30.9933 29.6884 30.9933C29.8729 30.9933 30.0573 30.9369 30.2128 30.8275C30.5274 30.6053 30.6576 30.2101 30.5382 29.8538L30.1079 28.5662L31.2289 27.7725C31.5435 27.5502 31.6737 27.1551 31.5544 26.7988H31.558Z" fill="#252F3E"/>
</g>
<defs>
<clipPath id="clip0_1594_31958">
<rect width="30" height="30" fill="white" transform="translate(1.60156 1)"/>
</clipPath>
</defs>
</svg>
