<svg width="33" height="32" viewBox="0 0 33 32" fill="none" xmlns="http://www.w3.org/2000/svg">
<g clip-path="url(#clip0_1594_32196)">
<path d="M10.541 15.1348C10.541 18.7141 13.3244 21.6241 16.7463 21.6241C20.1682 21.6241 22.9552 18.7141 22.9552 15.1348C22.9552 11.5555 20.1718 8.64551 16.7463 8.64551C13.3209 8.64551 10.541 11.5555 10.541 15.1348ZM17.8823 12.0722C17.8823 12.0722 18.616 14.1671 21.41 15.1348C21.41 17.8748 19.3181 20.1049 16.7463 20.1049C14.1746 20.1049 12.0862 17.8748 12.0826 15.1348C12.5659 15.1452 15.7374 15.0897 17.8787 12.0688L17.8823 12.0722Z" fill="#252F3E"/>
<path d="M21.3085 21.1631C20.0597 22.214 18.4757 22.8487 16.7507 22.8487C15.0256 22.8487 13.4452 22.2175 12.1928 21.1631C8.91552 22.8001 6.67188 26.1402 6.67188 30.0004H26.8294C26.8294 26.1402 24.5823 22.8001 21.3085 21.1631Z" fill="#252F3E"/>
<path d="M9.57723 10.9726C9.91943 10.9726 10.251 10.9275 10.5685 10.8478C11.3094 9.70668 12.3395 8.78063 13.5495 8.1806C13.7541 7.65688 13.8705 7.0846 13.8705 6.48805C13.8705 4.01511 11.9444 2 9.58076 2C7.21717 2 5.29102 4.01164 5.29102 6.48805C5.29102 8.96445 7.21717 10.9761 9.58076 10.9761L9.57723 10.9726Z" fill="#252F3E"/>
<path d="M9.30644 15.1348C9.30644 14.1983 9.46872 13.3 9.76505 12.4676C9.70155 12.4676 9.63805 12.4746 9.57455 12.4746C8.23401 12.4746 7.00635 11.9821 6.03622 11.167C3.49624 12.4399 1.75 15.0342 1.75 18.0343H9.8603C9.50753 17.1395 9.30997 16.1614 9.30997 15.1348H9.30644Z" fill="#252F3E"/>
<path d="M22.9313 10.8478C23.2488 10.9275 23.5804 10.9726 23.9226 10.9726C26.2897 10.9726 28.2123 8.96098 28.2123 6.48458C28.2123 4.00818 26.2897 2 23.9226 2C21.5554 2 19.6328 4.01164 19.6328 6.48805C19.6328 7.08807 19.7492 7.66035 19.9538 8.1806C21.1639 8.78063 22.1904 9.70668 22.9348 10.8478H22.9313Z" fill="#252F3E"/>
<path d="M23.9228 12.4779C23.8593 12.4779 23.7958 12.471 23.7323 12.471C24.0287 13.3034 24.191 14.1982 24.191 15.1382C24.191 16.1648 23.9934 17.1429 23.6406 18.0377H31.7509C31.7509 15.041 30.0047 12.4432 27.4612 11.1738C26.491 11.9924 25.2599 12.4814 23.9228 12.4814V12.4779Z" fill="#252F3E"/>
</g>
<defs>
<clipPath id="clip0_1594_32196">
<rect width="30" height="28" fill="white" transform="translate(1.75 2)"/>
</clipPath>
</defs>
</svg>
