<svg width="33" height="32" viewBox="0 0 33 32" fill="none" xmlns="http://www.w3.org/2000/svg">
<g clip-path="url(#clip0_1594_29861)">
<path d="M23.1939 12.4648C20.474 12.4648 18.2656 14.8561 18.2656 17.7924C18.2656 20.7286 20.4775 23.1199 23.1939 23.1199C25.9103 23.1199 28.1222 20.7286 28.1222 17.7924C28.1222 14.8561 25.9103 12.4648 23.1939 12.4648ZM26.8945 17.7924C26.8945 20.0438 25.2329 21.8723 23.1904 21.8723C21.1478 21.8723 19.4898 20.0438 19.4862 17.7924C19.8708 17.7995 22.3896 17.7565 24.0899 15.2756C24.0899 15.2756 24.672 16.9965 26.8945 17.7888V17.7924Z" fill="#252F3E"/>
<path d="M26.8134 22.7441C25.8186 23.6082 24.5627 24.128 23.1939 24.128C21.8252 24.128 20.5693 23.6082 19.5744 22.7441C16.971 24.0886 15.1895 26.8312 15.1895 30.0005H31.1984C31.1984 26.8312 29.4133 24.0886 26.8134 22.7441Z" fill="#252F3E"/>
<path d="M3.53459 10.3355H24.9445V11.6548C25.8265 11.9416 26.6202 12.4471 27.2799 13.1032V5.39155C27.2799 4.73547 26.7578 4.20487 26.1122 4.20487H23.8615V3.11498C23.8615 2.49834 23.3711 2 22.7644 2C22.1576 2 21.6672 2.49834 21.6672 3.11498V4.20487H18.1818V3.11498C18.1818 2.49834 17.6915 2 17.0847 2C16.4779 2 15.9876 2.49834 15.9876 3.11498V4.20487H12.5021V3.11498C12.5021 2.49834 12.0118 2 11.405 2C10.7982 2 10.3079 2.49834 10.3079 3.11498V4.20487H6.82245V3.11498C6.82245 2.49834 6.3321 2 5.72532 2C5.11855 2 4.62819 2.49834 4.62819 3.11498V4.20487H2.3669C1.72133 4.20487 1.19922 4.73547 1.19922 5.39155V27.1498C1.19922 27.8059 1.72133 28.3365 2.3669 28.3365H14.266C14.4142 27.5047 14.6717 26.7088 15.028 25.9631H3.53459V10.3355Z" fill="#252F3E"/>
</g>
<defs>
<clipPath id="clip0_1594_29861">
<rect width="30" height="28" fill="white" transform="translate(1.19922 2)"/>
</clipPath>
</defs>
</svg>
