<svg width="32" height="32" viewBox="0 0 32 32" fill="none" xmlns="http://www.w3.org/2000/svg">
<g clip-path="url(#clip0_1594_26960)">
<path d="M29.4337 20.821H28.3154V5.21157H29.4337C30.298 5.21157 31 4.49186 31 3.60579C31 2.71971 30.298 2 29.4337 2H2.56632C1.70202 2 1 2.71971 1 3.60579C1 4.49186 1.70202 5.21157 2.56632 5.21157H3.68462V20.8174H2.56632C1.70202 20.8174 1 21.5371 1 22.4231C1 23.3092 1.70202 24.0289 2.56632 24.0289H9.22672L7.04304 29.9964H10.1757L12.3594 24.0289H19.6371L21.8208 29.9964H24.9534L22.7698 24.0289H29.4301C30.2944 24.0289 30.9965 23.3092 30.9965 22.4231C30.9965 21.5371 30.2944 20.8174 29.4301 20.8174L29.4337 20.821ZM25.6272 20.821H6.37277V5.21157H25.6272V20.8174V20.821Z" fill="#252F3E"/>
<path d="M15.3678 18.835C18.1582 18.835 20.423 16.5131 20.423 13.6524H15.3678V8.46973C12.5773 8.46973 10.3125 10.7916 10.3125 13.6524C10.3125 16.5131 12.5773 18.835 15.3678 18.835Z" fill="#252F3E"/>
<path d="M16.6328 7.17578V12.3584H21.6881C21.6881 9.49766 19.4233 7.17578 16.6328 7.17578Z" fill="#252F3E"/>
</g>
<defs>
<clipPath id="clip0_1594_26960">
<rect width="30" height="28" fill="white" transform="translate(1 2)"/>
</clipPath>
</defs>
</svg>
