<svg width="33" height="32" viewBox="0 0 33 32" fill="none" xmlns="http://www.w3.org/2000/svg">
<g clip-path="url(#clip0_1594_31144)">
<path d="M17.9998 16.0915L19.432 14.2661L17.4882 12.3826L15.6044 13.7704C14.8283 13.285 13.957 12.9295 13.0256 12.7347L12.7046 10.4648H9.95649L9.63547 12.7347C8.70414 12.9329 7.83278 13.2884 7.05668 13.7704L5.17286 12.3826L3.22907 14.2661L4.66134 16.0915C4.1604 16.8436 3.79351 17.6879 3.59243 18.5903L1.25 18.9014V21.5643L3.59243 21.8754C3.79704 22.7779 4.16392 23.6222 4.66134 24.3743L3.22907 26.1997L5.17286 28.0832L7.05668 26.6953C7.83278 27.1807 8.70414 27.5363 9.63547 27.7311L9.95649 30.0009H12.7046L13.0256 27.7311C13.957 27.5328 14.8283 27.1773 15.6044 26.6953L17.4882 28.0832L19.432 26.1997L17.9998 24.3743C18.5007 23.6222 18.8676 22.7779 19.0687 21.8754L21.4111 21.5643V18.9014L19.0687 18.5903C18.8641 17.6879 18.4972 16.8436 17.9998 16.0915ZM11.3288 23.1436C9.66722 23.1436 8.32314 21.8378 8.32314 20.2312C8.32314 18.6245 9.67074 17.3187 11.3288 17.3187C12.9868 17.3187 14.3344 18.6245 14.3344 20.2312C14.3344 21.8378 12.9868 23.1436 11.3288 23.1436Z" fill="#252F3E"/>
<path d="M11.3289 18.6855C10.4505 18.6855 9.73438 19.3795 9.73438 20.2307C9.73438 21.0818 10.4505 21.7758 11.3289 21.7758C12.2073 21.7758 12.9235 21.0818 12.9235 20.2307C12.9235 19.3795 12.2073 18.6855 11.3289 18.6855Z" fill="#252F3E"/>
<path d="M18.9946 5.79099L15.0824 2H7.25781V12.0979C7.61764 11.927 7.98453 11.78 8.362 11.6569L8.72183 9.09657H13.9358L14.2957 11.6569C14.7049 11.7903 15.1035 11.9509 15.4881 12.1355L17.6118 10.5699L21.2983 14.1421L19.6826 16.2C19.8766 16.5726 20.0389 16.9589 20.1764 17.3554L22.8187 17.7041V22.7188H27.9728C29.779 22.7188 31.2465 21.3002 31.2465 19.5466V5.79099H18.9911H18.9946Z" fill="#252F3E"/>
</g>
<defs>
<clipPath id="clip0_1594_31144">
<rect width="30" height="28" fill="white" transform="translate(1.25 2)"/>
</clipPath>
</defs>
</svg>
