<svg width="33" height="32" viewBox="0 0 33 32" fill="none" xmlns="http://www.w3.org/2000/svg">
<g clip-path="url(#clip0_1594_32184)">
<path d="M27.1433 24.7451H15.6572C14.6507 24.7451 13.832 25.5565 13.832 26.5619C13.832 27.5673 14.6472 28.3787 15.6572 28.3787H17.6844V28.7562C17.6844 29.9944 18.6944 30.9998 19.9384 30.9998H22.8622C24.1061 30.9998 25.1161 29.9944 25.1161 28.7562V28.3787H27.1433C28.1498 28.3787 28.9685 27.5673 28.9685 26.5619C28.9685 25.5565 28.1534 24.7451 27.1433 24.7451Z" fill="#252F3E"/>
<path d="M19.5965 11.2871V8.89172C19.5965 6.64454 17.7678 4.82422 15.5103 4.82422H5.28936C3.03183 4.82422 1.20312 6.64454 1.20312 8.89172V11.2871C1.20312 13.4884 2.9645 15.2805 5.15823 15.3475V18.9035L8.7235 15.3546H15.5103C17.7678 15.3546 19.5965 13.5342 19.5965 11.2871ZM6.32421 11.2871C5.63313 11.2871 5.06963 10.7297 5.06963 10.0382C5.06963 9.3468 5.62959 8.78941 6.32421 8.78941C7.01884 8.78941 7.57879 9.3468 7.57879 10.0382C7.57879 10.7297 7.01884 11.2871 6.32421 11.2871ZM10.3998 11.2871C9.70874 11.2871 9.14524 10.7297 9.14524 10.0382C9.14524 9.3468 9.70519 8.78941 10.3998 8.78941C11.0944 8.78941 11.6544 9.3468 11.6544 10.0382C11.6544 10.7297 11.0944 11.2871 10.3998 11.2871ZM14.4754 11.2871C13.7843 11.2871 13.2208 10.7297 13.2208 10.0382C13.2208 9.3468 13.7808 8.78941 14.4754 8.78941C15.17 8.78941 15.73 9.3468 15.73 10.0382C15.73 10.7297 15.17 11.2871 14.4754 11.2871Z" fill="#252F3E"/>
<path d="M27.2178 20.1804V18.6035C29.7269 16.7655 31.2048 13.8904 31.2048 10.7578C31.2048 5.37794 26.8067 1 21.4021 1C18.939 1 16.685 1.91369 14.9591 3.41298H15.5155C16.685 3.41298 17.7659 3.77987 18.659 4.40075C19.5025 4.03739 20.4275 3.83631 21.4021 3.83631C25.2367 3.83631 28.3554 6.94073 28.3554 10.7578C28.3554 13.1672 27.1186 15.3685 25.0453 16.6421L24.3684 17.0583V20.1733H18.4357V17.0583L17.7588 16.6421C17.6419 16.5715 17.5285 16.4939 17.4186 16.4163C16.8232 16.635 16.1853 16.762 15.5119 16.762H13.6797C14.2219 17.4499 14.8598 18.0708 15.5828 18.6V20.1769C14.6118 20.2157 13.8321 21.0059 13.8321 21.9866C13.8321 22.9673 14.6472 23.8034 15.6572 23.8034H27.1434C28.1499 23.8034 28.9685 22.992 28.9685 21.9866C28.9685 20.9812 28.1924 20.2192 27.2178 20.1769V20.1804Z" fill="#252F3E"/>
</g>
<defs>
<clipPath id="clip0_1594_32184">
<rect width="30" height="30" fill="white" transform="translate(1.20312 1)"/>
</clipPath>
</defs>
</svg>
