<svg width="37" height="36" viewBox="0 0 37 36" fill="none" xmlns="http://www.w3.org/2000/svg">
<g clip-path="url(#clip0_1594_28380)">
<path d="M33.9186 2H2.57738C1.84572 2 1.25 2.59252 1.25 3.32024V25.323C1.25 26.0547 1.84572 26.6432 2.57738 26.6432H14.1359C15.2354 27.6056 16.6707 28.1901 18.246 28.1901C19.8213 28.1901 21.2606 27.6016 22.3561 26.6432H33.9146C34.6503 26.6432 35.242 26.0507 35.242 25.323V3.32024C35.242 2.58854 34.6463 2 33.9146 2H33.9186ZM18.25 24.476C16.8706 24.476 15.7552 23.3665 15.7552 21.9945C15.7552 20.6226 16.8706 19.5131 18.25 19.5131C19.6294 19.5131 20.7448 20.6226 20.7448 21.9945C20.7448 23.3665 19.6294 24.476 18.25 24.476ZM32.5913 24.0027H24.1432C24.3591 23.3705 24.4831 22.6984 24.4831 21.9945C24.4831 18.5706 21.6924 15.795 18.25 15.795C14.8076 15.795 12.0169 18.5706 12.0169 21.9945C12.0169 22.6984 12.1409 23.3744 12.3568 24.0027H3.90875V4.64446H32.5913V24.0027Z" fill="#252F3E"/>
<path d="M14.0039 28.293V33.9994L18.2499 32.2855L22.4959 33.9994V28.293C21.2445 29.132 19.7692 29.5894 18.2499 29.5894C16.7306 29.5894 15.2593 29.132 14.0039 28.293Z" fill="#252F3E"/>
<path d="M9.09797 9.59095H27.4054C27.8811 9.59095 28.2689 9.20522 28.2689 8.732C28.2689 8.25878 27.8811 7.87305 27.4054 7.87305H9.09797C8.62219 7.87305 8.23438 8.25878 8.23438 8.732C8.23438 9.20522 8.62219 9.59095 9.09797 9.59095Z" fill="#252F3E"/>
<path d="M9.09797 13.6828H27.4054C27.8811 13.6828 28.2689 13.297 28.2689 12.8238C28.2689 12.3506 27.8811 11.9648 27.4054 11.9648H9.09797C8.62219 11.9648 8.23438 12.3506 8.23438 12.8238C8.23438 13.297 8.62219 13.6828 9.09797 13.6828Z" fill="#252F3E"/>
</g>
<defs>
<clipPath id="clip0_1594_28380">
<rect width="34" height="32" fill="white" transform="translate(1.25 2)"/>
</clipPath>
</defs>
</svg>
