<svg width="33" height="32" viewBox="0 0 33 32" fill="none" xmlns="http://www.w3.org/2000/svg">
<g clip-path="url(#clip0_1594_12797)">
<path d="M28.7634 19.8296L27.0219 23.3381H23.5149L25.6893 14.5645H23.486L19.2429 23.3381H14.9036C13.9751 23.3381 13.2246 24.0951 13.2246 25.0317C13.2246 25.9683 13.9751 26.7301 14.9036 26.7301H30.3173L31.2506 19.8296H28.7634Z" fill="#252F3E"/>
<path d="M11.6172 25.0308C11.6172 24.8901 11.6268 24.7494 11.6461 24.6087C9.98637 22.5172 8.94243 19.8627 8.74038 17.0288H14.0322V21.8378C14.3113 21.7601 14.5999 21.7165 14.903 21.7165H16.0768V17.0288H20.5075L21.5034 14.9664H16.0768V4.96984C19.1798 7.16326 21.2099 10.8659 21.513 14.947L22.48 12.9477H23.3074C22.7013 9.7643 21.1714 6.8721 18.9633 4.71265C22.6724 5.99861 25.5396 9.09463 26.5547 12.9477H27.7333L26.7231 17.0288H26.9107C26.776 18.6253 26.319 20.1296 25.6214 21.4835L25.5637 21.7165H26.0255L27.767 18.208H28.8302C28.9456 17.4898 29.0034 16.7473 29.0034 15.9951C29.0082 8.27938 22.7782 2 15.1291 2C7.47996 2 1.25 8.27938 1.25 16C1.25 23.7206 7.47514 30 15.1291 30C17.4912 30 19.7138 29.3983 21.6621 28.3452H14.903C13.0941 28.3452 11.6172 26.8603 11.6172 25.0308ZM14.0322 5.0766V14.9664H8.74038C9.02903 10.9435 11.0063 7.28943 14.0322 5.0766ZM11.2901 4.71265C8.62492 7.3234 6.94115 11.0017 6.69099 14.9664H3.34269C3.7516 10.1913 6.95077 6.21698 11.2901 4.71265ZM3.34269 17.0288H6.69099C6.94115 20.9934 8.62492 24.6766 11.2901 27.2825C6.95558 25.7782 3.7516 21.799 3.34269 17.0288Z" fill="#252F3E"/>
</g>
<defs>
<clipPath id="clip0_1594_12797">
<rect width="30" height="28" fill="white" transform="translate(1.25 2)"/>
</clipPath>
</defs>
</svg>
