<svg width="32" height="32" viewBox="0 0 32 32" fill="none" xmlns="http://www.w3.org/2000/svg">
<g clip-path="url(#clip0_1594_1997)">
<path d="M23.8251 8.10552V5.19981H12.4126L8.16025 1H1V19.5648H1.11203L4.736 8.10552H23.8251Z" fill="#252F3E"/>
<path d="M30.6296 28.8589L28.5254 26.7806C30.0597 24.4474 29.7967 21.2867 27.7217 19.2373C25.3446 16.8896 21.4723 16.8896 19.0953 19.2373C16.7182 21.585 16.7182 25.4095 19.0953 27.762C21.1654 29.8066 24.3705 30.0712 26.7329 28.5558L28.8371 30.634C29.3339 31.1247 30.1376 31.1247 30.6296 30.634C31.1264 30.1433 31.1264 29.3496 30.6296 28.8637V28.8589ZM25.9292 25.9916C24.5409 27.3627 22.276 27.3627 20.8878 25.9916C19.4995 24.6206 19.4995 22.3836 20.8878 21.0125C22.276 19.6414 24.5409 19.6414 25.9292 21.0125C27.3174 22.3836 27.3174 24.6206 25.9292 25.9916Z" fill="#252F3E"/>
<path d="M17.8141 17.9777C19.3046 16.5056 21.292 15.6926 23.4108 15.6926C24.6383 15.6926 25.8171 15.9716 26.8887 16.4912L28.9101 10.0977H6.08497L1.28711 25.2516H15.7002C15.5686 24.6839 15.4956 24.1018 15.4956 23.5053C15.4956 21.4174 16.3188 19.4546 17.8093 17.9777H17.8141Z" fill="#252F3E"/>
</g>
<defs>
<clipPath id="clip0_1594_1997">
<rect width="30" height="30" fill="white" transform="translate(1 1)"/>
</clipPath>
</defs>
</svg>
