<svg width="33" height="32" viewBox="0 0 33 32" fill="none" xmlns="http://www.w3.org/2000/svg">
<path d="M16.3334 10.5469C10.5609 10.5469 5.88086 15.1258 5.88086 20.7735C5.88086 26.4213 10.5609 31.0002 16.3334 31.0002C22.106 31.0002 26.786 26.4213 26.786 20.7735C26.786 15.1258 22.106 10.5469 16.3334 10.5469ZM16.3334 27.8394C12.3457 27.8394 9.11146 24.6751 9.11146 20.7735C9.11146 16.872 12.3457 13.7076 16.3334 13.7076C20.3212 13.7076 23.5554 16.872 23.5554 20.7735C23.5554 24.6751 20.3212 27.8394 16.3334 27.8394Z" fill="#252F3E"/>
<path d="M16.3322 9.14534C16.3754 9.14534 16.4151 9.14534 16.4584 9.14534L11.4791 1H2.04688L8.68835 11.8722C10.7543 10.1719 13.4189 9.14534 16.3322 9.14534Z" fill="#252F3E"/>
<path d="M23.9771 11.8722L30.6186 1H21.1864L17.1445 7.61787L18.1613 9.28292C20.3571 9.61452 22.351 10.5352 23.9771 11.8722Z" fill="#252F3E"/>
<path d="M20.2425 18.911H17.8664L17.1309 16.6992C17.0191 16.3605 16.6982 16.1348 16.3341 16.1348C15.9699 16.1348 15.649 16.3641 15.5372 16.6992L14.8017 18.911H12.4256C12.0615 18.911 11.7406 19.1403 11.6288 19.4754C11.517 19.8141 11.6396 20.181 11.9317 20.3891L13.857 21.7578L13.1215 23.9697C13.0097 24.3083 13.1323 24.6752 13.4244 24.8833C13.7164 25.0915 14.1166 25.0915 14.4087 24.8833L16.3341 23.5146L18.2559 24.8833C18.4037 24.9892 18.5767 25.0386 18.7462 25.0386C18.9157 25.0386 19.0923 24.9856 19.2366 24.8833C19.5286 24.6752 19.6512 24.3048 19.5394 23.9697L18.8039 21.7578L20.7293 20.3891C21.0213 20.181 21.1439 19.8106 21.0321 19.4754C20.9204 19.1368 20.5995 18.911 20.2353 18.911H20.2425Z" fill="#252F3E"/>
</svg>
