<svg width="32" height="32" viewBox="0 0 32 32" fill="none" xmlns="http://www.w3.org/2000/svg">
<path d="M9 25.9952C9 27.6533 7.65542 29 6 29C4.34458 29 3 27.6605 3 25.9952V14.0048C3 12.3467 4.34458 11 6 11C7.65542 11 9 12.3467 9 14.0048V25.9952Z" stroke="#252F3E" stroke-width="2" stroke-linecap="round" stroke-linejoin="round"/>
<path d="M19 25.9233C19 27.621 17.661 29 16.0036 29C14.3462 29 13 27.6285 13 25.9233V6.0767C13 4.37896 14.339 3 16.0036 3C17.661 3 19 4.37896 19 6.0767V25.9233Z" stroke="#2C99F2" stroke-width="2" stroke-linecap="round" stroke-linejoin="round"/>
<path d="M29 25.927C29 27.6227 27.6554 29 26 29C24.3446 29 23 27.6301 23 25.927V11.073C23 9.37729 24.3446 8 26 8C27.6554 8 29 9.37729 29 11.073V25.9196V25.927Z" stroke="#252F3E" stroke-width="2" stroke-linecap="round" stroke-linejoin="round"/>
</svg>
