<svg width="117" height="117" viewBox="0 0 117 117" fill="none" xmlns="http://www.w3.org/2000/svg">
<g id="Group 594">
<g id="Group">
<path id="Vector" d="M73.3474 33.6812L57.3182 17.457L18.8594 56.3836L34.8886 72.6077C34.8886 72.6077 51.1111 89.6489 68.7432 78.7868L89.3425 99.6366L100.051 88.7974L79.4521 67.9476C90.1838 50.101 73.3474 33.6812 73.3474 33.6812Z" fill="white"/>
<path id="Vector_2" d="M73.3468 33.6812L57.3175 17.457L50.5762 24.2804L64.2408 38.1112C64.2408 38.1112 81.0658 54.531 70.3456 72.3776L90.9448 93.2274L86.9773 97.2432L89.3419 99.6366L100.051 88.7974L79.4515 67.9476C90.1832 50.101 73.3468 33.6812 73.3468 33.6812Z" fill="#FFAC11"/>
<path id="Vector_3" d="M72.9763 33.4976L56.9471 17.2734L18.4883 56.2L34.5175 72.4242C34.5175 72.4242 50.74 89.4653 68.3722 78.6032L88.9714 99.453L99.6803 88.6138L79.081 67.764C89.8127 49.9174 72.9763 33.4976 72.9763 33.4976Z" stroke="#21409A" stroke-width="3.4"/>
<g id="Group_2">
<path id="Vector_4" d="M110.043 79.2234C108.281 77.4399 105.439 77.4399 103.688 79.2234L79.8833 103.318C78.1326 105.102 78.1326 107.978 79.8833 109.75L80.1107 109.98L110.271 79.4535L110.043 79.2234Z" fill="white"/>
<path id="Vector_5" d="M110.262 79.4442L80.1016 109.972L83.8315 113.747L113.992 83.2194L110.262 79.4442Z" fill="#FFAC11"/>
</g>
<path id="Vector_6" d="M110.043 79.2234C108.281 77.4399 105.439 77.4399 103.688 79.2234L79.8833 103.318C78.1326 105.102 78.1326 107.978 79.8833 109.75L83.8395 113.754L113.999 83.2276L110.043 79.2234Z" stroke="#21409A" stroke-width="3.4"/>
</g>
<path id="Vector_7" d="M28.7949 56.3489L47.4161 37.5127" stroke="#85B6FF" stroke-width="3.4"/>
<path id="Vector_8" d="M11.0951 12.3701C13.4496 12.3701 15.3582 10.4383 15.3582 8.05518C15.3582 5.6721 13.4496 3.74023 11.0951 3.74023C8.74068 3.74023 6.83203 5.6721 6.83203 8.05518C6.83203 10.4383 8.74068 12.3701 11.0951 12.3701Z" fill="#FCFCFC" stroke="#85B6FF" stroke-width="3.4"/>
<path id="Vector_9" d="M6.26309 54.9443C8.61754 54.9443 10.5262 53.0125 10.5262 50.6294C10.5262 48.2463 8.61754 46.3145 6.26309 46.3145C3.90865 46.3145 2 48.2463 2 50.6294C2 53.0125 3.90865 54.9443 6.26309 54.9443Z" fill="#FCFCFC" stroke="#85B6FF" stroke-width="3.4"/>
<g id="Group_3">
<g id="Group_4">
<path id="Vector_10" d="M28.238 29.918H23.2246" stroke="#21409A" stroke-width="3.4"/>
<path id="Vector_11" d="M19.2455 29.918H14.2207" stroke="#21409A" stroke-width="3.4"/>
</g>
<g id="Group_5">
<path id="Vector_12" d="M21.2344 22.8301V27.9045" stroke="#21409A" stroke-width="3.4"/>
<path id="Vector_13" d="M21.2344 31.9316V37.0175" stroke="#21409A" stroke-width="3.4"/>
</g>
</g>
<g id="Group_6">
<g id="Group_7">
<path id="Vector_14" d="M90.5814 19.2744H85.5566" stroke="#21409A" stroke-width="3.4"/>
<path id="Vector_15" d="M81.5775 19.2744H76.5527" stroke="#21409A" stroke-width="3.4"/>
</g>
<g id="Group_8">
<path id="Vector_16" d="M83.5664 12.1748V17.2607" stroke="#21409A" stroke-width="3.4"/>
<path id="Vector_17" d="M83.5664 21.2881V26.374" stroke="#21409A" stroke-width="3.4"/>
</g>
</g>
<path id="Vector_18" d="M43.2627 2.24564L36.6973 17.8252L44.017 20.9853L50.5824 5.40574L43.2627 2.24564Z" fill="#85B6FF" stroke="#21409A" stroke-width="3.4"/>
</g>
</svg>
