<svg width="78" height="60" viewBox="0 0 78 60" fill="none" xmlns="http://www.w3.org/2000/svg">
<g id="Group 589">
<g id="Group">
<path id="Vector" d="M37.9311 54.7161H68.8868C70.7486 54.7161 72.2552 53.194 72.2552 51.3128V22.9014L32.3125 53.6037L37.9311 54.7161Z" fill="#85B6FF"/>
<path id="Vector_2" d="M72.5234 5.40334C72.5234 3.52217 71.0168 2 69.1549 2H9.36845C7.50657 2 6 3.52217 6 5.40334V51.7218C6 53.603 7.50657 55.1251 9.36845 55.1251H33.9283L72.5234 23.3104V5.40334Z" fill="white"/>
</g>
<path id="Vector_3" d="M9.10673 1.58398H68.8861C70.748 1.58398 72.2546 3.11333 72.2546 4.98732V51.3058C72.2546 53.187 70.7409 54.7091 68.8861 54.7091H9.10673C7.24485 54.7091 5.73828 53.1798 5.73828 51.3058V4.98732C5.73828 3.10615 7.25195 1.58398 9.10673 1.58398Z" stroke="#21409A" stroke-width="2.2" stroke-linecap="round"/>
<g id="Group_2">
<path id="Vector_4" d="M44.2336 50.9321L42.7573 50.9735C42.7573 51.9141 43.6953 50.9321 42.7573 50.9321H40.6099C39.6789 50.9321 38.4625 50.9321 36.852 50.9321H33.7587H2V53.2963C2 56.1253 4.26695 58.4157 7.06689 58.4157H70.9325C73.7324 58.4157 75.9994 56.1253 75.9994 53.2963V50.9321H44.2336Z" fill="white"/>
<path id="Vector_5" d="M2 50.9321H33.7587H44.2336H75.9994V53.2963C75.9994 56.1253 73.7324 58.4157 70.9325 58.4157H7.06689C4.26695 58.4157 2 56.1253 2 53.2963V50.9321Z" stroke="#21409A" stroke-width="2.2" stroke-linejoin="round"/>
</g>
<g id="I-PIN">
<path id="Vector_6" d="M55.6748 32H53.8975L49.5498 25.7109H49.4678V32H47.417V22.1016H49.2217L53.542 28.3906H53.6377V22.1016H55.6748V32Z" fill="#21409A"/>
<path id="Vector_7" d="M40.6787 22.1016H46.2021V23.7969H44.4658V30.3047H46.2021V32H40.6787V30.3047H42.415V23.7969H40.6787V22.1016Z" fill="#21409A"/>
<path id="Vector_8" d="M32.4092 22.1016H36.292C37.0303 22.1016 37.666 22.2428 38.1992 22.5254C38.7324 22.8034 39.138 23.1953 39.416 23.7012C39.694 24.2025 39.833 24.7812 39.833 25.4375C39.833 26.0983 39.6895 26.6816 39.4023 27.1875C39.1198 27.6888 38.7074 28.0785 38.165 28.3564C37.6273 28.6344 36.9847 28.7734 36.2373 28.7734H34.46V32H32.4092V22.1016ZM35.9092 27.1191C36.5016 27.1191 36.9505 26.9688 37.2559 26.668C37.5612 26.3626 37.7139 25.9525 37.7139 25.4375C37.7139 24.9271 37.5612 24.5238 37.2559 24.2275C36.9505 23.9313 36.5016 23.7832 35.9092 23.7832H34.46V27.1191H35.9092Z" fill="#21409A"/>
<path id="Vector_9" d="M30.7559 27.8574H26.2441V26.2441H30.7559V27.8574Z" fill="#21409A"/>
<path id="Vector_10" d="M19.4512 22.1016H24.9746V23.7969H23.2383V30.3047H24.9746V32H19.4512V30.3047H21.1875V23.7969H19.4512V22.1016Z" fill="#21409A"/>
</g>
<g id="Group_3">
<g id="Group_4">
<path id="Vector_11" d="M19.141 11.5H16" stroke="#FFAC11" stroke-width="2.2"/>
<path id="Vector_12" d="M13.7541 11.3418H10.6201" stroke="#FFAC11" stroke-width="2.2"/>
</g>
<g id="Group_5">
<path id="Vector_13" d="M14.9971 6.91162V10.0852" stroke="#FFAC11" stroke-width="2.2"/>
<path id="Vector_14" d="M14.9971 12.5908V15.7644" stroke="#FFAC11" stroke-width="2.2"/>
</g>
</g>
</g>
</svg>
