<svg width="100" height="110" viewBox="0 0 100 110" fill="none" xmlns="http://www.w3.org/2000/svg">
<g id="Layer_2" clip-path="url(#clip0_1134_4352)">
<g id="Group 596">
<path id="Vector" d="M72.5859 42.4004C72.007 42.4004 71.4182 42.3805 70.7993 42.3308C67.3061 42.1123 64.5014 40.2743 63.0442 37.7507C61.5571 35.2471 61.1379 32.3162 61.1279 29.3456C61.1679 20.2847 65.28 10.0217 65.3099 9.87266C65.6792 8.91888 66.6074 8.29297 67.6354 8.29297H83.974C84.6328 8.29297 85.2715 8.56122 85.7406 9.01824C86.1997 9.47525 86.4692 10.121 86.4692 10.7768V27.0704C86.4792 27.2592 86.4992 27.6069 86.4992 28.0838C86.4892 29.7827 86.2896 33.1309 84.4032 36.3598C82.5767 39.5788 78.6742 42.4004 72.8255 42.4004C72.7456 42.4004 72.6658 42.4004 72.5959 42.4004H72.5859ZM69.3721 13.3102C69.0128 14.3634 68.5237 15.8536 68.0347 17.5923C67.0565 21.0696 66.1084 25.5603 66.1183 29.3356C66.1084 31.8095 66.5375 33.9158 67.326 35.1974C68.1444 36.4592 69.0128 37.1546 71.1686 37.3732C71.6677 37.4129 72.1468 37.4328 72.5859 37.4328C77.1471 37.3533 78.8738 35.7538 80.1015 33.8363C81.2792 31.889 81.5187 29.3058 81.5088 28.0838C81.5088 27.8454 81.5088 27.6566 81.4988 27.5374C81.4988 27.4182 81.4988 27.3983 81.4988 27.3983V27.1598L81.4888 13.2606H69.402C69.402 13.2606 69.392 13.2904 69.3821 13.3102H69.3721Z" fill="#FFAC11" stroke="#21409A" stroke-width="3.4"/>
<g id="Vector_2">
<path d="M5.04617 36.3499C3.15979 33.111 2.96018 29.7728 2.9502 28.0739C2.9502 27.5871 2.97016 27.2393 2.98014 27.0506V10.7768C2.98014 10.121 3.24962 9.48519 3.70874 9.01824C4.16786 8.56122 4.81661 8.29297 5.47534 8.29297H21.8139C22.842 8.29297 23.7602 8.92882 24.1395 9.87266C24.1694 10.0118 28.2815 20.2847 28.3214 29.3356C28.3115 32.3063 27.8923 35.2371 26.4051 37.7408C24.9479 40.2643 22.1433 42.1123 18.64 42.3308C18.0312 42.3706 17.4324 42.4004 16.8635 42.4004C16.7836 42.4004 16.7038 42.4004 16.6339 42.4004C10.7752 42.4004 6.87266 39.5788 5.05615 36.3598L5.04617 36.3499ZM7.97055 27.1598V27.3983C7.97055 27.3983 7.96057 27.4182 7.95059 27.5274C7.95059 27.6467 7.94061 27.8354 7.94061 28.0739C7.93063 29.2959 8.17017 31.879 9.3479 33.8263C10.5755 35.7438 12.3022 37.3533 16.8635 37.4229C17.3026 37.4229 17.7717 37.403 18.2708 37.3633C20.4366 37.1447 21.3149 36.4492 22.1234 35.1875C22.9118 33.9058 23.341 31.7996 23.331 29.3257C23.351 23.6428 21.1752 16.4299 20.0873 13.3003C20.0873 13.3003 20.0773 13.2606 20.0673 13.2506H7.97055V27.1499V27.1598Z" fill="#FFAC11"/>
<path d="M21.8139 8.29297H5.47534C4.81661 8.29297 4.16786 8.56122 3.70874 9.01824C3.24962 9.48519 2.98014 10.121 2.98014 10.7768V27.0506C2.97016 27.2393 2.9502 27.5871 2.9502 28.0739C2.96018 29.7728 3.15979 33.111 5.04617 36.3499L5.05615 36.3598C6.87266 39.5788 10.7752 42.4004 16.6339 42.4004C16.7038 42.4004 16.7836 42.4004 16.8635 42.4004C17.4324 42.4004 18.0312 42.3706 18.64 42.3308C22.1433 42.1123 24.9479 40.2643 26.4051 37.7408C27.8923 35.2371 28.3115 32.3063 28.3214 29.3356C28.2815 20.2847 24.1694 10.0118 24.1395 9.87266C23.7602 8.92882 22.842 8.29297 21.8139 8.29297ZM21.8139 8.29297V10.7768L19.4884 11.6809M7.97055 27.1598V27.3983C7.97055 27.3983 7.96057 27.4182 7.95059 27.5274C7.95059 27.6467 7.94061 27.8354 7.94061 28.0739C7.93063 29.2959 8.17016 31.879 9.3479 33.8263C10.5755 35.7438 12.3022 37.3533 16.8635 37.4229C17.3026 37.4229 17.7717 37.403 18.2708 37.3633C20.4366 37.1447 21.3149 36.4492 22.1234 35.1875C22.9118 33.9058 23.341 31.7996 23.331 29.3257C23.351 23.6428 21.1752 16.4299 20.0873 13.3003C20.0873 13.3003 20.0773 13.2605 20.0673 13.2506H7.97055V27.1499V27.1598Z" stroke="#21409A" stroke-width="3.4"/>
</g>
<g id="Group">
<path id="Vector_3" d="M65.8201 2.5V46.5326C65.8201 48.003 64.7721 49.8013 63.4946 50.5365L45.0999 62.1209C43.8224 62.8561 42.7744 64.6544 42.7744 66.1248V82.402C42.7744 83.8724 43.8823 85.5614 45.2297 86.1575L61.5783 93.3506C62.9257 93.9467 64.0336 95.6357 64.0336 97.1061V100.673C64.0336 102.143 62.8259 103.345 61.3487 103.345H68.6647C70.1418 103.345 71.3495 102.143 71.3495 100.673V97.1061C71.3495 95.6357 70.2416 93.9467 68.8942 93.3506L52.5456 86.1575C51.1982 85.5614 50.0904 83.8724 50.0904 82.402V66.1248C50.0904 64.6544 51.1383 62.8561 52.4159 62.1209L70.8105 50.5365C72.0881 49.8013 73.1361 48.003 73.1361 46.5326V2.5H65.8201Z" fill="#FFAC11"/>
<path id="Vector_4" d="M64.033 100.673V97.1061C64.033 95.6357 62.9251 93.9467 61.5777 93.3506L45.2291 86.1575C43.8817 85.5614 42.7738 83.8724 42.7738 82.402V66.1248C42.7738 64.6544 43.8218 62.8561 45.0994 62.1209L63.494 50.5365C64.7716 49.8013 65.8195 48.003 65.8195 46.5326V2.5H16.3047V46.5326C16.3047 48.003 17.3527 49.8013 18.6302 50.5365L37.0249 62.1209C38.3024 62.8561 39.3504 64.6544 39.3504 66.1248V82.402C39.3504 83.8724 38.2425 85.5614 36.8951 86.1575L20.5465 93.3506C19.1991 93.9467 18.0913 95.6357 18.0913 97.1061V100.673C18.0913 102.143 19.2989 103.345 20.7761 103.345H61.3382C62.8153 103.345 64.023 102.143 64.023 100.673H64.033Z" fill="white"/>
</g>
<path id="Vector_5" d="M16.3047 2.5V46.5326C16.3047 48.003 17.3527 49.8013 18.6302 50.5365L37.0249 62.1209C38.3024 62.8561 39.3504 64.6544 39.3504 66.1248V83.402C39.3504 84.8724 38.2425 86.5614 36.8951 87.1575L20.5465 94.3506C19.1991 94.9467 18.0913 96.6357 18.0913 98.1061V101.673C18.0913 103.143 19.2989 104.345 20.7761 104.345H68.6641C70.1412 104.345 71.3489 103.143 71.3489 101.673V98.1061C71.3489 96.6357 70.241 94.9467 68.8936 94.3506L52.545 87.1575C51.1976 86.5614 50.0898 84.8724 50.0898 83.402V66.1248C50.0898 64.6544 51.1378 62.8561 52.4153 62.1209L70.81 50.5365C72.0875 49.8013 73.1355 48.003 73.1355 46.5326V2.5H16.3047Z" stroke="#21409A" stroke-width="3.4"/>
<g id="Group_2">
<g id="Group_3">
<path id="Vector_6" d="M39.1107 25.7773H34.6992" stroke="#21409A" stroke-width="3.4"/>
<path id="Vector_7" d="M31.2055 25.7773H26.7939" stroke="#21409A" stroke-width="3.4"/>
</g>
<g id="Group_4">
<path id="Vector_8" d="M32.9521 19.6484V24.0398" stroke="#21409A" stroke-width="3.4"/>
<path id="Vector_9" d="M32.9521 27.5156V31.897" stroke="#21409A" stroke-width="3.4"/>
</g>
</g>
<path id="Vector_10" d="M52.9137 44.4865C54.9808 44.4865 56.6565 42.8185 56.6565 40.7608C56.6565 38.7032 54.9808 37.0352 52.9137 37.0352C50.8466 37.0352 49.1709 38.7032 49.1709 40.7608C49.1709 42.8185 50.8466 44.4865 52.9137 44.4865Z" fill="#FCFCFC" stroke="#85B6FF" stroke-width="3.4"/>
</g>
<g id="Group_5">
<g id="Group_6">
<path id="Vector_11" d="M88.6209 95.9244C88.6209 95.9963 88.8055 96.4275 89.0722 97.0434C86.8461 96.448 84.1994 96.0989 81.3577 96.0989C80.178 96.0989 79.029 96.1605 77.9313 96.2735L78.0236 95.5856L67.1699 94.2305V101.951C67.1699 105.185 73.5201 107.803 81.3577 107.803C89.1953 107.803 95.5455 105.185 95.5455 101.951V94.3639C95.5455 94.3639 88.6209 95.637 88.6209 95.9141V95.9244Z" fill="#FFAC11" stroke="#21409A" stroke-width="3.4"/>
<path id="Vector_12" d="M95.5455 93.2229C95.5455 96.4568 89.1953 99.0747 81.3577 99.0747C73.5201 99.0747 67.1699 96.4568 67.1699 93.2229C67.1699 89.989 73.5201 87.3711 81.3577 87.3711C89.1953 87.3711 95.5455 89.989 95.5455 93.2229Z" fill="#FFAC11" stroke="#21409A" stroke-width="3.4"/>
</g>
<g id="Group_7">
<path id="Vector_13" d="M88.6209 89.026C88.6209 89.0978 88.8055 89.529 89.0722 90.145C86.8461 89.5496 84.1994 89.2005 81.3577 89.2005C80.178 89.2005 79.029 89.2621 77.9313 89.375L78.0236 88.6872L67.1699 87.332V95.0523C67.1699 98.2862 73.5201 100.904 81.3577 100.904C89.1953 100.904 95.5455 98.2862 95.5455 95.0523V87.4655C95.5455 87.4655 88.6209 88.7385 88.6209 89.0157V89.026Z" fill="#FFAC11" stroke="#21409A" stroke-width="3.4"/>
<path id="Vector_14" d="M95.5455 86.3245C95.5455 89.5584 89.1953 92.1763 81.3577 92.1763C73.5201 92.1763 67.1699 89.5584 67.1699 86.3245C67.1699 83.0906 73.5201 80.4727 81.3577 80.4727C89.1953 80.4727 95.5455 83.0906 95.5455 86.3245Z" fill="#FFAC11" stroke="#21409A" stroke-width="3.4"/>
</g>
<g id="Group_8">
<path id="Vector_15" d="M88.6209 82.1354C88.6209 82.2072 85.3607 81.1806 85.6275 81.7966C83.4013 81.2011 84.1994 82.3099 81.3577 82.3099C80.178 82.3099 79.029 82.3715 77.9313 82.4844L78.0236 81.7966L67.1699 80.4414V88.1617C67.1699 91.3956 73.5201 94.0135 81.3577 94.0135C89.1953 94.0135 95.5455 91.3956 95.5455 88.1617V80.5749C95.5455 80.5749 88.6209 81.8479 88.6209 82.1251V82.1354Z" fill="#FFAC11" stroke="#21409A" stroke-width="3.4"/>
<path id="Vector_16" d="M95.5455 79.4338C95.5455 82.6677 89.1953 85.2857 81.3577 85.2857C73.5201 85.2857 67.1699 82.6677 67.1699 79.4338C67.1699 76.1999 73.5201 73.582 81.3577 73.582C89.1953 73.582 95.5455 76.1999 95.5455 79.4338Z" fill="#FFAC11" stroke="#21409A" stroke-width="3.4"/>
</g>
</g>
<g id="Group_9">
<path id="Vector_17" d="M89.8312 65.5889C89.821 65.6608 87.8561 64.7422 87.9998 65.3992C85.948 64.3623 85.4815 64.8498 82.6912 64.2543C81.5319 64.0079 80.3932 63.8334 79.2955 63.7102L79.5315 63.0532L69.1907 59.4805C69.1907 59.4805 67.6006 66.9749 67.5904 67.0365C66.9235 70.1985 72.5966 74.0792 80.2599 75.7013C87.9231 77.3234 94.6836 76.0811 95.3504 72.9191L96.92 65.4965C96.92 65.4965 89.8825 65.3015 89.821 65.5787L89.8312 65.5889Z" fill="#FFAC11" stroke="#21409A" stroke-width="3.4"/>
<path id="Vector_18" d="M97.1658 64.3768C96.499 67.5389 89.7385 68.7811 82.0753 67.159C74.412 65.5369 68.739 61.6563 69.4058 58.4942C70.0726 55.3322 76.8331 54.09 84.4963 55.7121C92.1596 57.3341 97.8326 61.2148 97.1658 64.3768Z" fill="#FFAC11" stroke="#21409A" stroke-width="3.4"/>
</g>
</g>
<defs>
<clipPath id="clip0_1134_4352">
<rect width="99" height="109" fill="white" transform="translate(0.5 0.5)"/>
</clipPath>
</defs>
</svg>
