<svg width="20" height="20" viewBox="0 0 20 20" fill="none" xmlns="http://www.w3.org/2000/svg">
<g id="menu-arrow-default">
<path id="Union" fill-rule="evenodd" clip-rule="evenodd" d="M9.69619 14.1814C9.38377 14.4938 9.38377 15.0004 9.69619 15.3128C10.0086 15.6252 10.5151 15.6252 10.8276 15.3128L15.701 10.4393C16.0134 10.1269 16.0134 9.62038 15.701 9.30796L10.8276 4.43451C10.5151 4.12209 10.0086 4.12209 9.69619 4.43451C9.38377 4.74693 9.38377 5.25346 9.69619 5.56588L13.3305 9.20021H4.0002C3.55837 9.20021 3.2002 9.55838 3.2002 10.0002C3.2002 10.442 3.55837 10.8002 4.0002 10.8002H13.0774L9.69619 14.1814ZM14.0002 9.87741L14.004 9.87365L14.0002 9.86989V9.87741Z" fill="#21409A"/>
</g>
</svg>
