<svg width="45" height="62" viewBox="0 0 45 62" fill="none" xmlns="http://www.w3.org/2000/svg">
<g id="Group 575">
<g id="Group">
<path id="Vector" d="M28.6655 21.9332C28.6655 15.8148 31.6774 10.4059 36.2978 7.11016C32.6867 3.73555 27.8297 1.68555 22.4997 1.68555C17.1697 1.68555 12.3128 3.75132 8.70166 7.11016C13.322 10.4217 16.334 15.8305 16.334 21.9332C16.334 28.0359 13.322 33.4606 8.70166 36.7563C12.3128 40.1309 17.1697 42.1967 22.4997 42.1967C27.8297 42.1967 32.6867 40.1309 36.2978 36.7563C31.6774 33.4448 28.6655 28.0359 28.6655 21.9332Z" stroke="white" stroke-width="3" stroke-linecap="round" stroke-linejoin="round"/>
<path id="Vector_2" d="M16.334 21.9334C16.334 15.815 13.3221 10.4061 8.70171 7.11035C4.72787 10.8004 2.23633 16.0673 2.23633 21.9334C2.23633 27.7996 4.72787 33.0665 8.70171 36.7565C13.3221 33.445 16.334 28.0361 16.334 21.9334Z" stroke="white" stroke-width="3" stroke-linecap="round" stroke-linejoin="round"/>
<path id="Vector_3" d="M42.7632 21.9334C42.7632 16.083 40.2717 10.8004 36.2978 7.11035C31.6775 10.4219 28.6655 15.8307 28.6655 21.9334C28.6655 28.0361 31.6775 33.4607 36.2978 36.7565C40.2717 33.0507 42.7632 27.7838 42.7632 21.9334Z" stroke="white" stroke-width="3" stroke-linecap="round" stroke-linejoin="round"/>
</g>
<path id="Vector_4" d="M43 54.7337C43 57.651 40.6346 60.0006 37.7331 60.0006H7.26692C4.34962 60.0006 2 57.6353 2 54.7337C2 51.8164 4.36538 49.4668 7.26692 49.4668H37.7173C40.6346 49.4668 42.9842 51.8322 42.9842 54.7337H43Z" stroke="#FFAC11" stroke-width="3" stroke-linecap="round" stroke-linejoin="round"/>
</g>
</svg>
