<svg width="20" height="21" viewBox="0 0 20 21" fill="none" xmlns="http://www.w3.org/2000/svg">
<g id="ri:home-5-fill">
<path id="Vector" d="M17 16.7527C17 16.9509 16.9181 17.141 16.7722 17.2811C16.6263 17.4213 16.4285 17.5 16.2222 17.5H3.77778C3.5715 17.5 3.37367 17.4213 3.22781 17.2811C3.08194 17.141 3 16.9509 3 16.7527V8.89839C2.99992 8.7845 3.02692 8.67211 3.07896 8.56979C3.13099 8.46747 3.20667 8.37793 3.30022 8.30801L9.52244 3.65746C9.65898 3.55541 9.82702 3.5 10 3.5C10.173 3.5 10.341 3.55541 10.4776 3.65746L16.6998 8.30801C16.7933 8.37793 16.869 8.46747 16.921 8.56979C16.9731 8.67211 17.0001 8.7845 17 8.89839V16.7527ZM9.22222 11.5215V16.0054H10.7778V11.5215H9.22222Z" fill="#252F3E"/>
</g>
</svg>
