<svg width="20" height="21" viewBox="0 0 20 21" fill="none" xmlns="http://www.w3.org/2000/svg">
<g id="menu-arrow-default">
<path id="Union" fill-rule="evenodd" clip-rule="evenodd" d="M9.69595 14.6814C9.38353 14.9938 9.38353 15.5004 9.69595 15.8128C10.0084 16.1252 10.5149 16.1252 10.8273 15.8128L15.7008 10.9393C16.0132 10.6269 16.0132 10.1204 15.7008 9.80796L10.8273 4.93451C10.5149 4.62209 10.0084 4.62209 9.69595 4.93451C9.38353 5.24693 9.38353 5.75346 9.69595 6.06588L13.3303 9.70021H3.99995C3.55812 9.70021 3.19995 10.0584 3.19995 10.5002C3.19995 10.942 3.55812 11.3002 3.99995 11.3002H13.0771L9.69595 14.6814ZM14 10.3774L14.0037 10.3736L14 10.3699V10.3774Z" fill="#21409A"/>
</g>
</svg>
