<svg width="20" height="20" viewBox="0 0 20 20" fill="none" xmlns="http://www.w3.org/2000/svg">
<g id="icon_!">
<path id="Vector" d="M16.8019 13.9864L11.2083 4.66939C10.6648 3.77687 9.32863 3.77687 8.78512 4.66939L3.19145 13.9864C2.64794 14.8789 3.32733 16 4.40303 16H15.6017C16.6774 16 17.3455 14.8789 16.8133 13.9864H16.8019ZM9.29466 8.21769C9.29466 7.84762 9.61171 7.54286 9.9967 7.54286C10.3817 7.54286 10.6987 7.84762 10.6987 8.21769V10.8735C10.6987 11.2435 10.3817 11.5483 9.9967 11.5483C9.61171 11.5483 9.29466 11.2435 9.29466 10.8735V8.21769ZM9.9967 13.8884C9.58906 13.8884 9.26069 13.5728 9.26069 13.181C9.26069 12.7891 9.58906 12.4735 9.9967 12.4735C10.4043 12.4735 10.7327 12.7891 10.7327 13.181C10.7327 13.5728 10.4043 13.8884 9.9967 13.8884Z" fill="#EE3A3A"/>
</g>
</svg>
