<svg width="24" height="24" viewBox="0 0 24 24" fill="none" xmlns="http://www.w3.org/2000/svg">
<g id="mi:download">
<path id="Vector" d="M12 4C12.2321 4 12.4546 4.09365 12.6187 4.26035C12.7828 4.42705 12.875 4.65314 12.875 4.88889V12.5209L14.8814 10.4827C15.0464 10.3207 15.2674 10.2312 15.4969 10.2332C15.7263 10.2352 15.9457 10.3287 16.108 10.4935C16.2702 10.6583 16.3622 10.8812 16.3642 11.1143C16.3662 11.3474 16.278 11.5719 16.1186 11.7396L12.6186 15.2951C12.4545 15.4618 12.232 15.5554 12 15.5554C11.768 15.5554 11.5455 15.4618 11.3814 15.2951L7.88138 11.7396C7.7978 11.6576 7.73114 11.5595 7.68529 11.451C7.63943 11.3426 7.61529 11.2259 7.61428 11.1079C7.61327 10.9899 7.63541 10.8728 7.67941 10.7636C7.7234 10.6544 7.78837 10.5551 7.87053 10.4716C7.95269 10.3882 8.05038 10.3222 8.15792 10.2775C8.26545 10.2328 8.38067 10.2103 8.49685 10.2113C8.61303 10.2124 8.72785 10.2369 8.8346 10.2835C8.94136 10.3301 9.03791 10.3978 9.11862 10.4827L11.125 12.5209V4.88889C11.125 4.65314 11.2172 4.42705 11.3813 4.26035C11.5454 4.09365 11.7679 4 12 4ZM5.875 15.5556C6.10706 15.5556 6.32962 15.6492 6.49372 15.8159C6.65781 15.9826 6.75 16.2087 6.75 16.4444V18.2222H17.25V16.4444C17.25 16.2087 17.3422 15.9826 17.5063 15.8159C17.6704 15.6492 17.8929 15.5556 18.125 15.5556C18.3571 15.5556 18.5796 15.6492 18.7437 15.8159C18.9078 15.9826 19 16.2087 19 16.4444V18.2222C19 18.6937 18.8156 19.1459 18.4874 19.4793C18.1592 19.8127 17.7141 20 17.25 20H6.75C6.28587 20 5.84075 19.8127 5.51256 19.4793C5.18437 19.1459 5 18.6937 5 18.2222V16.4444C5 16.2087 5.09219 15.9826 5.25628 15.8159C5.42038 15.6492 5.64294 15.5556 5.875 15.5556Z" fill="#1D2530"/>
</g>
</svg>
