<svg width="20" height="20" viewBox="0 0 20 20" fill="none" xmlns="http://www.w3.org/2000/svg">
<g id="btn_search">
<path id="Vector" d="M17 17L12.914 12.914M12.914 12.914C13.4533 12.3747 13.8811 11.7345 14.1729 11.0299C14.4648 10.3253 14.615 9.57014 14.615 8.80749C14.615 8.04484 14.4648 7.28966 14.1729 6.58506C13.8811 5.88046 13.4533 5.24025 12.914 4.70097C12.3747 4.1617 11.7345 3.73392 11.0299 3.44207C10.3253 3.15022 9.57014 3 8.80749 3C8.04484 3 7.28966 3.15022 6.58506 3.44207C5.88046 3.73392 5.24025 4.1617 4.70097 4.70097C3.61186 5.79009 3 7.26725 3 8.80749C3 10.3477 3.61186 11.8249 4.70097 12.914C5.79009 14.0031 7.26725 14.615 8.80749 14.615C10.3477 14.615 11.8249 14.0031 12.914 12.914Z" stroke="#252F3E" stroke-width="2" stroke-linecap="round" stroke-linejoin="round"/>
</g>
</svg>
