<svg width="188" height="24" viewBox="0 0 188 24" fill="none" xmlns="http://www.w3.org/2000/svg">
<g clip-path="url(#clip0_1_4998)">
<path d="M49.2066 9.41113H42.4916C39.3493 9.41113 37.9282 11.4619 37.538 12.9441L34.876 23.0152H35.9067C37.3378 23.0152 38.3886 22.5685 38.6288 21.7462C39.1792 19.6446 40.29 15.472 40.8404 13.3807C41.0606 12.5685 41.8712 12.1319 42.4316 12.1319C44.243 12.1319 47.3553 12.1319 47.3553 12.1319C48.2059 12.1319 49.2567 12.2741 48.7863 13.868C48.5161 14.8121 47.6755 15.2893 46.2645 15.2893H44.0628C42.6117 15.2893 41.5509 15.7462 41.3208 16.5888L40.9405 18.0101H45.7241C48.6763 18.0101 51.2682 17.3807 52.2289 13.7665C53.0395 10.7106 51.6084 9.42128 49.1866 9.42128L49.2066 9.41113Z" fill="#00458B"/>
<path d="M62.1062 9.02539H61.4257C57.5528 9.02539 53.7299 11.6244 52.7292 15.4213L52.3089 17.0051C51.3081 20.7919 53.76 23.401 57.6329 23.401H58.3134C62.8467 23.401 66.0091 20.802 67.0198 17.0051L67.4402 15.4213C68.4409 11.6244 65.9891 9.02539 62.1162 9.02539H62.1062ZM63.8074 15.9797L63.6573 16.5381C62.9368 19.269 60.7852 20.7513 59.0139 20.7513H58.3434C56.5821 20.7513 55.201 19.269 55.9316 16.5381L56.0817 15.9797C56.8022 13.2487 58.9538 11.7665 60.7252 11.7665H61.3957C63.157 11.7665 64.538 13.2487 63.8175 15.9797H63.8074Z" fill="#00458B"/>
<path d="M21.2859 7.62439H17.9834C16.6424 7.62439 15.5416 8.09139 14.9211 8.61931L6.94517 14.4467C7.58565 12.0305 8.20611 9.665 8.74651 7.62439H6.4448C5.01373 7.62439 3.97296 8.06094 3.72277 8.88327L0 23.0153H2.29171C3.74279 23.0153 4.80358 22.5584 5.03375 21.7158C5.49409 19.9696 6.00447 18.0609 6.51485 16.1219L11.1283 21.9696C11.5786 22.5381 12.079 23.0051 13.7102 23.0051H17.2328L11.2184 15.4416L21.2959 7.62439H21.2859Z" fill="#00458B"/>
<path d="M31.4636 14.7309H26.8101C25.5491 14.7309 24.9587 14.4771 25.2789 13.3807C25.5491 12.4365 26.3397 12.1319 27.7508 12.1319H33.6352C35.0862 12.1319 36.147 11.6751 36.3672 10.8325L36.7375 9.41113H28.2812C25.339 9.41113 22.717 10.1015 21.8264 13.4822C21.2059 15.8274 22.3368 17.4517 24.9587 17.4416H29.6122C30.9131 17.4416 31.4535 17.7259 31.1233 18.8629C30.8631 19.8071 30.0225 20.2842 28.6014 20.2842H22.647C21.1959 20.2842 20.1351 20.7411 19.915 21.5837L19.5347 23.005H28.061C31.2534 23.005 33.6452 22.2335 34.5659 18.7614C35.2864 16.0203 33.7553 14.7208 31.4535 14.7208L31.4636 14.7309Z" fill="#00458B"/>
<path d="M74.2052 4.99496C73.945 4.84267 73.8249 4.84267 73.6047 5.07618C72.7441 6.02034 71.213 7.78684 70.4424 8.68024C71.4832 10.2031 72.2637 12.6599 71.8134 15.8071C71.7534 16.0203 71.8835 16.1625 72.0736 15.9696C74.025 13.9696 76.2067 11.7564 78.1681 10.2538C77.3876 7.84775 75.6663 5.84775 74.2052 4.99496Z" fill="#F29600"/>
<path d="M62.0862 4.47735C61.9761 4.53826 61.9761 4.69055 62.0862 4.69055C64.8583 4.62963 66.7097 5.26923 68.2508 6.40628C70.0021 4.95451 72.9743 2.67024 74.4154 1.91897C74.9858 1.77684 75.9966 1.65502 76.6871 1.63471C76.0866 2.28446 75.246 3.23877 74.7557 3.77684C74.6356 3.91897 74.7557 4.0408 74.8958 3.97989C78.8287 2.40628 84.0626 1.20831 88.3358 0.893594C78.5985 -1.16732 69.1815 0.416436 62.0762 4.47735H62.0862Z" fill="#00458B"/>
<path d="M89.7569 1.23867C85.964 1.69552 80.8902 3.39095 78.2983 4.75136C77.938 4.94425 78.0081 5.07623 78.2783 5.19806C79.1189 5.58385 80.6201 6.51786 81.4707 7.8478C87.0348 4.47725 91.7784 2.81227 93.3795 2.2539C92.1787 1.85796 90.9177 1.50263 89.7569 1.22852V1.23867Z" fill="#009CE1"/>
<path d="M121.6 9.91882H119.839V23.5838H121.6V9.91882Z" fill="#00458B"/>
<path d="M117.297 14.528H115.286V15.8478H117.297V23.5838H119.058V9.91882H117.297V14.528Z" fill="#00458B"/>
<path d="M113.925 13.2894V12.6498H116.146V11.33H113.925V9.74622H112.073V11.33H109.852V12.6498H112.073V13.2894C112.073 16.0102 111.103 17.5838 109.481 19.0559L110.542 19.9493C111.473 19.2691 112.634 18.0711 113.004 16.8021C113.364 18.0406 114.535 19.2691 115.466 19.9493L116.527 19.0559C114.905 17.5939 113.935 16.0203 113.935 13.2894H113.925Z" fill="#00458B"/>
<path d="M151.943 13.5635C151.943 15.1574 153.354 16.1726 155.446 16.1726C157.537 16.1726 158.948 15.1574 158.948 13.5635C158.948 12.9949 158.768 12.5076 158.448 12.1117H160.379V10.7919H156.366V9.57361H154.485V10.7919H150.472V12.1117H152.433C152.113 12.5076 151.933 13.0051 151.933 13.5635H151.943ZM155.446 12.2843C156.366 12.2843 157.027 12.7817 157.027 13.5635C157.027 14.3452 156.376 14.8426 155.446 14.8426C154.515 14.8426 153.874 14.3452 153.874 13.5635C153.874 12.7817 154.525 12.2843 155.446 12.2843Z" fill="#00458B"/>
<path d="M161.71 16.6599H149.151V17.9797H161.71V16.6599Z" fill="#00458B"/>
<path d="M155.446 18.4974C153.094 18.4974 151.563 19.5634 151.563 21.2487C151.563 22.934 153.094 24 155.446 24C157.797 24 159.329 22.934 159.329 21.2487C159.329 19.5634 157.807 18.4974 155.446 18.4974ZM155.446 22.6802C154.285 22.6802 153.534 22.1218 153.534 21.2487C153.534 20.3756 154.285 19.8172 155.446 19.8172C156.607 19.8172 157.357 20.3756 157.357 21.2487C157.357 22.1218 156.607 22.6802 155.446 22.6802Z" fill="#00458B"/>
<path d="M129.356 15.4213C131.628 15.4213 133.099 14.2335 133.099 12.3655C133.099 10.4975 131.628 9.31982 129.356 9.31982C127.085 9.31982 125.614 10.5076 125.614 12.3655C125.614 14.2234 127.085 15.4213 129.356 15.4213ZM129.356 10.6802C130.457 10.6802 131.168 11.3401 131.168 12.3655C131.168 13.3909 130.457 14.0609 129.356 14.0609C128.255 14.0609 127.545 13.401 127.545 12.3655C127.545 11.33 128.255 10.6802 129.356 10.6802Z" fill="#00458B"/>
<path d="M123.082 17.4213H126.274V18.863H124.653V20.1828H131.738C131.848 20.1828 131.928 20.264 131.928 20.3757V23.7158H133.81V19.7868C133.81 19.2894 133.399 18.8731 132.909 18.8731H132.469V17.4315H135.661V16.1117H123.102V17.4315L123.082 17.4213ZM128.145 17.4213H130.577V18.863H128.145V17.4213Z" fill="#00458B"/>
<path d="M147.62 9.91882H145.729V19.3097H147.62V9.91882Z" fill="#00458B"/>
<path d="M140.544 15.1269C141.635 17.1371 143.877 17.8985 143.877 17.8985L144.587 16.6904C141.685 15.5736 141.515 12.3452 141.505 11.797H144.027V10.4772H137.072V11.797H139.594C139.594 12.3452 139.414 15.5736 136.511 16.6904L137.222 17.8985C137.222 17.8985 139.464 17.1371 140.554 15.1269H140.544Z" fill="#00458B"/>
<path d="M141.265 21.8579V18.7208H139.374V22.4569C139.374 22.9645 139.774 23.3706 140.274 23.3706H147.86V22.0508H141.455C141.355 22.0508 141.265 21.9594 141.265 21.8579Z" fill="#00458B"/>
<path d="M168.405 17.9696C166.054 17.9696 164.532 19.1473 164.532 20.9848C164.532 22.8224 166.054 24.0102 168.405 24.0102C170.757 24.0102 172.278 22.8325 172.278 20.9848C172.278 19.1371 170.757 17.9696 168.405 17.9696ZM168.405 22.6904C167.214 22.6904 166.434 22.0204 166.434 20.9848C166.434 19.9493 167.214 19.2792 168.405 19.2792C169.596 19.2792 170.387 19.9493 170.387 20.9848C170.387 22.0204 169.606 22.6904 168.405 22.6904Z" fill="#00458B"/>
<path d="M172.879 12.1523V11.2691C172.879 10.7614 172.478 10.3553 171.978 10.3553H164.002V11.6751H170.807C170.907 11.6751 170.997 11.7564 170.997 11.868V12.4467C170.997 14.4467 170.427 15.9391 170.427 15.9391H168.215V13.401H166.334V15.9391H162.151V17.2589H174.72V15.9391H172.268C172.268 15.9391 172.909 14.4061 172.909 12.1625L172.879 12.1523Z" fill="#00458B"/>
<path d="M185.848 13.1878V9.92896H183.957V14.7817C182.776 15.6548 180.574 15.929 178.383 15.929H177.912C177.812 15.929 177.722 15.8376 177.722 15.7361V11.9696C177.722 11.8579 177.802 11.7767 177.912 11.7767H181.825V10.4569H176.741C176.241 10.4569 175.841 10.863 175.841 11.3706V16.335C175.841 16.8427 176.251 17.2488 176.741 17.2488H177.742C179.063 17.2488 182.376 17.2995 183.967 16.2437V19.3097H185.858V14.5076H188.01V13.1878H185.858H185.848Z" fill="#00458B"/>
<path d="M179.594 21.8579V18.599H177.722V22.4467C177.722 22.9543 178.122 23.3604 178.623 23.3604H186.178V22.0406H179.774C179.674 22.0406 179.584 21.9493 179.584 21.8477L179.594 21.8579Z" fill="#00458B"/>
<path d="M107.74 9.91882H105.859V19.2995H107.74V9.91882Z" fill="#00458B"/>
<path d="M93.6897 11.4722V10.8732C93.6897 10.3656 93.2894 9.95947 92.789 9.95947H84.783V11.2793H91.6181C91.7182 11.2793 91.8083 11.3605 91.8083 11.4722V11.9392C91.8083 13.6448 91.3179 14.9747 91.3179 14.9747H82.9717V16.2945H88.3056V18.4366H84.8531V19.7564H91.5981C91.6982 19.7564 91.7882 19.8376 91.7882 19.9493V23.6752H93.6696V19.3503C93.6696 18.8427 93.2693 18.4366 92.769 18.4366H90.1871V16.2945H95.531V14.9747H93.1392C93.1392 14.9747 93.6897 13.4722 93.6897 11.4823V11.4722Z" fill="#00458B"/>
<path d="M101.175 21.8579V18.6091H99.2839V22.4568C99.2839 22.9645 99.6842 23.3706 100.185 23.3706H107.96V22.0508H101.355C101.255 22.0508 101.165 21.9695 101.165 21.8579H101.175Z" fill="#00458B"/>
<path d="M103.667 16.0305V11.0254C103.667 10.5178 103.257 10.1117 102.766 10.1117H97.8028C97.3024 10.1117 96.9021 10.5178 96.9021 11.0254V16.0305C96.9021 16.5381 97.3024 16.9442 97.8028 16.9442H102.766C103.267 16.9442 103.667 16.5279 103.667 16.0305ZM101.776 15.4416C101.776 15.5432 101.696 15.6345 101.586 15.6345H98.9536C98.8535 15.6345 98.7635 15.5533 98.7635 15.4416V11.6244C98.7635 11.5229 98.8435 11.4315 98.9536 11.4315H101.586C101.686 11.4315 101.776 11.5127 101.776 11.6244V15.4416Z" fill="#00458B"/>
</g>
<defs>
<clipPath id="clip0_1_4998">
<rect width="188" height="24" fill="white"/>
</clipPath>
</defs>
</svg>
