<svg width="289" height="24" viewBox="0 0 289 24" fill="none" xmlns="http://www.w3.org/2000/svg">
<path d="M47.0668 1.58606H36.6396C31.7637 1.58606 29.551 4.73871 28.944 6.9906L24.8123 22.4112H26.418C28.6503 22.4112 30.2755 21.7356 30.6476 20.4726C31.5092 17.2612 33.2226 10.8776 34.0842 7.65638C34.4269 6.40315 35.6899 5.73737 36.5613 5.73737C39.3712 5.73737 44.2079 5.73737 44.2079 5.73737C45.5297 5.73737 47.1647 5.95277 46.4304 8.40048C46.0192 9.84952 44.717 10.5838 42.5239 10.5838H39.0971C36.8452 10.5838 35.2003 11.279 34.8479 12.5714L34.2604 14.7449H41.6917C46.2738 14.7449 50.3076 13.7756 51.7958 8.24382C53.049 3.56381 50.8363 1.58606 47.0766 1.58606H47.0668Z" fill="#00458B"/>
<path d="M67.1156 1H66.0484C60.0368 1 54.084 4.98487 52.537 10.7908L51.8908 13.2092C50.3341 19.0151 54.1427 23 60.1543 23H61.2215C68.2611 23 73.1859 19.0151 74.7426 13.2092L75.3888 10.7908C76.9456 4.98487 73.1369 1 67.1156 1ZM69.7591 11.6524L69.5241 12.5042C68.3982 16.6849 65.0595 18.9466 62.3181 18.9466H61.2803C58.5388 18.9466 56.4044 16.6849 57.5304 12.5042L57.7556 11.6524C58.8717 7.47174 62.2202 5.21006 64.9616 5.21006H65.9994C68.7409 5.21006 70.8753 7.47174 69.7591 11.6524Z" fill="#00458B"/>
<path d="M19.5145 9.73244H12.279C10.3209 9.73244 9.40054 9.3506 9.89987 7.66657C10.3111 6.21753 11.5447 5.75736 13.7379 5.75736H22.8727C25.1246 5.75736 26.7695 5.06221 27.1219 3.76982L27.7094 1.59626H14.5701C9.99778 1.58647 5.93458 2.64388 4.54428 7.82323C3.57499 11.4165 5.33734 13.9033 9.42012 13.8838H16.6458C18.6627 13.8838 19.5047 14.3145 18.9956 16.0671C18.5843 17.5162 17.2822 18.2505 15.0792 18.2505H5.83667C3.58478 18.2505 1.93992 18.9456 1.58745 20.238L1 22.4214H14.247C19.2012 22.4214 22.9217 21.2465 24.3511 15.9202C25.4771 11.72 23.0881 9.73244 19.5145 9.73244Z" fill="#00458B"/>
<path d="M90.8106 6.76997C90.7813 9.59952 91.0064 12.9186 91.2512 14.9845C91.3491 15.944 92.0149 15.6698 92.338 14.9257C93.836 11.3815 95.4221 6.1042 96.3229 3.1082C96.6264 2.08996 97.9286 1.37522 99.2014 1.54167C100.298 1.67874 101.179 2.42284 100.836 3.62712C99.2503 9.01207 95.2263 18.705 93.601 20.6632C92.9744 21.4366 91.731 22.4745 90.0274 22.4745C88.3238 22.4745 87.658 21.3779 87.5209 20.575C87.3055 19.4197 87.1195 17.0308 86.9922 14.5341C85.6117 17.0308 84.2704 19.2631 83.4381 20.5555C82.9094 21.3485 81.6758 22.4745 80.0309 22.4745C78.4938 22.4745 77.4559 21.5639 77.2993 20.6044C76.8195 18.519 77.3384 8.43442 78.0532 3.68586C78.2294 2.39347 79.6197 1.64937 80.7457 1.54167C81.9793 1.43397 83.0171 1.92351 82.8605 3.2159C82.5961 5.40905 81.6856 11.5087 81.4604 15.3565C81.4212 16.1006 81.9401 16.0713 82.3416 15.3565C84.0843 12.1451 86.6104 6.3196 87.4426 3.79356C87.8734 2.4718 89.0777 2.03121 90.1546 2.03121C91.5449 2.08996 92.0051 3.09841 91.7897 3.97959C91.5645 4.80202 91.212 5.76152 90.8106 6.75039V6.76997Z" fill="#F29600"/>
<path d="M113.693 18.8037C113.732 20.0961 112.665 21.1144 111.685 21.5256C109.815 22.3186 107.143 22.4851 105.351 22.4851C103.461 22.4851 101.317 22.1326 100.269 21.6039C99.5644 21.2416 98.6441 20.5073 98.7126 19.1856C98.8301 16.9043 101.777 5.41965 102.531 3.5496C102.981 2.39428 104.313 1.54248 105.077 1.54248H115.563C116.473 1.54248 117.227 2.36491 116.875 3.82374C116.591 5.00844 115.621 6.13438 114.388 6.13438H107.025C106.447 6.13438 106.291 6.65329 106.261 6.79037C105.517 9.25766 104.225 14.0943 103.745 16.6204C103.628 17.198 103.853 17.5309 104.352 17.6092C104.979 17.7463 105.762 17.8051 106.614 17.8051C108.18 17.8051 109.835 17.668 111.362 17.2568C112.567 16.9239 113.644 17.4722 113.673 18.7939L113.693 18.8037ZM107.045 13.9768C106.222 13.9768 105.615 12.988 105.928 11.6956C106.212 10.5109 107.348 9.36535 108.2 9.36535H113.526C114.27 9.36535 115.024 10.2172 114.672 11.6466C114.388 12.8313 113.389 13.9768 112.371 13.9768H107.045Z" fill="#F29600"/>
<path d="M120.879 16.6881C120.762 17.1874 120.948 17.5399 121.388 17.6182C122.015 17.7553 122.828 17.814 123.699 17.814C125.295 17.814 126.656 17.6182 127.762 17.2364C128.937 16.8252 130.327 17.2951 130.249 18.8616C130.249 20.017 129.525 21.0352 128.565 21.4954C126.764 22.3472 124.257 22.4843 122.475 22.4843C120.556 22.4843 118.647 22.1807 117.364 21.6031C116.65 21.2702 115.739 20.5065 115.817 19.1847C115.935 16.9035 119.029 5.03699 119.802 3.0005C120.233 1.9333 121.692 1.35564 122.867 1.57104C124.267 1.78643 124.561 2.83405 124.335 3.51941C123.817 5.08595 121.535 13.3005 120.87 16.6783L120.879 16.6881Z" fill="#F29600"/>
<path d="M136.699 16.1617C136.581 16.661 136.767 17.0135 137.208 17.0918C137.835 17.2289 138.647 17.2877 139.519 17.2877C141.115 17.2877 142.475 17.0918 143.582 16.71C144.757 16.2988 146.147 16.7687 146.069 18.3353C146.069 19.4906 145.344 20.5088 144.385 20.969C142.583 21.8208 140.077 21.9579 138.295 21.9579C136.376 21.9579 134.467 21.6544 133.184 21.0767C132.469 20.7438 131.559 19.9801 131.627 18.6584C131.745 16.3771 134.839 4.51062 135.612 2.47413C136.043 1.40693 137.502 0.829271 138.677 1.04467C140.077 1.26007 140.37 2.30769 140.145 2.99304C139.626 4.55958 137.345 12.7741 136.679 16.1519L136.699 16.1617Z" fill="#F29600"/>
<path d="M285.517 2V17.4576H282.943V15.6723H278.874V13.9096H282.943V2H285.517ZM286 19.9661V22H270.759V15.9661H273.31V19.9661H286ZM268 11.1751C271.839 11.1525 276.989 11.1073 281.402 10.565L281.54 12.3729C279.828 12.6554 278.057 12.8475 276.299 12.9605V16.8927H273.747V13.096C271.805 13.1751 269.954 13.1864 268.322 13.1864L268 11.1751ZM274.782 2.74576C277.816 2.74576 279.931 4.21469 279.954 6.36158C279.931 8.55367 277.816 9.9548 274.782 9.9548C271.701 9.9548 269.586 8.55367 269.586 6.36158C269.586 4.21469 271.701 2.74576 274.782 2.74576ZM274.782 4.59887C273.126 4.59887 272 5.25424 272 6.36158C272 7.46893 273.126 8.12429 274.782 8.12429C276.368 8.12429 277.494 7.46893 277.517 6.36158C277.494 5.25424 276.368 4.59887 274.782 4.59887Z" fill="#252F3E"/>
<path d="M256.758 7.68584C256.758 10.9602 258.714 14.4115 261.997 15.7611L260.626 17.708C258.22 16.6903 256.466 14.5885 255.544 12.0442C254.599 14.7876 252.823 17.0885 250.439 18.1947L249 16.2699C252.216 14.8097 254.217 11.0929 254.217 7.68584V6.00442H249.742V3.96903H261.21V6.00442H256.758V7.68584ZM266 2V22H263.481V2H266Z" fill="#252F3E"/>
<path d="M237.214 7.68584C237.214 10.9602 239.286 14.4115 242.762 15.7611L241.31 17.708C238.762 16.6903 236.905 14.5885 235.929 12.0442C234.929 14.7876 233.048 17.0885 230.524 18.1947L229 16.2699C232.405 14.8097 234.524 11.0929 234.524 7.68584V6.00442H229.786V3.96903H241.929V6.00442H237.214V7.68584ZM247 2V22H244.333V2H247Z" fill="#252F3E"/>
<path d="M229 11.8186V13.8367H210V11.8186H218.186V9.84581H212.467V2H215.004V4.04082H223.996V2H226.533V9.84581H220.768V11.8186H229ZM226.671 15.4694V22H224.112V17.4649H212.098V15.4694H226.671ZM215.004 7.82766H223.996V5.9229H215.004V7.82766Z" fill="#252F3E"/>
<path d="M207.442 2V16.7571H204.944V2H207.442ZM208 19.9661V22H194.101V15.2655H196.6V19.9661H208ZM196.444 3.33333C199.5 3.33333 201.865 5.48023 201.865 8.44068C201.865 11.4689 199.5 13.5706 196.444 13.5706C193.365 13.5706 191 11.4689 191 8.44068C191 5.48023 193.365 3.33333 196.444 3.33333ZM196.444 5.52542C194.726 5.52542 193.409 6.67797 193.432 8.44068C193.409 10.2486 194.726 11.3785 196.444 11.3785C198.117 11.3785 199.433 10.2486 199.433 8.44068C199.433 6.67797 198.117 5.52542 196.444 5.52542Z" fill="#252F3E"/>
<path d="M189 11.2203V13.2316H184.5V15.3559H186.794V22H184.369V17.322H172.988V15.3559H175.434V13.2316H171V11.2203H189ZM179.978 2C184.303 2 187.078 3.51412 187.1 5.9774C187.078 8.46328 184.303 9.9774 179.978 9.9774C175.653 9.9774 172.857 8.46328 172.857 5.9774C172.857 3.51412 175.653 2 179.978 2ZM179.978 3.9661C177.095 3.9661 175.369 4.68927 175.391 5.9774C175.369 7.31073 177.095 8.0339 179.978 8.0339C182.862 8.0339 184.587 7.31073 184.587 5.9774C184.587 4.68927 182.862 3.9661 179.978 3.9661ZM177.859 15.3559H182.097V13.2316H177.859V15.3559Z" fill="#252F3E"/>
<path d="M157.591 8.10619C157.591 11.2035 158.909 14.323 161.773 15.8274L160.364 17.6416C158.455 16.6571 157.159 14.8982 156.432 12.7965C155.705 15.0642 154.409 17 152.477 18.1062L151 16.2478C153.909 14.6106 155.205 11.2699 155.205 8.10619V7.48673H151.705V5.49558H155.205V2.70796H157.591V5.49558H161.023V7.48673H157.591V8.10619ZM169 2V22H166.591V2H169ZM164.818 2.37611V21.0265H162.432V11.7124H159.75V9.67699H162.432V2.37611H164.818Z" fill="#252F3E"/>
</svg>
