<svg width="40" height="40" viewBox="0 0 40 40" fill="none" xmlns="http://www.w3.org/2000/svg">
<g clip-path="url(#clip0_1873_8615)">
<path d="M19.9997 17.1802C16.4005 17.1802 13.4824 14.2309 13.4824 10.5932V9.89361C13.4824 6.25596 16.4005 3.30664 19.9997 3.30664C23.5988 3.30664 26.5169 6.25596 26.5169 9.89361V10.5932C26.5169 14.2309 23.5988 17.1802 19.9997 17.1802Z" fill="white" stroke="black" stroke-width="2" stroke-linecap="round" stroke-linejoin="round"/>
<path d="M19.9912 17.1797H20.0128C27.0214 17.1797 32.7111 22.9302 32.7111 30.0138V31.5212C32.7111 34.379 30.418 36.6966 27.5904 36.6966H12.4137C9.58607 36.6966 7.29297 34.379 7.29297 31.5212V30.0138C7.29297 22.9302 12.9826 17.1797 19.9912 17.1797Z" fill="white" stroke="black" stroke-width="2" stroke-linecap="round" stroke-linejoin="round"/>
<path d="M27.4162 25.4901C27.4162 25.3059 27.3654 25.1253 27.2693 24.9682L26.4532 23.6342L28.541 22.2914C28.7935 22.129 28.9597 21.8617 28.9936 21.5634C29.0275 21.265 28.9256 20.9673 28.716 20.7523C27.5887 19.5959 26.2187 18.6763 24.681 18.0698C24.1787 17.8716 23.6098 18.1081 23.3959 18.6039L19.0818 28.6039C18.9127 28.9957 19.011 29.4517 19.3265 29.7392C19.6419 30.0266 20.1051 30.0822 20.4796 29.8775L26.8958 26.3711C27.2167 26.1957 27.4162 25.8592 27.4162 25.4936V25.4901Z" fill="#FFAC11" stroke="black" stroke-width="2" stroke-linecap="round" stroke-linejoin="round"/>
<path d="M12.5838 25.4901C12.5838 25.3059 12.6346 25.1253 12.7307 24.9682L13.5468 23.6342L11.459 22.2914C11.2065 22.129 11.0403 21.8617 11.0064 21.5634C10.9725 21.265 11.0744 20.9673 11.284 20.7523C12.4113 19.5959 13.7813 18.6763 15.319 18.0698C15.8213 17.8716 16.3902 18.1081 16.6041 18.6039L20.9182 28.6039C21.0873 28.9957 20.989 29.4517 20.6735 29.7392C20.3581 30.0266 19.8949 30.0822 19.5204 29.8775L13.1042 26.3711C12.7833 26.1957 12.5838 25.8592 12.5838 25.4936V25.4901Z" fill="#FFAC11" stroke="black" stroke-width="2" stroke-linecap="round" stroke-linejoin="round"/>
</g>
<defs>
<clipPath id="clip0_1873_8615">
<rect width="28" height="36" fill="white" transform="translate(6 2)"/>
</clipPath>
</defs>
</svg>
