<svg width="40" height="40" viewBox="0 0 40 40" fill="none" xmlns="http://www.w3.org/2000/svg">
<path d="M35 32.9676V9.0344C35 6.8068 33.0504 5.00098 30.6455 5.00098L9.35454 5.00098C6.94959 5.00098 5 6.8068 5 9.0344V32.9676C5 35.1952 6.94959 37.001 9.35454 37.001H30.6455C33.0504 37.001 35 35.1952 35 32.9676Z" fill="white" stroke="black" stroke-width="2" stroke-linecap="round" stroke-linejoin="round"/>
<path d="M22 22.8506L18 22.8506" stroke="black" stroke-width="1.6" stroke-linecap="round" stroke-linejoin="round"/>
<path d="M24 27L20.0385 17L16 27" stroke="black" stroke-width="1.6" stroke-linecap="round" stroke-linejoin="round"/>
<path d="M25.3353 2.99902H14.6647C13.7453 2.99902 13 3.71632 13 4.60116V7.39689C13 8.28172 13.7453 8.99902 14.6647 8.99902H25.3353C26.2547 8.99902 27 8.28172 27 7.39689V4.60116C27 3.71632 26.2547 2.99902 25.3353 2.99902Z" fill="#FFAC11" stroke="black" stroke-width="2" stroke-linecap="round" stroke-linejoin="round"/>
</svg>
