<svg width="40" height="40" viewBox="0 0 40 40" fill="none" xmlns="http://www.w3.org/2000/svg">
<path d="M7.17931 30.7419C9.95212 30.7419 12.1999 28.4301 12.1999 25.5784C12.1999 22.7268 9.95212 20.415 7.17931 20.415C4.4065 20.415 2.15869 22.7268 2.15869 25.5784C2.15869 28.4301 4.4065 30.7419 7.17931 30.7419Z" fill="#FFAC11" stroke="black" stroke-width="2" stroke-linecap="round" stroke-linejoin="round"/>
<path d="M3.29736 22.273L11.1359 11.4589C11.1359 11.4589 11.5708 10.8517 11.7228 10.6481C12.2143 9.99354 13.8371 8.70633 15.6155 9.52447C17.1571 10.2372 17.3763 12.1062 17.3763 12.1062" stroke="black" stroke-width="2" stroke-linecap="round" stroke-linejoin="round"/>
<path d="M24.2565 30.7419C27.0293 30.7419 29.2771 28.4301 29.2771 25.5784C29.2771 22.7268 27.0293 20.415 24.2565 20.415C21.4836 20.415 19.2358 22.7268 19.2358 25.5784C19.2358 28.4301 21.4836 30.7419 24.2565 30.7419Z" fill="#FFAC11" stroke="black" stroke-width="2" stroke-linecap="round" stroke-linejoin="round"/>
<path d="M29.1889 26.7832L32.2281 13.32C32.2281 13.32 32.4117 12.5877 32.4762 12.3409C32.6934 11.5436 33.7295 9.71852 35.6732 9.78874C37.3606 9.84958 38.2438 11.4952 38.2438 11.4952" stroke="black" stroke-width="2" stroke-linecap="round" stroke-linejoin="round"/>
<path d="M12.4326 26.2178H18.9191" stroke="black" stroke-width="2" stroke-linecap="round" stroke-linejoin="round"/>
</svg>
