<svg width="50" height="50" viewBox="0 0 50 50" fill="none" xmlns="http://www.w3.org/2000/svg">
<path d="M25 21C28.861 21 32 17.861 32 14C32 10.139 28.8714 7 25 7C21.1285 7 18 10.1286 18 14C18 17.8715 21.1285 21 25 21Z" fill="white" stroke="#252F3E" stroke-width="2.4" stroke-linecap="round" stroke-linejoin="round"/>
<path d="M37.1901 22H12.8099C10.1512 22 8 24.0745 8 26.6383V44H16.34H33.66H42V26.6383C42 24.0745 39.8488 22 37.1901 22Z" fill="white"/>
<path d="M16.34 44H8V26.6383C8 24.0745 10.1512 22 12.8099 22H37.1901C39.8488 22 42 24.0745 42 26.6383V44H33.66M16.34 44V34.0638M16.34 44H33.66M33.66 44V34.0638" stroke="#252F3E" stroke-width="2.4" stroke-linecap="round" stroke-linejoin="round"/>
<path d="M21.5278 29.2098L25.0145 27.4521V37.9122" stroke="url(#paint0_linear_1497_26872)" stroke-width="2.4" stroke-linecap="round" stroke-linejoin="round"/>
<defs>
<linearGradient id="paint0_linear_1497_26872" x1="24.724" y1="37.9122" x2="18.6665" y2="35.1359" gradientUnits="userSpaceOnUse">
<stop stop-color="#FF8000"/>
<stop offset="1" stop-color="#FFB348"/>
</linearGradient>
</defs>
</svg>
