<svg width="81" height="80" viewBox="0 0 81 80" fill="none" xmlns="http://www.w3.org/2000/svg">
<path d="M42.6629 31.1357L40.3369 35.2615L46.7827 46.706L55.5544 31.1357H42.6629Z" fill="#85B6FF"/>
<path d="M31.8641 20.2292H48.8036L42.6628 31.1356H55.5543L61.6951 20.2292L55.1298 9H25.538L18.9727 20.2292L25.1194 31.1356H38.0109L31.8641 20.2292Z" fill="white"/>
<path d="M25.1211 31.1357L33.8928 46.706L40.3385 35.2615L38.0126 31.1357H25.1211Z" fill="#85B6FF"/>
<path d="M25.5371 9L31.8633 20.2292H48.8028L45.0836 26.8304L55.1289 9H25.5371Z" fill="#85B6FF"/>
<path d="M55.1288 9H25.537L18.9717 20.2292L33.8902 46.7058L40.3359 35.2613L31.8632 20.2292H48.8027L40.3359 35.2613L46.7816 46.7058L61.6941 20.2292L55.1288 9Z" stroke="#21409A" stroke-width="2"/>
<path d="M40.3351 36.0029C38.0091 36.0029 35.7908 36.4633 33.7578 37.2885C40.1617 39.8895 44.6761 46.1678 44.6761 53.5045C44.6761 60.8411 40.1617 67.1195 33.7578 69.7145C35.7908 70.5397 38.0091 71.0001 40.3351 71.0001C49.9977 71.0001 57.8307 63.1671 57.8307 53.5045C57.8307 43.8419 49.9977 36.0089 40.3351 36.0089V36.0029Z" fill="#FFAC11"/>
<path d="M44.6764 53.4992C44.6764 46.1625 40.162 39.8842 33.7581 37.2832C27.3543 39.8842 22.8398 46.1625 22.8398 53.4992C22.8398 60.8359 27.3543 67.1142 33.7581 69.7092C40.162 67.1082 44.6764 60.8299 44.6764 53.4992Z" fill="white"/>
<path d="M57.832 53.4985C57.832 63.1611 49.999 70.9941 40.3364 70.9941C30.6738 70.9941 22.8408 63.1611 22.8408 53.4985C22.8408 43.8359 30.6738 36.0029 40.3364 36.0029C49.999 36.0029 57.832 43.8359 57.832 53.4985Z" stroke="#21409A" stroke-width="2"/>
<path d="M47.9471 53.4984C47.9471 57.7019 44.5388 61.1101 40.3353 61.1101C36.1319 61.1101 32.7236 57.7019 32.7236 53.4984C32.7236 49.2949 36.1319 45.8867 40.3353 45.8867C44.5388 45.8867 47.9471 49.2949 47.9471 53.4984Z" stroke="#21409A" stroke-width="2"/>
<path d="M40.336 35.2613L25.5371 9" stroke="#21409A" stroke-width="2"/>
<path d="M55.1298 9L40.3369 35.2613" stroke="#21409A" stroke-width="2"/>
<path d="M16.7296 62.0314C17.9679 62.0314 18.9718 61.0275 18.9718 59.7891C18.9718 58.5508 17.9679 57.5469 16.7296 57.5469C15.4912 57.5469 14.4873 58.5508 14.4873 59.7891C14.4873 61.0275 15.4912 62.0314 16.7296 62.0314Z" stroke="#85B6FF" stroke-width="2"/>
<path d="M66.012 39.3096H63.3691" stroke="#21409A" stroke-width="2"/>
<path d="M61.2767 39.3096H58.6338" stroke="#21409A" stroke-width="2"/>
<path d="M62.3223 35.6201V38.263" stroke="#21409A" stroke-width="2"/>
<path d="M62.3223 40.3555V42.9924" stroke="#21409A" stroke-width="2"/>
</svg>
