<svg width="44" height="62" viewBox="0 0 44 62" fill="none" xmlns="http://www.w3.org/2000/svg">
<g id="Group">
<path id="Vector" d="M17.9141 59.778H41.9999V41.0781C41.9999 40.2202 41.8568 39.394 41.6502 38.5996L17.9141 59.778Z" stroke="white" stroke-width="3" stroke-linecap="round" stroke-linejoin="round"/>
<path id="Vector_2" d="M11.6979 31.3867C6.34023 31.3867 2 35.7241 2 41.0783V57.2679L31.0143 31.3867H11.6979Z" stroke="white" stroke-width="3" stroke-linecap="round" stroke-linejoin="round"/>
<path id="Vector_3" d="M35.6407 31.9905C34.6073 31.6091 33.4786 31.3867 32.3021 31.3867H31.0143L2 57.2838V59.7782H17.9142L41.6503 38.5998C40.8395 35.5334 38.5819 33.0708 35.6248 31.9905H35.6407Z" stroke="#FFAC11" stroke-width="3" stroke-linecap="round" stroke-linejoin="round"/>
<path id="Vector_4" d="M33.2085 13.4235C33.2085 19.6198 28.1847 24.6244 22.0003 24.6244C15.8158 24.6244 10.792 19.6039 10.792 13.4235C10.792 7.2432 15.8158 2.22266 22.0003 2.22266C28.1847 2.22266 33.2085 7.2432 33.2085 13.4235Z" stroke="white" stroke-width="3" stroke-linecap="round" stroke-linejoin="round"/>
</g>
</svg>
