<svg width="17" height="16" viewBox="0 0 17 16" fill="none" xmlns="http://www.w3.org/2000/svg">
<g id="Component 26">
<g id="Group">
<path id="Vector" d="M3.66313 3.30647V3.3825C3.66313 3.11549 3.7219 2.8642 3.82683 2.63254C3.93177 2.40087 4.08287 2.1967 4.26756 2.02C4.45225 1.84724 4.67471 1.70589 4.92236 1.60772C5.17001 1.50956 5.43864 1.45459 5.72407 1.45459H12.5113C12.7967 1.45459 13.0654 1.50956 13.313 1.60772C13.5606 1.70589 13.7789 1.84331 13.9678 2.02C14.1525 2.1967 14.3036 2.40087 14.4085 2.63254C14.5135 2.8642 14.568 3.11549 14.568 3.3825V12.6176C14.568 12.8807 14.5093 13.1359 14.4085 13.3676C14.3036 13.5992 14.1525 13.8034 13.9678 13.9801C13.7831 14.1528 13.5606 14.2942 13.313 14.3924C13.0654 14.4905 12.7967 14.5455 12.5113 14.5455H5.71987C5.43444 14.5455 5.16581 14.4905 4.91816 14.3924C4.67051 14.2942 4.45225 14.1528 4.26336 13.9801C4.07868 13.8034 3.92757 13.5992 3.82263 13.3676C3.7177 13.1398 3.65894 12.8846 3.65894 12.6176V12.6936" stroke="white" stroke-width="1.2" stroke-linecap="round" stroke-linejoin="round"/>
<g id="Group 683">
<path id="Vector_2" d="M5.56836 10.1818L3.38654 7.99993L5.56836 5.81812" stroke="white" stroke-width="1.2" stroke-linecap="round" stroke-linejoin="round"/>
<path id="Vector_3" d="M4.11368 8H9.20459" stroke="white" stroke-width="1.2" stroke-linecap="round" stroke-linejoin="round"/>
</g>
</g>
</g>
</svg>
