<svg width="28" height="28" viewBox="0 0 28 28" fill="none" xmlns="http://www.w3.org/2000/svg">
<g id="Group 660">
<path id="Vector" d="M22.5429 19.519L25.7178 16.3474L12.2708 12.2668L16.3513 25.7139L19.5229 22.539L24.9801 27.9995L28.0034 24.9762L22.5429 19.519Z" fill="#FFAC11"/>
<path id="Vector_2" d="M12.3963 20.6862C7.82175 20.6862 4.11007 16.9778 4.11007 12.4C4.11007 7.82212 7.81846 4.11373 12.3963 4.11373C16.9742 4.11373 20.6826 7.82212 20.6826 12.4C20.6826 12.7326 20.6562 13.0587 20.62 13.3814L24.5984 14.5901C24.7236 13.8787 24.7961 13.1476 24.7961 12.4C24.7961 5.55296 19.2433 0.000244141 12.3963 0.000244141C5.54929 0.000244141 -0.00341797 5.55296 -0.00341797 12.4C-0.00341797 19.247 5.54929 24.7997 12.3963 24.7997C13.1439 24.7997 13.8751 24.7306 14.5864 24.6021L13.3778 20.6237C13.055 20.6632 12.729 20.6862 12.3963 20.6862Z" fill="#252F3E"/>
<path id="Vector_3" d="M12.6665 10.9665L16.3584 12.0862C16.2003 10.0344 14.4877 8.41406 12.3931 8.41406C10.1931 8.41406 8.41138 10.1958 8.41138 12.3958C8.41138 14.5958 10.0284 16.203 12.0835 16.3611L10.9638 12.6692C10.8189 12.1883 10.9473 11.6647 11.3063 11.3057C11.662 10.95 12.1856 10.8183 12.6698 10.9632L12.6665 10.9665Z" fill="#252F3E"/>
</g>
</svg>
