<svg width="22" height="22" viewBox="0 0 22 22" fill="none" xmlns="http://www.w3.org/2000/svg">
<g id="icon24-more">
<path id="Vector" d="M5.07692 12C4.77179 12 4.51621 11.9043 4.31015 11.713C4.10338 11.521 4 11.2833 4 11C4 10.7167 4.10338 10.479 4.31015 10.287C4.51621 10.0957 4.77179 10 5.07692 10H16.9231C17.2282 10 17.4838 10.0957 17.6898 10.287C17.8966 10.479 18 10.7167 18 11C18 11.2833 17.8966 11.521 17.6898 11.713C17.4838 11.9043 17.2282 12 16.9231 12H5.07692Z" fill="#252F3E"/>
<path id="Vector_2" d="M10 5.07692C10 4.77179 10.0957 4.51621 10.287 4.31015C10.479 4.10338 10.7167 4 11 4C11.2833 4 11.521 4.10338 11.713 4.31015C11.9043 4.51621 12 4.77179 12 5.07692L12 16.9231C12 17.2282 11.9043 17.4838 11.713 17.6898C11.521 17.8966 11.2833 18 11 18C10.7167 18 10.479 17.8966 10.287 17.6898C10.0957 17.4838 10 17.2282 10 16.9231L10 5.07692Z" fill="#252F3E"/>
</g>
</svg>
