<svg width="25" height="24" viewBox="0 0 25 24" fill="none" xmlns="http://www.w3.org/2000/svg">
<g id="icon_quickmenu">
<g id="Group 628">
<path id="Vector" d="M23.2786 5.06612C23.2786 5.06612 23.2786 5.06243 23.2749 5.05874L23.227 5.01078L18.8845 0.672021C18.8513 0.638817 18.8181 0.612991 18.7812 0.587165C18.7702 0.579786 18.7591 0.572407 18.7517 0.568718C18.7222 0.550271 18.6927 0.535513 18.6632 0.520755C18.6521 0.517066 18.641 0.509687 18.63 0.505998C18.5488 0.472793 18.4603 0.454346 18.368 0.454346C18.3643 0.454346 18.3606 0.454346 18.3533 0.454346H7.38831C6.9751 0.454346 6.63567 0.790083 6.63567 1.20699V7.45686C7.02306 7.56385 7.38093 7.77046 7.67609 8.06561L8.14095 8.53048V1.95594H17.6006V5.5937C17.6006 6.01061 17.9364 6.34635 18.3533 6.34635H21.991V17.4515H17.8958V12.4044C17.8958 11.9912 17.56 11.6517 17.1431 11.6517H8.96369L6.52499 9.21302C6.38479 9.07283 6.19294 8.99166 5.99371 8.99166H2.25264C1.83943 8.99166 1.5 9.3274 1.5 9.7443V22.7089C1.5 23.1221 1.83574 23.4616 2.25264 23.4616H17.1468C17.56 23.4616 17.8995 23.1258 17.8995 22.7089V18.9531H22.7437C23.1569 18.9531 23.4963 18.6173 23.4963 18.2004V5.64167C23.4963 5.64167 23.5 5.60846 23.5 5.5937C23.5 5.3871 23.4151 5.20263 23.2786 5.06981V5.06612Z" fill="#252F3E"/>
</g>
</g>
</svg>
