<svg width="22" height="22" viewBox="0 0 22 22" fill="none" xmlns="http://www.w3.org/2000/svg">
<g id="Component">
<path id="Vector" fill-rule="evenodd" clip-rule="evenodd" d="M7.33333 3.66732H14.6667V1.83398H16.5V3.66732H17.4167C17.9029 3.66732 18.3692 3.86047 18.713 4.20429C19.0568 4.54811 19.25 5.01442 19.25 5.50065V18.334C19.25 18.8202 19.0568 19.2865 18.713 19.6303C18.3692 19.9742 17.9029 20.1673 17.4167 20.1673H4.58333C4.0971 20.1673 3.63079 19.9742 3.28697 19.6303C2.94315 19.2865 2.75 18.8202 2.75 18.334V5.50065C2.75 5.01442 2.94315 4.54811 3.28697 4.20429C3.63079 3.86047 4.0971 3.66732 4.58333 3.66732H5.5V1.83398H7.33333V3.66732ZM4.58333 7.33398V18.334H17.4167V7.33398H4.58333ZM6.41667 10.084H8.25V11.9173H6.41667V10.084ZM10.0833 10.084H11.9167V11.9173H10.0833V10.084ZM13.75 10.084H15.5833V11.9173H13.75V10.084ZM13.75 13.7507H15.5833V15.584H13.75V13.7507ZM10.0833 13.7507H11.9167V15.584H10.0833V13.7507ZM6.41667 13.7507H8.25V15.584H6.41667V13.7507Z" fill="black"/>
</g>
</svg>
