<svg width="13" height="16" viewBox="0 0 13 16" fill="none" xmlns="http://www.w3.org/2000/svg">
<g id="Group">
<path id="Vector" d="M0.663377 5.30647V3.3825C0.663377 3.11549 0.722141 2.8642 0.827076 2.63254C0.932012 2.40087 1.08312 2.1967 1.26781 2.02C1.45249 1.84724 1.67496 1.70589 1.9226 1.60772C2.17025 1.50956 2.43889 1.45459 2.72431 1.45459H9.51154C9.79696 1.45459 10.0656 1.50956 10.3132 1.60772C10.5609 1.70589 10.7792 1.84331 10.968 2.02C11.1527 2.1967 11.3038 2.40087 11.4088 2.63254C11.5137 2.8642 11.5683 3.11549 11.5683 3.3825V12.6176C11.5683 12.8807 11.5095 13.1359 11.4088 13.3676C11.3038 13.5992 11.1527 13.8034 10.968 13.9801C10.7834 14.1528 10.5609 14.2942 10.3132 14.3924C10.0656 14.4905 9.79696 14.5455 9.51154 14.5455H2.72011C2.43469 14.5455 2.16605 14.4905 1.91841 14.3924C1.67076 14.2942 1.45249 14.1528 1.26361 13.9801C1.07892 13.8034 0.927814 13.5992 0.822879 13.3676C0.717944 13.1398 0.65918 12.8846 0.65918 12.6176V10.6936" stroke="white" stroke-width="1.2" stroke-linecap="round" stroke-linejoin="round"/>
<path id="Vector_2" d="M5.02271 10.1818L7.20452 7.99993L5.02271 5.81812" stroke="white" stroke-width="1.2" stroke-linecap="round" stroke-linejoin="round"/>
<path id="Vector_3" d="M6.47738 8H1.38647" stroke="white" stroke-width="1.2" stroke-linecap="round" stroke-linejoin="round"/>
</g>
</svg>
