<svg width="26" height="28" viewBox="0 0 26 28" fill="none" xmlns="http://www.w3.org/2000/svg">
<g id="Group 659">
<path id="Vector" d="M24.7168 3.52954H22.5476V2.12183C22.5476 1.41641 21.9531 0.845215 21.219 0.845215C20.4848 0.845215 19.8903 1.41641 19.8903 2.12183V5.58647C19.8903 5.61145 19.8968 5.63642 19.8968 5.66451C19.8546 6.33247 19.2829 6.86309 18.578 6.86309C17.873 6.86309 17.2493 6.29189 17.2493 5.58647V3.52954H15.1443V2.12183C15.1443 1.41641 14.5499 0.845215 13.8157 0.845215C13.0816 0.845215 12.4871 1.41641 12.4871 2.12183V5.58647C12.4871 5.61145 12.4936 5.63642 12.4936 5.66451C12.4514 6.33247 11.8796 6.86309 11.1747 6.86309C10.4698 6.86309 9.84609 6.29189 9.84609 5.58647V3.52954H7.74109V2.12183C7.74109 1.41641 7.14662 0.845215 6.41247 0.845215C5.67831 0.845215 5.08385 1.41641 5.08385 2.12183V5.58647C5.08385 5.61145 5.09034 5.63642 5.09034 5.66451C5.04811 6.33247 4.47638 6.86309 3.77147 6.86309C3.06655 6.86309 2.44285 6.29189 2.44285 5.58647V3.52954H1.28639C0.574978 3.52954 0 4.08201 0 4.76557V25.9186C0 26.6022 0.574978 27.1547 1.28639 27.1547H24.7136C25.425 27.1547 25.9999 26.6022 25.9999 25.9186V4.76557C25.9999 4.08201 25.425 3.52954 24.7136 3.52954H24.7168ZM23.4304 24.6826H2.57603V9.87202H23.4272V24.6826H23.4304Z" fill="#252F3E"/>
<path id="Vector_2" d="M10.9111 20.4614C11.1306 20.6863 11.4211 20.7987 11.7117 20.7987C12.0022 20.7987 12.2896 20.6863 12.5123 20.4614L17.868 14.9754C18.3103 14.5224 18.3103 13.7916 17.868 13.3386C17.4258 12.8855 16.7123 12.8855 16.27 13.3386L11.7149 18.0078L9.72952 15.9741C9.28724 15.5211 8.57379 15.5211 8.13151 15.9741C7.68924 16.4271 7.68924 17.1579 8.13151 17.611L10.9175 20.4648L10.9111 20.4614Z" fill="#2C99F2"/>
</g>
</svg>
