<svg width="25" height="24" viewBox="0 0 25 24" fill="none" xmlns="http://www.w3.org/2000/svg">
<g id="icon_quickmenu">
<g id="Group 626">
<path id="Vector" d="M22.9021 19.5222L19.5226 16.1424C21.9919 12.3427 21.5616 7.19877 18.235 3.8683C14.4111 0.0439001 8.1919 0.0439001 4.36795 3.8683C0.544015 7.6927 0.544015 13.9126 4.36795 17.737C7.69803 21.0675 12.8413 21.4944 16.6405 19.0248L20.02 22.4046C20.8172 23.1985 22.1084 23.1985 22.9021 22.4046C23.6993 21.6073 23.6993 20.316 22.9021 19.5222ZM16.4324 15.9342C13.6033 18.7637 8.99972 18.7637 6.16704 15.9342C3.33789 13.1047 3.33789 8.49709 6.16704 5.6676C8.99619 2.83811 13.5997 2.83811 16.4289 5.6676C19.258 8.50062 19.258 13.1047 16.4289 15.9342H16.4324Z" fill="#252F3E"/>
<path id="Vector_2" d="M12.1909 14.8477C12.2991 15.1723 12.6005 15.3886 12.9405 15.3886C13.2805 15.3886 13.5819 15.1723 13.6901 14.8477L14.4977 12.4521H15.7998C16.2364 12.4521 16.5919 12.0966 16.5919 11.66C16.5919 11.2234 16.2364 10.8679 15.7998 10.8679H15.0347L15.9775 8.07043C16.1166 7.65313 15.8925 7.20492 15.4791 7.06582C15.0657 6.92671 14.6136 7.14696 14.4745 7.56426L12.9405 12.1159L11.9359 9.13686C11.8277 8.81616 11.5263 8.59592 11.1863 8.59592C10.8463 8.59592 10.5449 8.8123 10.4328 9.13686L9.42823 12.1159L7.89427 7.56426C7.75517 7.15082 7.30309 6.92671 6.88966 7.06582C6.47622 7.20492 6.25211 7.65699 6.39121 8.07043L7.334 10.8679H6.56895C6.13233 10.8679 5.77686 11.2234 5.77686 11.66C5.77686 12.0966 6.13233 12.4521 6.56895 12.4521H7.87109L8.67864 14.8477C8.78683 15.1723 9.08821 15.3886 9.42823 15.3886C9.76826 15.3886 10.0696 15.1723 10.1817 14.8477L11.1863 11.8725L12.1909 14.8477Z" fill="#252F3E"/>
</g>
</g>
</svg>
