<svg width="25" height="24" viewBox="0 0 25 24" fill="none" xmlns="http://www.w3.org/2000/svg">
<g id="icon_quickmenu" clip-path="url(#clip0_1805_51334)">
<g id="Group 634">
<path id="Vector" d="M7.88469 13.0591C8.56584 12.378 9.66644 12.378 10.3476 13.0591C11.0287 13.7403 11.0287 14.8409 10.3476 15.522C9.86655 16.0031 9.17002 16.1416 8.56584 15.9415L2.9435 21.5638L14.6615 19.2202L16.8012 11.2004L17.6747 12.074C17.8017 12.201 17.971 12.2664 18.1365 12.2664C18.302 12.2664 18.4713 12.201 18.5983 12.074L23.2162 7.45604C23.4702 7.20205 23.4702 6.78644 23.2162 6.53245L16.8743 0.19049C16.6203 -0.0634966 16.2047 -0.0634966 15.9507 0.19049L11.3327 4.80842C11.0788 5.06241 11.0788 5.47802 11.3327 5.73201L12.2063 6.60557L4.1865 8.74521L1.8429 20.4632L7.46523 14.8409C7.26512 14.2367 7.40366 13.5402 7.88469 13.0591ZM16.4125 1.57587L21.8309 6.99425L18.1365 10.6886L12.7181 5.27022L16.4125 1.57587Z" fill="#252F3E"/>
<path id="Vector_2" d="M23.6009 22.6914H1.65421C1.29247 22.6914 1 22.9839 1 23.3456C1 23.7074 1.29247 23.9998 1.65421 23.9998H23.6009C23.9627 23.9998 24.2551 23.7074 24.2551 23.3456C24.2551 22.9839 23.9627 22.6914 23.6009 22.6914Z" fill="#252F3E"/>
</g>
</g>
<defs>
<clipPath id="clip0_1805_51334">
<rect width="24" height="24" fill="white" transform="translate(0.5)"/>
</clipPath>
</defs>
</svg>
