<svg width="36" height="36" viewBox="0 0 36 36" fill="none" xmlns="http://www.w3.org/2000/svg">
<g id="icon_04">
<g id="Group 143">
<path id="Vector" d="M15.5551 16.5555C18.7461 16.5555 21.3329 13.9687 21.3329 10.7778C21.3329 7.58679 18.7461 5 15.5551 5C12.3641 5 9.77734 7.58679 9.77734 10.7778C9.77734 13.9687 12.3641 16.5555 15.5551 16.5555Z" fill="white"/>
<path id="Vector_2" d="M16.0611 19.4589C12.1178 19.3145 4 21.2789 4 25.2222V28.1111H17.78C14.2122 24.1245 16.0033 19.6033 16.0611 19.4589Z" fill="white"/>
<path id="Vector_3" d="M29.1765 25.2511C29.6965 24.3989 29.9999 23.4023 29.9999 22.3334C29.9999 19.1412 27.4143 16.5556 24.2221 16.5556C21.0299 16.5556 18.4443 19.1412 18.4443 22.3334C18.4443 25.5256 21.0299 28.1111 24.2221 28.1111C25.291 28.1111 26.2877 27.7934 27.1399 27.2878L30.8521 31L32.8888 28.9634L29.1765 25.2511ZM24.2221 25.2223C22.6332 25.2223 21.3332 23.9223 21.3332 22.3334C21.3332 20.7445 22.6332 19.4445 24.2221 19.4445C25.811 19.4445 27.111 20.7445 27.111 22.3334C27.111 23.9223 25.811 25.2223 24.2221 25.2223Z" fill="white"/>
</g>
</g>
</svg>
