<svg width="40" height="40" viewBox="0 0 40 40" fill="none" xmlns="http://www.w3.org/2000/svg">
<path fill-rule="evenodd" clip-rule="evenodd" d="M10.9993 6.79926C10.9993 6.24697 11.447 5.79926 11.9993 5.79926H31.9998C32.5521 5.79926 32.9998 6.24697 32.9998 6.79926V29.9999C32.9998 30.5521 32.5521 30.9999 31.9998 30.9999H27.5997V28.9999H30.9998V7.79926H12.9993V10.6634H10.9993V6.79926Z" fill="white"/>
<path fill-rule="evenodd" clip-rule="evenodd" d="M7 10.7995C7 10.2472 7.44772 9.79948 8 9.79948H18.4003C18.6581 9.79948 18.906 9.89909 19.0922 10.0775L28.6924 19.2777C28.8892 19.4663 29.0005 19.7271 29.0005 19.9997V34.0001C29.0005 34.5524 28.5528 35.0001 28.0005 35.0001H8C7.44772 35.0001 7 34.5524 7 34.0001V10.7995ZM9 11.7995V33.0001H27.0005V20.4265L17.9985 11.7995H9Z" fill="white"/>
<path fill-rule="evenodd" clip-rule="evenodd" d="M18.0074 9.87965C18.3759 9.72242 18.8026 9.80024 19.0918 10.0774L28.6921 19.2777C28.9869 19.5602 29.0803 19.9936 28.9281 20.3725C28.7758 20.7514 28.4085 20.9996 28.0002 20.9996H18.3999C17.8476 20.9996 17.3999 20.5519 17.3999 19.9996V10.7994C17.3999 10.3988 17.639 10.0369 18.0074 9.87965ZM19.3999 13.1428V18.9996H25.5114L19.3999 13.1428Z" fill="white"/>
</svg>
