<svg width="26" height="26" viewBox="0 0 26 26" fill="none" xmlns="http://www.w3.org/2000/svg">
<g id="icon13">
<path id="Vector" d="M2.76666 4.15148C2.65697 3.98898 2.6001 3.79398 2.6001 3.59898C2.6001 3.04648 3.04697 2.59961 3.59947 2.59961H8.03978C8.49478 2.59961 8.92135 2.8393 9.15291 3.2293L11.9357 7.86461C9.9776 8.11242 8.22666 9.02648 6.9226 10.3793L2.76666 4.15148ZM23.2295 4.15148L19.0776 10.3793C17.7735 9.02648 16.0226 8.11242 14.0645 7.86461L16.8473 3.2293C17.0829 2.8393 17.5054 2.59961 17.9604 2.59961H22.4007C22.9532 2.59961 23.4001 3.04648 23.4001 3.59898C23.4001 3.79398 23.3432 3.98898 23.2335 4.15148H23.2295ZM5.8501 16.2496C5.8501 14.3533 6.6034 12.5347 7.94428 11.1938C9.28517 9.85291 11.1038 9.09961 13.0001 9.09961C14.8964 9.09961 16.715 9.85291 18.0559 11.1938C19.3968 12.5347 20.1501 14.3533 20.1501 16.2496C20.1501 18.1459 19.3968 19.9645 18.0559 21.3054C16.715 22.6463 14.8964 23.3996 13.0001 23.3996C11.1038 23.3996 9.28517 22.6463 7.94428 21.3054C6.6034 19.9645 5.8501 18.1459 5.8501 16.2496ZM13.3413 12.3943C13.2032 12.1099 12.801 12.1099 12.6588 12.3943L11.7488 14.2387C11.692 14.3524 11.5863 14.4296 11.4645 14.4459L9.4251 14.7424C9.11229 14.7871 8.99041 15.169 9.21385 15.3924L10.6885 16.8305C10.7779 16.9199 10.8185 17.0418 10.7982 17.1677L10.4488 19.1949C10.396 19.5037 10.721 19.7434 11.0013 19.5971L12.8213 18.6384C12.931 18.5815 13.0651 18.5815 13.1748 18.6384L14.9948 19.5971C15.2751 19.7434 15.6001 19.5077 15.5473 19.1949L15.1979 17.1677C15.1776 17.0459 15.2182 16.9199 15.3076 16.8305L16.7823 15.3924C17.0098 15.173 16.8838 14.7912 16.571 14.7424L14.5357 14.4459C14.4138 14.4296 14.3042 14.3484 14.2513 14.2387L13.3413 12.3943Z" fill="black"/>
</g>
</svg>
