<svg width="60" height="69" viewBox="0 0 60 69" fill="none" xmlns="http://www.w3.org/2000/svg">
<g id="Group 588">
<g id="Layer 2">
<g id="Group">
<g id="Group_2">
<g id="Group_3">
<path id="Vector" d="M52.8173 1.57129H46.2959C49.1542 1.57129 51.4784 3.88801 51.4784 6.75381V63.2458C51.4784 66.104 49.1542 68.4283 46.2959 68.4283H52.8173C55.6756 68.4283 57.9998 66.104 57.9998 63.2458V6.75381C57.9998 3.89553 55.6831 1.57129 52.8173 1.57129Z" fill="#85B6FF"/>
<path id="Vector_2" d="M20.2782 1.57129H46.3037C49.162 1.57129 51.4862 3.89553 51.4862 6.75381V63.2458C51.4862 66.104 49.162 68.4283 46.3037 68.4283H20.2782C17.4199 68.4283 15.0957 66.104 15.0957 63.2458V6.75381C15.0957 3.89553 17.4199 1.57129 20.2782 1.57129Z" fill="white"/>
</g>
<path id="Vector_3" d="M20.2707 1.57129H52.8176C55.6758 1.57129 58.0001 3.89553 58.0001 6.75381V62.2458C58.0001 65.1041 55.6758 67.4283 52.8176 67.4283H20.2782C17.4199 67.4283 15.0957 65.1041 15.0957 62.2458V6.75381C15.0957 3.89553 17.4199 1.57129 20.2782 1.57129H20.2707Z" stroke="#21409A" stroke-width="2.2"/>
<path id="Vector_4" d="M33.1406 8.23535H39.9479" stroke="#85B6FF" stroke-width="2.2"/>
</g>
<g id="Group_4">
<path id="Vector_5" d="M40.4282 22.7284C40.4282 25.4983 38.6945 27.74 36.5476 27.74C34.4007 27.74 32.667 25.4983 32.667 22.7284C32.667 19.9585 34.4007 17.7168 36.5476 17.7168C38.6945 17.7168 40.4282 19.9585 40.4282 22.7284Z" fill="white" stroke="#21409A" stroke-width="2.2"/>
<g id="Group_5">
<path id="Vector_6" d="M42.6296 27.855H32.3896C35.356 27.855 37.7602 30.2592 37.7602 33.2255V43.6077H48.0001V33.2255C48.0001 30.2592 45.5959 27.855 42.6296 27.855Z" fill="white"/>
<path id="Vector_7" d="M32.3964 27.855H30.4662C27.4999 27.855 25.0957 30.2592 25.0957 33.2255V43.6077H37.7669V33.2255C37.7669 30.2592 35.3627 27.855 32.3964 27.855Z" fill="#85B6FF"/>
</g>
<path id="Vector_8" d="M30.4594 43.6077H25.0889V33.2255C25.0889 30.2592 27.4931 27.855 30.4594 27.855H42.6295C45.5958 27.855 48 30.2592 48 33.2255V43.6077H42.6295M30.4594 43.6077V36.0903M30.4594 43.6077H42.6295M42.6295 43.6077V36.0903" stroke="#21409A" stroke-width="2.2"/>
</g>
<path id="Vector_9" d="M47.7032 52.1055H25.3936" stroke="#85B6FF" stroke-width="2.2"/>
<path id="Vector_10" d="M47.7032 58.123H25.3936" stroke="#85B6FF" stroke-width="2.2"/>
</g>
</g>
<g id="text">
<g id="Group_6">
<path id="Vector_11" d="M20 12.9995H2V32.9995H20V12.9995Z" fill="#FCFCFC" stroke="#FFAC11" stroke-width="2.2"/>
<path id="Vector_12" d="M7 18.9209H15" stroke="#FFAC11" stroke-width="2.2"/>
<path id="Vector_13" d="M7 22.9209H15" stroke="#FFAC11" stroke-width="2.2"/>
<path id="Vector_14" d="M7 26.9209H15" stroke="#FFAC11" stroke-width="2.2"/>
</g>
</g>
</g>
</svg>
