<svg width="81" height="80" viewBox="0 0 81 80" fill="none" xmlns="http://www.w3.org/2000/svg">
<g clip-path="url(#clip0_1502_34236)">
<path d="M41.868 35.9854H40.1294C39.4102 35.9854 38.8271 36.5671 38.8271 37.2846V65.8684C38.8271 66.586 39.4102 67.1677 40.1294 67.1677H41.868C42.5872 67.1677 43.1703 66.586 43.1703 65.8684V37.2846C43.1703 36.5671 42.5872 35.9854 41.868 35.9854Z" fill="white" stroke="#21409A" stroke-width="2" stroke-linejoin="round"/>
<path d="M56.4926 26.2931C57.8411 26.2931 58.9343 25.2025 58.9343 23.857C58.9343 22.5116 57.8411 21.4209 56.4926 21.4209C55.144 21.4209 54.0508 22.5116 54.0508 23.857C54.0508 25.2025 55.144 26.2931 56.4926 26.2931Z" fill="#FCFCFC" stroke="#85B6FF" stroke-width="2"/>
<path d="M25.7788 18.6602H22.9072" stroke="#21409A" stroke-width="2"/>
<path d="M20.628 18.6602H17.75" stroke="#21409A" stroke-width="2"/>
<path d="M21.7676 14.6582V17.5231" stroke="#21409A" stroke-width="2"/>
<path d="M21.7676 19.7969V22.6682" stroke="#21409A" stroke-width="2"/>
<path d="M43.8089 8.62598H38.1831C37.8835 8.62598 37.5905 8.65846 37.3105 8.70393C39.6351 9.1197 41.4062 11.1401 41.4062 13.5762V38.7595C41.4062 41.1956 39.6416 43.2225 37.3105 43.6317C37.597 43.6837 37.8835 43.7162 38.1831 43.7162H43.8089C46.5568 43.7162 48.7771 41.4944 48.7771 38.7595V13.5827C48.7771 10.8477 46.5568 8.62598 43.8089 8.62598Z" fill="#85B6FF"/>
<path d="M41.3994 38.7655V13.5822C41.3994 11.1461 39.6348 9.11923 37.3037 8.70996C34.9791 9.12573 33.208 11.1461 33.208 13.5822V38.7655C33.208 41.2016 34.9726 43.2285 37.3037 43.6378C39.6283 43.222 41.3994 41.2016 41.3994 38.7655Z" fill="white"/>
<path d="M38.1824 8.62598H43.8148C46.5561 8.62598 48.783 10.8477 48.783 13.5827V38.766C48.783 41.5009 46.5561 43.7227 43.8148 43.7227H38.1889C35.4476 43.7227 33.2207 41.5009 33.2207 38.766V13.5827C33.2207 10.8477 35.4476 8.62598 38.1889 8.62598H38.1824Z" stroke="#21409A" stroke-width="2"/>
<path d="M33.377 20.2646H38.6772" stroke="#21409A" stroke-width="2" stroke-linejoin="round"/>
<path d="M33.377 26.209H38.6772" stroke="#21409A" stroke-width="2" stroke-linejoin="round"/>
<path d="M33.377 32.1592H38.6772" stroke="#21409A" stroke-width="2" stroke-linejoin="round"/>
<path d="M43.3135 20.2646H48.6138" stroke="#21409A" stroke-width="2" stroke-linejoin="round"/>
<path d="M43.3135 26.209H48.6138" stroke="#21409A" stroke-width="2" stroke-linejoin="round"/>
<path d="M43.3135 32.1592H48.6138" stroke="#21409A" stroke-width="2" stroke-linejoin="round"/>
<path d="M19.9635 36.8814C19.9635 35.0169 21.4807 33.5098 23.343 33.5098C25.2117 33.5098 26.7224 35.0169 26.7224 36.8814C26.7354 44.7419 33.1166 51.1083 40.9954 51.1213C48.8807 51.1083 55.2554 44.7419 55.2684 36.8814C55.2684 35.0169 56.7791 33.5098 58.6478 33.5098C60.5166 33.5098 62.0273 35.0169 62.0273 36.8814C62.0273 48.4708 52.6118 57.8645 40.9889 57.8645C29.3725 57.8645 19.957 48.4708 19.957 36.8814H19.9635Z" fill="white" stroke="#21409A" stroke-width="2"/>
<path d="M52.1038 64.2051H41.6855C44.9999 64.2051 47.6891 66.8881 47.6891 70.1947V72.293H58.1073V70.1947C58.1073 66.8881 55.4181 64.2051 52.1038 64.2051Z" fill="#FFAC11"/>
<path d="M41.686 64.2051H29.8873C26.573 64.2051 23.8838 66.8881 23.8838 70.1947V72.293H47.696V70.1947C47.696 66.8881 45.0068 64.2051 41.6925 64.2051H41.686Z" fill="white"/>
<path d="M58.1143 70.1947C58.1143 66.8881 55.4251 64.2051 52.1108 64.2051H29.8873C26.573 64.2051 23.8838 66.8881 23.8838 70.1947V72.293H58.1143V70.1947Z" stroke="#21409A" stroke-width="2"/>
</g>
<defs>
<clipPath id="clip0_1502_34236">
<rect width="46" height="68" fill="white" transform="translate(17.75 6)"/>
</clipPath>
</defs>
</svg>
