<svg width="104" height="114" viewBox="0 0 104 114" fill="none" xmlns="http://www.w3.org/2000/svg">
<g id="Layer_2" clip-path="url(#clip0_1134_4213)">
<g id="Group">
<path id="Vector" d="M94.8167 8.46484H1.92383V102.515H94.8167V8.46484Z" fill="white" stroke="#21409A" stroke-width="3.4" stroke-linejoin="round"/>
<path id="Vector_2" d="M85.4333 85.7188V25.2703C81.8771 24.3868 79.0903 21.5653 78.2177 17.9648H18.5223C17.6496 21.5653 14.8628 24.3868 11.3066 25.2703V85.7093C14.8628 86.5928 17.6496 89.4143 18.5223 93.0148H78.2177C79.0903 89.4143 81.8771 86.5928 85.4333 85.7093V85.7188Z" stroke="#85B6FF" stroke-width="3.4"/>
<g id="Group_2">
<path id="Vector_3" d="M68.0751 51.0742H28.666" stroke="#85B6FF" stroke-width="3.4"/>
<path id="Vector_4" d="M68.0751 60.4609H28.666" stroke="#85B6FF" stroke-width="3.4"/>
<path id="Vector_5" d="M68.0751 69.8555H28.666" stroke="#85B6FF" stroke-width="3.4"/>
</g>
</g>
<g id="Group_3">
<path id="Vector_6" d="M55.9133 18.8281V37.6951L48.4537 31.2541L40.9941 37.6951V18.8281C43.2461 19.5976 45.7702 20.0346 48.4537 20.0346C51.1373 20.0346 53.6614 19.5976 55.9133 18.8281Z" fill="white" stroke="#21409A" stroke-width="3.4" stroke-linejoin="round"/>
<path id="Vector_7" d="M37.748 12.9684C37.748 18.9534 42.5428 23.8079 48.4542 23.8079C54.3656 23.8079 59.1603 18.9534 59.1603 12.9684C59.1603 6.98341 54.3656 2.12891 48.4542 2.12891C42.5428 2.12891 37.748 6.98341 37.748 12.9684Z" fill="#FFAC11" stroke="#21409A" stroke-width="3.4"/>
<path id="Vector_8" d="M44.7852 12.9684C44.7852 15.0204 46.4272 16.6829 48.454 16.6829C50.4807 16.6829 52.1228 15.0204 52.1228 12.9684C52.1228 10.9164 50.4807 9.25391 48.454 9.25391C46.4272 9.25391 44.7852 10.9164 44.7852 12.9684Z" stroke="#21409A" stroke-width="3.4"/>
</g>
<g id="Group_4">
<g id="Group_5">
<path id="Vector_9" d="M28.5048 35.5391H24.3574" stroke="#21409A" stroke-width="3.4"/>
<path id="Vector_10" d="M21.0731 35.5391H16.9258" stroke="#21409A" stroke-width="3.4"/>
</g>
<g id="Group_6">
<path id="Vector_11" d="M22.7148 29.6875V33.8865" stroke="#21409A" stroke-width="3.4"/>
<path id="Vector_12" d="M22.7148 37.2031V41.4021" stroke="#21409A" stroke-width="3.4"/>
</g>
</g>
<path id="Vector_13" d="M75.4952 39.5781C77.4385 39.5781 79.0139 37.9831 79.0139 36.0156C79.0139 34.0481 77.4385 32.4531 75.4952 32.4531C73.5519 32.4531 71.9766 34.0481 71.9766 36.0156C71.9766 37.9831 73.5519 39.5781 75.4952 39.5781Z" fill="#FCFCFC" stroke="#85B6FF" stroke-width="3.4"/>
<g id="Group_7">
<g id="Group_8">
<path id="Vector_14" d="M95.6611 100.864C95.6611 100.931 95.83 101.33 96.074 101.9C94.0378 101.349 91.617 101.026 89.0179 101.026C87.9388 101.026 86.8879 101.083 85.8839 101.187L85.9684 100.551L76.041 99.2969V106.441C76.041 109.433 81.8492 111.856 89.0179 111.856C96.1866 111.856 101.995 109.433 101.995 106.441V99.4204C101.995 99.4204 95.6611 100.598 95.6611 100.855V100.864Z" fill="#FFAC11" stroke="#21409A" stroke-width="3.4"/>
<path id="Vector_15" d="M102.005 98.3642C102.005 101.357 96.1963 103.779 89.0276 103.779C81.8589 103.779 76.0508 101.357 76.0508 98.3642C76.0508 95.3717 81.8589 92.9492 89.0276 92.9492C96.1963 92.9492 102.005 95.3717 102.005 98.3642Z" fill="#FFAC11" stroke="#21409A" stroke-width="3.4"/>
</g>
<g id="Group_9">
<path id="Vector_16" d="M95.6611 94.4777C95.6611 94.5442 95.83 94.9432 96.074 95.5132C94.0378 94.9622 91.617 94.6392 89.0179 94.6392C87.9388 94.6392 86.8879 94.6962 85.8839 94.8007L85.9684 94.1642L76.041 92.9102V100.054C76.041 103.047 81.8492 105.469 89.0179 105.469C96.1866 105.469 101.995 103.047 101.995 100.054V93.0337C101.995 93.0337 95.6611 94.2117 95.6611 94.4682V94.4777Z" fill="#FFAC11" stroke="#21409A" stroke-width="3.4"/>
<path id="Vector_17" d="M102.005 91.9775C102.005 94.97 96.1963 97.3925 89.0276 97.3925C81.8589 97.3925 76.0508 94.97 76.0508 91.9775C76.0508 88.985 81.8589 86.5625 89.0276 86.5625C96.1963 86.5625 102.005 88.985 102.005 91.9775Z" fill="#FFAC11" stroke="#21409A" stroke-width="3.4"/>
</g>
<g id="Group_10">
<path id="Vector_18" d="M95.6611 88.1066C95.6611 88.1731 95.83 88.5721 96.074 89.1421C94.0378 88.5911 91.617 88.2681 89.0179 88.2681C87.9388 88.2681 86.8879 88.3251 85.8839 88.4296L85.9684 87.7931L76.041 86.5391V93.6831C76.041 96.6756 81.8492 99.0981 89.0179 99.0981C96.1866 99.0981 101.995 96.6756 101.995 93.6831V86.6626C101.995 86.6626 95.6611 87.8406 95.6611 88.0971V88.1066Z" fill="#FFAC11" stroke="#21409A" stroke-width="3.4"/>
<path id="Vector_19" d="M102.005 85.6064C102.005 88.5989 96.1963 91.0214 89.0276 91.0214C81.8589 91.0214 76.0508 88.5989 76.0508 85.6064C76.0508 82.6139 81.8589 80.1914 89.0276 80.1914C96.1963 80.1914 102.005 82.6139 102.005 85.6064Z" fill="#FFAC11" stroke="#21409A" stroke-width="3.4"/>
</g>
<g id="Group_11">
<path id="Vector_20" d="M95.6611 81.7198C95.6611 81.7863 95.83 82.1853 96.074 82.7553C94.0378 82.2043 91.617 81.8813 89.0179 81.8813C87.9388 81.8813 86.8879 81.9383 85.8839 82.0428L85.9684 81.4063L76.041 80.1523V87.2963C76.041 90.2888 81.8492 92.7113 89.0179 92.7113C96.1866 92.7113 101.995 90.2888 101.995 87.2963V80.2758C101.995 80.2758 95.6611 81.4538 95.6611 81.7103V81.7198Z" fill="#FFAC11" stroke="#21409A" stroke-width="3.4"/>
<path id="Vector_21" d="M102.005 79.2197C102.005 82.2122 96.1963 84.6347 89.0276 84.6347C81.8589 84.6347 76.0508 82.2122 76.0508 79.2197C76.0508 76.2272 81.8589 73.8047 89.0276 73.8047C96.1963 73.8047 102.005 76.2272 102.005 79.2197Z" fill="#FFAC11" stroke="#21409A" stroke-width="3.4"/>
</g>
<g id="Group_12">
<path id="Vector_22" d="M95.6611 75.337C95.6611 75.4035 92.256 74.4535 92.5 75.0235C90.4639 74.4725 91.617 75.4985 89.0179 75.4985C87.9388 75.4985 86.8879 75.5555 85.8839 75.66L85.9684 75.0235L76.041 73.7695V80.9135C76.041 83.906 81.8492 86.3285 89.0179 86.3285C96.1866 86.3285 101.995 83.906 101.995 80.9135V73.893C101.995 73.893 95.6611 75.071 95.6611 75.3275V75.337Z" fill="#FFAC11" stroke="#21409A" stroke-width="3.4"/>
<path id="Vector_23" d="M102.005 72.8369C102.005 75.8294 96.1963 78.2519 89.0276 78.2519C81.8589 78.2519 76.0508 75.8294 76.0508 72.8369C76.0508 69.8444 81.8589 67.4219 89.0276 67.4219C96.1963 67.4219 102.005 69.8444 102.005 72.8369Z" fill="#FFAC11" stroke="#21409A" stroke-width="3.4"/>
</g>
</g>
</g>
<defs>
<clipPath id="clip0_1134_4213">
<rect width="104" height="114" fill="white"/>
</clipPath>
</defs>
</svg>
