<svg width="50" height="50" viewBox="0 0 50 50" fill="none" xmlns="http://www.w3.org/2000/svg">
<path d="M45.0044 9H29.016C26.9406 9 25.2715 10.4605 25.2715 12.2723V37.1444C25.2715 35.3325 26.9516 33.872 29.016 33.872H45.0044C45.0923 33.872 45.1691 33.872 45.257 33.872V9.01098C45.1691 9.01098 45.0923 9.01098 45.0044 9.01098V9Z" fill="white" stroke="#252F3E" stroke-width="2.4" stroke-linecap="round" stroke-linejoin="round"/>
<path d="M5.50549 9H21.5049C23.5693 9 25.2494 10.4605 25.2494 12.2723V37.1444C25.2494 35.3325 23.5693 33.872 21.5049 33.872H5.50549C5.41765 33.872 5.34078 33.872 5.25293 33.872V9.01098C5.34078 9.01098 5.41765 9.01098 5.50549 9.01098V9Z" fill="white" stroke="#252F3E" stroke-width="2.4" stroke-linecap="round" stroke-linejoin="round"/>
<path d="M31 16H40" stroke="url(#paint0_linear_1492_31533)" stroke-width="2.4" stroke-linecap="round" stroke-linejoin="round"/>
<path d="M31 22H37" stroke="url(#paint1_linear_1492_31533)" stroke-width="2.4" stroke-linecap="round" stroke-linejoin="round"/>
<path d="M4.66016 42.5801H45.85" stroke="#252F3E" stroke-width="2.4" stroke-linecap="round" stroke-linejoin="round"/>
<defs>
<linearGradient id="paint0_linear_1492_31533" x1="39.25" y1="17" x2="39.1273" y2="15.481" gradientUnits="userSpaceOnUse">
<stop stop-color="#FF8000"/>
<stop offset="1" stop-color="#FFB348"/>
</linearGradient>
<linearGradient id="paint1_linear_1492_31533" x1="36.5" y1="23" x2="36.3174" y2="21.4932" gradientUnits="userSpaceOnUse">
<stop stop-color="#FF8000"/>
<stop offset="1" stop-color="#FFB348"/>
</linearGradient>
</defs>
</svg>
