<svg width="50" height="50" viewBox="0 0 50 50" fill="none" xmlns="http://www.w3.org/2000/svg">
<path d="M43 22.2695C43 19.9195 41.1 18.0195 38.75 18.0195H9.75C7.4 18.0195 5.5 19.9195 5.5 22.2695C5.5 24.6195 7.38 26.4895 9.71 26.5195C9.71 26.6795 9.69 26.8395 9.71 26.9995L10.8 38.0395C11.05 40.7795 13.5 43.0195 16.25 43.0195H32.25C35 43.0195 37.45 40.7795 37.7 38.0395L38.79 26.9995C38.81 26.8295 38.79 26.6795 38.79 26.5195C41.12 26.4995 43 24.6095 43 22.2695Z" fill="white" stroke="#252F3E" stroke-width="2.4" stroke-linecap="round" stroke-linejoin="round"/>
<path d="M11 18L20 8" stroke="#252F3E" stroke-width="2.4" stroke-linecap="round" stroke-linejoin="round"/>
<path d="M38 18L29 8" stroke="#252F3E" stroke-width="2.4" stroke-linecap="round" stroke-linejoin="round"/>
<path d="M17 29V33" stroke="url(#paint0_linear_1492_34560)" stroke-width="2.4" stroke-linecap="round" stroke-linejoin="round"/>
<path d="M24 29V33" stroke="url(#paint1_linear_1492_34560)" stroke-width="2.4" stroke-linecap="round" stroke-linejoin="round"/>
<path d="M31 29V33" stroke="url(#paint2_linear_1492_34560)" stroke-width="2.4" stroke-linecap="round" stroke-linejoin="round"/>
<defs>
<linearGradient id="paint0_linear_1492_34560" x1="17.9167" y1="33" x2="16.0366" y2="32.3537" gradientUnits="userSpaceOnUse">
<stop stop-color="#FF8000"/>
<stop offset="1" stop-color="#FFB348"/>
</linearGradient>
<linearGradient id="paint1_linear_1492_34560" x1="24.9167" y1="33" x2="23.0366" y2="32.3537" gradientUnits="userSpaceOnUse">
<stop stop-color="#FF8000"/>
<stop offset="1" stop-color="#FFB348"/>
</linearGradient>
<linearGradient id="paint2_linear_1492_34560" x1="31.9167" y1="33" x2="30.0366" y2="32.3537" gradientUnits="userSpaceOnUse">
<stop stop-color="#FF8000"/>
<stop offset="1" stop-color="#FFB348"/>
</linearGradient>
</defs>
</svg>
