<svg width="157" height="120" viewBox="0 0 157 120" fill="none" xmlns="http://www.w3.org/2000/svg">
<g id="&#237;&#152;&#184;&#235;&#158;&#145;&#236;&#157;&#180;" clip-path="url(#clip0_1978_57217)">
<g id="Group">
<g id="Group_2">
<path id="Vector" d="M40.1543 92.9761L63.024 89.7202L87.4377 93.5561L98.1006 106.702V118.576L61.48 118.81H30.7868C30.7868 118.81 23.6782 101.126 40.1543 92.9761Z" fill="white"/>
<path id="Vector_2" d="M30.7967 119.573H61.49C61.49 119.573 61.5625 119.573 61.6039 119.573L98.1105 119.339C98.5354 119.339 98.8877 118.993 98.8877 118.576V106.702C98.8877 106.529 98.8255 106.366 98.7219 106.224L88.059 93.0779C87.9347 92.9253 87.7689 92.8337 87.572 92.8032L63.1583 88.9673C63.0858 88.9572 63.0029 88.9572 62.92 88.9673L40.0502 92.2232C39.9674 92.2334 39.8845 92.2639 39.8119 92.2945C22.9006 100.658 29.9988 118.901 30.0713 119.084C30.1853 119.379 30.4754 119.563 30.7967 119.563V119.573ZM61.4796 118.047H31.3355C30.3304 115.177 26.1854 100.821 40.3922 93.7087L63.0236 90.4834L87.0228 94.2582L97.3333 106.966V117.813L66.754 118.006C67.2722 117.67 67.7488 117.283 68.184 116.866C69.5726 115.483 70.298 113.783 70.2772 111.952C70.1943 105.674 64.6712 100.516 57.9668 100.434C54.9306 100.383 51.5317 101.136 48.4852 102.52C48.0914 102.693 47.9256 103.151 48.1018 103.537C48.278 103.924 48.7443 104.087 49.138 103.914C51.967 102.622 55.086 101.92 57.946 101.971C63.8215 102.042 68.6503 106.529 68.7229 111.982C68.7436 113.763 67.8421 115.045 67.0753 115.798C65.6971 117.161 63.6039 118.026 61.5832 118.047H61.4796Z" fill="#040000"/>
</g>
<path id="Vector_3" d="M83.8826 118.993C84.1417 118.993 84.3904 118.871 84.5458 118.637C84.7738 118.281 84.6598 117.813 84.2971 117.589C83.2505 116.948 82.8464 113.844 82.8878 111.85C83.1883 109.001 84.2556 106.834 86.0483 105.471C88.9083 103.303 92.732 103.853 92.7735 103.863C93.188 103.924 93.5921 103.639 93.6647 103.232C93.7372 102.825 93.447 102.428 93.0222 102.357C92.846 102.327 88.5146 101.696 85.1157 104.26C82.9603 105.888 81.6858 108.411 81.3438 111.759C81.3231 112.766 81.3231 117.558 83.4785 118.881C83.6028 118.962 83.7479 118.993 83.893 118.993H83.8826Z" fill="#040000"/>
</g>
<g id="Group_3">
<g id="Group_4">
<path id="Vector_4" d="M86.6666 27.6104C80.9755 27.0182 76.8979 21.5732 77.559 15.4487C78.22 9.32426 83.3695 4.83952 89.0606 5.43178C94.7517 6.02403 98.8293 11.469 98.1682 17.5935C97.5071 23.7179 92.3577 28.2027 86.6666 27.6104Z" fill="white"/>
<path id="Vector_5" d="M96.7123 22.903C96.9817 22.903 97.2511 22.7605 97.3962 22.5061C98.2356 21.0206 98.7537 19.3927 98.9402 17.6732C99.2822 14.519 98.4532 11.4361 96.619 8.98401C94.7642 6.51157 92.1114 4.97519 89.1374 4.66995C84.2464 4.16122 79.6351 7.07117 77.6559 11.9143C77.5005 12.301 77.687 12.7486 78.0911 12.9114C78.4849 13.0641 78.9409 12.8809 79.1067 12.4841C80.8268 8.28196 84.7852 5.75864 88.982 6.19615C91.5104 6.4607 93.7797 7.77323 95.3756 9.89973C96.9817 12.0466 97.6967 14.753 97.3962 17.5206C97.2304 19.0366 96.7745 20.4712 96.0387 21.7837C95.8315 22.15 95.9662 22.6181 96.3393 22.8216C96.4532 22.8826 96.5879 22.9131 96.7123 22.9131V22.903Z" fill="#040000"/>
</g>
<g id="Group_5">
<g id="Group_6">
<path id="Vector_6" d="M44.8999 93.8306C44.8999 93.8306 13.533 89.9438 15.9785 67.3459C16.8386 59.4199 19.0251 52.9793 23.6363 49.7946C23.6363 49.7946 24.8073 7.3154 66.3085 11.6295C113.478 16.5438 105.468 58.3108 105.468 58.3108C112.038 61.9533 113.758 69.5029 112.908 77.429C110.462 100.027 69.6866 96.4048 69.6866 96.4048L44.8999 93.8204V93.8306Z" fill="white"/>
<g id="Group_7">
<path id="Vector_7" d="M105.779 56.683C106.173 56.683 106.515 56.3879 106.556 55.9911C107.458 46.4778 107.24 15.1195 66.3917 10.8766C63.4488 10.5714 60.5992 10.49 57.9257 10.6324C57.5008 10.6528 57.1692 11.0191 57.19 11.4362C57.2107 11.8534 57.6252 12.1688 58.0086 12.1586C60.6095 12.0162 63.3659 12.0976 66.2259 12.3927C105.655 16.5032 105.872 46.6915 105.002 55.8487C104.96 56.2658 105.271 56.6423 105.706 56.683C105.727 56.683 105.758 56.683 105.779 56.683Z" fill="#040000"/>
<path id="Vector_8" d="M23.812 48.2176C24.2058 48.2176 24.5374 47.9225 24.5892 47.5359C25.0969 42.9369 27.1072 31.2971 34.8375 22.6487C35.1173 22.3332 35.0862 21.8449 34.765 21.5701C34.4438 21.2954 33.9464 21.326 33.6666 21.6414C25.6358 30.6154 23.5633 42.6215 23.0348 47.3731C22.9934 47.7903 23.2939 48.1667 23.7291 48.2176C23.7602 48.2176 23.7809 48.2176 23.812 48.2176Z" fill="#040000"/>
<path id="Vector_9" d="M53.0032 95.4382C53.397 95.4382 53.7286 95.1431 53.7804 94.7565C53.8218 94.3393 53.5213 93.9628 53.0861 93.912L44.9827 93.0675C44.6926 93.0268 14.4242 89.0078 16.7557 67.4171C17.6987 58.728 20.0924 53.1624 24.0819 50.4153C24.4342 50.1711 24.5171 49.6929 24.2684 49.3571C24.0197 49.0112 23.543 48.9298 23.1907 49.174C18.8074 52.1958 16.1961 58.1175 15.2117 67.2645C12.7144 90.3407 44.4853 94.553 44.8066 94.5937L52.9203 95.4382C52.9203 95.4382 52.9721 95.4382 53.0032 95.4382Z" fill="#040000"/>
<path id="Vector_10" d="M77.6863 97.3715H77.707C90.3698 97.1171 111.882 94.197 113.675 77.5207C114.69 68.0684 111.913 61.0174 105.851 57.6598C105.478 57.4563 105.001 57.5885 104.794 57.9548C104.587 58.3211 104.711 58.7891 105.095 58.9926C112.131 62.8895 112.815 71.131 112.141 77.3681C110.462 92.8844 89.8309 95.6113 77.6863 95.8554C77.2614 95.8554 76.9195 96.2116 76.9298 96.6389C76.9298 97.0561 77.2821 97.3817 77.707 97.3817L77.6863 97.3715Z" fill="#040000"/>
</g>
</g>
<g id="Group_8">
<path id="Vector_11" d="M94.4322 59.5933C93.3054 59.476 92.5264 58.1352 92.6923 56.5985C92.8581 55.0618 93.9061 53.9111 95.0329 54.0284C96.1598 54.1457 96.9388 55.4865 96.7729 57.0232C96.607 58.5599 95.5591 59.7106 94.4322 59.5933Z" fill="#040000"/>
<path id="Vector_12" d="M110.244 64.548C110.69 64.7006 111.042 64.8532 111.54 65.1686C112.369 67.1222 112.845 69.2995 113.021 71.5888C112.141 70.785 109.778 67.9972 107.063 66.0742C105.136 64.7006 106.39 63.2354 110.244 64.548Z" fill="#040000"/>
<path id="Vector_13" d="M108.783 77.8972C110.441 78.2736 111.436 78.996 112.431 79.9728C111.757 82.5877 110.514 84.7956 108.876 86.6576C107.861 83.5238 104.68 76.9509 108.783 77.8972Z" fill="#040000"/>
<path id="Vector_14" d="M69.375 56.9679C67.8011 56.9679 66.5253 55.7152 66.5253 54.1699C66.5253 52.6245 67.8011 51.3718 69.375 51.3718C70.9488 51.3718 72.2246 52.6245 72.2246 54.1699C72.2246 55.7152 70.9488 56.9679 69.375 56.9679Z" fill="#040000"/>
<path id="Vector_15" d="M88.2659 58.9417C88.1934 59.6437 86.9085 60.9054 85.1572 60.7324C83.406 60.5594 81.4475 58.9518 81.5201 58.2396C81.5926 57.5274 82.7739 56.7745 85.551 57.0594C88.3281 57.3442 88.3385 58.2294 88.2659 58.9417Z" fill="#040000"/>
<path id="Vector_16" d="M88.5767 71.7008C90.6389 71.7008 92.4626 71.0293 93.6647 69.8083C94.5973 68.8621 95.6231 67.0815 95.1879 64.0495C94.3797 58.372 87.8825 57.731 84.7634 57.4258L83.8101 57.324C80.5563 56.9679 72.9296 56.1336 70.9193 61.5262C69.8416 64.4056 70.4737 66.3489 71.1784 67.4682C72.2457 69.1572 74.2871 70.2764 76.7844 70.5307C79.489 70.8054 81.7272 69.2996 82.9293 68.2618C83.6028 69.7066 85.0328 71.3956 87.5301 71.6499C87.8825 71.6906 88.2244 71.7008 88.5664 71.7008H88.5767ZM79.8102 58.5755C81.292 58.5755 82.6909 58.7281 83.6443 58.8299L84.608 58.9316C87.5405 59.2165 93.0015 59.7558 93.6439 64.253C93.9237 66.2065 93.5507 67.7123 92.5352 68.74C91.4782 69.8083 89.6648 70.3272 87.6856 70.1237C84.7116 69.8185 84.0484 66.817 84.0173 66.6949C83.9551 66.41 83.7375 66.1862 83.4474 66.1048C83.1572 66.0234 82.8567 66.1251 82.6598 66.3591C82.6391 66.3896 80.0693 69.3301 76.9502 69.0045C74.971 68.801 73.313 67.9158 72.5047 66.6542C71.7379 65.4434 71.6965 63.8867 72.3804 62.0349C73.4373 59.186 76.8155 58.5653 79.7998 58.5653L79.8102 58.5755Z" fill="#040000"/>
<path id="Vector_17" d="M42.9101 57.3646C38.9413 57.9547 35.3352 58.8195 32.8793 60.6205C28.0194 64.1816 28.7136 70.8562 40.3195 63.5813C43.6251 61.5565 47.9358 60.7426 51.0756 59.6233C53.6662 58.6974 53.5211 57.4968 50.4953 57.3035C45.7908 57.0085 43.4696 57.2526 42.9204 57.3646H42.9101Z" fill="#040000"/>
<path id="Vector_18" d="M74.6915 20.9699L80.7845 21.6007C80.826 20.5629 81.4996 19.6167 82.5565 19.2707C83.914 18.8332 85.3751 19.5556 85.8207 20.8987C85.9554 21.3056 86.0797 21.733 86.1937 22.1705L91.9966 22.7708C93.4163 22.9234 94.4525 24.1749 94.2971 25.5688C94.1416 26.9628 92.8671 27.9802 91.4474 27.8276L87.0227 27.3697C87.147 28.7942 87.2092 30.2085 87.2403 31.5108L89.9449 31.7957C91.3645 31.9483 92.4007 33.1998 92.2453 34.5938C92.0899 35.9877 90.8153 37.0052 89.3957 36.8525L87.1574 36.6185C87.1367 37.1171 87.1056 37.4528 87.1056 37.5241C87.002 38.9282 85.7688 39.9863 84.3388 39.8846C84.3077 39.8846 84.2767 39.8846 84.2456 39.8846C82.8674 39.7421 81.8415 38.5517 81.9348 37.1781C81.9348 37.1578 81.9659 36.7508 81.9866 36.0894L77.0852 35.5807C75.6655 35.4281 74.6293 34.1766 74.7848 32.7827C74.9402 31.3887 76.2148 30.3713 77.6344 30.5239L82.028 30.9818C81.9866 29.6387 81.9037 28.2142 81.7482 26.8305L74.1112 26.0369C72.6916 25.8842 71.6553 24.6328 71.8108 23.2388C71.9662 21.8449 73.2408 20.8274 74.6604 20.9801L74.6915 20.9699Z" fill="#040000"/>
<path id="Vector_19" d="M39.0448 70.4594C42.5887 69.1774 48.9201 68.5974 49.231 69.8286C49.5625 71.1615 44.6922 73.8985 42.4643 75.1805C40.2364 76.4625 33.5734 82.2417 31.1383 79.4742C28.7031 76.7067 31.4906 73.1964 39.0551 70.4492L39.0448 70.4594Z" fill="#040000"/>
</g>
</g>
<g id="Group_9">
<path id="Vector_20" d="M43.6565 23.066C37.3842 23.066 32.2994 18.0734 32.2994 11.9146C32.2994 5.75585 37.3842 0.763184 43.6565 0.763184C49.9289 0.763184 55.0137 5.75585 55.0137 11.9146C55.0137 18.0734 49.9289 23.066 43.6565 23.066Z" fill="white"/>
<path id="Vector_21" d="M38.3713 22.5471C38.6511 22.5471 38.9205 22.3944 39.0656 22.1401C39.2625 21.7636 39.1174 21.3057 38.7444 21.1124C34.8896 19.1182 32.6927 15.0788 33.1487 10.8157C33.4492 8.05833 34.817 5.57571 37.0138 3.83584C39.2107 2.09597 41.9774 1.29217 44.7752 1.58724C47.5834 1.8823 50.1119 3.22536 51.8838 5.39256C53.6558 7.55977 54.4744 10.2561 54.1739 13.0134C54.1532 13.2067 54.1221 13.4 54.091 13.5933C54.0185 14.0105 54.3086 14.3971 54.7335 14.4684C55.1583 14.5294 55.5521 14.2547 55.6246 13.8375C55.6661 13.6239 55.6868 13.4 55.7179 13.1762C56.0599 10.0119 55.1272 6.90859 53.0859 4.43615C51.0445 1.9637 48.1534 0.417152 44.9307 0.0813882C41.708 -0.254376 38.5475 0.661344 36.0191 2.66575C33.501 4.67016 31.9259 7.50889 31.584 10.6732C31.0555 15.5571 33.5735 20.1865 37.9983 22.4758C38.1123 22.5369 38.2366 22.5674 38.361 22.5674L38.3713 22.5471Z" fill="#040000"/>
</g>
</g>
<g id="Group_10">
<g id="Group_11">
<path id="Vector_22" d="M154.306 84.1547C152.793 87.4207 151.125 90.6257 149.57 93.8715C147.083 99.03 144.648 104.219 141.902 109.256C141.125 110.69 139.674 112.918 137.809 112.918H93.4168C88.4014 112.918 90.1941 108.523 90.1941 108.523L99.8622 80.0441C101.655 75.4757 105.593 76.1777 105.593 76.1777H153.228C153.228 76.1777 157.031 76.8289 156.057 80.8072L154.306 84.1445V84.1547Z" fill="#B3B7B9"/>
<path id="Vector_23" d="M93.4163 113.682H137.809C139.508 113.682 141.125 112.308 142.586 109.612C144.959 105.247 147.145 100.699 149.259 96.3032L150.275 94.197C150.886 92.915 151.518 91.6534 152.15 90.3815C153.103 88.4585 154.088 86.4745 155.01 84.4904L156.751 81.1735C156.782 81.1226 156.803 81.0616 156.813 81.0005C157.165 79.5659 157.01 78.3246 156.337 77.3274C155.3 75.7809 153.435 75.4451 153.352 75.435C153.311 75.435 153.259 75.4248 153.217 75.4248H105.644C104.027 75.1704 100.701 75.7606 99.1259 79.7795L89.4475 108.289C89.4475 108.289 88.546 110.548 89.6651 112.166C90.3594 113.183 91.6236 113.692 93.4059 113.692L93.4163 113.682ZM155.331 80.5528L153.622 83.8087C153.622 83.8087 153.611 83.8291 153.601 83.8392C152.689 85.8131 151.705 87.787 150.751 89.71C150.119 90.9818 149.487 92.2639 148.865 93.5459L147.85 95.652C145.746 100.027 143.57 104.565 141.207 108.899C140.047 111.036 138.866 112.166 137.798 112.166H93.4059C92.1728 112.166 91.3438 111.881 90.95 111.311C90.4008 110.527 90.7324 109.245 90.9086 108.808L100.587 80.2984C102.1 76.4321 105.312 76.9205 105.447 76.9408C105.488 76.9408 105.54 76.951 105.582 76.951H153.155C153.404 77.012 154.482 77.3071 155.062 78.1719C155.466 78.7824 155.559 79.5862 155.331 80.5528Z" fill="#040000"/>
</g>
<path id="Vector_24" d="M94.3283 110.283C94.6495 110.283 94.95 110.08 95.064 109.764L104.825 81.6823C104.96 81.2854 104.742 80.8479 104.338 80.7157C103.934 80.5834 103.489 80.7971 103.354 81.1939L93.5926 109.276C93.4579 109.673 93.6755 110.11 94.0796 110.243C94.1625 110.273 94.2454 110.283 94.3283 110.283Z" fill="#040000"/>
<g id="Group_12">
<path id="Vector_25" d="M58.1942 112.918H138.254C139.398 112.918 140.326 113.83 140.326 114.953V116.571C140.326 117.695 139.398 118.606 138.254 118.606H58.1942C57.0496 118.606 56.1217 117.695 56.1217 116.571V114.953C56.1217 113.83 57.0496 112.918 58.1942 112.918Z" fill="#B3B7B9"/>
<path id="Vector_26" d="M58.1944 119.369H138.254C139.829 119.369 141.104 118.118 141.104 116.571V114.953C141.104 113.407 139.829 112.155 138.254 112.155H58.1944C56.6193 112.155 55.3447 113.407 55.3447 114.953V116.571C55.3447 118.118 56.6193 119.369 58.1944 119.369ZM138.254 113.681C138.969 113.681 139.549 114.251 139.549 114.953V116.571C139.549 117.273 138.969 117.843 138.254 117.843H58.1944C57.4794 117.843 56.8991 117.273 56.8991 116.571V114.953C56.8991 114.251 57.4794 113.681 58.1944 113.681H138.254Z" fill="#040000"/>
</g>
<g id="Group_13">
<path id="Vector_27" d="M92.0381 112.918C92.0381 112.918 90.7842 116.357 92.0381 118.321V112.918Z" fill="#B3B7B9"/>
<path id="Vector_28" d="M92.0383 119.084C92.1834 119.084 92.3181 119.043 92.4528 118.962C92.8155 118.738 92.9295 118.27 92.7015 117.914C91.8414 116.571 92.4632 114.038 92.7741 113.173C92.9191 112.776 92.7119 112.338 92.3077 112.196C91.8933 112.053 91.458 112.267 91.313 112.654C91.2611 112.806 89.9451 116.469 91.3855 118.718C91.5306 118.952 91.7896 119.074 92.0487 119.074L92.0383 119.084Z" fill="#040000"/>
</g>
</g>
<g id="Group_14">
<path id="Vector_29" d="M2.24884 108.838H45.5635V117.039H2.24884V108.838Z" fill="white"/>
<g id="Group_15">
<path id="Vector_30" d="M35.3043 106.61H42.6615C45.335 106.61 47.5215 108.757 47.5215 111.382V114.445C47.5215 117.07 45.335 119.217 42.6615 119.217H35.5115L26.0403 119.237H2.17582C1.409 119.237 0.776909 118.616 0.776909 117.863C0.776909 117.11 1.409 116.49 2.17582 116.49H42.7341C44.4542 116.49 44.4542 114.526 44.4542 114.526V111.555C44.4542 109.428 42.7341 109.378 42.7341 109.378H2.17582C1.409 109.378 0.776909 108.757 0.776909 108.004C0.776909 107.251 1.409 106.63 2.17582 106.63H35.3043V106.61Z" fill="#5084B3"/>
<path id="Vector_31" d="M2.176 120L42.6617 119.98C45.7704 119.98 48.2988 117.497 48.2988 114.445V111.382C48.2988 108.33 45.7704 105.847 42.6617 105.847H2.176C0.973969 105.847 -8.39233e-05 106.814 -8.39233e-05 107.994C-8.39233e-05 109.174 0.973969 110.13 2.176 110.13H42.7343C42.9311 110.141 43.6772 110.293 43.6772 111.545V114.516C43.6772 114.79 43.5943 115.716 42.7343 115.716H2.176C0.973969 115.716 -8.39233e-05 116.673 -8.39233e-05 117.853C-8.39233e-05 119.033 0.973969 119.99 2.176 119.99V120ZM42.6617 107.373C44.9103 107.373 46.7445 109.174 46.7445 111.382V114.445C46.7445 116.652 44.9103 118.453 42.6617 118.453L2.176 118.474C1.83405 118.474 1.55427 118.199 1.55427 117.863C1.55427 117.527 1.84441 117.253 2.176 117.253H42.7343C44.5684 117.253 45.2316 115.625 45.2316 114.526V111.555C45.2316 109.205 43.4492 108.635 42.755 108.614H2.176C1.83405 108.614 1.55427 108.34 1.55427 108.004C1.55427 107.668 1.84441 107.393 2.176 107.393H42.6617V107.373Z" fill="#040000"/>
</g>
<path id="Vector_32" d="M11.6576 111.982H25.1909C25.481 111.982 25.709 111.758 25.709 111.474C25.709 111.189 25.481 110.965 25.1909 110.965H11.6576C11.3675 110.965 11.1395 111.189 11.1395 111.474C11.1395 111.758 11.3675 111.982 11.6576 111.982Z" fill="#040000"/>
<g id="Group_16">
<path id="Vector_33" d="M22.0928 111.616V118.168L19.2535 116.612L16.7251 118.168V111.616H22.0928Z" fill="#FC9C3E"/>
<path id="Vector_34" d="M16.7249 118.677C16.8182 118.677 16.9218 118.647 17.0047 118.596L19.2637 117.202L21.8439 118.616C21.9994 118.708 22.1962 118.698 22.362 118.616C22.5175 118.525 22.6211 118.362 22.6211 118.179V111.626C22.6211 111.341 22.3931 111.117 22.103 111.117H16.7353C16.4451 111.117 16.2172 111.341 16.2172 111.626V118.179C16.2172 118.362 16.3208 118.535 16.4866 118.626C16.5695 118.667 16.6524 118.687 16.7353 118.687L16.7249 118.677ZM21.5745 112.125V117.304L19.502 116.164C19.3362 116.072 19.129 116.083 18.9735 116.174L17.243 117.243V112.125H21.5745Z" fill="#040000"/>
</g>
<path id="Vector_35" d="M2.16521 116.886C2.59006 116.886 2.94238 116.54 2.94238 116.123V109.744C2.94238 109.327 2.59006 108.981 2.16521 108.981C1.74035 108.981 1.38803 109.327 1.38803 109.744V116.123C1.38803 116.54 1.74035 116.886 2.16521 116.886Z" fill="#040000"/>
</g>
</g>
<defs>
<clipPath id="clip0_1978_57217">
<rect width="157" height="120" fill="white" transform="matrix(-1 0 0 1 157 0)"/>
</clipPath>
</defs>
</svg>
