<svg width="118" height="90" viewBox="0 0 118 90" fill="none" xmlns="http://www.w3.org/2000/svg">
<g id="&#237;&#152;&#184;&#235;&#158;&#145;&#236;&#157;&#180;" clip-path="url(#clip0_610_10846)">
<g id="Group">
<g id="Group_2">
<path id="Vector" d="M87.5917 69.7321L70.4479 67.2902L52.1465 70.167L44.1533 80.0263V88.9317L71.6053 89.1072H94.614C94.614 89.1072 99.9428 75.8445 87.5917 69.7321Z" fill="white"/>
<path id="Vector_2" d="M94.6057 89.6795H71.5971C71.5971 89.6795 71.5427 89.6795 71.5116 89.6795L44.1451 89.504C43.8266 89.504 43.5625 89.2445 43.5625 88.9317V80.0263C43.5625 79.8966 43.6091 79.7745 43.6868 79.6676L51.68 69.8084C51.7732 69.6939 51.8975 69.6252 52.0451 69.6023L70.3464 66.7254C70.4008 66.7178 70.4629 66.7178 70.5251 66.7254L87.669 69.1674C87.7311 69.175 87.7932 69.1979 87.8476 69.2208C100.525 75.4935 95.2039 89.1758 95.1495 89.3132C95.0641 89.5345 94.8465 89.6719 94.6057 89.6719V89.6795ZM71.6048 88.5348H94.2018C94.9553 86.3829 98.0625 75.6156 87.4126 70.2815L70.4474 67.8625L52.4568 70.6936L44.7277 80.2247V88.3593L67.6509 88.5043C67.2625 88.2525 66.9052 87.9625 66.579 87.6496C65.538 86.6118 64.9943 85.3375 65.0098 83.9639C65.072 79.2555 69.2123 75.3866 74.2382 75.3256C76.5142 75.2874 79.0621 75.8521 81.3458 76.8899C81.641 77.0197 81.7653 77.3631 81.6333 77.653C81.5012 77.943 81.1516 78.0651 80.8565 77.9354C78.7358 76.9662 76.3976 76.4397 74.2537 76.4779C69.8493 76.5313 66.2294 79.8966 66.175 83.9868C66.1595 85.3222 66.8353 86.2837 67.4101 86.8484C68.4433 87.8709 70.0124 88.5196 71.5271 88.5348H71.6048Z" fill="#040000"/>
</g>
<path id="Vector_3" d="M54.81 89.2445C54.6158 89.2445 54.4294 89.1529 54.3129 88.9774C54.142 88.7103 54.2274 88.3593 54.4993 88.1914C55.2839 87.7107 55.5868 85.3832 55.5558 83.8875C55.3305 81.7509 54.5304 80.1255 53.1865 79.1029C51.0426 77.4775 48.1762 77.8896 48.1451 77.8972C47.8344 77.943 47.5315 77.7293 47.4771 77.4241C47.4227 77.1188 47.6402 76.8212 47.9587 76.7678C48.0908 76.7449 51.3378 76.2718 53.8857 78.1948C55.5014 79.4158 56.4568 81.3083 56.7132 83.8189C56.7287 84.5743 56.7287 88.1685 55.113 89.1606C55.0198 89.2216 54.911 89.2445 54.8023 89.2445H54.81Z" fill="#040000"/>
</g>
<g id="Group_3">
<g id="Group_4">
<path id="Vector_4" d="M52.7244 20.7079C56.9906 20.2637 60.0473 16.18 59.5518 11.5866C59.0562 6.99326 55.196 3.6297 50.9298 4.07389C46.6635 4.51809 43.6068 8.60182 44.1024 13.1952C44.598 17.7885 48.4582 21.1521 52.7244 20.7079Z" fill="white"/>
<path id="Vector_5" d="M45.1944 17.1774C44.9925 17.1774 44.7905 17.0706 44.6817 16.8798C44.0525 15.7657 43.6641 14.5447 43.5243 13.2551C43.268 10.8895 43.8894 8.57726 45.2643 6.73819C46.6548 4.88386 48.6434 3.73158 50.8728 3.50265C54.5393 3.1211 57.996 5.30356 59.4797 8.93592C59.5962 9.2259 59.4564 9.56166 59.1534 9.68376C58.8583 9.79822 58.5165 9.66086 58.3922 9.36326C57.1027 6.21165 54.1353 4.31917 50.9893 4.6473C49.0939 4.8457 47.3928 5.8301 46.1965 7.42498C44.9925 9.03512 44.4565 11.065 44.6817 13.1406C44.806 14.2776 45.1478 15.3536 45.6993 16.338C45.8547 16.6127 45.7537 16.9637 45.4741 17.1164C45.3886 17.1621 45.2876 17.185 45.1944 17.185V17.1774Z" fill="#040000"/>
</g>
<g id="Group_5">
<g id="Group_6">
<path id="Vector_6" d="M84.0344 70.3732C84.0344 70.3732 107.548 67.4581 105.715 50.5097C105.07 44.5651 103.431 39.7347 99.9743 37.3462C99.9743 37.3462 99.0965 5.48679 67.9858 8.72233C32.6261 12.4081 38.6307 43.7334 38.6307 43.7334C33.7058 46.4653 32.4164 52.1274 33.0533 58.072C34.8866 75.0204 65.4535 72.3038 65.4535 72.3038L84.0344 70.3655V70.3732Z" fill="white"/>
<g id="Group_7">
<path id="Vector_7" d="M38.3971 42.5124C38.1019 42.5124 37.8455 42.2911 37.8145 41.9934C37.1386 34.8585 37.3018 11.3397 67.9231 8.15759C70.1292 7.92866 72.2653 7.86762 74.2695 7.97445C74.588 7.98971 74.8365 8.26443 74.821 8.5773C74.8055 8.89017 74.4947 9.12673 74.2073 9.1191C72.2576 9.01227 70.1913 9.07332 68.0473 9.29461C38.4903 12.3775 38.3271 35.0187 38.9797 41.8866C39.0107 42.1995 38.7777 42.4818 38.4514 42.5124C38.4359 42.5124 38.4126 42.5124 38.3971 42.5124Z" fill="#040000"/>
<path id="Vector_8" d="M99.8417 36.1633C99.5465 36.1633 99.298 35.942 99.2591 35.652C98.8785 32.2028 97.3715 23.473 91.5766 16.9866C91.3669 16.7501 91.3902 16.3838 91.631 16.1777C91.8718 15.9717 92.2447 15.9946 92.4544 16.2311C98.4746 22.9617 100.028 31.9663 100.424 35.5299C100.455 35.8428 100.23 36.1252 99.9039 36.1633C99.8806 36.1633 99.865 36.1633 99.8417 36.1633Z" fill="#040000"/>
<path id="Vector_9" d="M77.9595 71.5789C77.6643 71.5789 77.4157 71.3576 77.3769 71.0676C77.3458 70.7547 77.5711 70.4724 77.8973 70.4342L83.9719 69.8008C84.1894 69.7703 106.88 66.7561 105.132 50.5631C104.425 44.0462 102.631 39.8721 99.6399 37.8117C99.3757 37.6286 99.3136 37.2699 99.5 37.0181C99.6865 36.7586 100.044 36.6976 100.308 36.8807C103.594 39.1471 105.551 43.5884 106.289 50.4486C108.161 67.7557 84.3447 70.915 84.1039 70.9455L78.0216 71.5789C78.0216 71.5789 77.9828 71.5789 77.9595 71.5789Z" fill="#040000"/>
<path id="Vector_10" d="M59.4561 73.0287H59.4406C49.9481 72.8379 33.8219 70.6478 32.478 58.1406C31.7168 51.0514 33.7986 45.7631 38.3428 43.2449C38.6225 43.0923 38.9798 43.1915 39.1352 43.4662C39.2905 43.7409 39.1973 44.0919 38.9099 44.2445C33.6354 47.1672 33.1228 53.3483 33.6277 58.0261C34.8861 69.6634 50.3521 71.7085 59.4561 71.8916C59.7746 71.8916 60.031 72.1587 60.0232 72.4792C60.0232 72.7921 59.7591 73.0363 59.4406 73.0363L59.4561 73.0287Z" fill="#040000"/>
</g>
</g>
<g id="Group_8">
<path id="Vector_11" d="M46.9026 44.6952C47.7473 44.6073 48.3313 43.6017 48.207 42.4491C48.0826 41.2966 47.2971 40.4336 46.4523 40.5215C45.6076 40.6095 45.0237 41.6151 45.148 42.7676C45.2723 43.9202 46.0579 44.7832 46.9026 44.6952Z" fill="#040000"/>
<path id="Vector_12" d="M35.0496 48.4111C34.7156 48.5256 34.4515 48.64 34.0786 48.8766C33.4572 50.3417 33.0998 51.9748 32.9678 53.6918C33.628 53.0889 35.3991 50.998 37.4343 49.5558C38.8792 48.5256 37.9393 47.4267 35.0496 48.4111Z" fill="#040000"/>
<path id="Vector_13" d="M36.1445 58.4229C34.9016 58.7053 34.1559 59.2471 33.4102 59.9797C33.9151 61.9408 34.8472 63.5968 36.0746 64.9932C36.8358 62.6429 39.2206 57.7133 36.1445 58.4229Z" fill="#040000"/>
<path id="Vector_14" d="M65.686 42.726C66.8658 42.726 67.8222 41.7864 67.8222 40.6275C67.8222 39.4685 66.8658 38.5289 65.686 38.5289C64.5062 38.5289 63.5498 39.4685 63.5498 40.6275C63.5498 41.7864 64.5062 42.726 65.686 42.726Z" fill="#040000"/>
<path id="Vector_15" d="M51.5254 44.2064C51.5798 44.7329 52.543 45.6792 53.8558 45.5494C55.1686 45.4197 56.6367 44.214 56.5823 43.6798C56.528 43.1457 55.6424 42.581 53.5606 42.7946C51.4788 43.0083 51.471 43.6722 51.5254 44.2064Z" fill="#040000"/>
<path id="Vector_16" d="M51.292 53.7757C49.7462 53.7757 48.379 53.2721 47.478 52.3564C46.7788 51.6467 46.0098 50.3113 46.3361 48.0372C46.942 43.7791 51.8125 43.2984 54.1506 43.0694L54.8653 42.9931C57.3044 42.7261 63.0216 42.1003 64.5286 46.1447C65.3365 48.3043 64.8626 49.7618 64.3344 50.6012C63.5343 51.868 62.004 52.7074 60.132 52.8982C58.1045 53.1042 56.4266 51.9748 55.5256 51.1965C55.0206 52.2801 53.9487 53.5468 52.0766 53.7376C51.8125 53.7681 51.5561 53.7757 51.2998 53.7757H51.292ZM57.8637 43.9317C56.7529 43.9317 55.7042 44.0462 54.9896 44.1225L54.2672 44.1988C52.0688 44.4125 47.9751 44.8169 47.4935 48.1898C47.2838 49.655 47.5634 50.7844 48.3247 51.5551C49.117 52.3564 50.4764 52.7456 51.9601 52.5929C54.1895 52.364 54.6866 50.1129 54.7099 50.0213C54.7565 49.8076 54.9197 49.6397 55.1372 49.5787C55.3547 49.5176 55.5799 49.594 55.7275 49.7695C55.7431 49.7924 57.6695 51.9977 60.0077 51.7535C61.4914 51.6009 62.7342 50.937 63.3401 49.9908C63.915 49.0827 63.946 47.9151 63.4333 46.5263C62.641 44.3896 60.1087 43.9241 57.8715 43.9241L57.8637 43.9317Z" fill="#040000"/>
<path id="Vector_17" d="M85.5262 43.0237C88.5013 43.4663 91.2046 44.1149 93.0456 45.4656C96.6887 48.1364 96.1683 53.1424 87.4682 47.6862C84.9902 46.1676 81.7587 45.5572 79.405 44.7178C77.463 44.0233 77.5718 43.1229 79.84 42.9779C83.3667 42.7566 85.1067 42.9397 85.5184 43.0237H85.5262Z" fill="#040000"/>
<path id="Vector_18" d="M61.7017 15.7275L57.1342 16.2007C57.1031 15.4223 56.5982 14.7126 55.8058 14.4532C54.7882 14.125 53.6929 14.6668 53.3589 15.6741C53.2579 15.9794 53.1647 16.2999 53.0793 16.628L48.7292 17.0782C47.665 17.1927 46.8882 18.1313 47.0047 19.1767C47.1213 20.2222 48.0767 20.9853 49.1409 20.8708L52.4578 20.5274C52.3646 21.5958 52.318 22.6565 52.2947 23.6332L50.2673 23.8469C49.2031 23.9614 48.4263 24.9 48.5428 25.9454C48.6593 26.9909 49.6148 27.754 50.679 27.6395L52.3569 27.464C52.3724 27.8379 52.3957 28.0898 52.3957 28.1432C52.4734 29.1962 53.3978 29.9899 54.4697 29.9136C54.493 29.9136 54.5164 29.9136 54.5397 29.9136C55.5728 29.8067 56.3418 28.9139 56.2719 27.8837C56.2719 27.8685 56.2486 27.5632 56.2331 27.0672L59.9073 26.6856C60.9715 26.5712 61.7483 25.6326 61.6318 24.5871C61.5153 23.5417 60.5598 22.7786 59.4956 22.893L56.202 23.2364C56.2331 22.2291 56.2952 21.1608 56.4117 20.123L62.1367 19.5278C63.2009 19.4133 63.9777 18.4747 63.8612 17.4292C63.7447 16.3838 62.7892 15.6207 61.725 15.7352L61.7017 15.7275Z" fill="#040000"/>
<path id="Vector_19" d="M88.4234 52.8447C85.7667 51.8832 81.0205 51.4483 80.7875 52.3716C80.5389 53.3713 84.1898 55.424 85.8599 56.3855C87.5301 57.347 92.5249 61.6814 94.3503 59.6058C96.1758 57.5302 94.0862 54.8975 88.4156 52.8371L88.4234 52.8447Z" fill="#040000"/>
</g>
</g>
<g id="Group_9">
<path id="Vector_20" d="M84.9658 17.2995C89.6678 17.2995 93.4795 13.555 93.4795 8.93596C93.4795 4.31689 89.6678 0.572388 84.9658 0.572388C80.2639 0.572388 76.4521 4.31689 76.4521 8.93596C76.4521 13.555 80.2639 17.2995 84.9658 17.2995Z" fill="white"/>
<path id="Vector_21" d="M88.9275 16.9103C88.7178 16.9103 88.5158 16.7959 88.4071 16.6051C88.2595 16.3228 88.3682 15.9794 88.6479 15.8344C91.5376 14.3387 93.1844 11.3092 92.8426 8.11181C92.6173 6.04381 91.5919 4.18184 89.9451 2.87694C88.2983 1.57204 86.2243 0.969191 84.1269 1.19049C82.0218 1.41179 80.1264 2.41908 78.7981 4.04448C77.4698 5.66989 76.8561 7.6921 77.0814 9.7601C77.0969 9.90509 77.1202 10.0501 77.1435 10.1951C77.1979 10.5079 76.9804 10.7979 76.6619 10.8513C76.3434 10.8971 76.0482 10.6911 75.9939 10.3782C75.9628 10.218 75.9473 10.0501 75.924 9.8822C75.6676 7.50896 76.3667 5.1815 77.897 3.32717C79.4273 1.47284 81.5946 0.312925 84.0104 0.0611022C86.4262 -0.190721 88.7955 0.496069 90.6908 1.99938C92.5785 3.50268 93.7592 5.63173 94.0155 8.00497C94.4117 11.6679 92.5241 15.14 89.2072 16.8569C89.1217 16.9027 89.0285 16.9256 88.9353 16.9256L88.9275 16.9103Z" fill="#040000"/>
</g>
</g>
<g id="Group_10">
<g id="Group_11">
<path id="Vector_22" d="M2.02031 63.1159C3.15444 65.5655 4.40508 67.9692 5.57027 70.4035C7.43458 74.2724 9.26005 78.1643 11.3186 81.9416C11.9012 83.0176 12.9887 84.6888 14.3869 84.6888H47.6648C51.4245 84.6888 50.0807 81.3922 50.0807 81.3922L42.8332 60.033C41.4893 56.6067 38.5375 57.1332 38.5375 57.1332H2.82818C2.82818 57.1332 -0.0226591 57.6216 0.707529 60.6053L2.02031 63.1083V63.1159Z" fill="#B3B7B9"/>
<path id="Vector_23" d="M47.6644 85.2611H14.3865C13.1125 85.2611 11.9007 84.231 10.8055 82.2087C9.02659 78.9351 7.38756 75.524 5.80289 72.2274L5.04163 70.6478C4.58332 69.6863 4.10948 68.74 3.63563 67.7862C2.92098 66.3439 2.18302 64.8559 1.49168 63.3678L0.18666 60.8801C0.163356 60.8419 0.14782 60.7962 0.140052 60.7504C-0.124058 59.6744 -0.00753888 58.7434 0.497378 57.9956C1.27417 56.8357 2.67241 56.5839 2.73455 56.5762C2.76562 56.5762 2.80446 56.5686 2.83553 56.5686H38.4982C39.71 56.3778 42.2035 56.8204 43.3843 59.8347L50.6395 81.2167C50.6395 81.2167 51.3154 82.9108 50.4764 84.1241C49.956 84.8872 49.0083 85.2688 47.6722 85.2688L47.6644 85.2611ZM1.25087 60.4146L2.53258 62.8565C2.53258 62.8565 2.54035 62.8718 2.54812 62.8794C3.2317 64.3598 3.96966 65.8403 4.68431 67.2825C5.15815 68.2364 5.632 69.1979 6.09807 70.1594L6.85933 71.739C8.43623 75.0203 10.0675 78.4238 11.8386 81.6746C12.7086 83.2771 13.5942 84.1241 14.3943 84.1241H47.6722C48.5966 84.1241 49.218 83.9105 49.5132 83.4831C49.9249 82.8955 49.6763 81.934 49.5443 81.6059L42.289 60.2238C41.1549 57.3241 38.7468 57.6903 38.6458 57.7056C38.6147 57.7056 38.5759 57.7132 38.5448 57.7132H2.88214C2.69571 57.759 1.88784 57.9803 1.45284 58.629C1.14989 59.0868 1.07998 59.6897 1.25087 60.4146Z" fill="#040000"/>
</g>
<path id="Vector_24" d="M46.9809 82.7124C46.7401 82.7124 46.5148 82.5597 46.4293 82.3232L39.1119 61.2616C39.0109 60.964 39.1741 60.6359 39.477 60.5367C39.78 60.4375 40.114 60.5977 40.215 60.8953L47.5324 81.9569C47.6334 82.2545 47.4702 82.5826 47.1673 82.6818C47.1052 82.7047 47.043 82.7124 46.9809 82.7124Z" fill="#040000"/>
<g id="Group_12">
<path id="Vector_25" d="M74.0678 84.6888H14.0526C13.1946 84.6888 12.499 85.3721 12.499 86.215V87.4284C12.499 88.2713 13.1946 88.9546 14.0526 88.9546H74.0678C74.9259 88.9546 75.6214 88.2713 75.6214 87.4284V86.215C75.6214 85.3721 74.9259 84.6888 74.0678 84.6888Z" fill="#B3B7B9"/>
<path id="Vector_26" d="M74.0674 89.5268H14.0522C12.8715 89.5268 11.916 88.5882 11.916 87.4283V86.215C11.916 85.0551 12.8715 84.1165 14.0522 84.1165H74.0674C75.2482 84.1165 76.2036 85.0551 76.2036 86.215V87.4283C76.2036 88.5882 75.2482 89.5268 74.0674 89.5268ZM14.0522 85.2611C13.5162 85.2611 13.0812 85.6884 13.0812 86.215V87.4283C13.0812 87.9548 13.5162 88.3822 14.0522 88.3822H74.0674C74.6034 88.3822 75.0384 87.9548 75.0384 87.4283V86.215C75.0384 85.6884 74.6034 85.2611 74.0674 85.2611H14.0522Z" fill="#040000"/>
</g>
<g id="Group_13">
<path id="Vector_27" d="M48.6973 84.6888C48.6973 84.6888 49.6372 87.2681 48.6973 88.7409V84.6888Z" fill="#B3B7B9"/>
<path id="Vector_28" d="M48.6975 89.3132C48.5888 89.3132 48.4878 89.2827 48.3868 89.2216C48.1149 89.0537 48.0295 88.7027 48.2004 88.4356C48.8451 87.4283 48.379 85.5282 48.146 84.8796C48.0373 84.582 48.1926 84.2538 48.4956 84.147C48.8063 84.0402 49.1325 84.2004 49.2413 84.4904C49.2801 84.6049 50.2667 87.352 49.1869 89.0385C49.0782 89.214 48.884 89.3056 48.6898 89.3056L48.6975 89.3132Z" fill="#040000"/>
</g>
</g>
<g id="Group_14">
<path id="Vector_29" d="M116.007 81.6288H83.5371V87.7794H116.007V81.6288Z" fill="white"/>
<g id="Group_15">
<path id="Vector_30" d="M91.2278 79.9575H85.7125C83.7084 79.9575 82.0693 81.5677 82.0693 83.5365V85.8334C82.0693 87.8022 83.7084 89.4123 85.7125 89.4123H91.0724L98.1723 89.4276H116.062C116.637 89.4276 117.111 88.9621 117.111 88.3974C117.111 87.8327 116.637 87.3672 116.062 87.3672H85.6581C84.3686 87.3672 84.3687 85.8944 84.3687 85.8944V83.6662C84.3687 82.0713 85.6581 82.0332 85.6581 82.0332H116.062C116.637 82.0332 117.111 81.5677 117.111 81.003C117.111 80.4383 116.637 79.9728 116.062 79.9728H91.2278V79.9575Z" fill="#5084B3"/>
<path id="Vector_31" d="M116.062 90L85.7121 89.9847C83.3817 89.9847 81.4863 88.1228 81.4863 85.8335V83.5365C81.4863 81.2472 83.3817 79.3853 85.7121 79.3853H116.062C116.963 79.3853 117.693 80.1102 117.693 80.9954C117.693 81.8806 116.963 82.5979 116.062 82.5979H85.6577C85.5101 82.6055 84.9508 82.72 84.9508 83.6586V85.8869C84.9508 86.0929 85.013 86.7873 85.6577 86.7873H116.062C116.963 86.7873 117.693 87.5046 117.693 88.3898C117.693 89.275 116.963 89.9923 116.062 89.9923V90ZM85.7121 80.5299C84.0264 80.5299 82.6515 81.8806 82.6515 83.5365V85.8335C82.6515 87.4894 84.0264 88.8401 85.7121 88.8401L116.062 88.8553C116.318 88.8553 116.528 88.6493 116.528 88.3975C116.528 88.1456 116.31 87.9396 116.062 87.9396H85.6577C84.2828 87.9396 83.7856 86.7186 83.7856 85.8945V83.6662C83.7856 81.9035 85.1217 81.4761 85.6422 81.4609H116.062C116.318 81.4609 116.528 81.2549 116.528 81.003C116.528 80.7512 116.31 80.5452 116.062 80.5452H85.7121V80.5299Z" fill="#040000"/>
</g>
<path id="Vector_32" d="M108.954 83.9867H98.8093C98.5918 83.9867 98.4209 83.8189 98.4209 83.6052C98.4209 83.3915 98.5918 83.2236 98.8093 83.2236H108.954C109.172 83.2236 109.343 83.3915 109.343 83.6052C109.343 83.8189 109.172 83.9867 108.954 83.9867Z" fill="#040000"/>
<g id="Group_16">
<path id="Vector_33" d="M101.132 83.712V88.6264L103.26 87.4589L105.156 88.6264V83.712H101.132Z" fill="#FC9C3E"/>
<path id="Vector_34" d="M105.155 89.008C105.085 89.008 105.008 88.9851 104.946 88.9469L103.252 87.9015L101.318 88.9622C101.201 89.0309 101.054 89.0232 100.93 88.9622C100.813 88.8935 100.735 88.7714 100.735 88.634V83.7197C100.735 83.506 100.906 83.3381 101.124 83.3381H105.148C105.365 83.3381 105.536 83.506 105.536 83.7197V88.634C105.536 88.7714 105.458 88.9011 105.334 88.9698C105.272 89.0003 105.21 89.0156 105.148 89.0156L105.155 89.008ZM101.52 84.0936V87.9778L103.074 87.1231C103.198 87.0544 103.353 87.0621 103.47 87.1307L104.767 87.932V84.0936H101.52Z" fill="#040000"/>
</g>
<path id="Vector_35" d="M116.069 87.6649C115.75 87.6649 115.486 87.4054 115.486 87.0926V82.3079C115.486 81.995 115.75 81.7356 116.069 81.7356C116.387 81.7356 116.652 81.995 116.652 82.3079V87.0926C116.652 87.4054 116.387 87.6649 116.069 87.6649Z" fill="#040000"/>
</g>
</g>
<defs>
<clipPath id="clip0_610_10846">
<rect width="117.692" height="90" fill="white"/>
</clipPath>
</defs>
</svg>
