<svg width="58" height="62" viewBox="0 0 58 62" fill="none" xmlns="http://www.w3.org/2000/svg">
<g id="Group 682">
<g id="Group">
<g id="Group_2">
<g id="Group_3">
<path id="Vector" d="M54.9794 55.1131C54.4836 55.1131 54.0849 54.7074 54.0849 54.2029V22.3438C54.0849 20.3416 52.48 18.7086 50.5123 18.7086H8.38172C6.41395 18.7086 4.80908 20.3416 4.80908 22.3438V54.2029C4.80908 54.7074 4.41041 55.1131 3.91464 55.1131C3.41887 55.1131 3.0202 54.7074 3.0202 54.2029V22.3438C3.0202 19.3327 5.42752 16.8884 8.38172 16.8884H50.5072C53.4665 16.8884 55.8687 19.3379 55.8687 22.3438V54.2029C55.8687 54.7074 55.47 55.1131 54.9742 55.1131H54.9794Z" fill="white"/>
<path id="Vector_2" d="M52.6385 61.645H6.2555C3.29619 61.645 0.893982 59.1955 0.893982 56.1896V54.3225C0.893982 53.8181 1.29265 53.4124 1.78842 53.4124H57.1055C57.6013 53.4124 58 53.8181 58 54.3225V56.1896C58 59.2007 55.5927 61.645 52.6385 61.645ZM2.68286 55.2274V56.1844C2.68286 58.1866 4.28773 59.8196 6.2555 59.8196H52.6385C54.6062 59.8196 56.2111 58.1866 56.2111 56.1844V55.2274H2.68286Z" fill="white"/>
</g>
<g id="Group_4">
<g id="Group_5">
<path id="Vector_3" d="M29.4495 16.3371C29.332 16.3371 29.2093 16.3111 29.102 16.2643L13.3088 9.43587C12.9766 9.29545 12.7619 8.96261 12.7619 8.59856C12.7619 8.23452 12.9766 7.90168 13.3088 7.76126L29.0969 0.927625C29.3218 0.828813 29.5722 0.828813 29.7971 0.927625L45.5903 7.76126C45.9225 7.90168 46.1372 8.23452 46.1372 8.59856C46.1372 8.96261 45.9225 9.29545 45.5903 9.43587L29.7971 16.2643C29.6847 16.3111 29.5671 16.3371 29.4495 16.3371ZM15.941 8.59856L29.4495 14.4389L42.9581 8.59856L29.4495 2.75305L15.941 8.59856Z" fill="white"/>
<g id="Group_6">
<path id="Vector_4" d="M29.4496 15.427L19.7897 11.2509V19.8788C22.4883 21.0645 25.831 21.7666 29.4496 21.7666C33.0682 21.7666 36.4058 21.0645 39.1095 19.8788V11.2509L29.4496 15.427Z" fill="#FFAC11"/>
<path id="Vector_5" d="M29.4496 22.6767C25.8259 22.6767 22.3606 22.0006 19.437 20.716C19.1099 20.5704 18.8953 20.2428 18.8953 19.8787V11.2509C18.8953 10.944 19.0435 10.658 19.2939 10.4916C19.5444 10.3252 19.8613 10.294 20.1373 10.4136L29.4445 14.4389L38.7518 10.4136C39.0278 10.294 39.3447 10.3252 39.5951 10.4916C39.8455 10.658 39.9938 10.944 39.9938 11.2509V19.8787C39.9938 20.2428 39.7791 20.5704 39.452 20.716C36.5285 22.0006 33.0632 22.6767 29.4394 22.6767H29.4496ZM20.6841 19.2703C23.2703 20.3104 26.2859 20.8565 29.4496 20.8565C32.6134 20.8565 35.6289 20.3104 38.2151 19.2703V12.6291L29.8023 16.2695C29.5774 16.3683 29.327 16.3683 29.1021 16.2695L20.6892 12.6291V19.2703H20.6841Z" fill="white"/>
</g>
</g>
<path id="Vector_6" d="M42.0995 18.1885C41.6037 18.1885 41.205 17.7829 41.205 17.2784V10.58C41.205 10.0755 41.6037 9.66986 42.0995 9.66986C42.5952 9.66986 42.9939 10.0755 42.9939 10.58V17.2784C42.9939 17.7829 42.5952 18.1885 42.0995 18.1885Z" fill="white"/>
</g>
</g>
</g>
<g id="Group_7">
<g id="Group_8">
<path id="Vector_7" d="M11.9135 47.7697C11.6835 47.7697 11.4535 47.6813 11.2746 47.4993C10.927 47.1404 10.9321 46.5632 11.2848 46.2095L15.6497 41.8358C15.9972 41.4874 16.5594 41.4874 16.907 41.8358L21.2718 46.2095C21.6245 46.5632 21.6296 47.1404 21.2821 47.4993C20.9345 47.8581 20.3672 47.8633 20.0145 47.5097L16.2783 43.7652L12.5421 47.5097C12.3684 47.6865 12.1384 47.7697 11.9135 47.7697Z" fill="white"/>
<path id="Vector_8" d="M16.2732 54.4162C15.7774 54.4162 15.3788 54.0105 15.3788 53.5061V43.3596C15.3788 42.8552 15.7774 42.4495 16.2732 42.4495C16.769 42.4495 17.1677 42.8552 17.1677 43.3596V53.5061C17.1677 54.0105 16.769 54.4162 16.2732 54.4162Z" fill="white"/>
</g>
<g id="Group_9">
<path id="Vector_9" d="M33.8093 39.662C33.5793 39.662 33.3493 39.5736 33.1756 39.3968L29.4445 35.6003L25.7134 39.3968C25.3659 39.7504 24.7985 39.7504 24.451 39.3968C24.1034 39.0431 24.1034 38.4659 24.451 38.1122L28.8158 33.6709C29.1634 33.3172 29.7307 33.3172 30.0783 33.6709L34.4431 38.1122C34.7907 38.4659 34.7907 39.0431 34.4431 39.3968C34.2693 39.5736 34.0393 39.662 33.8093 39.662Z" fill="white"/>
<path id="Vector_10" d="M29.4496 54.4162C28.9538 54.4162 28.5551 54.0105 28.5551 53.5061V35.1998C28.5551 34.6954 28.9538 34.2897 29.4496 34.2897C29.9453 34.2897 30.344 34.6954 30.344 35.1998V53.5061C30.344 54.0105 29.9453 54.4162 29.4496 54.4162Z" fill="white"/>
</g>
<g id="Group_10">
<path id="Vector_11" d="M38.2559 32.7139C38.0259 32.7139 37.796 32.6255 37.6222 32.4487C37.2746 32.0951 37.2746 31.5178 37.6222 31.1642L41.987 26.7228C42.1557 26.5512 42.3806 26.4576 42.6208 26.4576C42.8559 26.4576 43.0859 26.5512 43.2546 26.7228L47.6194 31.1642C47.967 31.5178 47.967 32.0951 47.6194 32.4487C47.2719 32.8024 46.7045 32.8024 46.357 32.4487L42.6259 28.6523L38.8948 32.4487C38.7211 32.6255 38.4911 32.7139 38.2611 32.7139H38.2559Z" fill="white"/>
<path id="Vector_12" d="M42.6208 54.4162C42.125 54.4162 41.7264 54.0105 41.7264 53.5061V28.2518C41.7264 27.7473 42.125 27.3417 42.6208 27.3417C43.1166 27.3417 43.5153 27.7473 43.5153 28.2518V53.5061C43.5153 54.0105 43.1166 54.4162 42.6208 54.4162Z" fill="white"/>
</g>
</g>
</g>
</svg>
