<svg width="50" height="50" viewBox="0 0 50 50" fill="none" xmlns="http://www.w3.org/2000/svg">
<path d="M45.0046 9H29.0163C26.9408 9 25.2717 10.4605 25.2717 12.2723V37.1444C25.2717 35.3325 26.9518 33.872 29.0163 33.872H45.0046C45.0925 33.872 45.1694 33.872 45.2572 33.872V9.01098C45.1694 9.01098 45.0925 9.01098 45.0046 9.01098V9Z" stroke="#252F3E" stroke-width="2.4" stroke-linecap="round" stroke-linejoin="round"/>
<path d="M5.50574 9H21.5051C23.5695 9 25.2496 10.4605 25.2496 12.2723V37.1444C25.2496 35.3325 23.5695 33.872 21.5051 33.872H5.50574C5.41789 33.872 5.34102 33.872 5.25317 33.872V9.01098C5.34102 9.01098 5.41789 9.01098 5.50574 9.01098V9Z" stroke="#252F3E" stroke-width="2.4" stroke-linecap="round" stroke-linejoin="round"/>
<path d="M31 16H40" stroke="url(#paint0_linear_410_8053)" stroke-width="2.4" stroke-linecap="round" stroke-linejoin="round"/>
<path d="M31 22H37" stroke="url(#paint1_linear_410_8053)" stroke-width="2.4" stroke-linecap="round" stroke-linejoin="round"/>
<path d="M4.66016 42.58H45.85" stroke="#252F3E" stroke-width="2.4" stroke-linecap="round" stroke-linejoin="round"/>
<defs>
<linearGradient id="paint0_linear_410_8053" x1="39.25" y1="17" x2="39.1273" y2="15.481" gradientUnits="userSpaceOnUse">
<stop stop-color="#FF8000"/>
<stop offset="1" stop-color="#FFB348"/>
</linearGradient>
<linearGradient id="paint1_linear_410_8053" x1="36.5" y1="23" x2="36.3174" y2="21.4932" gradientUnits="userSpaceOnUse">
<stop stop-color="#FF8000"/>
<stop offset="1" stop-color="#FFB348"/>
</linearGradient>
</defs>
</svg>
