<svg width="40" height="40" viewBox="0 0 40 40" fill="none" xmlns="http://www.w3.org/2000/svg">
<path fill-rule="evenodd" clip-rule="evenodd" d="M7.85095 10.7058C7.32097 10.7058 7.00549 11.1238 7.10704 11.5856L7.1073 11.5868L8.49176 17.9206C8.70248 18.8464 9.50118 19.4842 10.401 19.4842L18.2507 19.4842L18.2507 21.4842L10.401 21.4842C8.53115 21.4842 6.94828 20.1637 6.54026 18.3584L6.5387 18.3515L6.53873 18.3515L5.15369 12.0151C5.15364 12.0149 5.15359 12.0146 5.15354 12.0144C4.76146 10.2292 6.12233 8.70581 7.85095 8.70581H31.8598C33.4883 8.70581 35.0933 10.1379 34.6806 12.0151L34.6767 12.032L33.1692 18.3638C32.7585 20.1786 31.1744 21.4842 29.3098 21.4842H22.0914V19.4842H29.3098C30.2134 19.4842 31.01 18.8513 31.2194 17.9188L31.2222 17.9063L31.2223 17.9063L32.7286 11.579C32.7724 11.3705 32.7136 11.1743 32.5604 11.0069C32.3969 10.8283 32.1408 10.7058 31.8598 10.7058H7.85095Z" fill="white"/>
<path fill-rule="evenodd" clip-rule="evenodd" d="M33.0566 31.0814L32.7214 11.5119L34.7211 11.4776L35.0564 31.0567L35.0566 31.0738C35.0566 33.4616 32.9132 35.2021 30.5272 35.2021H9.30658C6.93502 35.2021 4.82129 33.4508 4.82129 31.0738V31.0624H4.82135L5.04194 11.78L7.04181 11.8028L6.8213 31.0789C6.82446 32.152 7.83341 33.2021 9.30658 33.2021H30.5272C32.0376 33.2021 33.0518 32.143 33.0566 31.0814Z" fill="white"/>
<path fill-rule="evenodd" clip-rule="evenodd" d="M17.6115 7.47874C17.2854 7.85283 16.9804 8.44406 16.7945 9.23014L14.8481 8.76986C15.0901 7.74695 15.5166 6.83818 16.1039 6.16452C16.6921 5.48972 17.4946 5 18.4395 5H21.2031C22.148 5 22.9505 5.48972 23.5387 6.16452C24.126 6.83818 24.5526 7.74695 24.7945 8.76986L22.8481 9.23014C22.6622 8.44406 22.3573 7.85283 22.0311 7.47874C21.706 7.10579 21.4133 7 21.2031 7H18.4395C18.2293 7 17.9366 7.10579 17.6115 7.47874Z" fill="white"/>
<path fill-rule="evenodd" clip-rule="evenodd" d="M19.8949 17.8884C19.5144 17.8884 19.1743 18.2079 19.1743 18.6414V22.3271C19.1743 22.7605 19.5144 23.08 19.8949 23.08H19.9831C20.3636 23.08 20.7037 22.7605 20.7037 22.3271V18.6414C20.7037 18.2079 20.3636 17.8884 19.9831 17.8884H19.8949ZM17.1743 18.6414C17.1743 17.1386 18.3749 15.8884 19.8949 15.8884H19.9831C21.5032 15.8884 22.7037 17.1386 22.7037 18.6414V22.3271C22.7037 23.8298 21.5032 25.08 19.9831 25.08H19.8949C18.3749 25.08 17.1743 23.8298 17.1743 22.3271V18.6414Z" fill="white"/>
</svg>
