<svg width="28" height="36" viewBox="0 0 28 36" fill="none" xmlns="http://www.w3.org/2000/svg">
<g id="icon" clip-path="url(#clip0_1826_24204)">
<g id="Group">
<path id="Vector" d="M14 15.1805C10.4008 15.1805 7.48273 12.2312 7.48273 8.59351V7.89392C7.48273 4.25627 10.4008 1.30695 14 1.30695C17.5991 1.30695 20.5172 4.25627 20.5172 7.89392V8.59351C20.5172 12.2312 17.5991 15.1805 14 15.1805Z" fill="white" stroke="black" stroke-width="2" stroke-linecap="round" stroke-linejoin="round"/>
<path id="Vector_2" d="M13.9914 15.1805H14.0129C21.0215 15.1805 26.7112 20.931 26.7112 28.0146V29.5219C26.7112 32.3798 24.4181 34.6974 21.5905 34.6974H6.41378C3.58619 34.6974 1.29309 32.3798 1.29309 29.5219V28.0146C1.29309 20.931 6.98275 15.1805 13.9914 15.1805Z" fill="white" stroke="black" stroke-width="2" stroke-linecap="round" stroke-linejoin="round"/>
</g>
<g id="Group_2">
<path id="Vector_3" d="M21.4162 23.49C21.4162 23.3059 21.3654 23.1253 21.2693 22.9682L20.4532 21.6342L22.541 20.2914C22.7935 20.1289 22.9597 19.8616 22.9936 19.5633C23.0275 19.265 22.9256 18.9672 22.716 18.7522C21.5887 17.5958 20.2187 16.6762 18.681 16.0697C18.1787 15.8716 17.6098 16.108 17.3959 16.6038L13.0818 26.6038C12.9127 26.9957 13.011 27.4517 13.3265 27.7391C13.6419 28.0266 14.1051 28.0821 14.4796 27.8775L20.8958 24.371C21.2167 24.1957 21.4162 23.8592 21.4162 23.4935V23.49Z" fill="#FFAC11" stroke="black" stroke-width="2" stroke-linecap="round" stroke-linejoin="round"/>
<path id="Vector_4" d="M6.58376 23.49C6.58376 23.3059 6.63462 23.1253 6.73073 22.9682L7.54684 21.6342L5.45905 20.2914C5.20652 20.1289 5.04034 19.8616 5.00641 19.5633C4.97247 19.265 5.07438 18.9672 5.28397 18.7522C6.41134 17.5958 7.78131 16.6762 9.31897 16.0697C9.8213 15.8716 10.3902 16.108 10.6041 16.6038L14.9182 26.6038C15.0873 26.9957 14.989 27.4517 14.6735 27.7391C14.3581 28.0266 13.8949 28.0821 13.5204 27.8775L7.1042 24.371C6.78333 24.1957 6.58376 23.8592 6.58376 23.4935V23.49Z" fill="#FFAC11" stroke="black" stroke-width="2" stroke-linecap="round" stroke-linejoin="round"/>
</g>
</g>
<defs>
<clipPath id="clip0_1826_24204">
<rect width="28" height="36" fill="white"/>
</clipPath>
</defs>
</svg>
