<svg width="40" height="40" viewBox="0 0 40 40" fill="none" xmlns="http://www.w3.org/2000/svg">
<path fill-rule="evenodd" clip-rule="evenodd" d="M21.7809 6.45759C21.9651 6.17232 22.2814 6 22.621 6H32.8848C33.437 6 33.8848 6.44772 33.8848 7V33C33.8848 33.5523 33.437 34 32.8848 34C32.3325 34 31.8848 33.5523 31.8848 33V8H23.1657L19.7308 13.3202C19.5466 13.6055 19.2303 13.7778 18.8907 13.7778H10.166V18.2859C10.166 18.8382 9.7183 19.2859 9.16602 19.2859C8.61373 19.2859 8.16602 18.8382 8.16602 18.2859V12.7778C8.16602 12.2255 8.61373 11.7778 9.16602 11.7778H18.346L21.7809 6.45759Z" fill="white"/>
<path fill-rule="evenodd" clip-rule="evenodd" d="M27.701 17.5555C28.1251 17.5532 28.5046 17.8188 28.6478 18.2181L33.8261 32.6625C33.9359 32.9688 33.8898 33.3094 33.7025 33.5755C33.5152 33.8416 33.2102 34 32.8848 34H10.5999C10.1753 34 9.79699 33.7318 9.65636 33.3312L4.62871 19.0071C4.52164 18.7021 4.56864 18.3641 4.75486 18.0998C4.94109 17.8356 5.24357 17.6777 5.56683 17.6759L27.701 17.5555ZM6.98039 19.6683L11.3087 32H31.464L27.004 19.5594L6.98039 19.6683Z" fill="white"/>
</svg>
