<svg width="40" height="40" viewBox="0 0 40 40" fill="none" xmlns="http://www.w3.org/2000/svg">
<path fill-rule="evenodd" clip-rule="evenodd" d="M33.3552 8.81061C33.7058 9.23728 33.6442 9.86744 33.2176 10.2181L22.9005 18.6975C22.7216 18.8446 22.4972 18.925 22.2656 18.925C22.0362 18.925 21.8653 18.8426 21.8428 18.8317C21.8419 18.8313 21.8413 18.831 21.8408 18.8308C21.7887 18.8065 21.7493 18.7828 21.731 18.7714C21.6918 18.7471 21.6604 18.7241 21.6454 18.7131C21.6115 18.6879 21.5776 18.6604 21.5504 18.6381C21.4928 18.5906 21.4187 18.5271 21.3348 18.4539C21.1649 18.3059 20.9308 18.0975 20.6568 17.8514C20.1075 17.3582 19.3849 16.702 18.667 16.0475C17.9486 15.3926 17.2331 14.7379 16.6973 14.247C16.6089 14.166 16.5254 14.0895 16.4475 14.0181L10.4684 18.9666C10.043 19.3187 9.41259 19.2593 9.06046 18.8338C8.70833 18.4084 8.76778 17.778 9.19325 17.4259L15.8438 11.9217C16.2287 11.6031 16.7898 11.6175 17.1578 11.9556L17.4024 12.1801C17.5582 12.323 17.7809 12.5273 18.0484 12.7724C18.5835 13.2627 19.2976 13.9162 20.0143 14.5695C20.7315 15.2232 21.4495 15.8753 21.993 16.3633C22.0954 16.4552 22.1911 16.5409 22.2791 16.6194L31.9477 8.673C32.3743 8.32233 33.0045 8.38394 33.3552 8.81061Z" fill="white"/>
<path fill-rule="evenodd" clip-rule="evenodd" d="M23.9997 9.91642C20.1111 6.02786 13.805 6.02786 9.91642 9.91642C6.02786 13.805 6.02786 20.1111 9.91642 23.9997C12.4366 26.5198 15.2396 27.1955 17.7625 26.9219C20.3271 26.6438 22.6198 25.3796 23.9997 23.9997C27.8882 20.1111 27.8882 13.805 23.9997 9.91642ZM8.50221 8.50221C13.1718 3.8326 20.7443 3.8326 25.4139 8.50221C29.8454 12.9337 30.0713 19.9795 26.0918 24.6776L34.7071 33.2929C35.0976 33.6834 35.0976 34.3166 34.7071 34.7071C34.3166 35.0976 33.6834 35.0976 33.2929 34.7071L24.6725 26.0867C22.9885 27.4787 20.6088 28.625 17.9781 28.9103C14.8918 29.2449 11.4775 28.3891 8.50221 25.4139C3.8326 20.7443 3.8326 13.1718 8.50221 8.50221Z" fill="white"/>
</svg>
