<svg width="67" height="66" viewBox="0 0 67 66" fill="none" xmlns="http://www.w3.org/2000/svg">
<g id="Group">
<g id="Group_2">
<path id="Vector" d="M38.6014 65.1952H28.3985C27.8508 65.1952 27.4104 64.7541 27.4104 64.2055V63.0802H1.48805C0.940354 63.0802 0.499939 62.639 0.499939 62.0905C0.499939 61.5419 0.940354 61.1008 1.48805 61.1008H28.3985C28.9462 61.1008 29.3866 61.5419 29.3866 62.0905V63.2159H37.6133V62.0905C37.6133 61.5419 38.0538 61.1008 38.6014 61.1008H65.5119C66.0596 61.1008 66.5 61.5419 66.5 62.0905C66.5 62.639 66.0596 63.0802 65.5119 63.0802H39.5896V64.2055C39.5896 64.7541 39.1491 65.1952 38.6014 65.1952Z" fill="#21409A"/>
<path id="Vector_2" d="M62.4008 62.5542C61.8531 62.5542 61.4127 62.1131 61.4127 61.5645V57.5776C57.1836 55.1854 52.2092 53.9243 46.9863 53.9243C42.5709 53.9243 38.3643 55.8641 34.6603 57.5719L34.491 57.6511C34.2312 57.7699 33.9263 57.7699 33.6666 57.6511L33.4972 57.5719C29.7876 55.8584 25.5867 53.9243 21.1712 53.9243C15.5023 53.9243 9.99148 55.4682 5.58733 58.2732V61.5645C5.58733 62.1131 5.14692 62.5542 4.59922 62.5542C4.05153 62.5542 3.61111 62.1131 3.61111 61.5645V57.7359C3.61111 57.4023 3.77486 57.0969 4.05153 56.9103C8.84527 53.7038 14.9264 51.9393 21.1712 51.9393C25.9198 51.9393 30.2506 53.8904 34.0788 55.6548C37.9126 53.8904 42.2377 51.9393 46.9863 51.9393C52.7682 51.9393 58.2733 53.3927 62.909 56.1525C63.2082 56.3334 63.3946 56.6558 63.3946 57.0008V61.5589C63.3946 62.1074 62.9542 62.5485 62.4065 62.5485L62.4008 62.5542Z" fill="#21409A"/>
</g>
<g id="Group_3">
<g id="Group_4">
<g id="Group_5">
<g id="Group_6">
<path id="Vector_3" d="M35.3322 51.3061H31.6621C28.7599 51.3061 26.3941 48.9366 26.3941 46.0298C26.3941 45.4813 26.8345 45.0402 27.3822 45.0402C27.9299 45.0402 28.3703 45.4813 28.3703 46.0298C28.3703 47.8451 29.8496 49.3268 31.6621 49.3268H35.3322C37.1447 49.3268 38.6241 47.8451 38.6241 46.0298C38.6241 45.4813 39.0645 45.0402 39.6122 45.0402C40.1599 45.0402 40.6003 45.4813 40.6003 46.0298C40.6003 48.9366 38.2345 51.3061 35.3322 51.3061Z" fill="#21409A"/>
</g>
<g id="Group_7">
<path id="Vector_4" d="M46.0097 18.7036C46.0097 11.7873 40.4085 6.17734 33.503 6.17734C26.5976 6.17734 20.9964 11.7873 20.9964 18.7036C20.9964 25.62 26.5976 31.23 33.503 31.23C40.4085 31.23 46.0097 25.62 46.0097 18.7036Z" fill="#FFAC11"/>
<path id="Vector_5" d="M32.3645 23.2888C32.1185 23.2888 31.8778 23.1935 31.7013 23.0188L26.9787 18.3428C26.615 17.9827 26.615 17.3949 26.9787 17.0348C27.3424 16.6747 27.9361 16.6747 28.2998 17.0348L32.3592 21.0594L43.5533 9.97594C43.917 9.61585 44.5107 9.61585 44.8744 9.97594C45.2381 10.336 45.2381 10.9238 44.8744 11.2839L33.017 23.0241C32.8405 23.1988 32.6052 23.2941 32.3538 23.2941L32.3645 23.2888Z" fill="#21409A"/>
<path id="Vector_6" d="M42.6067 37.5525C42.059 37.5525 41.6186 37.1114 41.6186 36.5628V33.1358C41.6186 32.7908 41.7992 32.4741 42.0928 32.2931C46.8584 29.3694 49.7041 24.291 49.7041 18.7036C49.7041 9.92674 42.5728 2.7842 33.8097 2.7842C25.0465 2.7842 17.9152 9.92674 17.9152 18.7036C17.9152 24.291 20.761 29.3694 25.5265 32.2931C25.8201 32.4741 26.0008 32.7908 26.0008 33.1358V36.5628C26.0008 37.1114 25.5604 37.5525 25.0127 37.5525C24.465 37.5525 24.0246 37.1114 24.0246 36.5628V33.6787C18.9541 30.3534 15.939 24.7943 15.939 18.7036C15.939 8.83528 23.9512 0.804871 33.8097 0.804871C43.6682 0.804871 51.6803 8.83528 51.6803 18.7036C51.6803 24.8 48.6708 30.3534 43.5948 33.6787V36.5628C43.5948 37.1114 43.1544 37.5525 42.6067 37.5525Z" fill="#21409A"/>
<path id="Vector_7" d="M42.3 46.9855H24.706C24.1583 46.9855 23.7178 46.5444 23.7178 45.9958V36.5629C23.7178 36.0143 24.1583 35.5732 24.706 35.5732H42.3C42.8477 35.5732 43.2881 36.0143 43.2881 36.5629V45.9958C43.2881 46.5444 42.8477 46.9855 42.3 46.9855ZM25.6884 45.0061H41.3062V37.5526H25.6884V45.0061Z" fill="#21409A"/>
</g>
</g>
<path id="Vector_8" d="M44.9423 37.5526H22.0577C21.51 37.5526 21.0696 37.1115 21.0696 36.5629C21.0696 36.0143 21.51 35.5732 22.0577 35.5732H44.9423C45.49 35.5732 45.9304 36.0143 45.9304 36.5629C45.9304 37.1115 45.49 37.5526 44.9423 37.5526Z" fill="#21409A"/>
<path id="Vector_9" d="M38.8783 40.4989H28.122C27.5743 40.4989 27.1339 40.0578 27.1339 39.5092C27.1339 38.9606 27.5743 38.5195 28.122 38.5195H38.8783C39.426 38.5195 39.8664 38.9606 39.8664 39.5092C39.8664 40.0578 39.426 40.4989 38.8783 40.4989Z" fill="#21409A"/>
<path id="Vector_10" d="M38.8783 43.3547H28.122C27.5743 43.3547 27.1339 42.9136 27.1339 42.365C27.1339 41.8165 27.5743 41.3754 28.122 41.3754H38.8783C39.426 41.3754 39.8664 41.8165 39.8664 42.365C39.8664 42.9136 39.426 43.3547 38.8783 43.3547Z" fill="#21409A"/>
</g>
<g id="Group_8">
<path id="Vector_11" d="M13.2605 19.7839H9.33633C8.78864 19.7839 8.34822 19.3428 8.34822 18.7942C8.34822 18.2456 8.78864 17.8045 9.33633 17.8045H13.2605C13.8082 17.8045 14.2486 18.2456 14.2486 18.7942C14.2486 19.3428 13.8082 19.7839 13.2605 19.7839Z" fill="#21409A"/>
<path id="Vector_12" d="M57.6636 19.7838H53.7394C53.1917 19.7838 52.7513 19.3427 52.7513 18.7942C52.7513 18.2456 53.1917 17.8045 53.7394 17.8045H57.6636C58.2113 17.8045 58.6517 18.2456 58.6517 18.7942C58.6517 19.3427 58.2113 19.7838 57.6636 19.7838Z" fill="#21409A"/>
</g>
<g id="Group_9">
<path id="Vector_13" d="M12.572 31.8803C12.2275 31.8803 11.9001 31.705 11.7137 31.3827C11.4427 30.9076 11.6008 30.3025 12.0751 30.0311L15.4742 28.0687C15.9485 27.7972 16.5526 27.9556 16.8237 28.4306C17.0947 28.9057 16.9366 29.5108 16.4623 29.7822L13.0632 31.7446C12.9051 31.8351 12.7357 31.8747 12.572 31.8747V31.8803Z" fill="#21409A"/>
<path id="Vector_14" d="M51.0292 9.64395C50.6848 9.64395 50.3573 9.46864 50.171 9.1463C49.9 8.67126 50.0581 8.06615 50.5324 7.7947L53.9315 5.83234C54.4058 5.56089 55.0099 5.71923 55.2809 6.19427C55.552 6.66931 55.3939 7.27442 54.9196 7.54587L51.5205 9.50823C51.3624 9.59871 51.193 9.6383 51.0292 9.6383V9.64395Z" fill="#21409A"/>
</g>
<g id="Group_10">
<path id="Vector_15" d="M54.4227 31.8803C54.2533 31.8803 54.0839 31.835 53.9314 31.7502L50.5323 29.7878C50.058 29.5164 49.8999 28.9113 50.171 28.4362C50.442 27.9612 51.0461 27.8029 51.5204 28.0743L54.9195 30.0367C55.3938 30.3081 55.5519 30.9132 55.2809 31.3883C55.1002 31.705 54.7671 31.8859 54.4227 31.8859V31.8803Z" fill="#21409A"/>
<path id="Vector_16" d="M15.971 9.64404C15.8016 9.64404 15.6322 9.5988 15.4798 9.51397L12.0807 7.55161C11.6064 7.28016 11.4483 6.67505 11.7193 6.20001C11.9903 5.72497 12.5945 5.56662 13.0688 5.83807L16.4679 7.80044C16.9422 8.07189 17.1003 8.677 16.8292 9.15203C16.6485 9.46873 16.3154 9.64969 15.971 9.64969V9.64404Z" fill="#21409A"/>
</g>
</g>
</g>
</svg>
