<svg width="40" height="40" viewBox="0 0 40 40" fill="none" xmlns="http://www.w3.org/2000/svg">
<path fill-rule="evenodd" clip-rule="evenodd" d="M8.61132 23.355C8.94727 23.2708 9.30288 23.3664 9.55129 23.6078L15.798 29.6768C16.0549 29.9264 16.1587 30.2944 16.07 30.6414C15.9814 30.9885 15.714 31.2616 15.3689 31.3575L6.39203 33.852C6.03814 33.9504 5.65882 33.8468 5.40402 33.5822C5.14923 33.3177 5.05997 32.9347 5.17154 32.5848L7.9017 24.0212C8.0069 23.6913 8.27536 23.4392 8.61132 23.355ZM9.31644 26.1681L7.63896 31.4298L13.1546 29.8971L9.31644 26.1681Z" fill="white"/>
<path fill-rule="evenodd" clip-rule="evenodd" d="M8.14204 25.0241C7.74565 24.6396 7.74565 24.016 8.14204 23.6315L24.3858 7.8718C24.7822 7.48723 25.4249 7.48722 25.8213 7.8718L32.0689 13.9332C32.4653 14.3178 32.4653 14.9413 32.0689 15.3259L15.8251 31.0855C15.4287 31.4701 14.786 31.4701 14.3897 31.0855L8.14204 25.0241ZM10.2952 24.3278L15.1074 28.9966L29.9157 14.6295L25.1036 9.96079L10.2952 24.3278Z" fill="white"/>
<path fill-rule="evenodd" clip-rule="evenodd" d="M26.2801 6.03448C27.7017 4.65517 29.9973 4.65517 31.419 6.03448L33.9194 8.4604C35.358 9.85616 35.358 12.1347 33.9194 13.5304L32.0463 15.3477C31.6583 15.7241 31.0416 15.7241 30.6536 15.3477L24.4069 9.28722C24.2128 9.09889 24.1033 8.83996 24.1033 8.5695C24.1033 8.29903 24.2128 8.04011 24.4069 7.85178L26.2801 6.03448ZM30.0263 7.46993C29.3805 6.84336 28.3185 6.84336 27.6727 7.46993L26.5394 8.5695L31.3499 13.2367L32.5267 12.095C33.1556 11.4849 33.1556 10.506 32.5267 9.89584L30.0263 7.46993Z" fill="white"/>
<path fill-rule="evenodd" clip-rule="evenodd" d="M5.16846 33C5.16846 32.4477 5.61617 32 6.16846 32H34.442C34.9942 32 35.442 32.4477 35.442 33C35.442 33.5523 34.9942 34 34.442 34H6.16846C5.61617 34 5.16846 33.5523 5.16846 33Z" fill="white"/>
</svg>
