<svg width="68" height="68" viewBox="0 0 68 68" fill="none" xmlns="http://www.w3.org/2000/svg">
<g id="Group">
<g id="Group_2">
<g id="Group_3">
<path id="Vector" d="M33.9439 40.1493V39.9482C33.5126 39.8812 33.1055 39.7227 32.7593 39.485V46.7189C32.7593 48.3705 31.4228 49.7112 29.7765 49.7112C29.1022 49.7112 28.4826 49.4857 27.9844 49.1079V49.8453C27.9844 51.4968 29.3209 52.8375 30.9611 52.8375C32.6013 52.8375 33.9378 51.4968 33.9378 49.8453V43.3244H49.9025V40.1554H33.9378L33.9439 40.1493Z" fill="#2C99F2"/>
<path id="Vector_2" d="M26.3808 44.4154C25.8401 45.1711 24.9593 45.6647 23.963 45.6647C23.2219 45.6647 22.5475 45.3905 22.0251 44.9456V45.2198C22.0251 46.8714 23.3616 48.2121 25.0018 48.2121C26.1621 48.2121 27.1705 47.5418 27.6626 46.5667L26.3808 44.4215V44.4154Z" fill="#2C99F2"/>
</g>
<g id="Group_4">
<path id="Vector_3" d="M20.9319 68C20.3426 68 19.8688 67.5246 19.8688 66.9335V63.5999L18.4958 63.7949C18.4472 63.801 18.3986 63.8071 18.35 63.8071C11.1999 63.8071 6.92931 59.7545 6.92931 52.9716V49.8574H3.53953C3.17504 49.8574 2.84093 49.6746 2.64653 49.3638C2.45213 49.053 2.42784 48.669 2.57971 48.3399L6.93538 38.8939C7.08118 26.4067 17.2626 16.2842 29.7404 16.2842C29.9044 16.2842 45.5411 16.5219 50.1884 32.0622C50.3585 32.629 50.0365 33.2201 49.4776 33.3908C48.9188 33.5614 48.3234 33.2384 48.1533 32.6777C43.9556 18.6366 29.8801 18.4233 29.7404 18.4233C18.3561 18.4233 9.07981 27.717 9.06766 39.1376C9.06766 39.29 9.03121 39.4423 8.97046 39.5825L5.2162 47.7244H8.00456C8.59382 47.7244 9.06766 48.1998 9.06766 48.7909V52.9716C9.06766 58.56 12.342 61.6498 18.2893 61.6741L20.7982 61.3207C21.102 61.278 21.4118 61.3694 21.6426 61.5705C21.8735 61.7717 22.0071 62.0642 22.0071 62.375V66.9335C22.0071 67.5246 21.5333 68 20.944 68H20.9319Z" fill="#21409A"/>
<path id="Vector_4" d="M44.3745 68C43.7852 68 43.3114 67.5246 43.3114 66.9335V56.5793C43.3114 56.3234 43.4025 56.0735 43.5726 55.8846C46.5796 52.3987 48.5965 46.4141 48.5965 40.9903C48.5965 40.3991 49.0703 39.9238 49.6596 39.9238C50.2488 39.9238 50.7227 40.3991 50.7227 40.9903C50.7227 46.731 48.6147 53.0873 45.4436 56.9694V66.9335C45.4436 67.5246 44.9698 68 44.3805 68H44.3745Z" fill="#21409A"/>
</g>
<g id="Group_5">
<g id="Group_6">
<path id="Vector_5" d="M36.435 33.3665H33.3793V39.8203H36.435V33.3665Z" fill="#2C99F2"/>
<path id="Vector_6" d="M53.8029 33.3665H50.7473V39.8203H53.8029V33.3665Z" fill="#2C99F2"/>
</g>
<g id="Group_7">
<g id="Group_8">
<g id="Group_9">
<path id="Vector_7" d="M29.9347 51.7126C27.7052 51.7126 25.8949 49.8905 25.8949 47.6539V27.5429C25.8949 25.3063 27.7113 23.4841 29.9347 23.4841C32.1581 23.4841 33.9805 25.3063 33.9805 27.5429V47.6539C33.9805 49.8905 32.1641 51.7126 29.9347 51.7126ZM29.9347 25.6232C28.8776 25.6232 28.0211 26.4886 28.0211 27.549V47.66C28.0211 48.7204 28.8776 49.5857 29.9347 49.5857C30.9917 49.5857 31.8543 48.7204 31.8543 47.66V27.549C31.8543 26.4886 30.9917 25.6232 29.9347 25.6232Z" fill="#21409A"/>
<path id="Vector_8" d="M23.9752 47.0932C21.7457 47.0932 19.9354 45.271 19.9354 43.0344V32.1684C19.9354 29.9318 21.7518 28.1096 23.9752 28.1096C26.1986 28.1096 28.0211 29.9318 28.0211 32.1684V43.0344C28.0211 45.271 26.2047 47.0932 23.9752 47.0932ZM23.9752 30.2426C22.9182 30.2426 22.0616 31.108 22.0616 32.1684V43.0344C22.0616 44.0948 22.9243 44.9602 23.9752 44.9602C25.0262 44.9602 25.8949 44.0948 25.8949 43.0344V32.1684C25.8949 31.108 25.0322 30.2426 23.9752 30.2426Z" fill="#21409A"/>
</g>
<g id="Group_10">
<path id="Vector_9" d="M57.2471 51.7126C55.0176 51.7126 53.2012 49.8905 53.2012 47.6539V27.5429C53.2012 25.3063 55.0176 23.4841 57.2471 23.4841C59.4766 23.4841 61.2869 25.3063 61.2869 27.5429V47.6539C61.2869 49.8905 59.4705 51.7126 57.2471 51.7126ZM57.2471 25.6232C56.1901 25.6232 55.3274 26.4886 55.3274 27.549V47.66C55.3274 48.7204 56.1901 49.5857 57.2471 49.5857C58.3041 49.5857 59.1607 48.7204 59.1607 47.66V27.549C59.1607 26.4886 58.298 25.6232 57.2471 25.6232Z" fill="#21409A"/>
<path id="Vector_10" d="M63.2065 47.0932C60.9771 47.0932 59.1667 45.271 59.1667 43.0345V32.1623C59.1667 29.9257 60.9831 28.1096 63.2065 28.1096C65.4299 28.1096 67.2524 29.9257 67.2524 32.1623V43.0345C67.2524 45.271 65.436 47.0932 63.2065 47.0932ZM63.2065 30.2426C62.1495 30.2426 61.2929 31.108 61.2929 32.1623V43.0345C61.2929 44.0949 62.1556 44.9602 63.2065 44.9602C64.2575 44.9602 65.1262 44.0949 65.1262 43.0345V32.1623C65.1262 31.1019 64.2636 30.2426 63.2065 30.2426Z" fill="#21409A"/>
</g>
</g>
<g id="Group_11">
<path id="Vector_11" d="M53.7906 34.1282H33.3912C32.802 34.1282 32.3281 33.6529 32.3281 33.0617C32.3281 32.4706 32.802 31.9952 33.3912 31.9952H53.7906C54.3799 31.9952 54.8537 32.4706 54.8537 33.0617C54.8537 33.6529 54.3799 34.1282 53.7906 34.1282Z" fill="#21409A"/>
<path id="Vector_12" d="M53.7906 41.1913H33.3912C32.802 41.1913 32.3281 40.716 32.3281 40.1248C32.3281 39.5337 32.802 39.0583 33.3912 39.0583H53.7906C54.3799 39.0583 54.8537 39.5337 54.8537 40.1248C54.8537 40.716 54.3799 41.1913 53.7906 41.1913Z" fill="#21409A"/>
</g>
</g>
</g>
</g>
<g id="Group_12">
<path id="Vector_13" d="M17.6447 11.3835H12.0178L13.4376 0.82959L1.57795 15.0296H7.20961L5.78513 25.5835L17.6447 11.3835Z" fill="#FFAC11"/>
<path id="Vector_14" d="M6.01436 27.2512C5.89561 27.2512 5.77687 27.2267 5.66307 27.1778C5.31178 27.0259 5.10397 26.6586 5.15345 26.2765L6.50913 16.358H1.61582C1.27938 16.358 0.972616 16.1669 0.829132 15.8633C0.685648 15.5596 0.735125 15.2069 0.947877 14.9522L13.3518 0.307083C13.5992 0.0132003 14.0099 -0.0798626 14.3661 0.0719768C14.7174 0.223816 14.9252 0.59117 14.8757 0.973217L13.5201 10.8918H18.4134C18.7498 10.8918 19.0566 11.0828 19.2001 11.3865C19.3435 11.6901 19.2941 12.0428 19.0813 12.2975L6.6823 26.9475C6.51408 27.1484 6.26669 27.2561 6.0193 27.2561L6.01436 27.2512ZM3.47122 14.6486H7.50362C7.75101 14.6486 7.99345 14.7563 8.15672 14.9424C8.32 15.1286 8.39422 15.3784 8.36453 15.6233L7.28098 23.5777L16.5679 12.6061H12.5355C12.2881 12.6061 12.0456 12.4983 11.8824 12.3122C11.7191 12.1261 11.6449 11.8763 11.6746 11.6314L12.7581 3.68184L3.47122 14.6486Z" fill="#21409A"/>
</g>
</g>
</svg>
