<svg width="116" height="104" viewBox="0 0 116 104" fill="none" xmlns="http://www.w3.org/2000/svg">
<g id="Group 595">
<g id="Group">
<g id="Group_2">
<path id="Vector" d="M42.0619 38.6227C42.0619 45.6865 37.4914 51.406 31.8463 51.406C26.2011 51.406 21.6306 45.6865 21.6306 38.6227C21.6306 31.559 26.2011 25.8395 31.8463 25.8395C37.4914 25.8395 42.0619 31.559 42.0619 38.6227Z" fill="white" stroke="#21409A" stroke-width="3.4"/>
<g id="Group_3">
<path id="Vector_2" d="M47.8699 51.7224H17.2637C25.0716 51.7224 31.4105 57.8504 31.4105 65.4149V74.8508H62.0167V65.4149C62.0167 57.8504 55.6914 51.7224 47.8835 51.7224H47.8699Z" fill="white"/>
<path id="Vector_3" d="M17.2639 51.7223H15.822C8.014 51.7223 1.68872 57.8504 1.68872 65.4149V74.8508H31.4107V65.4149C31.4107 57.8504 25.0854 51.7223 17.2639 51.7223Z" fill="#FFAC11"/>
</g>
<path id="Vector_4" d="M62.0167 65.4149C62.0167 57.8504 55.6915 51.7223 47.8835 51.7223H15.8354C8.02743 51.7223 1.70215 57.8504 1.70215 65.4149V74.8508H62.0303V65.4149H62.0167Z" stroke="#21409A" stroke-width="3.4"/>
</g>
<g id="Group_4">
<path id="Vector_5" d="M72.3535 38.6228C72.3535 45.6866 76.924 51.4061 82.5692 51.4061C88.2143 51.4061 92.7848 45.6866 92.7848 38.6228C92.7848 31.5591 88.2143 25.8395 82.5692 25.8395C76.924 25.8395 72.3535 31.5591 72.3535 38.6228Z" fill="white" stroke="#21409A" stroke-width="3.4"/>
<g id="Group_5">
<path id="Vector_6" d="M66.5446 51.7224H97.1507C89.3428 51.7224 83.0039 57.8505 83.0039 65.415V74.8509H52.3977V65.415C52.3977 57.8505 58.723 51.7224 66.531 51.7224H66.5446Z" fill="white"/>
<path id="Vector_7" d="M97.1505 51.7224H98.5924C106.4 51.7224 112.726 57.8505 112.726 65.415V74.8509H83.0037V65.415C83.0037 57.8505 89.3289 51.7224 97.1505 51.7224Z" fill="#FFAC11"/>
</g>
<path id="Vector_8" d="M52.3991 65.4149C52.3991 57.8504 58.7244 51.7223 66.5324 51.7223H98.5804C106.388 51.7223 112.714 57.8504 112.714 65.4149V74.8508H52.3855V65.4149H52.3991Z" stroke="#21409A" stroke-width="3.4"/>
</g>
</g>
<g id="Group_6">
<path id="Vector_9" d="M67.2526 48.3616C67.2526 55.4254 62.6821 61.1449 57.037 61.1449C51.3918 61.1449 46.8213 55.4254 46.8213 48.3616C46.8213 41.2979 51.3918 35.5784 57.037 35.5784C62.6821 35.5784 67.2526 41.2979 67.2526 48.3616Z" fill="white" stroke="#21409A" stroke-width="3.4"/>
<g id="Group_7">
<path id="Vector_10" d="M73.0734 61.4612H46.1128C53.9208 61.4612 60.2597 67.5893 60.2597 75.167V101.656H87.2203V75.167C87.2203 67.6025 80.895 61.4612 73.0871 61.4612H73.0734Z" fill="white"/>
<path id="Vector_11" d="M46.1001 61.4611H41.0127C33.2047 61.4611 26.8794 67.5892 26.8794 75.1669V101.656H60.2469V75.1669C60.2469 67.6024 53.9217 61.4611 46.1001 61.4611Z" fill="#85B6FF"/>
</g>
<path id="Vector_12" d="M41.0263 101.643H26.8931V75.1539C26.8931 67.5762 33.2183 61.4482 41.0263 61.4482H73.0744C80.8824 61.4482 87.2076 67.5894 87.2076 75.1539V101.643H73.0744M41.0263 101.643V82.4681M41.0263 101.643H73.0744M73.0744 101.643V82.4681" stroke="#21409A" stroke-width="3.4"/>
</g>
<g id="Group_8">
<g id="Group_9">
<path id="Vector_13" d="M15.5557 36.0572H9.99219" stroke="#21409A" stroke-width="3.4"/>
<path id="Vector_14" d="M5.57634 36.0572H0.000244141" stroke="#21409A" stroke-width="3.4"/>
</g>
<g id="Group_10">
<path id="Vector_15" d="M8.00049 28V33.4022" stroke="#21409A" stroke-width="3.4"/>
<path id="Vector_16" d="M7.78369 38.1836V43.5858" stroke="#21409A" stroke-width="3.4"/>
</g>
</g>
<path id="Vector_17" d="M114 28.3937C114 30.8597 111.958 32.8573 109.437 32.8573C106.917 32.8573 104.875 30.8597 104.875 28.3937C104.875 25.9276 106.917 23.9301 109.437 23.9301C111.958 23.9301 114 25.9276 114 28.3937Z" fill="#FCFCFC" stroke="#85B6FF" stroke-width="3.4"/>
<path id="Vector_18" d="M57.4144 18.8508C56.6195 17.1255 55.6881 15.6919 54.4586 14.489C53.229 13.2862 51.7511 12.3629 50 11.5974C51.7636 10.8198 53.229 9.90862 54.4586 8.7058C55.6881 7.49083 56.632 6.05716 57.4144 4.34406C58.2092 6.06931 59.1407 7.50298 60.3702 8.7058C61.5997 9.90862 63.0776 10.8198 64.8288 11.5974C63.0652 12.375 61.5997 13.2862 60.3702 14.489C59.1283 15.6919 58.1968 17.1377 57.4144 18.8508Z" fill="white" stroke="#21409A" stroke-width="3.4" stroke-linecap="round" stroke-dasharray="100 4 5 4"/>
</g>
</svg>
