<svg width="37" height="37" viewBox="0 0 37 37" fill="none" xmlns="http://www.w3.org/2000/svg">
<g id="Group 10">
<g id="Group 12">
<path id="Vector" d="M27.4999 35.488C32.1942 35.488 35.9997 31.6825 35.9997 26.9881C35.9997 22.2938 32.1942 18.4883 27.4999 18.4883C22.8055 18.4883 19 22.2938 19 26.9881C19 31.6825 22.8055 35.488 27.4999 35.488Z" stroke="black" stroke-width="2" stroke-linecap="round" stroke-linejoin="round"/>
<path id="Vector_2" d="M25.2466 24.7344L29.7543 29.2421" stroke="black" stroke-width="2" stroke-linecap="round" stroke-linejoin="round"/>
<path id="Vector_3" d="M29.7539 24.7344L25.2462 29.2421" stroke="black" stroke-width="2" stroke-linecap="round" stroke-linejoin="round"/>
</g>
<path id="Vector_4" d="M17 33H4" stroke="black" stroke-width="2" stroke-linecap="round" stroke-linejoin="round"/>
<path id="Vector_5" d="M7 10H36V14.5V18" stroke="black" stroke-width="2" stroke-linecap="round" stroke-linejoin="round"/>
<path id="Vector_6" d="M7 10.6933V29.9721C7 31.644 5.65653 33 4 33C2.34347 33 1 31.644 1 29.9721V4" stroke="black" stroke-width="2" stroke-linecap="round" stroke-linejoin="round"/>
<path id="Vector_7" d="M1 4.78227V1H11.9818L13.9 4.78227H30V9" stroke="black" stroke-width="2" stroke-linecap="round" stroke-linejoin="round"/>
</g>
</svg>
