<svg width="39" height="37" viewBox="0 0 39 37" fill="none" xmlns="http://www.w3.org/2000/svg">
<g id="Group 17">
<path id="Vector" d="M35.9146 19.4431V6.21052C35.9146 5.03776 35.0759 4.08594 34.0401 4.08594H3.8464C2.81172 4.08594 1.97197 5.03648 1.97197 6.21052V31.7897C1.97197 32.9624 2.81059 33.9143 3.8464 33.9143H21.2775" stroke="black" stroke-width="2" stroke-linecap="round" stroke-linejoin="round"/>
<path id="Vector_2" d="M28.7144 1V4.08569" stroke="black" stroke-width="2" stroke-linecap="round" stroke-linejoin="round"/>
<path id="Vector_3" d="M9.17188 1V4.08569" stroke="black" stroke-width="2" stroke-linecap="round" stroke-linejoin="round"/>
<path id="Vector_4" d="M35.9146 11.2852H3.00053" stroke="black" stroke-width="2" stroke-linecap="round" stroke-linejoin="round"/>
<g id="Group 22">
<path id="Vector_5" d="M20.6498 16.3623C20.6498 16.947 21.1235 17.4249 21.7124 17.4249C22.3012 17.4249 22.7749 16.9512 22.7749 16.3623C22.7749 15.7735 22.3012 15.2998 21.7124 15.2998C21.1235 15.2998 20.6498 15.7735 20.6498 16.3623Z" fill="black"/>
<path id="Vector_6" d="M26.8984 16.3623C26.8984 16.947 27.372 17.4249 27.9609 17.4249C28.5498 17.4249 29.0234 16.9512 29.0234 16.3623C29.0234 15.7735 28.5498 15.2998 27.9609 15.2998C27.372 15.2998 26.8984 15.7735 26.8984 16.3623Z" fill="black"/>
<path id="Vector_7" d="M20.6498 21.837C20.6498 22.4216 21.1235 22.8995 21.7124 22.8995C22.3012 22.8995 22.7749 22.4258 22.7749 21.837C22.7749 21.2481 22.3012 20.7744 21.7124 20.7744C21.1235 20.7744 20.6498 21.2481 20.6498 21.837Z" fill="black"/>
<path id="Vector_8" d="M14.2221 16.3623C14.2221 16.947 14.6958 17.4249 15.2846 17.4249C15.8735 17.4249 16.3472 16.9512 16.3472 16.3623C16.3472 15.7735 15.8735 15.2998 15.2846 15.2998C14.6958 15.2998 14.2221 15.7735 14.2221 16.3623Z" fill="black"/>
<path id="Vector_9" d="M14.2221 21.837C14.2221 22.4216 14.6958 22.8995 15.2846 22.8995C15.8735 22.8995 16.3472 22.4258 16.3472 21.837C16.3472 21.2481 15.8735 20.7744 15.2846 20.7744C14.6958 20.7744 14.2221 21.2481 14.2221 21.837Z" fill="black"/>
<path id="Vector_10" d="M14.2221 27.3116C14.2221 27.8962 14.6958 28.3741 15.2846 28.3741C15.8735 28.3741 16.3472 27.9004 16.3472 27.3116C16.3472 26.7227 15.8735 26.249 15.2846 26.249C14.6958 26.249 14.2221 26.7227 14.2221 27.3116Z" fill="black"/>
<path id="Vector_11" d="M7.92229 16.3623C7.92229 16.947 8.39595 17.4249 8.98482 17.4249C9.5737 17.4249 10.0474 16.9512 10.0474 16.3623C10.0474 15.7735 9.5737 15.2998 8.98482 15.2998C8.39595 15.2998 7.92229 15.7735 7.92229 16.3623Z" fill="black"/>
<path id="Vector_12" d="M7.92229 21.837C7.92229 22.4216 8.39595 22.8995 8.98482 22.8995C9.5737 22.8995 10.0474 22.4258 10.0474 21.837C10.0474 21.2481 9.5737 20.7744 8.98482 20.7744C8.39595 20.7744 7.92229 21.2481 7.92229 21.837Z" fill="black"/>
<path id="Vector_13" d="M7.92229 27.3116C7.92229 27.8962 8.39595 28.3741 8.98482 28.3741C9.5737 28.3741 10.0474 27.9004 10.0474 27.3116C10.0474 26.7227 9.5737 26.249 8.98482 26.249C8.39595 26.249 7.92229 26.7227 7.92229 27.3116Z" fill="black"/>
</g>
<g id="Group 17_2">
<path id="Vector_14" d="M37.7531 30.1495C38.4412 26.361 35.8675 22.7428 32.0045 22.068C28.1415 21.3931 24.4521 23.9173 23.764 27.7058C23.0759 31.4942 25.6496 35.1125 29.5126 35.7873C33.3756 36.4622 37.065 33.938 37.7531 30.1495Z" stroke="black" stroke-width="2" stroke-linecap="round" stroke-linejoin="round"/>
<path id="Vector_15" d="M28.0347 28.775L30.3043 31.0283L33.6002 26.9141" stroke="black" stroke-width="2" stroke-linecap="round" stroke-linejoin="round"/>
</g>
</g>
</svg>
