<svg width="39" height="34" viewBox="0 0 39 34" fill="none" xmlns="http://www.w3.org/2000/svg">
<g id="Group 15">
<g id="Group">
<g id="Group_2">
<path id="Vector" d="M21.6645 15.1941C21.3256 11.0765 17.6532 8.04114 13.462 8.41452C9.2708 8.7879 6.14794 12.4286 6.48688 16.5463C6.82582 20.6639 10.4982 23.6993 14.6894 23.3259C18.8806 22.9525 22.0034 19.3118 21.6645 15.1941Z" stroke="black" stroke-width="2" stroke-linecap="round" stroke-linejoin="round"/>
<path id="Vector_2" d="M13.7916 12.418C15.7316 12.2452 17.4315 13.6502 17.5884 15.5562" stroke="black" stroke-width="2" stroke-linecap="round" stroke-linejoin="round"/>
<path id="Vector_3" d="M19.1689 21.4346L23.1014 25.2912" stroke="black" stroke-width="2" stroke-linecap="round" stroke-linejoin="round"/>
</g>
</g>
<path id="Vector_4" d="M33.5674 32.9995H4.90667C2.74924 32.9995 1 31.284 1 29.1682V1H29.6608V29" stroke="black" stroke-width="2" stroke-linecap="round" stroke-linejoin="round"/>
<path id="Vector_5" d="M29.6625 29.1687C29.6625 31.2833 31.4129 33 33.5692 33H33.5704C35.7266 33 37.4771 31.2833 37.4771 29.1687V25.3373H33" stroke="black" stroke-width="2" stroke-linecap="round" stroke-linejoin="round"/>
</g>
</svg>
