<svg width="37" height="39" viewBox="0 0 37 39" fill="none" xmlns="http://www.w3.org/2000/svg">
<g id="Group 21">
<path id="Vector" d="M22.5447 22.1587L23.6496 24.0794L24.7545 26L26.044 24.0927L27.3335 22.1854C28.1376 22.0162 28.9279 21.7578 29.6896 21.4075C30.4513 21.0572 31.1828 20.6163 31.8693 20.0822C34.2418 18.2348 35.6202 15.6256 35.932 12.9005C36.2437 10.1753 35.4875 7.33433 33.5909 5.02344C31.6943 2.71254 29.0154 1.36995 26.2177 1.06627C23.4199 0.762593 20.5031 1.49915 18.1306 3.34654C15.7581 5.19392 14.3797 7.80317 14.068 10.5283C14.0023 11.1024 13.9845 11.6818 14.0133 12.2611" stroke="black" stroke-width="2" stroke-linecap="round" stroke-linejoin="round"/>
<path id="Vector_2" d="M12.5 27C15.5376 27 18 24.5376 18 21.5C18 18.4624 15.5376 16 12.5 16C9.46243 16 7 18.4624 7 21.5C7 24.5376 9.46243 27 12.5 27Z" stroke="black" stroke-width="2" stroke-linecap="round" stroke-linejoin="round"/>
<path id="Vector_3" d="M9.05943 26.4404L3.71002 28.7981C2.07891 29.3631 1 30.7902 1 32.3837V37.0696H24.3842V32.3837C24.3842 30.7902 23.3053 29.3631 21.6741 28.7981L16.3247 26.4404" stroke="black" stroke-width="2" stroke-linecap="round" stroke-linejoin="round"/>
<path id="Vector_4" d="M29 10H21" stroke="black" stroke-width="2" stroke-linecap="round" stroke-linejoin="round"/>
<path id="Vector_5" d="M27 15H21" stroke="black" stroke-width="2" stroke-linecap="round" stroke-linejoin="round"/>
</g>
</svg>
