<svg width="41" height="41" viewBox="0 0 41 41" fill="none" xmlns="http://www.w3.org/2000/svg">
<g id="Group 11">
<g id="Group">
<path id="Vector" d="M23.1754 23.047C27.4418 18.8039 27.4418 11.9246 23.1754 7.68153C18.9089 3.43848 11.9916 3.43848 7.72513 7.68153C3.45866 11.9246 3.45866 18.8039 7.72513 23.047C11.9916 27.29 18.9089 27.29 23.1754 23.047Z" stroke="black" stroke-width="2" stroke-linecap="round" stroke-linejoin="round"/>
<path id="Vector_2" d="M11.2456 15.0644L14.6744 18.5164L19.6536 12.2129" stroke="black" stroke-width="2" stroke-linecap="round" stroke-linejoin="round"/>
</g>
<path id="Vector_3" d="M29.0749 18.251C35.1088 18.251 39.9999 23.1152 39.9999 29.116C39.9999 35.1168 35.1088 39.981 29.0749 39.981C23.0409 39.981 18.1499 35.1168 18.1499 29.116" stroke="black" stroke-width="2" stroke-linecap="round" stroke-linejoin="round"/>
<g id="Group_2">
<path id="Vector_4" d="M26.1113 26.168L32.0372 32.0626" stroke="black" stroke-width="2" stroke-linecap="round" stroke-linejoin="round"/>
<path id="Vector_5" d="M26.1113 32.0626L32.0372 26.168" stroke="black" stroke-width="2" stroke-linecap="round" stroke-linejoin="round"/>
</g>
</g>
</svg>
