<svg width="20" height="20" viewBox="0 0 20 20" fill="none" xmlns="http://www.w3.org/2000/svg">
<path d="M15.3423 13.5028V9.47735C15.3423 7.01358 13.7624 4.92002 11.5593 4.15352C11.5724 4.06227 11.5828 3.97102 11.5828 3.87716C11.5828 2.84211 10.7407 2 9.70563 2C8.67058 2 7.82847 2.84211 7.82847 3.87716C7.82847 3.97102 7.83629 4.06227 7.85193 4.15352C5.65149 4.92002 4.06894 7.01358 4.06894 9.47735V13.5028C3.4354 13.8157 3 14.4649 3 15.2183H16.4113C16.4113 14.4649 15.9759 13.8157 15.3423 13.5028ZM8.57933 3.87716C8.57933 3.25665 9.08512 2.75086 9.70563 2.75086C10.3261 2.75086 10.8319 3.25665 10.8319 3.87716C10.8319 3.90323 10.8319 3.92669 10.8293 3.95277C10.4669 3.87977 10.0915 3.84066 9.70563 3.84066C9.31977 3.84066 8.94694 3.87977 8.58194 3.95277C8.58194 3.92669 8.57933 3.90323 8.57933 3.87716Z" fill="#FFAC11"/>
<path d="M9.70648 17.9995C10.6946 17.9995 11.495 17.1991 11.495 16.2109H7.91797C7.91797 17.1991 8.71837 17.9995 9.70648 17.9995Z" fill="#FFAC11"/>
</svg>
