<svg width="32" height="32" viewBox="0 0 32 32" fill="none" xmlns="http://www.w3.org/2000/svg">
<path d="M26.6086 4.47852C27.0772 4.47852 27.522 4.57382 27.927 4.74856C28.3321 4.92329 28.6975 5.1695 29.0072 5.47925C29.317 5.789 29.5632 6.15435 29.73 6.55941C29.8967 6.96447 30 7.40924 30 7.87783V25.8752C30 26.3438 29.9047 26.7885 29.73 27.1936C29.5552 27.5986 29.309 27.964 29.0072 28.2737C28.6975 28.5835 28.3321 28.8297 27.927 28.9965C27.522 29.1712 27.0772 29.2665 26.6086 29.2665H5.56143C5.09283 29.2665 4.64806 29.1712 4.243 28.9965C3.83794 28.8218 3.47259 28.5756 3.16284 28.2737C2.85309 27.964 2.60688 27.5986 2.43215 27.1936C2.25742 26.7885 2.16211 26.3358 2.16211 25.8752V7.87783C2.16211 7.40924 2.25742 6.96447 2.43215 6.55941C2.60688 6.15435 2.85309 5.789 3.16284 5.47925C3.47259 5.1695 3.83794 4.92329 4.243 4.74856C4.64806 4.57382 5.09283 4.47852 5.56143 4.47852" stroke="#252F3E" stroke-width="2" stroke-linecap="round" stroke-linejoin="round"/>
<path d="M12.1777 4.47852H16.0854H19.9851" stroke="#252F3E" stroke-width="2" stroke-linecap="round" stroke-linejoin="round"/>
<path d="M8.78516 2.10352V5.83641" stroke="#252F3E" stroke-width="2" stroke-linecap="round" stroke-linejoin="round"/>
<path d="M23.3828 2.10352V5.83641" stroke="#252F3E" stroke-width="2" stroke-linecap="round" stroke-linejoin="round"/>
<path d="M11 14H21" stroke="#2C99F2" stroke-width="2" stroke-linecap="round" stroke-linejoin="round"/>
<path d="M11 20H21" stroke="#2C99F2" stroke-width="2" stroke-linecap="round" stroke-linejoin="round"/>
</svg>
