<svg width="33" height="32" viewBox="0 0 33 32" fill="none" xmlns="http://www.w3.org/2000/svg">
<g clip-path="url(#clip0_1594_22406)">
<path d="M16.7508 20.474C19.4947 20.474 21.7262 18.1704 21.7262 15.3376C21.7262 12.5048 19.4947 10.2012 16.7508 10.2012C14.0069 10.2012 11.7754 12.5048 11.7754 15.3376C11.7754 18.1704 14.0069 20.474 16.7508 20.474ZM17.6594 12.914C17.6594 12.914 18.2481 14.5721 20.4905 15.3376C20.4905 17.5071 18.8151 19.2745 16.7508 19.2745C14.6865 19.2745 13.0147 17.5107 13.0111 15.3411C13.3999 15.3482 15.9403 15.3058 17.6594 12.914Z" fill="#252F3E"/>
<path d="M8.66797 27.1049H24.8298C24.8298 24.0499 23.0272 21.4041 20.4032 20.1094C19.4001 20.9419 18.1318 21.4429 16.7507 21.4429C15.3697 21.4429 14.1013 20.9419 13.0982 20.1094C10.4706 21.4041 8.6716 24.0499 8.6716 27.1049H8.66797Z" fill="#252F3E"/>
<path d="M22.6405 2.92968H19.4859C19.1115 1.81138 18.0285 1 16.7528 1C15.4772 1 14.3942 1.80786 14.0198 2.92968H10.8652V7.85089H22.6441V2.92968H22.6405Z" fill="#252F3E"/>
<path d="M28.667 4.16406H24.313V6.2666H27.5839V28.8936H5.91606V6.27013H9.18696V4.16759H4.83303C4.23337 4.16759 3.75 4.63678 3.75 5.21886V29.9484C3.75 30.5305 4.23337 30.9997 4.83303 30.9997H28.667C29.2666 30.9997 29.75 30.5305 29.75 29.9484V5.21533C29.75 4.63325 29.2666 4.16406 28.667 4.16406Z" fill="#252F3E"/>
</g>
<defs>
<clipPath id="clip0_1594_22406">
<rect width="26" height="30" fill="white" transform="translate(3.75 1)"/>
</clipPath>
</defs>
</svg>
