<svg width="33" height="32" viewBox="0 0 33 32" fill="none" xmlns="http://www.w3.org/2000/svg">
<g clip-path="url(#clip0_1594_1987)">
<path d="M20.4503 3.00024H18.9825C18.7362 1.85372 17.7966 1 16.669 1C15.5414 1 14.6017 1.85372 14.3555 3.00024H12.8877V7.70626H20.4503V3.00024Z" fill="#252F3E"/>
<path d="M27.3644 3.93555H22.1218V6.77186H26.0619V28.1641H7.2721V6.77186H11.2122V3.93555H5.96954C5.25022 3.93555 4.66699 4.57054 4.66699 5.3537V29.5823C4.66699 30.3655 5.25022 31.0005 5.96954 31.0005H27.3644C28.0838 31.0005 28.667 30.3655 28.667 29.5823V5.3537C28.667 4.57054 28.0838 3.93555 27.3644 3.93555Z" fill="#252F3E"/>
<path d="M10.6709 12.3489C10.6709 12.9028 11.0824 13.3473 11.5879 13.3473H21.7426C22.2513 13.3473 22.6596 12.8993 22.6596 12.3489C22.6596 11.7986 22.2481 11.3506 21.7426 11.3506H11.5879C11.0792 11.3506 10.6709 11.7986 10.6709 12.3489Z" fill="#252F3E"/>
<path d="M21.7458 16.5254H11.5879C11.0814 16.5254 10.6709 16.9724 10.6709 17.5237V17.5273C10.6709 18.0786 11.0814 18.5256 11.5879 18.5256H21.7458C22.2523 18.5256 22.6628 18.0786 22.6628 17.5273V17.5237C22.6628 16.9724 22.2523 16.5254 21.7458 16.5254Z" fill="#252F3E"/>
<path d="M21.7455 21.7012H11.5908C11.0821 21.7012 10.6738 22.1492 10.6738 22.6995C10.6738 23.2499 11.0853 23.6979 11.5908 23.6979H21.7455C22.2542 23.6979 22.6625 23.2499 22.6625 22.6995C22.6625 22.1492 22.251 21.7012 21.7455 21.7012Z" fill="#252F3E"/>
</g>
<defs>
<clipPath id="clip0_1594_1987">
<rect width="24" height="30" fill="white" transform="translate(4.66699 1)"/>
</clipPath>
</defs>
</svg>
