<svg width="33" height="32" viewBox="0 0 33 32" fill="none" xmlns="http://www.w3.org/2000/svg">
<g clip-path="url(#clip0_1594_32172)">
<path d="M13.7055 13.2228C16.3443 13.2228 18.4891 10.8873 18.4891 8.01765C18.4891 5.14796 16.3443 2.8125 13.7055 2.8125C11.0667 2.8125 8.92188 5.14796 8.92188 8.01765C8.92188 10.8873 11.0667 13.2228 13.7055 13.2228ZM14.5804 5.56307C14.5804 5.56307 15.1448 7.24518 17.3003 8.02126C17.3003 10.2196 15.6881 12.0099 13.7055 12.0099C11.7229 12.0099 10.1143 10.2232 10.1143 8.02487C10.4847 8.03209 12.9294 7.98877 14.5804 5.56668V5.56307Z" fill="#252F3E"/>
<path d="M10.1959 12.8545C7.67 14.1648 5.94141 16.2368 5.94141 19.3339H21.4741C21.4741 16.2368 19.742 14.1684 17.2196 12.8545C16.2566 13.6992 15.0359 14.2045 13.7095 14.2045C12.3831 14.2045 11.1625 13.6955 10.1994 12.8545H10.1959Z" fill="#252F3E"/>
<path d="M29.813 1H21.4275C20.3304 1 19.4414 1.90964 19.4414 3.03225V6.2232C19.4414 7.31332 20.281 8.2013 21.3323 8.25183V10.9735L23.9887 8.25545H29.8165C30.9137 8.25545 31.8026 7.34581 31.8026 6.2232V3.03225C31.8026 1.90964 30.9137 1 29.8165 1H29.813Z" fill="#252F3E"/>
<path d="M23.6799 10.613V20.8247H3.73399V8.1656H7.63215C7.63215 8.11868 7.63215 8.06814 7.63215 8.02121C7.63215 7.38591 7.72035 6.76866 7.8791 6.1875H2.76739C2.23469 6.1875 1.80078 6.63149 1.80078 7.17655V24.864C1.80078 25.409 2.23469 25.853 2.76739 25.853H9.25139V29.0223H6.70436C6.17167 29.0223 5.73775 29.4663 5.73775 30.0113C5.73775 30.5564 6.17167 31.0004 6.70436 31.0004H20.7095C21.2422 31.0004 21.6761 30.5564 21.6761 30.0113C21.6761 29.4663 21.2422 29.0223 20.7095 29.0223H18.1625V25.853H24.6465C25.1792 25.853 25.6131 25.409 25.6131 24.864V9.69971H24.5689L23.6799 10.6094V10.613ZM16.2293 29.0223H11.1881V25.853H16.2293V29.0223Z" fill="#252F3E"/>
</g>
<defs>
<clipPath id="clip0_1594_32172">
<rect width="30" height="30" fill="white" transform="translate(1.80078 1)"/>
</clipPath>
</defs>
</svg>
