<svg width="32" height="32" viewBox="0 0 32 32" fill="none" xmlns="http://www.w3.org/2000/svg">
<path d="M21.6391 6.91283C21.6391 9.98819 19.1473 12.4721 16.0798 12.4721C13.0123 12.4721 10.5205 9.98031 10.5205 6.91283C10.5205 3.84535 13.0123 1.35352 16.0798 1.35352C19.1473 1.35352 21.6391 3.84535 21.6391 6.91283Z" stroke="#252F3E" stroke-width="2" stroke-linecap="round" stroke-linejoin="round"/>
<path d="M14.0537 30.0964H26.0003V20.8151C26.0003 20.3893 25.9293 19.9792 25.8268 19.585L14.0537 30.0964Z" stroke="#252F3E" stroke-width="2" stroke-linecap="round" stroke-linejoin="round"/>
<path d="M10.9703 16.0049C8.31291 16.0049 6.16016 18.1576 6.16016 20.8151V28.8504L20.5513 16.0049H10.9703Z" stroke="#252F3E" stroke-width="2" stroke-linecap="round" stroke-linejoin="round"/>
<path d="M22.846 16.3045C22.3334 16.1153 21.7735 16.0049 21.19 16.0049H20.5513L6.16016 28.8583V30.0964H14.0536L25.8267 19.5849C25.4246 18.063 24.3048 16.8408 22.8381 16.3045H22.846Z" stroke="#2C99F2" stroke-width="2" stroke-linecap="round" stroke-linejoin="round"/>
</svg>
