<svg width="32" height="32" viewBox="0 0 32 32" fill="none" xmlns="http://www.w3.org/2000/svg">
<path d="M15.998 2.28613V5.79684" stroke="#2C99F2" stroke-width="2" stroke-linecap="round" stroke-linejoin="round"/>
<path d="M7.20801 4.2793L9.28341 7.32242" stroke="#2C99F2" stroke-width="2" stroke-linecap="round" stroke-linejoin="round"/>
<path d="M22.7197 7.32242L24.7951 4.2793" stroke="#2C99F2" stroke-width="2" stroke-linecap="round" stroke-linejoin="round"/>
<path d="M22.7116 18.4233C23.0391 19.2838 22.5553 19.9796 21.6398 19.9796H10.356C9.44046 19.9796 8.96409 19.2763 9.28415 18.4233L11.4278 12.7741C11.7553 11.9136 12.7675 11.2178 13.6831 11.2178H18.3201C19.2356 11.2178 20.2479 11.9211 20.5754 12.7741L22.7116 18.4233Z" stroke="#252F3E" stroke-width="2" stroke-linecap="round" stroke-linejoin="round"/>
<path d="M15.8897 27.9803C16.2406 28.9347 15.7222 29.7149 14.7413 29.7149H2.65155C1.67065 29.7149 1.16026 28.9347 1.50318 27.9803L3.79992 21.7141C4.15081 20.7597 5.23538 19.9795 6.21628 19.9795H11.1846C12.1655 19.9795 13.2501 20.7597 13.601 21.7141L15.8897 27.9803Z" stroke="#252F3E" stroke-width="2" stroke-linecap="round" stroke-linejoin="round"/>
<path d="M30.4932 27.9803C30.8441 28.9347 30.3258 29.7149 29.3449 29.7149H17.2551C16.2742 29.7149 15.7638 28.9347 16.1067 27.9803L18.3955 21.7141C18.7464 20.7597 19.8309 19.9795 20.8118 19.9795H25.7801C26.761 19.9795 27.8456 20.7597 28.1965 21.7141L30.4853 27.9803H30.4932Z" stroke="#252F3E" stroke-width="2" stroke-linecap="round" stroke-linejoin="round"/>
</svg>
