<svg width="33" height="32" viewBox="0 0 33 32" fill="none" xmlns="http://www.w3.org/2000/svg">
<g clip-path="url(#clip0_1594_30468)">
<path d="M30.1484 17.1274H28.5009V3.10307C28.5009 2.49257 28 2 27.3791 2H6.11736C5.49647 2 4.99553 2.49257 4.99553 3.10307V17.1274H3.34807C2.46613 17.1274 1.75 17.8315 1.75 18.6987V28.4252C1.75 29.2924 2.46613 29.9965 3.34807 29.9965H30.1484C31.0303 29.9965 31.7465 29.2924 31.7465 28.4252V18.6987C31.7465 17.8315 31.0303 17.1274 30.1484 17.1274ZM26.2538 17.1274H22.9765C22.405 17.1274 21.8758 17.4257 21.5901 17.9148L20.2107 20.2631C19.925 20.7488 19.3958 21.0505 18.8243 21.0505H14.6651C14.0936 21.0505 13.5644 20.7522 13.2787 20.2631L11.8993 17.9148C11.6136 17.4291 11.0844 17.1274 10.5129 17.1274H7.23565V4.20614H26.2467V17.1274H26.2538Z" fill="#252F3E"/>
<path d="M22.9524 9.27431L20.9557 7.31445L15.2513 12.9235L12.5455 10.2629L10.5488 12.2228L15.2513 16.8467L22.9524 9.27431Z" fill="#252F3E"/>
</g>
<defs>
<clipPath id="clip0_1594_30468">
<rect width="30" height="28" fill="white" transform="translate(1.75 2)"/>
</clipPath>
</defs>
</svg>
