<svg width="33" height="32" viewBox="0 0 33 32" fill="none" xmlns="http://www.w3.org/2000/svg">
<g clip-path="url(#clip0_1594_6056)">
<path d="M16.3342 15.5274C18.38 15.5274 20.0385 13.8204 20.0385 11.7149C20.0385 9.60926 18.38 7.90234 16.3342 7.90234C14.2884 7.90234 12.6299 9.60926 12.6299 11.7149C12.6299 13.8204 14.2884 15.5274 16.3342 15.5274Z" fill="#252F3E"/>
<path d="M1.33398 1V22.4342H31.334V1H1.33398ZM28.8661 15.3737C26.7253 15.5915 25.0367 17.3888 24.9068 19.6169H7.76118C7.63129 17.3888 5.94752 15.5915 3.80191 15.3737V8.06057C5.94271 7.84271 7.63129 6.04539 7.76118 3.81235H24.9068C25.0367 6.04044 26.7204 7.83776 28.8661 8.06057V15.3737Z" fill="#252F3E"/>
<path d="M31.334 24.8701H1.33398V26.717H31.334V24.8701Z" fill="#252F3E"/>
<path d="M31.334 29.1533H1.33398V31.0002H31.334V29.1533Z" fill="#252F3E"/>
</g>
<defs>
<clipPath id="clip0_1594_6056">
<rect width="30" height="30" fill="white" transform="translate(1.33398 1)"/>
</clipPath>
</defs>
</svg>
