<svg width="33" height="32" viewBox="0 0 33 32" fill="none" xmlns="http://www.w3.org/2000/svg">
<g clip-path="url(#clip0_1594_32720)">
<path d="M9.25211 16.0352C8.83919 16.0352 8.50391 16.3703 8.50391 16.783V20.5119H11.7438V16.783C11.7438 16.3703 11.4085 16.0352 10.9956 16.0352H9.25564H9.25211Z" fill="#252F3E"/>
<path d="M15.4318 11.1885C15.0189 11.1885 14.6836 11.5236 14.6836 11.9364V20.5123H17.9234V11.9364C17.9234 11.5236 17.5882 11.1885 17.1752 11.1885H15.4353H15.4318Z" fill="#252F3E"/>
<path d="M28.3965 7.33584H24.1049V5.94591H25.9543C26.2543 5.94591 26.5225 5.76599 26.6389 5.49083C26.7519 5.21566 26.6919 4.89817 26.4801 4.6865L23.0109 1.21519C22.8732 1.07761 22.6826 1 22.4885 1C22.2944 1 22.1038 1.07761 21.9662 1.21519L18.497 4.68297C18.2852 4.89464 18.2217 5.21214 18.3381 5.4873C18.4511 5.76246 18.7228 5.94238 19.0228 5.94238H20.8721V20.5085H24.112V9.34313H27.3977V21.8278H5.41402V9.34666H19.8345V7.33584H4.40818C3.85409 7.33584 3.40234 7.78739 3.40234 8.34125V25.6907C3.40234 26.2446 3.85409 26.6961 4.40818 26.6961H12.2114V28.9892H10.4891C9.93499 28.9892 9.48324 29.4407 9.48324 29.9946C9.48324 30.5484 9.93499 31 10.4891 31H22.3156C22.8697 31 23.3214 30.5484 23.3214 29.9946C23.3214 29.4407 22.8697 28.9892 22.3156 28.9892H20.5933V26.6961H28.3965C28.9506 26.6961 29.4023 26.2446 29.4023 25.6907V8.34125C29.4023 7.78739 28.9506 7.33584 28.3965 7.33584ZM18.5817 28.9892H14.223V26.6961H18.5817V28.9892Z" fill="#252F3E"/>
</g>
<defs>
<clipPath id="clip0_1594_32720">
<rect width="26" height="30" fill="white" transform="translate(3.40234 1)"/>
</clipPath>
</defs>
</svg>
