<svg width="33" height="32" viewBox="0 0 33 32" fill="none" xmlns="http://www.w3.org/2000/svg">
<path d="M27.9928 19.5821C30.0673 17.5471 31.25 14.7809 31.25 11.8945C31.25 5.8858 26.2434 0.998047 20.0887 0.998047C15.0427 0.998047 10.7112 4.22608 9.35611 8.91177C4.68463 10.2107 1.25 14.4153 1.25 19.3896C1.25 22.2713 2.42773 25.0423 4.5023 27.0773L3.58081 29.7761C3.45762 30.1465 3.58081 30.5506 3.88633 30.796C4.0588 30.9355 4.2707 31.0029 4.48259 31.0029C4.65013 31.0029 4.81767 30.9596 4.97043 30.873L7.72011 29.2806C9.18364 29.9397 10.7901 30.2861 12.4064 30.2861C17.5016 30.2861 21.8085 26.9329 23.139 22.3723C23.7007 22.2184 24.2477 22.0211 24.77 21.7854L27.5197 23.3778C27.6725 23.4644 27.84 23.5077 28.0076 23.5077C28.2194 23.5077 28.4313 23.4403 28.6038 23.3008C28.9143 23.0555 29.0375 22.6514 28.9093 22.2809L27.9878 19.5821H27.9928ZM18.3738 18.1437L11.5785 24.7825C11.3026 25.0519 10.9281 25.2059 10.5338 25.2059C10.1396 25.2059 9.77004 25.0519 9.48916 24.7825L5.88699 21.2658C5.31045 20.703 5.31045 19.7938 5.88699 19.2309C6.46353 18.668 7.39488 18.668 7.97142 19.2309L10.5338 21.7325L16.2894 16.1135C16.866 15.5506 17.7973 15.5506 18.3738 16.1135C18.9504 16.6764 18.9504 17.5856 18.3738 18.1485V18.1437ZM26.2631 18.6199C25.9823 18.8653 25.8739 19.2549 25.997 19.6061L26.3026 20.4961L25.3072 19.9188C25.0214 19.7553 24.6715 19.7456 24.3807 19.8948C24.1097 20.0343 23.8239 20.1546 23.5381 20.27C23.5627 19.9766 23.5775 19.6831 23.5775 19.3896C23.5775 13.381 18.571 8.49324 12.4162 8.49324C12.1107 8.49324 11.8052 8.50767 11.5095 8.53172C12.8893 5.1305 16.2401 2.85501 20.0986 2.85501C25.1988 2.85501 29.3528 6.90568 29.3528 11.8896C29.3528 14.4538 28.2293 16.9025 26.273 18.6151L26.2631 18.6199Z" fill="#252F3E"/>
</svg>
