<svg width="33" height="32" viewBox="0 0 33 32" fill="none" xmlns="http://www.w3.org/2000/svg">
<g clip-path="url(#clip0_1594_28049)">
<path d="M16.2501 6.49316L5.63867 15.9254H26.8616L16.2501 6.49316Z" fill="#252F3E"/>
<path d="M3.00624 16.2755L16.2494 4.50216L29.4926 16.2755C29.6937 16.4542 29.9442 16.5435 30.1911 16.5435C30.4839 16.5435 30.7767 16.4184 30.9884 16.179C31.3729 15.7322 31.3306 15.0567 30.8896 14.6635L16.9479 2.26831C16.5493 1.91447 15.9496 1.91447 15.5509 2.26831L1.60925 14.6599C1.16829 15.0495 1.12595 15.7286 1.51048 16.1754C1.895 16.6222 2.56528 16.665 3.00624 16.2755Z" fill="#252F3E"/>
<path d="M29.7965 27.5303H2.7034C2.0296 27.5303 1.48633 28.0843 1.48633 28.7634C1.48633 29.4425 2.03313 29.9964 2.7034 29.9964H29.793C30.4668 29.9964 31.0101 29.4425 31.0101 28.7634C31.0101 28.0843 30.4633 27.5303 29.793 27.5303H29.7965Z" fill="#252F3E"/>
<path d="M2.375 24.9672C2.375 25.6499 2.9218 26.2003 3.59207 26.2003H28.9037C29.5775 26.2003 30.1208 25.6463 30.1208 24.9672C30.1208 24.2882 29.574 23.7342 28.9037 23.7342H26.3919V17.0576H23.8978V23.7342H20.4618V17.0576H17.9677V23.7342H14.5316V17.0576H12.0375V23.7342H8.60148V17.0576H6.10736V23.7342H3.5956C2.9218 23.7342 2.37853 24.2882 2.37853 24.9672H2.375Z" fill="#252F3E"/>
</g>
<defs>
<clipPath id="clip0_1594_28049">
<rect width="30" height="28" fill="white" transform="translate(1.25 2)"/>
</clipPath>
</defs>
</svg>
