<svg width="25" height="30" viewBox="0 0 25 30" fill="none" xmlns="http://www.w3.org/2000/svg">
<g id="icon" clip-path="url(#clip0_2150_2170)">
<path id="Vector" d="M16.4503 2.00024H14.9825C14.7362 0.853716 13.7966 0 12.669 0C11.5414 0 10.6017 0.853716 10.3555 2.00024H8.8877V6.70626H16.4503V2.00024Z" fill="#252F3E"/>
<path id="Vector_2" d="M23.3644 2.93555H18.1218V5.77186H22.0619V27.1641H3.2721V5.77186H7.21215V2.93555H1.96954C1.25022 2.93555 0.666992 3.57054 0.666992 4.3537V28.5823C0.666992 29.3655 1.25022 30.0005 1.96954 30.0005H23.3644C24.0838 30.0005 24.667 29.3655 24.667 28.5823V4.3537C24.667 3.57054 24.0838 2.93555 23.3644 2.93555Z" fill="#252F3E"/>
<path id="Vector_3" d="M6.6709 11.3489C6.6709 11.9028 7.0824 12.3473 7.58787 12.3473H17.7426C18.2513 12.3473 18.6596 11.8993 18.6596 11.3489C18.6596 10.7986 18.2481 10.3506 17.7426 10.3506H7.58787C7.07916 10.3506 6.6709 10.7986 6.6709 11.3489Z" fill="#252F3E"/>
<path id="Vector_4" d="M17.7458 15.5254H7.58787C7.08144 15.5254 6.6709 15.9724 6.6709 16.5237V16.5273C6.6709 17.0786 7.08144 17.5256 7.58787 17.5256H17.7458C18.2523 17.5256 18.6628 17.0786 18.6628 16.5273V16.5237C18.6628 15.9724 18.2523 15.5254 17.7458 15.5254Z" fill="#252F3E"/>
<path id="Vector_5" d="M17.7455 20.7012H7.5908C7.08209 20.7012 6.67383 21.1492 6.67383 21.6995C6.67383 22.2499 7.08533 22.6979 7.5908 22.6979H17.7455C18.2542 22.6979 18.6625 22.2499 18.6625 21.6995C18.6625 21.1492 18.251 20.7012 17.7455 20.7012Z" fill="#252F3E"/>
</g>
<defs>
<clipPath id="clip0_2150_2170">
<rect width="24" height="30" fill="white" transform="translate(0.666992)"/>
</clipPath>
</defs>
</svg>
