<svg width="33" height="32" viewBox="0 0 33 32" fill="none" xmlns="http://www.w3.org/2000/svg">
<g clip-path="url(#clip0_1594_20593)">
<path d="M14.1272 16.9984C18.3302 16.9984 21.7469 13.4106 21.7469 8.99741C21.7469 4.5842 18.3266 1 14.1272 1C9.92778 1 6.50391 4.58772 6.50391 9.00094C6.50391 13.4142 9.92421 17.0019 14.1236 17.0019L14.1272 16.9984ZM15.5175 5.22272C15.5175 5.22272 16.4181 7.80503 19.8492 8.99741C19.8492 12.377 17.2795 15.1251 14.1236 15.1251C10.9678 15.1251 8.40169 12.377 8.39812 9.00094C8.9914 9.01152 12.8835 8.9445 15.5139 5.22272H15.5175Z" fill="#252F3E"/>
<path d="M23.0152 18.8331C22.0645 17.8629 20.953 17.048 19.72 16.4307C18.1832 17.7289 16.2425 18.5085 14.1267 18.5085C12.0109 18.5085 10.0667 17.7289 8.53342 16.4307C4.50911 18.4485 1.75 22.5654 1.75 27.3244H19.1124C18.9087 26.6682 18.7979 25.9732 18.7979 25.2536C18.7979 22.3926 20.5313 19.9337 23.0152 18.8331Z" fill="#252F3E"/>
<path d="M25.9314 19.5098C22.7184 19.5098 20.1094 22.0815 20.1094 25.2565C20.1094 28.4315 22.7148 31.0032 25.9314 31.0032C29.148 31.0032 31.7534 28.4315 31.7534 25.2565C31.7534 22.0815 29.148 19.5098 25.9314 19.5098ZM29.584 24.6462L25.6562 28.5232C25.4703 28.7066 25.2237 28.7983 24.9807 28.7983C24.7377 28.7983 24.4911 28.7066 24.3052 28.5232L22.0679 26.3148C21.6962 25.9479 21.6962 25.3517 22.0679 24.9813C22.4396 24.6144 23.0436 24.6144 23.4189 24.9813L24.9807 26.5229L28.233 23.3127C28.6047 22.9458 29.2087 22.9458 29.584 23.3127C29.9557 23.6796 29.9557 24.2758 29.584 24.6462Z" fill="#252F3E"/>
</g>
<defs>
<clipPath id="clip0_1594_20593">
<rect width="30" height="30" fill="white" transform="translate(1.75 1)"/>
</clipPath>
</defs>
</svg>
