<svg width="32" height="32" viewBox="0 0 32 32" fill="none" xmlns="http://www.w3.org/2000/svg">
<g clip-path="url(#clip0_1594_32021)">
<path d="M16.6426 22.922H19.8105L19.6376 30.0004H24.3049L24.4777 22.922H27.6421L22.1423 17.3721L16.6426 22.922Z" fill="#252F3E"/>
<path d="M30.1216 2H10.4614C9.9746 2 9.58302 2.39871 9.58302 2.88642V10.2875L7.60042 8.28679H1V23.7012C1 25.239 2.23471 26.4886 3.76223 26.4886H18.4165L18.4624 24.2529H13.4565L21.2387 16.3998V11.6153H11.3434V3.77639H29.2397V22.9215H31V2.88642C31 2.39515 30.6049 2 30.1216 2Z" fill="#252F3E"/>
<path d="M24.7563 9.21273H15.2984C14.8045 9.21273 14.4023 8.8069 14.4023 8.30851C14.4023 7.81013 14.8045 7.4043 15.2984 7.4043H24.7563C25.2502 7.4043 25.6523 7.81013 25.6523 8.30851C25.6523 8.8069 25.2502 9.21273 24.7563 9.21273Z" fill="#252F3E"/>
</g>
<defs>
<clipPath id="clip0_1594_32021">
<rect width="30" height="28" fill="white" transform="translate(1 2)"/>
</clipPath>
</defs>
</svg>
